<svg width="149" height="162" viewBox="0 0 149 162" fill="none" xmlns="http://www.w3.org/2000/svg">
<g clip-path="url(#clip0_375_31766)">
<g clip-path="url(#clip1_375_31766)">
<path d="M129.265 28.1257C165.424 84.5732 108.673 166.09 43.8905 136.55C30.6185 130.487 20.5665 118.228 12.6239 106.368C5.99247 96.384 2.30422 84.7104 1.98127 72.6834C1.65832 60.6563 4.71371 48.7617 10.7978 38.3608C36.0197 -6.47422 102.299 -10.681 129.265 28.1257Z" stroke="#5FA4F8" stroke-width="2" stroke-linecap="round" stroke-linejoin="round"/>
<path d="M136.106 42.5784C141.559 57.8582 150.069 79.1113 147.35 95.5382C144.391 111.783 137.216 126.979 126.55 139.587C108.55 158.019 72.4018 167.06 47.7351 155.218C22.2551 142.686 12.862 120.65 3.62424 84.2358" stroke="#5FA4F8" stroke-width="2" stroke-linecap="round" stroke-linejoin="round"/>
<path d="M104.871 152.842C103.697 148.433 101.759 144.287 100.492 139.949" stroke="#5FA4F8" stroke-width="2" stroke-linecap="round" stroke-linejoin="round"/>
<path d="M85.3221 159.424C84.5385 154.22 83.6855 149.04 82.7401 143.931" stroke="#5FA4F8" stroke-width="2" stroke-linecap="round" stroke-linejoin="round"/>
<path d="M64.103 159.089C63.7609 154.276 63.9979 149.458 64.0727 144.619" stroke="#5FA4F8" stroke-width="2" stroke-linecap="round" stroke-linejoin="round"/>
<path d="M42.7201 152.055C42.7957 147.448 43.404 142.813 43.7807 138.179" stroke="#5FA4F8" stroke-width="2" stroke-linecap="round" stroke-linejoin="round"/>
<path d="M29.1827 143.133C29.4734 138.965 29.9761 134.814 30.6888 130.695" stroke="#5FA4F8" stroke-width="2" stroke-linecap="round" stroke-linejoin="round"/>
<path d="M19.4982 130.01C21.1996 126.551 22.53 123.025 24.2314 119.566" stroke="#5FA4F8" stroke-width="2" stroke-linecap="round" stroke-linejoin="round"/>
<path d="M120.845 144.038C118.247 137.97 116.125 131.705 114.498 125.3" stroke="#5FA4F8" stroke-width="2" stroke-linecap="round" stroke-linejoin="round"/>
<path d="M132.768 129.99C129.541 124.891 126.643 119.588 124.093 114.113" stroke="#5FA4F8" stroke-width="2" stroke-linecap="round" stroke-linejoin="round"/>
<path d="M140.699 113.514C137.851 109.483 135.289 105.255 133.032 100.861" stroke="#5FA4F8" stroke-width="2" stroke-linecap="round" stroke-linejoin="round"/>
<path d="M145.449 94.951C143.332 92.5748 141.469 90.0332 139.491 87.4928" stroke="#5FA4F8" stroke-width="2" stroke-linecap="round" stroke-linejoin="round"/>
<path fill-rule="evenodd" clip-rule="evenodd" d="M108.356 60.002C110.129 49.0843 101.986 43.1357 90.7934 39.117L94.6541 24.3403L85.777 22.016L82.8399 36.6052C80.5062 35.9942 77.2871 35.2142 74.9046 34.6414L78.6901 20.1593L67.4675 16.6016L65.9549 32.6066C64.0227 32.143 62.1259 31.6847 60.2852 31.2039L60.296 31.1578L48.0538 27.9465L44.3495 35.4781C44.3495 35.4781 52.1344 39.1439 51.9934 39.2377C55.5887 40.1806 56.2063 42.6022 56.0698 44.5165C52.5417 58.0217 49.0226 71.4886 45.4918 84.9963C45.0344 86.1016 43.8916 87.7554 41.3784 87.1018C41.4653 87.2335 34.926 85.4099 34.926 85.4099L28.0539 96.7587L41.9076 98.715C43.1976 99.0546 44.4719 99.4033 45.7329 99.7483C46.5582 102.318 45.4432 111.126 44.3341 115.375L53.201 117.699L57.0644 102.912C59.4858 103.601 61.8368 104.238 64.1377 104.838L60.2879 119.556L70.9688 122.488L73.0658 106.962C88.2162 110.004 100.644 109.363 105.651 95.5022C109.686 84.3423 104.724 77.4178 96.7909 73.1375C102.631 71.8302 107.072 67.9943 108.356 60.002ZM87.5849 88.7043C84.9121 98.952 69.4071 93.6586 62.1653 91.6525C61.5138 91.472 60.9316 91.3107 60.435 91.1811L65.2889 72.2894C65.8937 72.4479 66.633 72.6228 67.4704 72.8209C74.9648 74.5936 90.3234 78.2264 87.5849 88.7043ZM90.7575 59.6863C93.2456 50.1596 80.4375 47.1693 74.1823 45.709C73.4787 45.5447 72.858 45.3998 72.3513 45.2671L68.1951 61.4003C74.8337 62.5872 88.1616 69.6098 90.7575 59.6863Z" stroke="#5FA4F8" stroke-width="2" stroke-linecap="round" stroke-linejoin="round"/>
</g>
</g>
<defs>
<clipPath id="clip0_375_31766">
<rect width="149" height="162" fill="white"/>
</clipPath>
<clipPath id="clip1_375_31766">
<rect width="156.716" height="162.791" fill="white" transform="translate(39.8473 -27) rotate(26.1899)"/>
</clipPath>
</defs>
</svg>
