<svg width="25" height="24" viewBox="0 0 25 24" fill="none" xmlns="http://www.w3.org/2000/svg">
<path d="M23.7368 14.903C22.134 21.3316 15.6229 25.2439 9.19362 23.6408C2.76691 22.0381 -1.14544 15.5266 0.458053 9.09841C2.06004 2.66908 8.57112 -1.24364 14.9986 0.359096C21.4275 1.96183 25.3395 8.47404 23.7368 14.903Z" fill="currentColor"/>
<path fill-rule="evenodd" clip-rule="evenodd" d="M17.3193 10.5303C17.5534 8.95415 16.362 8.10685 14.7329 7.54162L15.2614 5.40653L13.9712 5.08263L13.4567 7.16146C13.1175 7.07632 12.7691 6.996 12.423 6.91641L12.9411 4.82389L11.6516 4.5L11.1228 6.63435C10.8421 6.56994 10.5665 6.50627 10.2989 6.43928L10.3004 6.43261L8.52106 5.98509L8.17783 7.37319C8.17783 7.37319 9.13512 7.59418 9.11491 7.60787C9.63747 7.73928 9.73191 8.0876 9.71611 8.36374C9.2332 10.3151 8.75153 12.2609 8.26824 14.2127C8.20429 14.3726 8.04223 14.6124 7.67696 14.5214C7.68982 14.5403 6.73915 14.2856 6.73915 14.2856L6.09863 15.7733L7.77765 16.1949C7.96514 16.2422 8.15038 16.2909 8.33369 16.339C8.45573 16.3711 8.57703 16.4029 8.69745 16.434L8.1635 18.5935L9.45226 18.9174L9.98106 16.7808C10.3331 16.8771 10.6749 16.9659 11.0093 17.0496L10.4823 19.1762L11.7725 19.5001L12.3065 17.3446C14.5066 17.764 16.161 17.5948 16.8573 15.5904C17.4185 13.9765 16.8294 13.0455 15.6719 12.4385C16.5149 12.2427 17.1499 11.6841 17.3193 10.5303ZM14.371 14.6942C14.0052 16.1749 11.7044 15.5627 10.6516 15.2826C10.5569 15.2574 10.4722 15.2349 10.4001 15.2169L11.1086 12.3559C11.1965 12.378 11.3039 12.4023 11.4256 12.4298C12.5144 12.6759 14.7459 13.1802 14.371 14.6942ZM11.6445 11.1021C12.5223 11.338 14.4368 11.8527 14.7703 10.5069C15.1109 9.13043 13.2501 8.71549 12.3413 8.51284C12.2391 8.49004 12.1489 8.46993 12.0752 8.45144L11.4329 11.0463C11.4936 11.0615 11.5648 11.0806 11.6445 11.1021Z" fill="#060F2B"/>
</svg>