<svg width="310" height="206" viewBox="0 0 310 206" fill="none" xmlns="http://www.w3.org/2000/svg" class="" style="">
<path d="M133.259 105.813C133.259 103.604 135.05 101.813 137.259 101.813H138.657H144.595L149.613 102.315C149.865 102.34 150.12 102.341 150.373 102.318L155.93 101.813H174.83C176.948 101.813 178.699 103.464 178.823 105.578L179.142 110.99L178.602 120.166V129.343V134.423C178.602 136.669 176.752 138.475 174.507 138.422L155.93 137.979L137.354 138.422C135.108 138.475 133.259 136.669 133.259 134.423V105.813Z" stroke="white" stroke-width="3" class="hyHuBvsd_0"/>
<path fill="white" d="M150.53203000000002,115.848A5.39797,5.39797 0,1,1 161.32797,115.848A5.39797,5.39797 0,1,1 150.53203000000002,115.848" class="hyHuBvsd_1"/>
<path d="M155.93 116.927V129.882" stroke="white" stroke-width="3" stroke-linecap="round" class="hyHuBvsd_2"/>
<path d="M144.055 101.273V94.7957C144.055 88.5351 149.13 83.46 155.39 83.46C159.922 83.46 163.832 86.1187 165.647 89.9613" stroke="white" stroke-width="3" stroke-linecap="round" class="hyHuBvsd_3"/>
<path d="M118.613 114.815L124.465 120.393L118.613 125.789" stroke="white" stroke-width="3" stroke-linecap="round" stroke-linejoin="round" class="hyHuBvsd_4"/>
<path d="M189.464 114.815L195.316 120.393L189.464 125.789" stroke="white" stroke-width="3" stroke-linecap="round" stroke-linejoin="round" class="hyHuBvsd_5"/>
<path d="M27.0866 138.65C17.4781 138.65 9.50319 128.718 7.93814 115.675L7.76356 115.675C5.89298 115.675 4.37158 113.485 4.37158 110.775C4.37158 108.065 5.89298 105.875 7.76356 105.875L7.98803 105.875C9.67778 93.0427 17.5841 83.3225 27.0866 83.3225C36.5891 83.3225 44.5016 93.0427 46.1852 105.882L99.0788 105.882C101.635 105.882 103.712 108.071 103.712 110.782C103.712 113.492 101.641 115.681 99.0788 115.681L96.5161 115.681L96.5161 132.095L90.2314 132.095L90.2314 124.801L84.0826 124.801L84.0826 132.095L77.5984 132.095L77.5984 115.681L46.235 115.681C44.67 128.725 36.6951 138.656 27.0866 138.656L27.0866 138.65ZM27.0118 91.7634C21.5435 91.7634 17.1102 96.452 17.1102 102.235C17.1102 105.803 18.7999 108.955 21.3813 110.841C18.8062 112.734 17.1102 115.879 17.1102 119.447C17.1102 125.23 21.5435 129.919 27.0118 129.919C32.4801 129.919 36.9133 125.23 36.9133 119.447C36.9133 115.879 35.2236 112.727 32.6422 110.841C35.2174 108.948 36.9133 105.803 36.9133 102.235C36.9133 96.452 32.4801 91.7634 27.0118 91.7634Z" stroke="white" stroke-width="3" stroke-linecap="round" stroke-linejoin="round" class="hyHuBvsd_6"/>
<path d="M221.922 87.3045L279.57 71.5487C283.863 70.3753 288.147 73.4541 288.403 77.8975L288.947 87.3045" stroke="white" stroke-width="3" stroke-linecap="round" stroke-linejoin="round" class="hyHuBvsd_7"/>
<path d="M297.679 112.115V96.3044C297.679 91.3339 293.65 87.3044 288.679 87.3044H223.722C218.751 87.3044 214.722 91.3339 214.722 96.3044V143.709C214.722 148.679 218.751 152.709 223.722 152.709H288.679C293.65 152.709 297.679 148.679 297.679 143.709V127.444" stroke="white" stroke-width="3" stroke-linecap="round" stroke-linejoin="round" class="hyHuBvsd_8"/>
<path d="M290.086 107.407V97.8079C290.086 96.151 288.743 94.8079 287.086 94.8079H225.315C223.659 94.8079 222.315 96.151 222.315 97.8079V142.205C222.315 143.862 223.659 145.205 225.315 145.205H287.086C288.743 145.205 290.086 143.862 290.086 142.205V132.606" stroke="white" stroke-width="3" stroke-linecap="round" stroke-linejoin="round" stroke-dasharray="10 10" class="hyHuBvsd_9"/>
<path d="M271.951 120.007C271.951 116.03 275.174 112.807 279.15 112.807H300.355C301.459 112.807 302.355 113.703 302.355 114.807V125.206C302.355 126.311 301.459 127.206 300.355 127.206H279.15C275.174 127.206 271.951 123.983 271.951 120.007V120.007Z" stroke="white" stroke-width="3" stroke-linecap="round" stroke-linejoin="round" class="hyHuBvsd_10"/>
<path d="M153.588 56.0239C154.758 59.3693 157.672 70.62 158.547 74.0385" stroke="white" stroke-width="3" stroke-linecap="round" class="hyHuBvsd_11"/>
<path d="M174.259 53.7116C173.242 56.2666 168.346 73.959 166.818 76.1565" stroke="white" stroke-width="3" stroke-linecap="round" class="hyHuBvsd_12"/>
<path d="M185.004 68.8213C182.933 72.6025 176.473 79.6621 175.019 81.685" stroke="white" stroke-width="3" stroke-linecap="round" class="hyHuBvsd_13"/>
<style data-made-with="vivus-instant">.hyHuBvsd_0{stroke-dasharray:158 160;stroke-dashoffset:159;}.start .hyHuBvsd_0{animation:hyHuBvsd_draw 1000ms linear 0ms forwards;}.hyHuBvsd_1{stroke-dasharray:34 36;stroke-dashoffset:35;}.start .hyHuBvsd_1{animation:hyHuBvsd_draw 1000ms linear 0ms forwards;}.hyHuBvsd_2{stroke-dasharray:13 15;stroke-dashoffset:14;}.start .hyHuBvsd_2{animation:hyHuBvsd_draw 1000ms linear 0ms forwards;}.hyHuBvsd_3{stroke-dasharray:38 40;stroke-dashoffset:39;}.start .hyHuBvsd_3{animation:hyHuBvsd_draw 1000ms linear 0ms forwards;}.hyHuBvsd_4{stroke-dasharray:17 19;stroke-dashoffset:18;}.start .hyHuBvsd_4{animation:hyHuBvsd_draw 1000ms linear 0ms forwards;}.hyHuBvsd_5{stroke-dasharray:17 19;stroke-dashoffset:18;}.start .hyHuBvsd_5{animation:hyHuBvsd_draw 1000ms linear 0ms forwards;}.hyHuBvsd_6{stroke-dasharray:416 418;stroke-dashoffset:417;}.start .hyHuBvsd_6{animation:hyHuBvsd_draw 1000ms linear 0ms forwards;}.hyHuBvsd_7{stroke-dasharray:82 84;stroke-dashoffset:83;}.start .hyHuBvsd_7{animation:hyHuBvsd_draw 1000ms linear 0ms forwards;}.hyHuBvsd_8{stroke-dasharray:266 268;stroke-dashoffset:267;}.start .hyHuBvsd_8{animation:hyHuBvsd_draw 1000ms linear 0ms forwards;}.hyHuBvsd_9{stroke-dasharray:206 208;stroke-dashoffset:207;}.start .hyHuBvsd_9{animation:hyHuBvsd_draw 1000ms linear 0ms forwards;}.hyHuBvsd_10{stroke-dasharray:82 84;stroke-dashoffset:83;}.start .hyHuBvsd_10{animation:hyHuBvsd_draw 1000ms linear 0ms forwards;}.hyHuBvsd_11{stroke-dasharray:19 21;stroke-dashoffset:20;}.start .hyHuBvsd_11{animation:hyHuBvsd_draw 1000ms linear 0ms forwards;}.hyHuBvsd_12{stroke-dasharray:24 26;stroke-dashoffset:25;}.start .hyHuBvsd_12{animation:hyHuBvsd_draw 1000ms linear 0ms forwards;}.hyHuBvsd_13{stroke-dasharray:17 19;stroke-dashoffset:18;}.start .hyHuBvsd_13{animation:hyHuBvsd_draw 1000ms linear 0ms forwards;}@keyframes hyHuBvsd_draw{100%{stroke-dashoffset:0;}}@keyframes hyHuBvsd_fade{0%{stroke-opacity:1;}92.3076923076923%{stroke-opacity:1;}100%{stroke-opacity:0;}}</style></svg>