<svg viewBox="0 0 144 70" fill="none" xmlns="http://www.w3.org/2000/svg">
	<g clip-path="url(#clip0_1684_52203)">
		<path d="M37.6231 13.1309H52.0589V15.8403H46.3749V31.1137H43.2595V15.8403H37.5994L37.6231 13.1309ZM51.4405 18.0941H54.1041V20.6117H54.1517C54.2468 20.2521 54.4133 19.9164 54.6511 19.5807C54.8889 19.245 55.1743 18.9333 55.531 18.6696C55.864 18.3818 56.2445 18.1661 56.6726 17.9982C57.0769 17.8304 57.505 17.7345 57.933 17.7345C58.266 17.7345 58.5038 17.7584 58.6227 17.7584C58.7416 17.7824 58.8843 17.8064 59.0032 17.8064V20.5638C58.813 20.5158 58.5989 20.4918 58.3849 20.4679C58.1709 20.4439 57.9806 20.4199 57.7666 20.4199C57.2909 20.4199 56.8391 20.5158 56.411 20.7076C55.9829 20.8994 55.6262 21.1872 55.2932 21.5468C54.9841 21.9305 54.7225 22.386 54.5322 22.9375C54.3419 23.489 54.2468 24.1364 54.2468 24.8557V31.0418H51.393L51.4405 18.0941ZM72.0834 31.1137H69.2771V29.2914H69.2295C68.8728 29.9628 68.3496 30.4663 67.6599 30.8739C66.9702 31.2815 66.2568 31.4734 65.5433 31.4734C63.8548 31.4734 62.6181 31.0657 61.8571 30.2026C61.096 29.3634 60.7155 28.0686 60.7155 26.3662V18.0941H63.5694V26.0785C63.5694 27.2294 63.7834 28.0446 64.2353 28.5002C64.6634 28.9797 65.2817 29.2195 66.0665 29.2195C66.661 29.2195 67.1605 29.1236 67.5648 28.9318C67.9691 28.74 68.302 28.5002 68.5398 28.1885C68.8014 27.8768 68.9679 27.4931 69.0868 27.0616C69.2057 26.63 69.2533 26.1504 69.2533 25.6469V18.0941H72.1071V31.1137H72.0834ZM76.9349 26.9417C77.03 27.7809 77.3392 28.3563 77.8862 28.716C78.4332 29.0517 79.0991 29.2195 79.8601 29.2195C80.1217 29.2195 80.4309 29.1955 80.7638 29.1476C81.0968 29.0996 81.4297 29.0277 81.7151 28.9078C82.0243 28.7879 82.2621 28.6201 82.4523 28.3803C82.6426 28.1405 82.7377 27.8528 82.7139 27.4932C82.6902 27.1335 82.5713 26.8218 82.3097 26.582C82.0481 26.3422 81.7389 26.1744 81.3584 26.0066C80.9779 25.8627 80.526 25.7428 80.0266 25.6469C79.5272 25.551 79.0277 25.4311 78.5045 25.3112C77.9813 25.1913 77.4581 25.0475 76.9587 24.8796C76.4593 24.7118 76.0312 24.496 75.6269 24.1843C75.2464 23.8966 74.9134 23.5369 74.6994 23.0814C74.4616 22.6258 74.3427 22.0983 74.3427 21.4269C74.3427 20.7076 74.5091 20.1322 74.8659 19.6526C75.1988 19.1731 75.6507 18.7895 76.1739 18.5017C76.6971 18.214 77.2916 17.9982 77.9338 17.8783C78.5759 17.7584 79.1942 17.7105 79.765 17.7105C80.4309 17.7105 81.073 17.7824 81.6675 17.9263C82.2621 18.0701 82.8329 18.2859 83.3085 18.6216C83.8079 18.9333 84.2122 19.3649 84.5214 19.8684C84.8543 20.3719 85.0446 20.9954 85.1397 21.7147H82.167C82.0243 21.0193 81.7151 20.5638 81.2395 20.324C80.74 20.0842 80.193 19.9643 79.5509 19.9643C79.3607 19.9643 79.0991 19.9883 78.8375 20.0123C78.5521 20.0602 78.3143 20.1082 78.0527 20.2041C77.8148 20.3 77.6008 20.4439 77.4343 20.6117C77.2679 20.7796 77.1727 21.0193 77.1727 21.3071C77.1727 21.6667 77.2916 21.9305 77.5295 22.1462C77.7673 22.362 78.0764 22.5299 78.4807 22.6977C78.8613 22.8416 79.3131 22.9615 79.8125 23.0574C80.312 23.1533 80.8352 23.2732 81.3584 23.3931C81.8816 23.5129 82.381 23.6568 82.8804 23.8246C83.3798 23.9925 83.8317 24.2083 84.2122 24.52C84.5927 24.8077 84.9257 25.1674 85.1635 25.599C85.4013 26.0305 85.5202 26.582 85.5202 27.2054C85.5202 27.9727 85.3538 28.6201 84.997 29.1715C84.6403 29.699 84.1884 30.1546 83.6415 30.4903C83.0945 30.826 82.4523 31.0657 81.7864 31.2336C81.0968 31.3774 80.4309 31.4734 79.765 31.4734C78.9564 31.4734 78.1954 31.3774 77.5057 31.1856C76.816 30.9938 76.1977 30.7061 75.6982 30.3464C75.1988 29.9628 74.7945 29.5072 74.5091 28.9318C74.2237 28.3803 74.0573 27.7089 74.0335 26.9177H76.9111V26.9417H76.9349ZM86.3288 18.0941H88.493V14.1619H91.3468V18.0701H93.9153V20.2041H91.3468V27.1575C91.3468 27.4692 91.3706 27.7089 91.3944 27.9487C91.4182 28.1645 91.4895 28.3563 91.5609 28.5002C91.656 28.644 91.7987 28.7639 91.9652 28.8359C92.1554 28.9078 92.3932 28.9558 92.7262 28.9558C92.9165 28.9558 93.1305 28.9558 93.3207 28.9318C93.511 28.9078 93.725 28.8838 93.9153 28.8359V31.0657C93.6061 31.1137 93.297 31.1377 92.9878 31.1616C92.6786 31.2096 92.3933 31.2096 92.0603 31.2096C91.2993 31.2096 90.7047 31.1377 90.2529 30.9938C89.801 30.8499 89.4443 30.6342 89.1827 30.3704C88.9211 30.0827 88.7546 29.747 88.6595 29.3394C88.5643 28.9318 88.5168 28.4283 88.493 27.9008V20.2281H86.3288V18.0462V18.0941ZM95.913 18.0941H98.6004V19.8684H98.6479C99.0522 19.1012 99.5992 18.5737 100.313 18.238C101.026 17.9023 101.787 17.7345 102.643 17.7345C103.666 17.7345 104.546 17.9023 105.307 18.2859C106.068 18.6456 106.686 19.1251 107.186 19.7725C107.685 20.3959 108.066 21.1392 108.303 21.9784C108.541 22.8176 108.684 23.7287 108.684 24.6638C108.684 25.551 108.565 26.3902 108.351 27.2054C108.113 28.0206 107.78 28.7639 107.328 29.3873C106.877 30.0107 106.306 30.5143 105.592 30.8979C104.879 31.2815 104.07 31.4734 103.119 31.4734C102.715 31.4734 102.287 31.4254 101.882 31.3535C101.478 31.2815 101.074 31.1617 100.693 30.9938C100.313 30.826 99.9559 30.6102 99.6468 30.3464C99.3138 30.0827 99.0522 29.771 98.8382 29.4353H98.7906V35.9331H95.9368V18.0941H95.913ZM105.878 24.6159C105.878 24.0404 105.806 23.465 105.64 22.9135C105.497 22.362 105.259 21.8825 104.95 21.4509C104.641 21.0193 104.261 20.6836 103.832 20.4199C103.381 20.1562 102.857 20.0363 102.287 20.0363C101.097 20.0363 100.194 20.4439 99.5754 21.2831C98.9809 22.1223 98.6717 23.2492 98.6717 24.6399C98.6717 25.3112 98.7431 25.9107 98.9095 26.4621C99.076 27.0136 99.29 27.4931 99.623 27.9008C99.9322 28.3084 100.313 28.6201 100.765 28.8598C101.216 29.0996 101.716 29.2195 102.31 29.2195C102.976 29.2195 103.499 29.0756 103.951 28.8119C104.403 28.5481 104.76 28.1885 105.069 27.7809C105.354 27.3493 105.569 26.8697 105.687 26.3183C105.806 25.7428 105.878 25.1913 105.878 24.6159ZM110.896 13.1309H113.75V15.8403H110.896V13.1309ZM110.896 18.0941H113.75V31.1137H110.896V18.0941ZM116.294 13.1309H119.148V31.1137H116.294V13.1309ZM127.852 31.4734C126.83 31.4734 125.902 31.3055 125.094 30.9459C124.285 30.5862 123.619 30.1306 123.048 29.5312C122.501 28.9318 122.073 28.1885 121.788 27.3493C121.502 26.5101 121.336 25.575 121.336 24.5919C121.336 23.6089 121.479 22.6977 121.788 21.8585C122.073 21.0193 122.501 20.3 123.048 19.6766C123.595 19.0772 124.285 18.5976 125.094 18.262C125.902 17.9263 126.83 17.7345 127.852 17.7345C128.875 17.7345 129.802 17.9023 130.611 18.262C131.42 18.5976 132.086 19.0772 132.656 19.6766C133.203 20.276 133.631 21.0193 133.917 21.8585C134.202 22.6977 134.369 23.6089 134.369 24.5919C134.369 25.599 134.226 26.5101 133.917 27.3493C133.608 28.1885 133.203 28.9078 132.656 29.5312C132.109 30.1306 131.42 30.6102 130.611 30.9459C129.802 31.2815 128.899 31.4734 127.852 31.4734ZM127.852 29.1955C128.471 29.1955 129.041 29.0517 129.493 28.7879C129.969 28.5242 130.326 28.1645 130.635 27.7329C130.944 27.3013 131.158 26.7978 131.301 26.2703C131.443 25.7188 131.515 25.1674 131.515 24.5919C131.515 24.0404 131.443 23.489 131.301 22.9375C131.158 22.386 130.944 21.9065 130.635 21.4749C130.326 21.0433 129.945 20.7076 129.493 20.4439C129.018 20.1801 128.471 20.0363 127.852 20.0363C127.234 20.0363 126.663 20.1801 126.211 20.4439C125.736 20.7076 125.379 21.0673 125.07 21.4749C124.761 21.9065 124.547 22.386 124.404 22.9375C124.261 23.489 124.19 24.0404 124.19 24.5919C124.19 25.1674 124.261 25.7188 124.404 26.2703C124.547 26.8218 124.761 27.3013 125.07 27.7329C125.379 28.1645 125.759 28.5242 126.211 28.7879C126.687 29.0756 127.234 29.1955 127.852 29.1955ZM135.225 18.0941H137.389V14.1619H140.243V18.0701H142.811V20.2041H140.243V27.1575C140.243 27.4692 140.267 27.7089 140.29 27.9487C140.314 28.1645 140.385 28.3563 140.457 28.5002C140.552 28.644 140.695 28.7639 140.861 28.8359C141.051 28.9078 141.289 28.9558 141.622 28.9558C141.812 28.9558 142.026 28.9558 142.217 28.9318C142.407 28.9078 142.621 28.8838 142.811 28.8359V31.0657C142.502 31.1137 142.193 31.1377 141.884 31.1616C141.575 31.2096 141.289 31.2096 140.956 31.2096C140.195 31.2096 139.601 31.1377 139.149 30.9938C138.697 30.8499 138.34 30.6342 138.079 30.3704C137.817 30.0827 137.651 29.747 137.555 29.3394C137.46 28.9318 137.413 28.4283 137.389 27.9008V20.2281H135.225V18.0462V18.0462V18.0941Z" fill="currentColor" />
		<path d="M34.2937 13.1308H21.2374L17.2182 0.614746L13.1753 13.1308L0.118896 13.1068L10.6781 20.8514L6.63518 33.3675L17.1944 25.6229L27.7537 33.3675L23.7345 20.8514L34.2937 13.1308Z" fill="#00A76A" />
		<path d="M24.6383 23.6809L23.7346 20.8516L17.2183 25.623L24.6383 23.6809Z" fill="#005128" />
	</g>
	<path fill-rule="evenodd" clip-rule="evenodd" d="M0 66.0501C0 67.9845 1.56815 69.5526 3.50256 69.5526H22.1829C24.1173 69.5526 25.6854 67.9845 25.6854 66.0501V47.3697C25.6854 45.4353 24.1173 43.8672 22.1829 43.8672H3.50256C1.56815 43.8672 0 45.4353 0 47.3697V66.0501Z" fill="#00A76A" />
	<path fill-rule="evenodd" clip-rule="evenodd" d="M20.9542 55.2165C21.4224 54.8896 21.1911 54.1543 20.62 54.1542L15.7394 54.1535C15.489 54.1535 15.2665 53.9938 15.1864 53.7566L13.6635 49.2495C13.4847 48.7203 12.7362 48.7203 12.5574 49.2494L11.0346 53.7556C10.9545 53.9928 10.7319 54.1525 10.4815 54.1525L5.60118 54.1518C5.03011 54.1517 4.79864 54.8871 5.26678 55.2141L9.1753 57.9447C9.38797 58.0933 9.47707 58.3644 9.39401 58.6101L7.89204 63.0542C7.71164 63.588 8.31737 64.0423 8.77931 63.7197L13.1112 60.6945L16.6872 58.197L20.9542 55.2165ZM14.1632 61.4294C13.7525 61.1425 13.8703 60.5055 14.3564 60.3844L16.6662 59.8092C16.9611 59.7358 17.263 59.9009 17.3603 60.1888L18.3285 63.0539C18.5089 63.5877 17.9031 64.042 17.4412 63.7193L14.1632 61.4294Z" fill="white" />
	<path fill-rule="evenodd" clip-rule="evenodd" d="M29.188 66.0501C29.188 67.9845 30.7561 69.5526 32.6905 69.5526H51.3709C53.3053 69.5526 54.8734 67.9845 54.8734 66.0501V47.3697C54.8734 45.4353 53.3053 43.8672 51.3709 43.8672H32.6905C30.7561 43.8672 29.188 45.4353 29.188 47.3697V66.0501Z" fill="#00A76A" />
	<path fill-rule="evenodd" clip-rule="evenodd" d="M50.1421 55.2165C50.6102 54.8896 50.3789 54.1543 49.8079 54.1542L44.9272 54.1535C44.6769 54.1535 44.4544 53.9938 44.3743 53.7566L42.8514 49.2495C42.6726 48.7203 41.9241 48.7203 41.7453 49.2494L40.2225 53.7556C40.1423 53.9928 39.9198 54.1525 39.6694 54.1525L34.789 54.1518C34.218 54.1517 33.9865 54.8871 34.4546 55.2141L38.3632 57.9447C38.5758 58.0933 38.6649 58.3644 38.5819 58.6101L37.0799 63.0542C36.8995 63.588 37.5052 64.0423 37.9672 63.7197L42.299 60.6945L45.875 58.197L50.1421 55.2165ZM43.3511 61.4294C42.9403 61.1425 43.0581 60.5055 43.5443 60.3844L45.854 59.8092C46.1489 59.7358 46.4508 59.9009 46.5481 60.1888L47.5164 63.0539C47.6968 63.5877 47.091 64.042 46.629 63.7193L43.3511 61.4294Z" fill="white" />
	<path fill-rule="evenodd" clip-rule="evenodd" d="M58.376 66.0501C58.376 67.9845 59.9441 69.5526 61.8785 69.5526H80.5588C82.4933 69.5526 84.0614 67.9845 84.0614 66.0501V47.3697C84.0614 45.4353 82.4933 43.8672 80.5589 43.8672H61.8785C59.9441 43.8672 58.376 45.4353 58.376 47.3697V66.0501Z" fill="#00A76A" />
	<path fill-rule="evenodd" clip-rule="evenodd" d="M79.3302 55.2165C79.7983 54.8896 79.567 54.1543 78.996 54.1542L74.1153 54.1535C73.865 54.1535 73.6425 53.9938 73.5624 53.7566L72.0395 49.2495C71.8607 48.7203 71.1122 48.7203 70.9334 49.2494L69.4106 53.7556C69.3305 53.9928 69.1079 54.1525 68.8575 54.1525L63.9772 54.1518C63.4061 54.1517 63.1746 54.8871 63.6428 55.2141L67.5513 57.9447C67.7639 58.0933 67.853 58.3644 67.77 58.6101L66.268 63.0542C66.0876 63.588 66.6933 64.0423 67.1553 63.7197L71.4871 60.6945L75.0631 58.197L79.3302 55.2165ZM72.5392 61.4294C72.1284 61.1425 72.2462 60.5055 72.7324 60.3844L75.0421 59.8092C75.337 59.7358 75.6389 59.9009 75.7362 60.1888L76.7045 63.0539C76.8849 63.5877 76.2791 64.042 75.8172 63.7193L72.5392 61.4294Z" fill="white" />
	<path fill-rule="evenodd" clip-rule="evenodd" d="M87.564 66.0501C87.564 67.9845 89.1321 69.5526 91.0665 69.5526H109.747C111.681 69.5526 113.249 67.9845 113.249 66.0501V47.3697C113.249 45.4353 111.681 43.8672 109.747 43.8672H91.0665C89.1321 43.8672 87.564 45.4353 87.564 47.3697V66.0501Z" fill="#00A76A" />
	<path fill-rule="evenodd" clip-rule="evenodd" d="M108.518 55.2165C108.986 54.8896 108.755 54.1543 108.184 54.1542L103.303 54.1535C103.053 54.1535 102.83 53.9938 102.75 53.7566L101.227 49.2495C101.049 48.7203 100.3 48.7203 100.121 49.2494L98.5985 53.7556C98.5183 53.9928 98.2958 54.1525 98.0454 54.1525L93.165 54.1518C92.594 54.1517 92.3625 54.8871 92.8306 55.2141L96.7391 57.9447C96.9518 58.0933 97.0409 58.3644 96.9578 58.6101L95.4559 63.0542C95.2755 63.588 95.8812 64.0423 96.3432 63.7197L100.675 60.6945L104.251 58.197L108.518 55.2165ZM101.727 61.4294C101.316 61.1425 101.434 60.5055 101.92 60.3844L104.23 59.8092C104.525 59.7358 104.827 59.9009 104.924 60.1888L105.892 63.0539C106.073 63.5877 105.467 64.042 105.005 63.7193L101.727 61.4294Z" fill="white" />
	<path fill-rule="evenodd" clip-rule="evenodd" d="M116.752 66.0501C116.752 67.9845 118.32 69.5526 120.255 69.5526H138.935C140.869 69.5526 142.437 67.9845 142.437 66.0501V47.3697C142.437 45.4353 140.869 43.8672 138.935 43.8672H120.255C118.32 43.8672 116.752 45.4353 116.752 47.3697V66.0501Z" fill="#00A76A" />
	<path fill-rule="evenodd" clip-rule="evenodd" d="M142.438 66.0501C142.438 67.9845 140.869 69.5526 138.935 69.5526H131.396V43.8672H138.935C140.869 43.8672 142.438 45.4353 142.438 47.3697V66.0501Z" fill="#00A76A" />
	<path fill-rule="evenodd" clip-rule="evenodd" d="M137.706 55.2165C138.174 54.8896 137.943 54.1543 137.372 54.1542L132.491 54.1535C132.241 54.1535 132.018 53.9938 131.938 53.7566L130.415 49.2495C130.236 48.7203 129.488 48.7203 129.309 49.2494L127.786 53.7556C127.706 53.9928 127.484 54.1525 127.233 54.1525L122.353 54.1518C121.782 54.1517 121.55 54.8871 122.018 55.2141L125.927 57.9447C126.14 58.0933 126.229 58.3644 126.146 58.6101L124.644 63.0542C124.463 63.588 125.069 64.0423 125.531 63.7197L129.863 60.6945L133.439 58.197L137.706 55.2165ZM130.915 61.4294C130.504 61.1425 130.622 60.5055 131.108 60.3844L133.418 59.8092C133.713 59.7358 134.015 59.9009 134.112 60.1888L135.08 63.0539C135.261 63.5877 134.655 64.042 134.193 63.7193L130.915 61.4294Z" fill="white" />
	<defs>
		<clipPath id="clip0_1684_52203">
			<rect width="142.93" height="35.4861" fill="white" transform="translate(0 0.495117)" />
		</clipPath>
	</defs>
</svg>