<svg width="310" height="206" viewBox="0 0 310 206" fill="none" xmlns="http://www.w3.org/2000/svg" class="" style="">
<g clip-path="url(#clip0_394_22466)">
<path d="M4.60441 78.493C4.12498 78.5596 3.61892 78.5196 3.15281 78.6261C2.4603 78.786 1.83439 79.039 1.43486 79.4119C0.955436 79.8513 0.609183 80.4639 0.209661 81.2763C0.0498517 81.5959 -0.00341797 82.4216 -0.00341797 82.8078C-0.00341797 83.8333 0.302883 84.7921 0.902167 85.5512C1.4615 86.2703 2.16732 86.803 2.88646 86.8829C3.00632 86.8829 3.25935 86.9495 3.39252 86.9495C3.59229 86.9495 3.65887 86.9495 3.85863 86.9495C4.73758 86.9495 6.33567 86.257 6.33567 85.458C6.33567 85.0851 5.88288 84.872 5.48336 84.872C5.13711 84.872 5.01725 84.9652 4.77754 85.0984C4.52451 85.2715 4.19157 85.3648 3.99181 85.3648C3.12618 85.3648 2.44699 84.8853 2.0741 84.073C1.88766 83.6868 1.82107 83.3006 1.82107 82.7545C1.82107 81.809 2.06078 81.1298 2.75329 80.5971C2.96637 80.4506 3.32594 80.2376 3.59229 80.1443C3.87195 80.0644 4.19157 80.0511 4.49787 80.0511C4.63105 80.0511 4.76422 80.0511 4.88408 80.0511C5.17706 80.0511 5.49668 80.1576 5.80298 80.1576C6.14923 80.1177 6.48217 79.6782 6.48217 79.292C6.48217 78.706 5.21701 78.493 4.65768 78.493C4.64436 78.493 4.61773 78.493 4.60441 78.493Z" fill="white" class="haCuXWhM_0"/>
<path d="M10.8465 78.3465C9.82111 78.453 8.68913 78.9458 8.19638 79.9313C7.75691 80.6504 7.74359 81.01 7.61041 81.6226C7.54383 81.7824 7.49056 82.1819 7.49056 82.4083C7.49056 82.5947 7.51719 82.7679 7.53051 82.9543C7.53051 83.0875 7.50387 83.2207 7.50387 83.3538C7.50387 83.5669 7.61041 83.8066 7.65037 84.0197C7.69032 84.1529 7.677 84.286 7.71695 84.4192C8.15643 85.7643 9.39495 87.0561 10.8465 87.0561C12.3115 87.0561 13.8296 86.6832 14.682 84.5524C14.8285 84.1928 14.8551 83.4471 14.8551 83.2606C14.8551 83.0875 14.8418 82.901 14.8418 82.7279C14.8418 82.5548 14.8551 82.1153 14.8551 81.9555C14.8551 81.1431 14.4156 80.2109 14.0827 79.7448C13.2836 78.5995 11.619 78.3332 11.2328 78.3332C11.2194 78.3332 11.2194 78.3332 11.2061 78.3332C11.0863 78.3332 10.9531 78.3332 10.8465 78.3465ZM11.0463 80.0777C11.0996 80.0644 11.1262 80.0644 11.1928 80.0644C11.5923 80.0644 12.1783 80.3175 12.2981 80.4906C12.4446 80.6371 12.5245 80.8768 12.6444 81.0499C12.964 81.5027 13.1238 82.355 13.1238 82.9144C13.1238 83.8599 12.711 84.619 11.9119 85.0984C11.5923 85.2715 11.3659 85.3514 10.993 85.3514C9.60803 85.3514 9.40827 83.6335 9.40827 82.7679C9.40827 81.9688 9.70125 80.677 10.4337 80.2509C10.5935 80.171 10.8599 80.131 11.0463 80.0777Z" fill="white" class="haCuXWhM_1"/>
<path d="M18.7372 78.4797C18.5108 78.5063 18.2445 78.5063 18.0181 78.5063C17.299 78.5063 16.8994 78.7194 16.8994 79.3186C16.8994 79.3852 16.8994 79.4518 16.9127 79.5184C16.9261 79.5584 16.9261 79.585 16.9261 79.6249C16.9261 79.7049 16.9127 79.7981 16.9127 79.878C16.9127 79.8913 16.9127 79.9179 16.9127 79.9313C16.9127 79.9712 16.9127 79.9978 16.9127 80.0245C16.9127 80.1044 16.9127 80.1843 16.9127 80.2642C16.9127 80.3041 16.9127 80.3441 16.9127 80.384C16.9261 80.5838 16.9261 80.7836 16.9261 80.9966C16.9261 81.2097 16.9261 81.4228 16.9127 81.6092C16.8994 81.7557 16.8861 81.9289 16.8861 82.0754C16.8861 82.1952 16.9261 82.2884 16.9261 82.4083C16.9261 82.6081 16.9261 82.7545 16.9394 82.9676C16.9527 83.0475 16.9527 83.1274 16.9527 83.2207C16.9527 83.4071 16.9394 83.6069 16.9261 83.7933C16.9261 83.9664 16.966 84.2328 16.966 84.4459C16.966 84.4991 16.9527 84.5524 16.9527 84.5923C16.9394 84.6989 16.9394 84.8187 16.9394 84.9519C16.9394 85.0851 16.9394 85.2049 16.9527 85.3115C16.9527 85.3781 16.9527 85.458 16.9527 85.5246C16.9527 85.5912 16.9527 85.6444 16.9527 85.711C16.9527 86.0573 16.966 86.4035 17.219 86.6699C17.299 86.7764 17.4188 86.8297 17.552 86.8829C17.6452 86.9495 17.7651 86.9895 17.8982 86.9895C18.0847 86.9895 18.2578 86.8164 18.391 86.6832C18.6041 86.4435 18.6307 86.1638 18.6307 85.8575C18.644 85.6977 18.644 85.5379 18.644 85.3781C18.644 85.165 18.644 84.9519 18.6307 84.7388C18.6307 84.6723 18.6174 84.5657 18.6174 84.4592C18.6174 84.2061 18.644 83.9132 18.7772 83.8199C18.9237 83.7001 19.1101 83.6601 19.2966 83.6601C19.4164 83.6601 19.5363 83.6734 19.6428 83.6868C19.7494 83.6868 19.8692 83.7001 19.9758 83.7001C20.1089 83.7001 20.2554 83.6868 20.3886 83.6601C20.5085 83.6468 20.6283 83.6601 20.7348 83.6202C21.0145 83.527 21.2143 83.2739 21.2809 83.0076C21.2942 82.9277 21.2942 82.8478 21.2942 82.7812C21.2942 82.4482 21.1743 82.2352 20.8014 82.1286C20.5884 82.0754 20.4019 82.0487 20.1888 82.0487C20.0956 82.0487 19.9891 82.0487 19.8959 82.062C19.6695 82.0887 19.4297 82.102 19.2033 82.1153C19.0968 82.1153 19.0036 82.1419 18.9104 82.1419C18.7905 82.1419 18.684 82.102 18.6174 81.9422C18.5774 81.849 18.5641 81.7291 18.5641 81.6092C18.5641 81.4894 18.5774 81.3695 18.5907 81.263C18.5907 81.2364 18.5907 81.1964 18.5907 81.1698C18.5907 80.97 18.5641 80.7969 18.5641 80.5971C18.5641 80.5705 18.5641 80.5305 18.5641 80.4906C18.5907 80.4107 18.5641 80.2908 18.6307 80.2109C18.6973 80.1044 18.8305 80.0644 18.9769 80.0644C19.1234 80.0644 19.2699 80.1044 19.3765 80.1044C19.4297 80.1044 19.4963 80.1044 19.5629 80.1044C19.7627 80.1044 19.9758 80.0911 20.1489 80.0644C20.4419 80.0245 20.6416 80.0245 20.8414 79.838C21.0145 79.6915 21.1077 79.4385 21.1077 79.1988C21.1077 78.9458 21.0012 78.6794 20.7215 78.5729C20.5351 78.493 20.2954 78.453 20.0823 78.453C20.029 78.453 19.9758 78.4663 19.9225 78.4663C19.8559 78.4797 19.776 78.4797 19.6961 78.4797C19.6162 78.4797 19.523 78.4797 19.4431 78.4797C19.2699 78.4797 19.1234 78.4797 18.9769 78.4797C18.897 78.4797 18.8171 78.4797 18.7372 78.4797Z" fill="white" class="haCuXWhM_2"/>
<path d="M23.2539 78.4397C23.174 78.453 23.0941 78.4663 23.0275 78.493C22.8011 78.5995 22.7479 78.8126 22.7479 79.039C22.7479 79.2654 22.8011 79.5051 22.8145 79.6649C22.8145 79.7182 22.8145 79.7714 22.8145 79.838C22.8145 79.9446 22.8145 80.0511 22.8145 80.1576C22.8145 80.2642 22.8145 80.3707 22.8278 80.4639C22.8544 80.6903 22.8278 80.9034 22.8677 81.1298C22.881 81.1698 22.8944 81.2097 22.8944 81.263C22.8944 81.3296 22.881 81.4095 22.8677 81.4761C22.8677 81.6892 22.8677 81.9022 22.881 82.102C22.881 82.2085 22.8677 82.3151 22.8677 82.4216C22.8677 82.4749 22.8677 82.5281 22.881 82.5814C22.8944 82.7146 22.8944 82.8478 22.8944 82.9809C22.8944 83.1274 22.8944 83.2872 22.8944 83.4337C22.8944 83.5136 22.8944 83.5802 22.8944 83.6468C22.9077 83.7667 22.9343 83.8599 22.9343 83.9664C22.9343 83.9797 22.9343 84.0064 22.9343 84.0197C22.9343 84.1129 22.9476 84.2061 22.9476 84.2994C22.9476 84.3526 22.9476 84.4059 22.9343 84.4459C22.9343 84.5657 22.9609 84.6856 22.9609 84.8054C22.9609 84.8321 22.9609 84.872 22.9609 84.8986C22.9609 85.0851 22.9876 85.2715 23.0009 85.4713C23.0009 85.6045 23.0009 85.8708 23.0142 86.004C23.0808 86.4435 23.5736 86.7764 24.013 86.7764C24.0663 86.7764 24.1062 86.7764 24.1462 86.7631C24.4525 86.7098 24.5191 86.5367 24.599 86.2703C24.6256 86.1505 24.6389 86.004 24.6389 85.8575C24.6389 85.5113 24.5857 85.1384 24.5724 84.8454C24.5724 84.8187 24.5724 84.7921 24.5724 84.7522C24.5724 84.5391 24.599 84.3127 24.6256 84.0996C24.6256 84.073 24.6256 84.0597 24.6256 84.033C24.6256 83.9531 24.6123 83.8599 24.6123 83.78C24.6123 83.6734 24.6389 83.5669 24.7322 83.5003C24.8121 83.4337 24.9186 83.4204 25.0385 83.4204C25.1317 83.4204 25.2116 83.4337 25.2915 83.4337C25.4913 83.4337 25.6777 83.3938 25.8642 83.3938C26.3169 83.3671 26.863 83.4471 26.9961 82.8611C27.0094 82.7945 27.0228 82.7279 27.0228 82.6746C27.0228 82.2884 26.7165 82.0221 26.3169 81.9821C26.2903 81.9821 26.2637 81.9821 26.2504 81.9821C26.1305 81.9821 26.0373 82.0088 25.9174 82.0088C25.7709 81.9955 25.6378 81.9688 25.4913 81.9688C25.4247 81.9688 25.3581 81.9821 25.2915 81.9955C25.1983 82.0088 25.0518 82.0487 24.9053 82.0487C24.7322 82.0487 24.5857 81.9955 24.5457 81.8356C24.5324 81.7691 24.5191 81.7025 24.5191 81.6359C24.5191 81.4894 24.5457 81.3429 24.5457 81.1964C24.5457 81.1698 24.5457 81.1565 24.5457 81.1298C24.5324 81.0366 24.5058 80.8368 24.5058 80.6504C24.5058 80.4506 24.5324 80.2509 24.6389 80.1843C24.7322 80.1177 24.8387 80.0911 24.9452 80.0911C25.0784 80.0911 25.2116 80.1177 25.3315 80.131C25.3581 80.131 25.3714 80.131 25.398 80.131C25.4779 80.131 25.5712 80.1177 25.6511 80.1177C25.7576 80.1177 25.8508 80.1443 25.9574 80.1443C26.3169 80.1443 26.6499 79.9978 26.8363 79.6649C26.9029 79.545 26.9295 79.4119 26.9295 79.3053C26.9295 78.999 26.6898 78.7593 26.3436 78.6794C26.2237 78.6528 26.0905 78.6395 25.9707 78.6395C25.8908 78.6395 25.7976 78.6395 25.7177 78.6395C25.6777 78.6395 25.6378 78.6395 25.5978 78.6395C25.3181 78.6395 25.0518 78.6128 24.7721 78.6128C24.6789 78.6128 24.5857 78.6261 24.4925 78.6261C24.3593 78.6261 24.1995 78.5995 24.0796 78.5995C24.0663 78.5995 24.0663 78.5995 24.053 78.5995C23.7866 78.5995 23.6002 78.4264 23.3472 78.4264C23.3205 78.4264 23.2806 78.4397 23.2539 78.4397Z" fill="white" class="haCuXWhM_3"/>
<path d="M31.7659 78.6661C31.4462 78.706 30.8603 78.706 30.5273 78.7327C30.3143 78.7593 30.0612 78.7593 29.8482 78.7593C29.5818 78.7726 29.2755 78.786 29.0891 78.999C28.9292 79.1988 28.876 79.5051 28.876 79.7848C28.876 79.8647 28.8893 79.9579 28.8893 80.0245C28.8893 80.0777 28.9026 80.131 28.9026 80.1843C28.9026 80.4107 28.8627 80.6371 28.8627 80.8635C28.8627 81.1565 28.876 81.4228 28.876 81.7025C28.876 81.7691 28.876 81.8356 28.876 81.9155C28.8627 82.1286 28.8627 82.3417 28.8627 82.5548C28.8627 82.7279 28.8627 82.901 28.8627 83.0742C28.8627 83.3272 28.8627 83.5802 28.836 83.8333C28.836 83.9132 28.8227 83.9931 28.8227 84.073C28.8227 84.326 28.8493 84.5923 28.8627 84.8454C28.8627 85.0451 28.8094 85.3648 28.8094 85.5912C28.8094 85.6178 28.8094 85.6311 28.8094 85.6577C28.836 86.0439 28.9159 86.5101 29.3021 86.7498C29.4353 86.8297 29.5951 86.8963 29.7549 86.8963C29.8082 86.8963 29.8615 86.8829 29.9147 86.8696C30.0346 86.8164 30.1411 86.7231 30.261 86.6832C30.3542 86.6565 30.4741 86.6565 30.6072 86.6565C30.807 86.6565 31.0068 86.6699 31.1533 86.6699C31.353 86.6699 31.6993 86.6299 31.899 86.6299C32.0455 86.6299 32.2187 86.6565 32.3785 86.6565C32.4717 86.6565 32.5649 86.6432 32.6448 86.6166C32.9777 86.4967 33.3107 86.0306 33.3107 85.6444C33.3107 85.458 33.2308 85.2982 33.0177 85.2049C32.8712 85.1384 32.7247 85.1117 32.5915 85.1117C32.4717 85.1117 32.3651 85.125 32.2453 85.125C32.2187 85.125 32.192 85.125 32.1654 85.125C32.1121 85.125 32.0588 85.125 32.0056 85.125C31.8591 85.125 31.7126 85.125 31.5661 85.125C31.4995 85.125 31.4329 85.125 31.3663 85.125C31.2864 85.125 31.2065 85.1384 31.1133 85.1384C30.9402 85.1384 30.7404 85.1117 30.6472 84.9786C30.5673 84.8853 30.554 84.7655 30.554 84.6323C30.554 84.5124 30.5673 84.3926 30.5806 84.286C30.5939 84.1262 30.5939 83.8599 30.6472 83.7134C30.7138 83.5536 30.7671 83.5403 30.847 83.5403C30.8736 83.5403 30.9002 83.5403 30.9402 83.5403C30.9801 83.5403 31.0201 83.5403 31.0734 83.527C31.2198 83.487 31.2997 83.4737 31.4196 83.4737C31.4729 83.4737 31.5395 83.487 31.6194 83.487C31.9257 83.4737 32.0855 83.487 32.3785 83.3671C32.5782 83.2872 32.738 83.1541 32.7514 82.9277C32.7647 82.7812 32.778 82.6746 32.778 82.5681C32.778 82.2085 32.6581 82.062 32.1787 81.9555C32.1254 81.9422 32.0855 81.9422 32.0322 81.9422C31.9257 81.9422 31.8191 81.9555 31.6993 81.9688C31.5661 81.9688 31.4596 81.9821 31.3264 81.9955C31.2198 82.0088 31.0734 82.062 30.9535 82.062C30.8603 82.062 30.7804 82.0354 30.7404 81.9155C30.6605 81.7557 30.7005 81.4494 30.6738 81.2763C30.6605 81.1298 30.6605 81.01 30.6605 80.8635C30.6605 80.8368 30.6605 80.8235 30.6605 80.7969C30.6605 80.7303 30.6605 80.6637 30.6605 80.5971C30.6605 80.4906 30.6605 80.384 30.7138 80.2908C30.807 80.1177 31.2598 80.1044 31.5528 80.1044C31.6194 80.1044 31.686 80.1044 31.7259 80.1044C31.8591 80.1044 32.1121 80.0777 32.2453 80.0777C32.3518 80.0777 32.4184 80.0777 32.485 80.0777C32.6848 80.0777 32.7514 80.0511 33.031 79.7848C33.1509 79.6649 33.2175 79.5051 33.2175 79.332C33.2175 79.1455 33.1376 78.9724 33.0044 78.8659C32.778 78.6927 32.445 78.6395 32.1387 78.6395C32.0056 78.6395 31.8857 78.6528 31.7659 78.6661Z" fill="white" class="haCuXWhM_4"/>
<path d="M35.9942 78.5729C35.7411 78.6261 35.3549 78.5995 35.1951 78.8259C35.0886 78.9591 35.0753 79.1189 35.0753 79.292C35.0753 79.3986 35.0753 79.5051 35.0753 79.5983C35.0753 79.6516 35.0753 79.6915 35.0753 79.7448C35.0486 80.0112 35.0353 80.2642 35.0353 80.5172C35.0353 80.8102 35.0486 81.1032 35.0753 81.3962C35.0753 81.4228 35.0753 81.4494 35.0753 81.4761C35.0753 81.6226 35.0486 81.7691 35.0486 81.9289C35.0486 82.1419 35.0486 82.3417 35.0753 82.5415C35.0886 82.6214 35.0886 82.7013 35.0886 82.7679C35.0886 82.8344 35.0886 82.9144 35.0886 82.9809C35.1019 83.2739 35.1152 83.5536 35.1152 83.8333C35.1152 83.8599 35.1152 83.8732 35.1152 83.8998C35.1152 84.033 35.0886 84.1795 35.0886 84.3127C35.0886 84.6589 35.1552 85.0052 35.1552 85.3381C35.1552 85.4447 35.1152 85.5512 35.1152 85.6577C35.1152 85.6844 35.1285 85.711 35.1285 85.7376C35.1418 85.8042 35.1418 85.8575 35.1418 85.9241C35.1418 85.9907 35.1418 86.0706 35.1418 86.1372C35.1418 86.3502 35.1552 86.5367 35.3416 86.6432C35.5414 86.7631 35.821 86.7897 36.1273 86.7897C36.4869 86.7897 36.8598 86.7498 37.0995 86.7231C37.2859 86.7098 37.4857 86.7098 37.6721 86.7098C37.8586 86.7098 38.045 86.7098 38.2448 86.6832C38.2848 86.6832 38.338 86.6699 38.378 86.6699C38.6443 86.6699 38.8974 86.7631 39.1637 86.7631C39.2836 86.7631 39.4034 86.7365 39.5233 86.6832C39.8029 86.5633 39.9761 86.1771 39.9761 85.8309C39.9761 85.5512 39.8562 85.2849 39.6165 85.2049C39.3501 85.0984 39.0172 85.125 38.7375 85.1117C38.7109 85.1117 38.671 85.1117 38.631 85.1117C38.4845 85.1117 38.2981 85.125 38.1649 85.125C38.1383 85.125 38.1249 85.125 38.0983 85.125C37.9518 85.125 37.7787 85.1517 37.6322 85.165C37.499 85.1783 37.3525 85.2049 37.206 85.2049C37.0595 85.2049 36.9131 85.1783 36.8198 85.0585C36.7266 84.9386 36.7 84.7921 36.7 84.6323C36.7 84.4325 36.7399 84.2195 36.7399 84.0463C36.7399 83.9132 36.7 83.7667 36.7 83.6202C36.7 83.5403 36.7133 83.4604 36.7532 83.3938C36.8198 83.2606 36.953 83.2473 37.0995 83.2473C37.1927 83.2473 37.2859 83.2473 37.3658 83.2473C37.5123 83.234 37.6721 83.234 37.832 83.234C38.045 83.234 38.2581 83.234 38.4712 83.2473C38.5511 83.2606 38.7109 83.2606 38.8441 83.2606C38.8974 83.2606 38.9373 83.2606 38.9773 83.2606C39.2836 83.1807 39.4434 82.9277 39.4434 82.6347C39.4434 82.5814 39.4434 82.5281 39.43 82.4616C39.4167 82.0754 39.0838 81.849 38.7375 81.809C38.7109 81.809 38.6976 81.809 38.671 81.809C38.6177 81.809 38.5644 81.809 38.5111 81.809C38.4845 81.809 38.4579 81.809 38.4312 81.809C38.2048 81.7824 38.0317 81.7691 37.8053 81.7691C37.7387 81.7824 37.6855 81.7824 37.6322 81.7824C37.5789 81.7824 37.5123 81.7824 37.4591 81.7824C37.3525 81.7957 37.2194 81.8223 37.0729 81.8223C36.8864 81.8223 36.7133 81.7824 36.6733 81.6092C36.6201 81.4228 36.5934 81.1964 36.5801 80.9966C36.5801 80.9567 36.5801 80.9301 36.5801 80.8901C36.5801 80.7303 36.5934 80.5705 36.6068 80.424C36.6068 80.384 36.6068 80.3308 36.6068 80.2908C36.6068 80.2376 36.6068 80.1843 36.6467 80.1443C36.7133 80.0644 36.8465 80.0511 36.9663 80.0511C37.0729 80.0511 37.1927 80.0644 37.2726 80.0644C37.4591 80.0511 37.5656 80.0378 37.7254 80.0378C37.7654 80.0378 37.8053 80.0378 37.8453 80.0378C38.0184 80.0511 38.4179 80.0378 38.591 80.0644C38.6177 80.0644 38.6576 80.0777 38.6843 80.0777C38.8707 80.0777 38.9639 79.9579 39.0971 79.7848C39.2037 79.6383 39.2569 79.4785 39.2569 79.332C39.2569 79.0656 39.0971 78.8126 38.8174 78.6927C38.591 78.5995 38.338 78.5729 38.085 78.5729C37.8053 78.5729 37.5257 78.6128 37.2593 78.6128C37.1927 78.6128 37.1261 78.5995 37.0595 78.5995C36.8198 78.5862 36.5801 78.5462 36.3271 78.5462C36.2205 78.5462 36.1007 78.5596 35.9942 78.5729Z" fill="white" class="haCuXWhM_5"/>
<path d="M47.0541 77.1479C46.6945 77.2544 46.5214 77.5607 46.3216 77.8404C46.1219 78.1068 45.8555 78.3332 45.6558 78.6128C45.5625 78.746 45.5093 78.8925 45.4294 79.039C45.0565 79.6516 44.7102 80.3574 44.5904 81.0899C44.4971 81.6492 44.4306 82.1686 44.4039 82.7013C44.3906 83.0608 44.3507 83.4471 44.3507 83.8199C44.3507 83.9531 44.3507 84.0863 44.364 84.2061C44.3906 84.6989 44.4705 85.1517 44.5504 85.5379C44.617 85.8841 44.7235 86.2304 44.8434 86.5633C44.8967 86.7098 44.91 86.8696 44.9633 87.0161C45.0964 87.3624 45.2962 87.682 45.4826 87.9883C45.6558 88.3212 45.8289 88.6142 46.042 88.9338C46.2417 89.2135 46.6013 89.5065 46.9742 89.5065C47.0408 89.5065 47.1074 89.4932 47.1873 89.4665C47.5202 89.36 47.6667 89.067 47.6667 88.7607C47.6667 88.5343 47.5868 88.2946 47.4403 88.1215C47.2405 87.8951 47.0275 87.682 46.8543 87.4156C46.6279 87.0561 46.5081 86.6166 46.3749 86.2038C46.0952 85.458 46.1086 85.4047 46.002 84.6589C45.9754 84.366 45.9621 84.1928 45.9621 83.8998C45.9621 83.527 45.9487 83.194 45.9487 82.8744C45.9754 82.5814 46.0286 82.4482 46.0286 82.1553C46.042 81.9155 46.0952 81.6758 46.1219 81.4494C46.1352 81.3163 46.1219 81.1698 46.1485 81.0366C46.2018 80.7436 46.3483 80.4373 46.4814 80.1443C46.6546 79.7581 46.9342 79.4119 47.2006 79.0789C47.2938 78.9591 47.3737 78.8126 47.4669 78.6927C47.6534 78.4663 47.9064 78.3731 47.9996 78.0535C48.0129 78.0135 48.0129 77.9736 48.0129 77.9336C48.0129 77.5474 47.5735 77.1346 47.1873 77.1346C47.134 77.1346 47.094 77.1346 47.0541 77.1479Z" fill="white" class="haCuXWhM_6"/>
<path d="M50.266 78.5729C49.9863 78.6395 49.7999 78.7194 49.5469 78.7993C49.4669 78.8392 49.2938 78.9191 49.2139 78.9724C49.0941 79.039 49.0142 79.1722 48.9342 79.2787C48.7611 79.4918 48.6413 79.6649 48.6413 79.8647C48.6413 79.9579 48.6679 80.0511 48.7212 80.171C48.8144 80.3441 49.0674 80.5305 49.2139 80.6238C49.2672 80.6504 49.3205 80.6504 49.3737 80.6504C49.5735 80.6504 49.7866 80.5172 49.8931 80.384C49.9996 80.2642 50.1195 80.1576 50.266 80.0911C50.4391 79.9978 50.5989 79.9712 50.7721 79.9712C50.8786 79.9712 50.9985 79.9845 51.1183 79.9845C51.1316 79.9845 51.1316 79.9845 51.1449 79.9845C51.4512 79.9845 51.7842 80.1976 51.9174 80.5172C51.944 80.5838 51.9573 80.677 51.9573 80.7569C51.9573 80.8368 51.944 80.9301 51.9174 80.9833C51.7709 81.3163 51.691 81.6092 51.4646 81.9022C51.3713 82.0221 51.2515 82.1553 51.1449 82.2884C51.0118 82.4882 50.852 82.688 50.7188 82.901C50.5856 83.0608 50.4791 83.2473 50.3592 83.4204C50.1861 83.6868 50.0396 83.9398 49.8398 84.2061C49.6401 84.4592 49.427 84.7388 49.2006 84.9919C49.1074 85.1117 48.9076 85.2715 48.8543 85.418C48.8277 85.4846 48.8144 85.5512 48.8144 85.6178C48.8144 85.8042 48.9076 85.9774 48.9875 86.1505C49.0941 86.4035 49.2272 86.5633 49.4936 86.7098C49.7067 86.8297 49.973 86.7897 50.2127 86.8297C50.5057 86.8563 50.7987 86.8696 51.0917 86.8696C51.1849 86.8696 51.2914 86.8696 51.3847 86.8696C51.651 86.8563 51.9307 86.843 52.197 86.843C52.3302 86.843 52.4501 86.8563 52.5699 86.8563C52.7164 86.8563 52.8629 86.843 53.0094 86.7897C53.1559 86.7498 53.3689 86.6432 53.4888 86.5633C53.5554 86.5101 53.582 86.4302 53.6353 86.3502C53.7285 86.2038 53.7951 86.0839 53.7951 85.964C53.7951 85.8841 53.7552 85.7909 53.6752 85.6844C53.3956 85.3781 52.9827 85.3248 52.5965 85.3248C52.4767 85.3248 52.3568 85.3381 52.2503 85.3381C52.1171 85.3381 51.9307 85.3381 51.7842 85.3514C51.7309 85.3514 51.6377 85.3648 51.5311 85.3648C51.358 85.3648 51.1583 85.3381 51.1583 85.1916V85.1783C51.1583 85.0585 51.358 84.8853 51.4379 84.7655C51.5311 84.619 51.611 84.4459 51.7176 84.2994C51.8641 84.1129 52.0239 83.9531 52.1437 83.7667C52.3568 83.4337 52.5699 83.1008 52.7963 82.7679C53.2225 82.1419 53.6353 81.4894 53.6353 80.717C53.6353 80.7037 53.6353 80.6903 53.6353 80.677C53.622 80.2376 53.6353 79.878 53.3024 79.5184C53.2091 79.3986 53.0893 79.3053 52.9561 79.2254C52.8363 79.1322 52.743 79.039 52.6099 78.9458C52.4234 78.8525 52.1571 78.7726 51.9573 78.6794C51.5977 78.5196 51.358 78.5462 50.9718 78.5196C50.9185 78.5196 50.8653 78.5196 50.812 78.5196C50.6256 78.5196 50.4125 78.5329 50.266 78.5729Z" fill="white" class="haCuXWhM_7"/>
<path d="M57.141 78.8259C56.1955 78.9857 55.5562 79.8647 55.3165 80.717C55.1434 81.2896 55.1035 81.8756 55.0635 82.4482C55.0502 82.6613 55.0502 82.8611 55.0502 83.0742C55.0502 83.3006 55.0502 83.527 55.0901 83.7534C55.21 84.3793 55.3565 85.0318 55.756 85.5512C56.0357 85.9108 56.1955 86.257 56.595 86.4967C56.7015 86.5633 56.8081 86.59 56.9013 86.6432C57.1277 86.7498 57.5405 86.8963 57.8202 86.8963C57.8468 86.8963 57.8602 86.8963 57.8868 86.8963C58.2464 86.8563 58.6725 86.8297 58.9921 86.6565C59.405 86.4302 59.7246 86.0439 60.0176 85.6577C60.3772 85.2049 60.4837 84.6057 60.6302 84.0597C60.7234 83.6868 60.75 83.2872 60.7634 82.901C60.7767 82.7545 60.79 82.5947 60.79 82.4349C60.79 82.395 60.79 82.355 60.79 82.3151C60.79 81.9688 60.7367 81.6492 60.6968 81.2896C60.6701 80.9966 60.6435 80.7702 60.497 80.4906C60.4304 80.3574 60.4038 80.171 60.2839 80.0911C60.1907 80.0245 60.1907 79.8913 60.1108 79.8114C60.0176 79.7049 60.0043 79.585 59.911 79.4785C59.7512 79.332 59.5248 79.1455 59.3517 79.039C59.1653 78.9324 58.9522 78.8259 58.7524 78.746C58.5393 78.6528 58.3263 78.6661 58.0999 78.6528C58.0866 78.6528 58.0732 78.6528 58.0599 78.6528C57.7669 78.6528 57.4207 78.7726 57.141 78.8259ZM58.1531 80.171C58.4062 80.171 58.6992 80.3707 58.8989 80.5172C58.9788 80.5705 59.0188 80.7702 59.072 80.8502C59.1919 81.0899 59.1919 81.223 59.2185 81.4761C59.2452 81.7025 59.2452 81.9422 59.2452 82.1686C59.2452 82.3284 59.2452 82.4749 59.2452 82.6347C59.2452 82.6746 59.2452 82.7146 59.2452 82.7545C59.2452 83.3006 59.1653 83.8333 58.9788 84.326C58.8456 84.6723 58.6459 84.8853 58.3795 85.125C58.2197 85.2449 58.0599 85.3781 57.8468 85.3781C57.8335 85.3781 57.8335 85.3781 57.8202 85.3781C57.3941 85.3781 57.1943 85.1517 56.9945 84.8187C56.9279 84.7122 56.848 84.4858 56.8081 84.366C56.7681 84.2461 56.7415 84.0996 56.7149 83.9664C56.6483 83.74 56.6083 83.5003 56.595 83.2606C56.5817 83.1008 56.5684 82.9277 56.5684 82.7679C56.5684 82.2485 56.5817 81.6625 56.7548 81.1698C56.848 80.8768 57.141 80.4506 57.4074 80.2908C57.5672 80.1843 57.7403 80.1576 57.9267 80.1576C58.0066 80.1576 58.0732 80.171 58.1531 80.171Z" fill="white" class="haCuXWhM_8"/>
<path d="M65.0094 78.5995C64.9961 78.5995 64.9695 78.5995 64.9428 78.5995C64.7697 78.5995 64.6099 78.6395 64.4368 78.6794C63.9574 78.786 63.3847 79.0789 63.1317 79.545C62.9852 79.8114 62.9319 80.0511 62.8121 80.3308C62.6789 80.6238 62.5724 80.97 62.5058 81.2896C62.4791 81.4228 62.4791 81.5293 62.4658 81.6625C62.4392 81.849 62.4392 82.062 62.4259 82.2485C62.4125 82.355 62.4125 82.4749 62.4125 82.5814C62.4125 82.7013 62.4125 82.8078 62.4259 82.901C62.4259 83.0342 62.4392 83.2073 62.4525 83.3405C62.4924 83.9664 62.5723 84.4858 62.8254 85.0585C62.9186 85.2449 63.105 85.6311 63.2249 85.8176C63.4646 86.1771 63.8775 86.4035 64.2637 86.59C64.4368 86.6699 64.5966 86.7631 64.783 86.7764C64.8097 86.7764 64.8496 86.7764 64.8763 86.7764C65.076 86.7764 65.2492 86.7231 65.4489 86.6832C65.8884 86.59 66.3412 86.4168 66.6741 86.0972C66.754 86.0173 66.8472 85.9774 66.9138 85.8975C67.087 85.6577 67.2468 85.458 67.3933 85.2183C67.4732 85.0851 67.5397 84.8986 67.593 84.7388C67.6729 84.5524 67.7262 84.2461 67.7661 84.0463C67.8594 83.6202 67.9659 83.2207 67.9659 82.7945C67.9659 82.648 67.8993 82.5281 67.8727 82.395C67.8727 82.3817 67.8727 82.355 67.8727 82.3417C67.8727 82.2085 67.9126 82.1153 67.9126 81.9955C67.9126 81.9688 67.8993 81.9289 67.8993 81.9022C67.8461 81.5027 67.7661 80.97 67.6463 80.5705C67.5531 80.2908 67.4332 80.0644 67.2734 79.8114C67.2201 79.7182 67.1269 79.6249 67.0603 79.5317C66.9671 79.3986 66.8872 79.2654 66.754 79.1722C66.6075 79.0656 66.4344 78.999 66.2746 78.9191C66.0882 78.8525 65.9017 78.6794 65.7153 78.6395C65.4889 78.5995 65.2358 78.6128 65.0094 78.5995ZM65.1959 80.1044C65.3157 80.131 65.4622 80.1576 65.5821 80.2109C66.0216 80.4107 66.0882 80.9434 66.1947 81.3695C66.3279 81.849 66.4078 82.3284 66.4078 82.8211C66.4078 83.234 66.3545 83.6468 66.248 84.073C66.1681 84.4325 65.955 84.7655 65.7019 85.0318C65.5821 85.1783 65.3956 85.2982 65.2092 85.2982C65.1959 85.2982 65.1693 85.2982 65.1559 85.2982C64.6499 85.2049 64.4634 84.7655 64.3169 84.3393C64.237 84.0996 64.2237 83.8732 64.1704 83.6335C64.1039 83.2606 64.0506 82.8744 64.0506 82.5015C64.0506 82.1153 64.1039 81.7291 64.2104 81.3296C64.277 81.0765 64.3303 80.8235 64.4235 80.5705C64.4767 80.4373 64.53 80.2908 64.6632 80.2109C64.783 80.1576 64.9695 80.1044 65.116 80.1044C65.1426 80.1044 65.1693 80.1044 65.1959 80.1044Z" fill="white" class="haCuXWhM_9"/>
<path d="M73.5304 78.5995C73.2774 78.6528 73.1442 78.6794 72.8779 78.786C72.6115 78.8925 72.3452 79.0123 72.1188 79.1455C71.8657 79.2787 71.626 79.4385 71.3996 79.6249C71.1866 79.8247 70.9069 80.0777 70.7471 80.3041C70.2144 80.9567 70.0013 81.5959 69.7882 82.3683C69.6817 82.7412 69.5885 83.2606 69.5885 83.6335C69.6018 83.9132 69.6284 84.2328 69.7083 84.5124C69.7749 84.6723 69.8149 84.9519 69.8814 85.125C69.9613 85.3115 70.0146 85.5113 70.1212 85.6977C70.4141 86.1904 70.8403 86.5101 71.3464 86.7631C71.6527 86.8829 71.9856 86.9362 72.3185 86.9495C72.3452 86.9495 72.3585 86.9495 72.3851 86.9495C72.6115 86.9495 72.8512 86.8963 73.051 86.8297C73.304 86.7631 73.4638 86.6565 73.637 86.5234C73.85 86.4035 74.0498 86.2703 74.1963 86.0972C74.3028 85.9241 74.4493 85.6178 74.5292 85.4447C74.6624 85.1517 74.729 84.8454 74.729 84.5124C74.729 84.2727 74.689 84.033 74.6224 83.8066C74.5559 83.5669 74.436 83.3671 74.3028 83.1541C74.1297 82.9144 73.8367 82.7545 73.5704 82.5814C73.1975 82.3417 72.6381 82.3018 72.1454 82.3018C72.0389 82.3018 71.9323 82.3018 71.8391 82.3018C71.8258 82.3018 71.7991 82.3018 71.7858 82.3018C71.666 82.3018 71.4929 82.2884 71.4929 82.1553V82.1419C71.5062 81.9821 71.6393 81.7824 71.7059 81.6226C71.9323 81.2097 72.4251 80.6637 72.8379 80.4107C72.9178 80.3574 72.9977 80.3041 73.0909 80.2642C73.2108 80.2109 73.3573 80.171 73.4638 80.1044C73.8767 79.9046 74.4094 79.9712 74.6091 79.4785C74.6224 79.4252 74.6358 79.3719 74.6358 79.3186C74.6358 79.0123 74.3295 78.706 74.0365 78.5995C73.9699 78.5729 73.89 78.5596 73.8101 78.5596C73.7169 78.5596 73.6103 78.5729 73.5304 78.5995ZM72.3585 83.5669C72.7846 83.5802 73.1309 84.0463 73.1309 84.4192C73.1309 84.4459 73.1309 84.4725 73.1309 84.4858C73.0909 85.0052 73.051 85.3914 72.4517 85.5246C72.4118 85.5379 72.3851 85.5379 72.3452 85.5379C72.1055 85.5379 71.7858 85.3914 71.6393 85.2183C71.5328 85.1117 71.4795 84.912 71.3996 84.7788C71.3064 84.5923 71.2665 84.2727 71.2665 84.033C71.2665 83.9931 71.2665 83.9664 71.2665 83.9398C71.2798 83.7667 71.2931 83.5403 71.3996 83.5136C71.4529 83.5003 71.5195 83.5003 71.5861 83.5003C71.8391 83.5003 72.1454 83.5536 72.3585 83.5669Z" fill="white" class="haCuXWhM_10"/>
<path d="M75.9239 77.0813C75.6842 77.1612 75.5644 77.3876 75.5644 77.6273C75.5644 77.6939 75.5777 77.7472 75.591 77.8138C75.6576 78.0668 75.8707 78.2932 76.0038 78.5196C76.2169 78.9058 76.39 79.3186 76.5898 79.7182C76.7629 80.0245 76.9627 80.3574 77.0825 80.6903C77.2823 81.2497 77.3489 81.8356 77.3888 82.4216C77.4022 82.7013 77.4554 82.9809 77.4554 83.2606C77.4554 83.4471 77.4022 83.6468 77.3755 83.8333C77.3622 83.8732 77.3622 83.9265 77.3622 83.9664C77.3622 84.0197 77.3622 84.0597 77.3622 84.1129C77.3622 84.1396 77.3622 84.1662 77.3622 84.1928C77.3223 84.4592 77.2557 84.7255 77.1891 84.9919C77.1092 85.4047 77.0559 85.8708 76.9094 86.2703C76.7496 86.6965 76.5232 87.096 76.2702 87.4689C76.0704 87.7486 75.8307 87.975 75.7108 88.3079C75.6842 88.3745 75.6709 88.4544 75.6709 88.5343C75.6709 88.9471 75.9905 89.4665 76.4034 89.4665C76.43 89.4665 76.4699 89.4532 76.4966 89.4532C76.6963 89.4266 76.8828 89.2401 77.016 89.1203C77.269 88.9072 77.3888 88.6275 77.5486 88.3612C77.7085 88.0682 77.8949 87.8018 78.0414 87.5222C78.2811 87.0827 78.3743 86.6166 78.5075 86.1372C78.5475 86.004 78.614 85.8841 78.6407 85.7376C78.6806 85.5246 78.7206 85.3115 78.7472 85.0851C78.7872 84.8187 78.8804 84.5524 78.907 84.286C78.947 83.9398 78.9603 83.5802 78.9603 83.2207C78.9603 82.2618 78.8271 81.3029 78.4942 80.424C78.3876 80.1044 78.3876 79.7848 78.2145 79.4918C77.8017 78.8126 77.5753 78.0402 77.0692 77.4276C76.9094 77.2145 76.4433 77.0547 76.1104 77.0547C76.0438 77.0547 75.9772 77.068 75.9239 77.0813Z" fill="white" class="haCuXWhM_11"/>
<path d="M7.82041 95.2595C6.5952 95.736 7.68427 97.4377 6.62924 97.9482C6.32294 98.1183 5.9826 98.0843 5.64227 98.1864C5.1658 98.3225 4.7574 98.6969 4.31496 98.9011C3.97463 99.0372 3.60026 99.0713 3.29396 99.3095C2.81749 99.6498 2.30699 100.296 2.06876 100.807C1.72843 101.488 1.55826 102.236 1.55826 103.019C1.55826 104.006 1.86456 104.993 2.61329 105.742C3.60026 106.695 4.89353 107.273 6.0847 107.852C6.6973 108.124 7.27587 108.499 7.88847 108.771C9.62418 109.588 11.2918 110.677 11.3939 112.821C11.3939 112.855 11.3939 112.855 11.3939 112.889C11.3939 114.012 10.6792 114.727 9.93048 115.509C9.52208 115.918 9.21578 116.36 8.67124 116.564C8.19477 116.769 7.6162 116.905 7.1057 117.075C6.76537 117.177 6.45907 117.211 6.15277 117.211C5.74437 117.211 5.33597 117.143 4.7574 117.075C3.77043 116.973 2.85153 116.19 1.89859 116.19C1.72843 116.19 1.55826 116.19 1.38809 116.258C0.87759 116.428 0.571289 116.905 0.571289 117.381C0.571289 117.619 0.673389 117.892 0.843556 118.096C1.11582 118.368 1.49019 118.538 1.83053 118.709C2.37506 118.947 2.91959 119.253 3.49816 119.389C3.80446 119.457 4.2469 119.525 4.58723 119.525C4.72337 119.525 4.8595 119.525 4.9616 119.491C4.99563 119.491 5.0637 119.491 5.09773 119.491C5.43807 119.491 5.74437 119.593 6.0847 119.661C6.45907 119.764 6.35697 120.785 6.45907 121.125C6.5952 121.669 7.13974 122.418 7.82041 122.418C7.92251 122.418 8.02461 122.418 8.12671 122.384C8.53511 122.248 8.63721 121.84 8.70527 121.431C8.80737 120.751 8.77334 119.287 9.35191 118.811C9.65821 118.538 10.0326 118.402 10.3389 118.164C10.8494 117.756 11.2237 117.279 11.7002 116.871C12.0065 116.598 12.3809 116.428 12.6191 116.122C12.8914 115.816 12.9595 115.407 13.1296 115.033C13.4359 114.42 13.7082 113.842 13.7763 113.161C13.8103 112.957 13.8103 112.753 13.8103 112.549C13.8103 110.847 12.9595 109.179 11.7683 108.056C10.6452 106.967 9.04561 106.354 7.65024 105.674C7.27587 105.504 6.93554 105.231 6.56117 105.061C5.60823 104.619 4.17883 104.108 3.97463 102.917C3.9406 102.815 3.9406 102.713 3.9406 102.611C3.9406 101.76 4.58723 101.113 5.30193 100.739C6.2889 100.228 7.44604 100.058 8.56914 100.058C9.14771 100.058 9.69224 100.092 10.2368 100.16C10.7473 100.194 11.2237 100.331 11.7002 100.331C11.7683 100.331 11.8704 100.331 11.9384 100.331C12.483 100.296 13.0616 99.6839 13.0616 99.1393C13.0616 98.9011 12.9595 98.6969 12.7212 98.5267C11.8363 97.8801 10.441 98.5267 9.62418 97.812C9.41998 97.6419 9.28384 97.4377 9.28384 97.1994C9.28384 97.1654 9.28384 97.1314 9.28384 97.0973C9.28384 96.8251 9.31788 96.5188 9.31788 96.2125C9.31788 95.8381 9.24981 95.4978 8.84141 95.2936C8.70527 95.2255 8.53511 95.2255 8.39897 95.1915C8.19477 95.1915 8.02461 95.1915 7.82041 95.2595Z" fill="white" class="haCuXWhM_12"/>
<path d="M25.7113 98.6288C25.0647 98.765 24.4861 99.1393 23.9076 99.4456C22.9546 100.024 22.2399 101.249 21.5593 102.134C21.2189 102.611 20.7765 103.019 20.4702 103.496C20.1979 103.904 19.9257 104.346 19.6534 104.755C19.4152 105.163 19.1769 105.47 18.9047 105.844C18.5984 106.286 18.3601 106.831 18.0879 107.341C17.8837 107.58 17.6114 107.784 17.4753 108.022C17.203 108.328 17.1349 108.703 16.9307 109.009C16.8286 109.281 16.6585 109.554 16.4883 109.792C16.182 110.302 15.5694 110.983 15.5694 111.63C15.5694 111.834 15.6375 112.072 15.8076 112.276C16.0799 112.583 16.4202 112.685 16.7946 112.685C17.203 112.685 17.6795 112.583 18.0538 112.549C18.8366 112.48 19.5853 112.446 20.3341 112.446C21.0828 112.446 21.7975 112.48 22.6143 112.549C22.9887 112.583 23.6013 112.514 23.9076 112.821C24.2139 113.093 24.316 113.604 24.316 114.046C24.316 114.182 24.2819 114.352 24.2819 114.454C24.1458 115.646 24.0437 116.939 24.0097 118.164C24.0097 119.049 24.384 119.764 25.1668 119.764C25.2689 119.764 25.371 119.764 25.4731 119.73C26.2559 119.525 26.5281 118.606 26.5281 117.824C26.5281 116.973 26.5622 116.156 26.5622 115.339C26.5622 115.067 26.5622 114.829 26.5622 114.591C26.5622 114.182 26.5962 113.74 26.7323 113.297C26.8004 113.059 27.0046 113.025 27.2428 113.025C27.413 113.025 27.5832 113.025 27.7193 113.025C28.6382 112.957 30.2038 112.719 30.2038 111.425C30.2038 111.357 30.1697 111.289 30.1697 111.187C30.1017 110.847 29.9655 110.643 29.6933 110.541C29.5231 110.507 29.387 110.472 29.2508 110.472C29.1487 110.472 29.0807 110.472 28.9786 110.472C28.9445 110.472 28.8764 110.472 28.8424 110.472C28.434 110.438 28.0256 110.37 27.6172 110.37C27.5491 110.37 27.413 110.37 27.3109 110.37C27.0727 110.37 26.7664 110.336 26.6643 110.132C26.6302 110.064 26.6302 109.996 26.6302 109.894C26.6302 109.724 26.6643 109.52 26.6643 109.349C26.6983 108.771 26.7664 108.158 26.8344 107.58C26.9365 106.388 27.0727 105.197 27.0727 104.04C27.0727 103.802 27.1407 103.428 27.1407 103.189C27.1748 102.509 27.1748 101.896 27.2428 101.249C27.2769 100.909 27.2769 100.16 27.3109 99.82C27.3109 99.7519 27.3109 99.6498 27.3109 99.5818C27.3109 99.3776 27.2769 99.1393 27.2428 98.9011C27.1407 98.5948 26.8685 98.4927 26.5622 98.4927C26.2559 98.4927 25.9155 98.5948 25.7113 98.6288ZM24.4861 102.168H24.5202C24.6903 102.168 24.6903 102.373 24.6903 102.509C24.6903 102.917 24.6563 103.291 24.6563 103.7C24.6563 103.802 24.6563 103.904 24.6563 104.006C24.6903 104.278 24.6903 104.517 24.6903 104.789C24.6903 106.014 24.5202 107.205 24.4521 108.499C24.4181 109.077 24.5202 109.962 23.8395 110.132C23.7374 110.166 23.6353 110.166 23.5332 110.166C23.0567 110.166 22.6483 109.996 22.2059 109.928C22.0017 109.894 21.7635 109.894 21.5593 109.894C21.1168 109.894 20.7084 109.928 20.3 109.928C20.1979 109.928 19.9937 109.962 19.7555 109.962C19.4832 109.962 19.245 109.928 19.1769 109.758C19.1769 109.724 19.1769 109.724 19.1769 109.69C19.1769 109.486 19.3131 109.315 19.4492 109.145C19.7215 108.771 19.8916 108.362 20.1639 107.92C20.5383 107.239 20.9467 106.661 21.4231 106.082C21.6614 105.708 21.9336 105.299 22.2399 104.925C22.4782 104.415 22.9546 104.04 23.2269 103.564C23.5332 103.223 23.8055 102.849 24.0777 102.509C24.2139 102.373 24.35 102.202 24.4861 102.168Z" fill="white" class="haCuXWhM_13"/>
<path d="M33.5821 115.373C32.8334 115.646 32.2548 116.462 32.0506 117.381C31.9825 117.585 31.9825 117.79 31.9825 117.96C31.9825 118.709 32.3909 119.253 33.1056 119.253C33.1397 119.253 33.1397 119.253 33.1737 119.253C33.4119 119.253 33.6161 119.185 33.8544 119.117C34.1947 118.981 34.3989 118.675 34.6712 118.402C35.0455 118.062 35.488 117.858 35.556 117.245C35.556 117.177 35.556 117.143 35.556 117.075C35.556 116.769 35.4199 116.496 35.2497 116.224C34.9434 115.68 34.535 115.305 33.9905 115.305C33.8544 115.305 33.7182 115.339 33.5821 115.373Z" fill="white" class="haCuXWhM_14"/>
<path d="M47.3311 98.3225C45.7996 98.4587 44.3021 98.6288 42.8046 98.7309C42.7366 98.7309 42.6685 98.7309 42.6004 98.7309C42.3282 98.7309 41.9878 98.6969 41.7156 98.6969C41.2391 98.6969 40.8307 98.765 40.4563 99.0372C40.082 99.2755 39.9799 99.5818 39.9799 99.9221C39.9799 100.296 40.082 100.671 40.082 101.045C40.082 101.079 40.082 101.147 40.082 101.181C39.8437 102.815 39.3332 104.517 38.8908 106.048C38.7546 106.491 38.5504 106.967 38.5504 107.409C38.5504 107.716 38.6525 108.022 38.9248 108.294C39.163 108.567 39.5034 108.567 39.8778 108.601C40.5584 108.669 40.9668 108.669 41.7156 108.669C42.5324 108.669 43.2811 108.805 44.0639 108.975C44.5063 109.077 44.9147 109.077 45.3231 109.281C46.7525 109.928 47.8416 111.187 47.8416 112.719C47.8416 112.923 47.8075 113.127 47.7735 113.331C47.6374 114.046 47.297 114.931 46.7865 115.475C46.3101 115.952 45.6975 116.088 45.1189 116.292C44.0979 116.701 43.3151 116.905 42.3622 116.905C42.0899 116.905 41.7836 116.871 41.4433 116.837C40.6605 116.735 40.3202 116.292 39.5034 116.258C39.1971 116.258 38.8227 116.292 38.6185 116.633C38.5164 116.769 38.4824 116.939 38.4824 117.109C38.4824 117.517 38.7206 117.994 38.9929 118.3C39.4693 118.879 39.7757 118.981 40.4563 119.185C40.8988 119.321 41.3412 119.321 41.7836 119.321C41.9198 119.321 42.0219 119.321 42.124 119.321C42.6685 119.321 43.179 119.253 43.7576 119.151C44.1319 119.117 44.5744 118.981 44.9487 118.879C45.3231 118.811 45.6294 118.606 45.9697 118.504C46.4462 118.402 46.9567 118.334 47.4332 118.13C47.8756 117.892 48.4201 117.449 48.7605 117.109C49.2029 116.701 49.4752 116.122 49.7134 115.612C50.2239 114.556 50.6663 113.263 50.6663 112.038C50.6663 111.493 50.5642 110.983 50.3941 110.472C49.9857 109.383 49.1348 108.533 48.284 107.784C47.1949 106.831 45.3571 106.457 43.9277 106.32C43.8597 106.32 43.7576 106.32 43.6555 106.32C43.3492 106.32 43.0088 106.354 42.6685 106.354C42.2941 106.354 41.9538 106.32 41.6815 106.116C41.5454 106.048 41.5114 105.878 41.5114 105.674C41.5114 105.47 41.5454 105.197 41.5794 105.061C41.6475 104.721 41.8177 104.38 41.8857 104.04C42.0899 103.359 42.124 103.019 42.3282 102.338C42.3962 101.93 42.4643 101.42 42.9067 101.283C43.3492 101.079 43.9277 101.147 44.3702 101.045C44.8807 100.977 45.3571 100.977 45.8676 100.977C46.4802 100.977 47.0588 100.977 47.6714 101.011C47.7395 101.011 47.8075 101.011 47.8756 101.011C48.1479 101.011 48.4542 100.977 48.6924 100.977C48.8626 100.977 49.1008 101.011 49.305 101.011C49.9857 101.011 50.7684 100.875 51.0067 100.194C51.0407 100.092 51.0747 99.9902 51.0747 99.854C51.0747 99.3435 50.7344 98.765 50.3941 98.5608C49.9516 98.3225 49.3731 98.2204 48.7945 98.2204C48.284 98.2204 47.7735 98.2885 47.3311 98.3225Z" fill="white" class="haCuXWhM_15"/>
<path d="M62.736 98.6288C62.0893 98.765 61.5108 99.1393 60.9322 99.4456C59.9793 100.024 59.2646 101.249 58.5839 102.134C58.2436 102.611 57.8011 103.019 57.4948 103.496C57.2226 103.904 56.9503 104.346 56.678 104.755C56.4398 105.163 56.2016 105.47 55.9293 105.844C55.623 106.286 55.3848 106.831 55.1125 107.341C54.9083 107.58 54.636 107.784 54.4999 108.022C54.2276 108.328 54.1595 108.703 53.9553 109.009C53.8532 109.281 53.6831 109.554 53.5129 109.792C53.2066 110.302 52.594 110.983 52.594 111.63C52.594 111.834 52.6621 112.072 52.8322 112.276C53.1045 112.583 53.4449 112.685 53.8192 112.685C54.2276 112.685 54.7041 112.583 55.0785 112.549C55.8612 112.48 56.61 112.446 57.3587 112.446C58.1074 112.446 58.8221 112.48 59.6389 112.549C60.0133 112.583 60.6259 112.514 60.9322 112.821C61.2385 113.093 61.3406 113.604 61.3406 114.046C61.3406 114.182 61.3066 114.352 61.3066 114.454C61.1704 115.646 61.0683 116.939 61.0343 118.164C61.0343 119.049 61.4087 119.764 62.1914 119.764C62.2935 119.764 62.3956 119.764 62.4977 119.73C63.2805 119.525 63.5528 118.606 63.5528 117.824C63.5528 116.973 63.5868 116.156 63.5868 115.339C63.5868 115.067 63.5868 114.829 63.5868 114.591C63.5868 114.182 63.6208 113.74 63.757 113.297C63.825 113.059 64.0292 113.025 64.2675 113.025C64.4376 113.025 64.6078 113.025 64.7439 113.025C65.6628 112.957 67.2284 112.719 67.2284 111.425C67.2284 111.357 67.1944 111.289 67.1944 111.187C67.1263 110.847 66.9902 110.643 66.7179 110.541C66.5477 110.507 66.4116 110.472 66.2754 110.472C66.1733 110.472 66.1053 110.472 66.0032 110.472C65.9691 110.472 65.9011 110.472 65.867 110.472C65.4586 110.438 65.0502 110.37 64.6418 110.37C64.5738 110.37 64.4376 110.37 64.3355 110.37C64.0973 110.37 63.791 110.336 63.6889 110.132C63.6549 110.064 63.6549 109.996 63.6549 109.894C63.6549 109.724 63.6889 109.52 63.6889 109.349C63.7229 108.771 63.791 108.158 63.8591 107.58C63.9612 106.388 64.0973 105.197 64.0973 104.04C64.0973 103.802 64.1654 103.428 64.1654 103.189C64.1994 102.509 64.1994 101.896 64.2675 101.249C64.3015 100.909 64.3015 100.16 64.3355 99.82C64.3355 99.7519 64.3355 99.6498 64.3355 99.5818C64.3355 99.3776 64.3015 99.1393 64.2675 98.9011C64.1654 98.5948 63.8931 98.4927 63.5868 98.4927C63.2805 98.4927 62.9402 98.5948 62.736 98.6288ZM61.5108 102.168H61.5448C61.715 102.168 61.715 102.373 61.715 102.509C61.715 102.917 61.6809 103.291 61.6809 103.7C61.6809 103.802 61.6809 103.904 61.6809 104.006C61.715 104.278 61.715 104.517 61.715 104.789C61.715 106.014 61.5448 107.205 61.4767 108.499C61.4427 109.077 61.5448 109.962 60.8641 110.132C60.762 110.166 60.6599 110.166 60.5578 110.166C60.0814 110.166 59.673 109.996 59.2305 109.928C59.0263 109.894 58.7881 109.894 58.5839 109.894C58.1415 109.894 57.7331 109.928 57.3247 109.928C57.2226 109.928 57.0184 109.962 56.7801 109.962C56.5079 109.962 56.2696 109.928 56.2016 109.758C56.2016 109.724 56.2016 109.724 56.2016 109.69C56.2016 109.486 56.3377 109.315 56.4738 109.145C56.7461 108.771 56.9163 108.362 57.1885 107.92C57.5629 107.239 57.9713 106.661 58.4478 106.082C58.686 105.708 58.9583 105.299 59.2646 104.925C59.5028 104.415 59.9793 104.04 60.2515 103.564C60.5578 103.223 60.8301 102.849 61.1024 102.509C61.2385 102.373 61.3746 102.202 61.5108 102.168Z" fill="white" class="haCuXWhM_16"/>
<path d="M235.681 78.493C235.202 78.5596 234.696 78.5197 234.229 78.6262C233.537 78.786 232.911 79.039 232.512 79.4119C232.032 79.8514 231.686 80.464 231.286 81.2764C231.127 81.596 231.073 82.4217 231.073 82.8079C231.073 83.8333 231.38 84.7922 231.979 85.5513C232.538 86.2704 233.244 86.8031 233.963 86.883C234.083 86.883 234.336 86.9496 234.469 86.9496C234.669 86.9496 234.736 86.9496 234.935 86.9496C235.814 86.9496 237.412 86.2571 237.412 85.458C237.412 85.0852 236.96 84.8721 236.56 84.8721C236.214 84.8721 236.094 84.9653 235.854 85.0985C235.601 85.2716 235.268 85.3648 235.068 85.3648C234.203 85.3648 233.524 84.8854 233.151 84.073C232.964 83.6868 232.898 83.3006 232.898 82.7546C232.898 81.8091 233.137 81.1299 233.83 80.5972C234.043 80.4507 234.403 80.2376 234.669 80.1444C234.949 80.0645 235.268 80.0512 235.575 80.0512C235.708 80.0512 235.841 80.0512 235.961 80.0512C236.254 80.0512 236.573 80.1577 236.88 80.1577C237.226 80.1178 237.559 79.6783 237.559 79.2921C237.559 78.7061 236.294 78.493 235.734 78.493C235.721 78.493 235.694 78.493 235.681 78.493Z" fill="white" class="haCuXWhM_17"/>
<path d="M241.923 78.3465C240.898 78.4531 239.766 78.9458 239.273 79.9313C238.834 80.6505 238.82 81.01 238.687 81.6226C238.62 81.7824 238.567 82.182 238.567 82.4084C238.567 82.5948 238.594 82.7679 238.607 82.9544C238.607 83.0875 238.581 83.2207 238.581 83.3539C238.581 83.567 238.687 83.8067 238.727 84.0198C238.767 84.1529 238.754 84.2861 238.794 84.4193C239.233 85.7643 240.472 87.0561 241.923 87.0561C243.388 87.0561 244.906 86.6832 245.759 84.5525C245.905 84.1929 245.932 83.4471 245.932 83.2607C245.932 83.0875 245.918 82.9011 245.918 82.728C245.918 82.5548 245.932 82.1154 245.932 81.9556C245.932 81.1432 245.492 80.211 245.159 79.7449C244.36 78.5996 242.696 78.3332 242.309 78.3332C242.296 78.3332 242.296 78.3332 242.283 78.3332C242.163 78.3332 242.03 78.3332 241.923 78.3465ZM242.123 80.0778C242.176 80.0645 242.203 80.0645 242.269 80.0645C242.669 80.0645 243.255 80.3175 243.375 80.4906C243.521 80.6371 243.601 80.8769 243.721 81.05C244.041 81.5028 244.2 82.3551 244.2 82.9144C244.2 83.86 243.788 84.619 242.989 85.0985C242.669 85.2716 242.443 85.3515 242.07 85.3515C240.685 85.3515 240.485 83.6336 240.485 82.7679C240.485 81.9689 240.778 80.6771 241.51 80.2509C241.67 80.171 241.937 80.1311 242.123 80.0778Z" fill="white" class="haCuXWhM_18"/>
<path d="M249.814 78.4797C249.587 78.5063 249.321 78.5063 249.095 78.5063C248.376 78.5063 247.976 78.7194 247.976 79.3187C247.976 79.3853 247.976 79.4519 247.989 79.5185C248.003 79.5584 248.003 79.5851 248.003 79.625C248.003 79.7049 247.989 79.7981 247.989 79.878C247.989 79.8914 247.989 79.918 247.989 79.9313C247.989 79.9713 247.989 79.9979 247.989 80.0245C247.989 80.1044 247.989 80.1843 247.989 80.2642C247.989 80.3042 247.989 80.3442 247.989 80.3841C248.003 80.5839 248.003 80.7836 248.003 80.9967C248.003 81.2098 248.003 81.4229 247.989 81.6093C247.976 81.7558 247.963 81.9289 247.963 82.0754C247.963 82.1953 248.003 82.2885 248.003 82.4084C248.003 82.6081 248.003 82.7546 248.016 82.9677C248.029 83.0476 248.029 83.1275 248.029 83.2207C248.029 83.4072 248.016 83.6069 248.003 83.7934C248.003 83.9665 248.043 84.2328 248.043 84.4459C248.043 84.4992 248.029 84.5525 248.029 84.5924C248.016 84.699 248.016 84.8188 248.016 84.952C248.016 85.0852 248.016 85.205 248.029 85.3116C248.029 85.3781 248.029 85.458 248.029 85.5246C248.029 85.5912 248.029 85.6445 248.029 85.7111C248.029 86.0573 248.043 86.4036 248.296 86.6699C248.376 86.7765 248.495 86.8297 248.629 86.883C248.722 86.9496 248.842 86.9895 248.975 86.9895C249.161 86.9895 249.334 86.8164 249.468 86.6832C249.681 86.4435 249.707 86.1639 249.707 85.8576C249.721 85.6978 249.721 85.5379 249.721 85.3781C249.721 85.1651 249.721 84.952 249.707 84.7389C249.707 84.6723 249.694 84.5658 249.694 84.4592C249.694 84.2062 249.721 83.9132 249.854 83.82C250 83.7001 250.187 83.6602 250.373 83.6602C250.493 83.6602 250.613 83.6735 250.719 83.6868C250.826 83.6868 250.946 83.7001 251.052 83.7001C251.186 83.7001 251.332 83.6868 251.465 83.6602C251.585 83.6469 251.705 83.6602 251.812 83.6202C252.091 83.527 252.291 83.274 252.358 83.0076C252.371 82.9277 252.371 82.8478 252.371 82.7812C252.371 82.4483 252.251 82.2352 251.878 82.1287C251.665 82.0754 251.479 82.0488 251.265 82.0488C251.172 82.0488 251.066 82.0488 250.973 82.0621C250.746 82.0887 250.506 82.1021 250.28 82.1154C250.173 82.1154 250.08 82.142 249.987 82.142C249.867 82.142 249.761 82.1021 249.694 81.9422C249.654 81.849 249.641 81.7292 249.641 81.6093C249.641 81.4895 249.654 81.3696 249.667 81.2631C249.667 81.2364 249.667 81.1965 249.667 81.1698C249.667 80.9701 249.641 80.7969 249.641 80.5972C249.641 80.5706 249.641 80.5306 249.641 80.4906C249.667 80.4107 249.641 80.2909 249.707 80.211C249.774 80.1044 249.907 80.0645 250.054 80.0645C250.2 80.0645 250.347 80.1044 250.453 80.1044C250.506 80.1044 250.573 80.1044 250.64 80.1044C250.839 80.1044 251.052 80.0911 251.226 80.0645C251.519 80.0245 251.718 80.0245 251.918 79.8381C252.091 79.6916 252.184 79.4386 252.184 79.1989C252.184 78.9458 252.078 78.6795 251.798 78.5729C251.612 78.493 251.372 78.4531 251.159 78.4531C251.106 78.4531 251.052 78.4664 250.999 78.4664C250.933 78.4797 250.853 78.4797 250.773 78.4797C250.693 78.4797 250.6 78.4797 250.52 78.4797C250.347 78.4797 250.2 78.4797 250.054 78.4797C249.974 78.4797 249.894 78.4797 249.814 78.4797Z" fill="white" class="haCuXWhM_19"/>
<path d="M254.331 78.4398C254.251 78.4531 254.171 78.4664 254.104 78.493C253.878 78.5996 253.825 78.8126 253.825 79.039C253.825 79.2654 253.878 79.5052 253.891 79.665C253.891 79.7182 253.891 79.7715 253.891 79.8381C253.891 79.9446 253.891 80.0512 253.891 80.1577C253.891 80.2642 253.891 80.3708 253.904 80.464C253.931 80.6904 253.904 80.9035 253.944 81.1299C253.958 81.1698 253.971 81.2098 253.971 81.2631C253.971 81.3296 253.958 81.4095 253.944 81.4761C253.944 81.6892 253.944 81.9023 253.958 82.1021C253.958 82.2086 253.944 82.3151 253.944 82.4217C253.944 82.4749 253.944 82.5282 253.958 82.5815C253.971 82.7147 253.971 82.8478 253.971 82.981C253.971 83.1275 253.971 83.2873 253.971 83.4338C253.971 83.5137 253.971 83.5803 253.971 83.6469C253.984 83.7667 254.011 83.86 254.011 83.9665C254.011 83.9798 254.011 84.0064 254.011 84.0198C254.011 84.113 254.024 84.2062 254.024 84.2994C254.024 84.3527 254.024 84.406 254.011 84.4459C254.011 84.5658 254.038 84.6856 254.038 84.8055C254.038 84.8321 254.038 84.8721 254.038 84.8987C254.038 85.0852 254.064 85.2716 254.078 85.4714C254.078 85.6045 254.078 85.8709 254.091 86.0041C254.157 86.4435 254.65 86.7765 255.09 86.7765C255.143 86.7765 255.183 86.7765 255.223 86.7632C255.529 86.7099 255.596 86.5368 255.676 86.2704C255.702 86.1505 255.716 86.0041 255.716 85.8576C255.716 85.5113 255.662 85.1384 255.649 84.8454C255.649 84.8188 255.649 84.7922 255.649 84.7522C255.649 84.5391 255.676 84.3127 255.702 84.0997C255.702 84.073 255.702 84.0597 255.702 84.0331C255.702 83.9532 255.689 83.86 255.689 83.78C255.689 83.6735 255.716 83.567 255.809 83.5004C255.889 83.4338 255.995 83.4205 256.115 83.4205C256.208 83.4205 256.288 83.4338 256.368 83.4338C256.568 83.4338 256.754 83.3938 256.941 83.3938C257.394 83.3672 257.94 83.4471 258.073 82.8611C258.086 82.7946 258.099 82.728 258.099 82.6747C258.099 82.2885 257.793 82.0221 257.394 81.9822C257.367 81.9822 257.34 81.9822 257.327 81.9822C257.207 81.9822 257.114 82.0088 256.994 82.0088C256.848 81.9955 256.714 81.9689 256.568 81.9689C256.501 81.9689 256.435 81.9822 256.368 81.9955C256.275 82.0088 256.128 82.0488 255.982 82.0488C255.809 82.0488 255.662 81.9955 255.622 81.8357C255.609 81.7691 255.596 81.7025 255.596 81.6359C255.596 81.4895 255.622 81.343 255.622 81.1965C255.622 81.1698 255.622 81.1565 255.622 81.1299C255.609 81.0367 255.582 80.8369 255.582 80.6505C255.582 80.4507 255.609 80.2509 255.716 80.1843C255.809 80.1178 255.915 80.0911 256.022 80.0911C256.155 80.0911 256.288 80.1178 256.408 80.1311C256.435 80.1311 256.448 80.1311 256.475 80.1311C256.555 80.1311 256.648 80.1178 256.728 80.1178C256.834 80.1178 256.927 80.1444 257.034 80.1444C257.394 80.1444 257.727 79.9979 257.913 79.665C257.98 79.5451 258.006 79.4119 258.006 79.3054C258.006 78.9991 257.766 78.7594 257.42 78.6795C257.3 78.6528 257.167 78.6395 257.047 78.6395C256.967 78.6395 256.874 78.6395 256.794 78.6395C256.754 78.6395 256.714 78.6395 256.674 78.6395C256.395 78.6395 256.128 78.6129 255.849 78.6129C255.756 78.6129 255.662 78.6262 255.569 78.6262C255.436 78.6262 255.276 78.5996 255.156 78.5996C255.143 78.5996 255.143 78.5996 255.13 78.5996C254.863 78.5996 254.677 78.4264 254.424 78.4264C254.397 78.4264 254.357 78.4398 254.331 78.4398Z" fill="white" class="haCuXWhM_20"/>
<path d="M262.843 78.6662C262.523 78.7061 261.937 78.7061 261.604 78.7327C261.391 78.7594 261.138 78.7594 260.925 78.7594C260.658 78.7727 260.352 78.786 260.166 78.9991C260.006 79.1989 259.953 79.5052 259.953 79.7848C259.953 79.8647 259.966 79.9579 259.966 80.0245C259.966 80.0778 259.979 80.1311 259.979 80.1843C259.979 80.4107 259.939 80.6371 259.939 80.8635C259.939 81.1565 259.953 81.4229 259.953 81.7025C259.953 81.7691 259.953 81.8357 259.953 81.9156C259.939 82.1287 259.939 82.3418 259.939 82.5548C259.939 82.728 259.939 82.9011 259.939 83.0742C259.939 83.3273 259.939 83.5803 259.913 83.8333C259.913 83.9132 259.899 83.9931 259.899 84.073C259.899 84.3261 259.926 84.5924 259.939 84.8454C259.939 85.0452 259.886 85.3648 259.886 85.5912C259.886 85.6179 259.886 85.6312 259.886 85.6578C259.913 86.044 259.993 86.5101 260.379 86.7498C260.512 86.8297 260.672 86.8963 260.832 86.8963C260.885 86.8963 260.938 86.883 260.991 86.8697C261.111 86.8164 261.218 86.7232 261.338 86.6832C261.431 86.6566 261.551 86.6566 261.684 86.6566C261.884 86.6566 262.083 86.6699 262.23 86.6699C262.43 86.6699 262.776 86.63 262.976 86.63C263.122 86.63 263.295 86.6566 263.455 86.6566C263.548 86.6566 263.642 86.6433 263.721 86.6167C264.054 86.4968 264.387 86.0307 264.387 85.6445C264.387 85.458 264.307 85.2982 264.094 85.205C263.948 85.1384 263.801 85.1118 263.668 85.1118C263.548 85.1118 263.442 85.1251 263.322 85.1251C263.295 85.1251 263.269 85.1251 263.242 85.1251C263.189 85.1251 263.136 85.1251 263.082 85.1251C262.936 85.1251 262.789 85.1251 262.643 85.1251C262.576 85.1251 262.51 85.1251 262.443 85.1251C262.363 85.1251 262.283 85.1384 262.19 85.1384C262.017 85.1384 261.817 85.1118 261.724 84.9786C261.644 84.8854 261.631 84.7655 261.631 84.6324C261.631 84.5125 261.644 84.3927 261.657 84.2861C261.671 84.1263 261.671 83.86 261.724 83.7135C261.79 83.5537 261.844 83.5403 261.924 83.5403C261.95 83.5403 261.977 83.5403 262.017 83.5403C262.057 83.5403 262.097 83.5403 262.15 83.527C262.297 83.4871 262.376 83.4737 262.496 83.4737C262.55 83.4737 262.616 83.4871 262.696 83.4871C263.002 83.4737 263.162 83.4871 263.455 83.3672C263.655 83.2873 263.815 83.1541 263.828 82.9277C263.841 82.7812 263.855 82.6747 263.855 82.5682C263.855 82.2086 263.735 82.0621 263.255 81.9556C263.202 81.9422 263.162 81.9422 263.109 81.9422C263.002 81.9422 262.896 81.9556 262.776 81.9689C262.643 81.9689 262.536 81.9822 262.403 81.9955C262.297 82.0088 262.15 82.0621 262.03 82.0621C261.937 82.0621 261.857 82.0355 261.817 81.9156C261.737 81.7558 261.777 81.4495 261.75 81.2764C261.737 81.1299 261.737 81.01 261.737 80.8635C261.737 80.8369 261.737 80.8236 261.737 80.7969C261.737 80.7304 261.737 80.6638 261.737 80.5972C261.737 80.4906 261.737 80.3841 261.79 80.2909C261.884 80.1178 262.336 80.1044 262.629 80.1044C262.696 80.1044 262.763 80.1044 262.803 80.1044C262.936 80.1044 263.189 80.0778 263.322 80.0778C263.428 80.0778 263.495 80.0778 263.562 80.0778C263.761 80.0778 263.828 80.0512 264.108 79.7848C264.228 79.665 264.294 79.5052 264.294 79.332C264.294 79.1456 264.214 78.9725 264.081 78.8659C263.855 78.6928 263.522 78.6395 263.215 78.6395C263.082 78.6395 262.962 78.6528 262.843 78.6662Z" fill="white" class="haCuXWhM_21"/>
<path d="M267.071 78.5729C266.818 78.6262 266.432 78.5996 266.272 78.826C266.165 78.9591 266.152 79.119 266.152 79.2921C266.152 79.3986 266.152 79.5052 266.152 79.5984C266.152 79.6516 266.152 79.6916 266.152 79.7449C266.125 80.0112 266.112 80.2642 266.112 80.5173C266.112 80.8103 266.125 81.1032 266.152 81.3962C266.152 81.4229 266.152 81.4495 266.152 81.4761C266.152 81.6226 266.125 81.7691 266.125 81.9289C266.125 82.142 266.125 82.3418 266.152 82.5415C266.165 82.6214 266.165 82.7013 266.165 82.7679C266.165 82.8345 266.165 82.9144 266.165 82.981C266.179 83.274 266.192 83.5537 266.192 83.8333C266.192 83.86 266.192 83.8733 266.192 83.8999C266.192 84.0331 266.165 84.1796 266.165 84.3127C266.165 84.659 266.232 85.0053 266.232 85.3382C266.232 85.4447 266.192 85.5513 266.192 85.6578C266.192 85.6844 266.205 85.7111 266.205 85.7377C266.218 85.8043 266.218 85.8576 266.218 85.9242C266.218 85.9907 266.218 86.0706 266.218 86.1372C266.218 86.3503 266.232 86.5368 266.418 86.6433C266.618 86.7632 266.898 86.7898 267.204 86.7898C267.564 86.7898 267.936 86.7498 268.176 86.7232C268.363 86.7099 268.562 86.7099 268.749 86.7099C268.935 86.7099 269.122 86.7099 269.321 86.6832C269.361 86.6832 269.415 86.6699 269.455 86.6699C269.721 86.6699 269.974 86.7632 270.24 86.7632C270.36 86.7632 270.48 86.7365 270.6 86.6832C270.88 86.5634 271.053 86.1772 271.053 85.8309C271.053 85.5513 270.933 85.2849 270.693 85.205C270.427 85.0985 270.094 85.1251 269.814 85.1118C269.788 85.1118 269.748 85.1118 269.708 85.1118C269.561 85.1118 269.375 85.1251 269.242 85.1251C269.215 85.1251 269.202 85.1251 269.175 85.1251C269.028 85.1251 268.855 85.1517 268.709 85.1651C268.576 85.1784 268.429 85.205 268.283 85.205C268.136 85.205 267.99 85.1784 267.896 85.0585C267.803 84.9387 267.777 84.7922 267.777 84.6324C267.777 84.4326 267.817 84.2195 267.817 84.0464C267.817 83.9132 267.777 83.7667 267.777 83.6202C267.777 83.5403 267.79 83.4604 267.83 83.3938C267.896 83.2607 268.03 83.2474 268.176 83.2474C268.269 83.2474 268.363 83.2474 268.443 83.2474C268.589 83.234 268.749 83.234 268.909 83.234C269.122 83.234 269.335 83.234 269.548 83.2474C269.628 83.2607 269.788 83.2607 269.921 83.2607C269.974 83.2607 270.014 83.2607 270.054 83.2607C270.36 83.1808 270.52 82.9277 270.52 82.6348C270.52 82.5815 270.52 82.5282 270.507 82.4616C270.493 82.0754 270.16 81.849 269.814 81.8091C269.788 81.8091 269.774 81.8091 269.748 81.8091C269.694 81.8091 269.641 81.8091 269.588 81.8091C269.561 81.8091 269.535 81.8091 269.508 81.8091C269.282 81.7824 269.108 81.7691 268.882 81.7691C268.815 81.7824 268.762 81.7824 268.709 81.7824C268.656 81.7824 268.589 81.7824 268.536 81.7824C268.429 81.7958 268.296 81.8224 268.15 81.8224C267.963 81.8224 267.79 81.7824 267.75 81.6093C267.697 81.4229 267.67 81.1965 267.657 80.9967C267.657 80.9568 267.657 80.9301 267.657 80.8902C267.657 80.7304 267.67 80.5706 267.683 80.4241C267.683 80.3841 267.683 80.3308 267.683 80.2909C267.683 80.2376 267.683 80.1843 267.723 80.1444C267.79 80.0645 267.923 80.0512 268.043 80.0512C268.15 80.0512 268.269 80.0645 268.349 80.0645C268.536 80.0512 268.642 80.0379 268.802 80.0379C268.842 80.0379 268.882 80.0379 268.922 80.0379C269.095 80.0512 269.495 80.0379 269.668 80.0645C269.694 80.0645 269.734 80.0778 269.761 80.0778C269.947 80.0778 270.041 79.9579 270.174 79.7848C270.28 79.6383 270.334 79.4785 270.334 79.332C270.334 79.0657 270.174 78.8126 269.894 78.6928C269.668 78.5996 269.415 78.5729 269.162 78.5729C268.882 78.5729 268.602 78.6129 268.336 78.6129C268.269 78.6129 268.203 78.5996 268.136 78.5996C267.896 78.5863 267.657 78.5463 267.404 78.5463C267.297 78.5463 267.177 78.5596 267.071 78.5729Z" fill="white" class="haCuXWhM_22"/>
<path d="M278.131 77.148C277.771 77.2545 277.598 77.5608 277.398 77.8405C277.199 78.1068 276.932 78.3332 276.732 78.6129C276.639 78.7461 276.586 78.8926 276.506 79.039C276.133 79.6516 275.787 80.3575 275.667 81.0899C275.574 81.6493 275.507 82.1686 275.481 82.7013C275.467 83.0609 275.427 83.4471 275.427 83.82C275.427 83.9532 275.427 84.0863 275.441 84.2062C275.467 84.699 275.547 85.1517 275.627 85.5379C275.694 85.8842 275.8 86.2305 275.92 86.5634C275.973 86.7099 275.987 86.8697 276.04 87.0162C276.173 87.3624 276.373 87.6821 276.559 87.9884C276.732 88.3213 276.906 88.6143 277.119 88.9339C277.318 89.2136 277.678 89.5065 278.051 89.5065C278.117 89.5065 278.184 89.4932 278.264 89.4666C278.597 89.36 278.743 89.0671 278.743 88.7608C278.743 88.5344 278.663 88.2947 278.517 88.1215C278.317 87.8951 278.104 87.6821 277.931 87.4157C277.705 87.0561 277.585 86.6167 277.452 86.2038C277.172 85.458 277.185 85.4048 277.079 84.659C277.052 84.366 277.039 84.1929 277.039 83.8999C277.039 83.527 277.025 83.1941 277.025 82.8745C277.052 82.5815 277.105 82.4483 277.105 82.1553C277.119 81.9156 277.172 81.6759 277.199 81.4495C277.212 81.3163 277.199 81.1698 277.225 81.0367C277.278 80.7437 277.425 80.4374 277.558 80.1444C277.731 79.7582 278.011 79.4119 278.277 79.079C278.37 78.9591 278.45 78.8126 278.544 78.6928C278.73 78.4664 278.983 78.3732 279.076 78.0536C279.09 78.0136 279.09 77.9737 279.09 77.9337C279.09 77.5475 278.65 77.1347 278.264 77.1347C278.211 77.1347 278.171 77.1347 278.131 77.148Z" fill="white" class="haCuXWhM_23"/>
<path d="M281.343 78.5729C281.063 78.6395 280.877 78.7194 280.624 78.7993C280.544 78.8393 280.37 78.9192 280.291 78.9725C280.171 79.039 280.091 79.1722 280.011 79.2788C279.838 79.4918 279.718 79.665 279.718 79.8647C279.718 79.9579 279.745 80.0512 279.798 80.171C279.891 80.3442 280.144 80.5306 280.291 80.6238C280.344 80.6505 280.397 80.6505 280.45 80.6505C280.65 80.6505 280.863 80.5173 280.97 80.3841C281.076 80.2642 281.196 80.1577 281.343 80.0911C281.516 79.9979 281.676 79.9713 281.849 79.9713C281.955 79.9713 282.075 79.9846 282.195 79.9846C282.208 79.9846 282.208 79.9846 282.222 79.9846C282.528 79.9846 282.861 80.1977 282.994 80.5173C283.021 80.5839 283.034 80.6771 283.034 80.757C283.034 80.8369 283.021 80.9301 282.994 80.9834C282.848 81.3163 282.768 81.6093 282.541 81.9023C282.448 82.0221 282.328 82.1553 282.222 82.2885C282.088 82.4883 281.929 82.688 281.795 82.9011C281.662 83.0609 281.556 83.2474 281.436 83.4205C281.263 83.6868 281.116 83.9399 280.916 84.2062C280.717 84.4592 280.504 84.7389 280.277 84.9919C280.184 85.1118 279.984 85.2716 279.931 85.4181C279.904 85.4847 279.891 85.5513 279.891 85.6179C279.891 85.8043 279.984 85.9774 280.064 86.1506C280.171 86.4036 280.304 86.5634 280.57 86.7099C280.783 86.8297 281.05 86.7898 281.289 86.8297C281.582 86.8564 281.875 86.8697 282.168 86.8697C282.262 86.8697 282.368 86.8697 282.461 86.8697C282.728 86.8564 283.007 86.8431 283.274 86.8431C283.407 86.8431 283.527 86.8564 283.647 86.8564C283.793 86.8564 283.94 86.8431 284.086 86.7898C284.233 86.7498 284.446 86.6433 284.565 86.5634C284.632 86.5101 284.659 86.4302 284.712 86.3503C284.805 86.2038 284.872 86.084 284.872 85.9641C284.872 85.8842 284.832 85.791 284.752 85.6844C284.472 85.3781 284.059 85.3249 283.673 85.3249C283.553 85.3249 283.433 85.3382 283.327 85.3382C283.194 85.3382 283.007 85.3382 282.861 85.3515C282.808 85.3515 282.714 85.3648 282.608 85.3648C282.435 85.3648 282.235 85.3382 282.235 85.1917V85.1784C282.235 85.0585 282.435 84.8854 282.515 84.7655C282.608 84.619 282.688 84.4459 282.794 84.2994C282.941 84.113 283.101 83.9532 283.22 83.7667C283.433 83.4338 283.647 83.1009 283.873 82.7679C284.299 82.142 284.712 81.4895 284.712 80.717C284.712 80.7037 284.712 80.6904 284.712 80.6771C284.699 80.2376 284.712 79.878 284.379 79.5185C284.286 79.3986 284.166 79.3054 284.033 79.2255C283.913 79.1323 283.82 79.039 283.687 78.9458C283.5 78.8526 283.234 78.7727 283.034 78.6795C282.674 78.5197 282.435 78.5463 282.048 78.5197C281.995 78.5197 281.942 78.5197 281.889 78.5197C281.702 78.5197 281.489 78.533 281.343 78.5729Z" fill="white" class="haCuXWhM_24"/>
<path d="M288.218 78.826C287.272 78.9858 286.633 79.8647 286.393 80.717C286.22 81.2897 286.18 81.8757 286.14 82.4483C286.127 82.6614 286.127 82.8611 286.127 83.0742C286.127 83.3006 286.127 83.527 286.167 83.7534C286.287 84.3793 286.433 85.0319 286.833 85.5513C287.112 85.9108 287.272 86.2571 287.672 86.4968C287.778 86.5634 287.885 86.59 287.978 86.6433C288.204 86.7498 288.617 86.8963 288.897 86.8963C288.924 86.8963 288.937 86.8963 288.963 86.8963C289.323 86.8564 289.749 86.8297 290.069 86.6566C290.482 86.4302 290.801 86.044 291.094 85.6578C291.454 85.205 291.56 84.6057 291.707 84.0597C291.8 83.6868 291.827 83.2873 291.84 82.9011C291.853 82.7546 291.867 82.5948 291.867 82.435C291.867 82.395 291.867 82.3551 291.867 82.3151C291.867 81.9689 291.813 81.6493 291.773 81.2897C291.747 80.9967 291.72 80.7703 291.574 80.4906C291.507 80.3575 291.48 80.171 291.361 80.0911C291.267 80.0245 291.267 79.8914 291.187 79.8115C291.094 79.7049 291.081 79.5851 290.988 79.4785C290.828 79.332 290.601 79.1456 290.428 79.039C290.242 78.9325 290.029 78.826 289.829 78.7461C289.616 78.6528 289.403 78.6662 289.177 78.6528C289.163 78.6528 289.15 78.6528 289.137 78.6528C288.844 78.6528 288.497 78.7727 288.218 78.826ZM289.23 80.171C289.483 80.171 289.776 80.3708 289.976 80.5173C290.055 80.5705 290.095 80.7703 290.149 80.8502C290.269 81.0899 290.269 81.2231 290.295 81.4761C290.322 81.7025 290.322 81.9422 290.322 82.1686C290.322 82.3284 290.322 82.4749 290.322 82.6348C290.322 82.6747 290.322 82.7147 290.322 82.7546C290.322 83.3006 290.242 83.8333 290.055 84.3261C289.922 84.6723 289.723 84.8854 289.456 85.1251C289.296 85.245 289.137 85.3781 288.923 85.3781C288.91 85.3781 288.91 85.3781 288.897 85.3781C288.471 85.3781 288.271 85.1517 288.071 84.8188C288.005 84.7123 287.925 84.4859 287.885 84.366C287.845 84.2462 287.818 84.0997 287.792 83.9665C287.725 83.7401 287.685 83.5004 287.672 83.2607C287.658 83.1009 287.645 82.9277 287.645 82.7679C287.645 82.2485 287.658 81.6626 287.831 81.1698C287.925 80.8769 288.218 80.4507 288.484 80.2909C288.644 80.1843 288.817 80.1577 289.003 80.1577C289.083 80.1577 289.15 80.171 289.23 80.171Z" fill="white" class="haCuXWhM_25"/>
<path d="M295.614 78.533C294.908 78.5463 294.042 78.6395 293.576 79.2388C293.469 79.372 293.35 79.5451 293.323 79.7316C293.323 79.7582 293.323 79.7848 293.323 79.8115C293.323 80.1311 293.456 80.5572 293.802 80.6371C293.856 80.6505 293.896 80.6505 293.949 80.6505C294.095 80.6505 294.242 80.6238 294.335 80.5306C294.455 80.4107 294.575 80.3175 294.695 80.211C294.854 80.0778 295.054 80.0245 295.254 79.9713C295.307 79.9579 295.387 79.9579 295.454 79.9579C295.813 79.9579 296.253 80.1311 296.319 80.5173C296.333 80.5972 296.333 80.6771 296.333 80.757C296.333 81.2098 296.16 81.6493 295.933 82.0488C295.827 82.2485 295.68 82.4217 295.547 82.6081C295.44 82.7546 295.347 82.8745 295.227 83.021C294.974 83.3539 294.681 83.6469 294.415 83.9665C294.002 84.4459 293.629 84.9653 293.283 85.5113C293.203 85.6312 293.163 85.7643 293.163 85.8975C293.163 86.2837 293.469 86.6832 293.869 86.7365C294.029 86.7632 294.202 86.7765 294.362 86.7765C294.522 86.7765 294.681 86.7632 294.841 86.7632C295.001 86.7632 295.147 86.8031 295.307 86.8031C295.321 86.8031 295.347 86.8031 295.361 86.8031C295.56 86.7632 295.76 86.7099 295.96 86.7099C296.173 86.7099 296.466 86.6966 296.719 86.6966C296.785 86.6966 296.852 86.6966 296.905 86.6966C297.132 86.6966 297.478 86.5234 297.718 86.4702C298.024 86.4036 298.357 85.9641 298.357 85.5779C298.357 85.4447 298.317 85.3249 298.237 85.2183C298.091 85.0585 297.838 84.9919 297.638 84.9653C297.611 84.9653 297.585 84.9653 297.558 84.9653C297.158 84.9653 296.532 85.245 296.16 85.245C296.133 85.245 296.093 85.245 296.066 85.245C295.946 85.245 295.813 85.2583 295.693 85.2583C295.627 85.245 295.52 85.2316 295.494 85.1651C295.494 85.1517 295.494 85.1384 295.494 85.1251C295.494 84.9919 295.667 84.8188 295.733 84.7256C295.827 84.5791 295.92 84.4592 296.053 84.3261C296.253 84.0997 296.399 83.8466 296.572 83.6202C296.652 83.4871 296.772 83.3938 296.852 83.274C296.999 83.0742 297.185 82.9277 297.318 82.688C297.451 82.4483 297.585 82.1686 297.664 81.9023C297.704 81.7958 297.771 81.7025 297.811 81.5827C297.878 81.3563 297.917 81.0899 297.917 80.8369C297.917 80.1444 297.664 79.4253 297.132 78.9858C296.959 78.8393 296.746 78.786 296.519 78.7061C296.279 78.6129 296 78.533 295.72 78.533C295.68 78.533 295.653 78.533 295.614 78.533Z" fill="white" class="haCuXWhM_26"/>
<path d="M301.539 78.3865C301.312 78.4131 301.099 78.4797 300.886 78.5197C300.74 78.5596 300.58 78.6262 300.46 78.7194C300.247 78.8792 299.981 79.2122 299.927 79.4785C299.927 79.5052 299.927 79.5451 299.927 79.5717C299.927 79.918 300.18 80.3308 300.487 80.464C300.553 80.4906 300.62 80.504 300.686 80.504C300.993 80.504 301.179 80.1977 301.405 80.0379C301.552 79.9313 301.965 79.8647 302.138 79.8647C302.404 79.8647 302.524 79.8914 302.724 80.0379C302.83 80.1178 302.87 80.2376 302.87 80.3708C302.87 80.3841 302.87 80.4107 302.87 80.4241C302.87 80.5306 302.804 80.6505 302.764 80.7437C302.617 81.0899 302.364 81.3296 302.031 81.4895C301.765 81.6093 301.459 81.6759 301.192 81.7691C300.859 81.8757 300.46 82.0221 300.46 82.395C300.46 82.435 300.46 82.4883 300.473 82.5415C300.566 82.8611 300.7 83.0609 301.059 83.0742C301.246 83.0742 301.552 83.1275 301.738 83.1275C301.872 83.1275 301.991 83.1541 302.111 83.1941C302.231 83.2207 302.338 83.274 302.444 83.2873C302.844 83.3406 303.083 83.7534 303.083 84.1796C303.083 84.2595 303.07 84.3527 303.057 84.4326C302.964 84.7789 302.684 85.1118 302.391 85.2982C302.244 85.3915 302.085 85.4314 301.951 85.498C301.845 85.5513 301.698 85.5646 301.552 85.5646C301.366 85.5646 301.179 85.5379 301.019 85.5113C300.833 85.4714 300.673 85.3648 300.487 85.3249C300.327 85.2982 300.154 85.3116 299.994 85.2982C299.967 85.2982 299.927 85.2982 299.901 85.2982C299.741 85.2982 299.554 85.3382 299.488 85.5113C299.448 85.6045 299.435 85.7111 299.435 85.8043C299.435 85.9774 299.488 86.1372 299.581 86.2704C299.767 86.5368 299.914 86.7232 300.234 86.8164C300.367 86.8564 300.553 86.8963 300.673 86.9363C300.966 87.0561 301.046 87.0695 301.379 87.0961C301.459 87.0961 301.565 87.0961 301.685 87.0961C301.925 87.0961 302.191 87.0961 302.284 87.0561C302.511 86.9629 302.764 86.8963 302.99 86.8031C303.243 86.6832 303.47 86.5767 303.696 86.4169C304.322 85.9641 304.682 85.1251 304.682 84.3261C304.682 84.113 304.655 83.8999 304.602 83.7001C304.522 83.3539 304.389 83.021 304.136 82.7679C304.016 82.6348 303.656 82.4616 303.656 82.2752C303.656 82.1953 303.723 82.142 303.763 82.0887C303.829 81.9689 303.896 81.849 303.962 81.7425C304.149 81.4495 304.335 81.0766 304.402 80.717C304.415 80.5972 304.429 80.4507 304.429 80.3042C304.429 80.1444 304.415 79.9713 304.375 79.8381C304.295 79.5717 304.109 79.2788 303.922 79.0923C303.669 78.8127 303.337 78.6395 302.95 78.533C302.737 78.4797 302.484 78.4531 302.271 78.4131C302.098 78.3998 301.925 78.3865 301.738 78.3865C301.672 78.3865 301.605 78.3865 301.539 78.3865Z" fill="white" class="haCuXWhM_27"/>
<path d="M305.791 77.148C305.512 77.2279 305.419 77.4676 305.419 77.7206C305.419 77.8138 305.432 77.9204 305.458 78.0136C305.525 78.28 305.685 78.4264 305.845 78.6395C306.084 78.9725 306.271 79.3187 306.377 79.7049C306.511 80.1577 306.724 80.4906 306.857 80.9035C306.99 81.2897 307.083 81.7292 307.15 82.1154C307.203 82.4616 307.23 83.0742 307.23 83.5936C307.23 83.82 307.23 84.0331 307.216 84.1929C307.19 84.619 307.097 85.0319 307.043 85.458C307.003 85.751 306.99 86.044 306.91 86.337C306.764 86.8697 306.484 87.3092 306.204 87.7753C306.084 87.975 305.898 88.2148 305.818 88.4411C305.791 88.5211 305.778 88.601 305.778 88.6675C305.778 89.0671 306.151 89.44 306.564 89.44C306.59 89.44 306.604 89.44 306.63 89.44C306.937 89.4133 307.176 89.147 307.336 88.9339C307.749 88.3746 308.055 87.762 308.242 87.0961C308.322 86.8297 308.415 86.5368 308.468 86.2571C308.601 85.5912 308.695 84.8321 308.748 84.1529C308.761 84.0198 308.761 83.86 308.761 83.6735C308.761 83.1142 308.721 82.4084 308.695 82.0621C308.668 81.7958 308.548 81.5294 308.482 81.2631C308.335 80.6771 308.149 80.0778 307.896 79.5318C307.696 79.1056 307.523 78.786 307.296 78.3732C307.123 78.0669 307.003 77.7339 306.764 77.4809C306.577 77.2945 306.258 77.1213 305.965 77.1213C305.898 77.1213 305.845 77.1347 305.791 77.148Z" fill="white" class="haCuXWhM_28"/>
<path d="M250.872 94.6796C249.646 95.156 250.736 96.8577 249.681 97.3682C249.374 97.5384 249.034 97.5044 248.694 97.6065C248.217 97.7426 247.809 98.117 247.366 98.3212C247.026 98.4573 246.652 98.4913 246.345 98.7296C245.869 99.0699 245.358 99.7165 245.12 100.227C244.78 100.908 244.61 101.656 244.61 102.439C244.61 103.426 244.916 104.413 245.665 105.162C246.652 106.115 247.945 106.693 249.136 107.272C249.749 107.544 250.327 107.919 250.94 108.191C252.675 109.008 254.343 110.097 254.445 112.241C254.445 112.275 254.445 112.275 254.445 112.309C254.445 113.432 253.73 114.147 252.982 114.929C252.573 115.338 252.267 115.78 251.723 115.984C251.246 116.189 250.667 116.325 250.157 116.495C249.817 116.597 249.51 116.631 249.204 116.631C248.796 116.631 248.387 116.563 247.809 116.495C246.822 116.393 245.903 115.61 244.95 115.61C244.78 115.61 244.61 115.61 244.439 115.678C243.929 115.848 243.623 116.325 243.623 116.801C243.623 117.04 243.725 117.312 243.895 117.516C244.167 117.788 244.541 117.958 244.882 118.129C245.426 118.367 245.971 118.673 246.549 118.809C246.856 118.877 247.298 118.945 247.639 118.945C247.775 118.945 247.911 118.945 248.013 118.911C248.047 118.911 248.115 118.911 248.149 118.911C248.489 118.911 248.796 119.013 249.136 119.082C249.51 119.184 249.408 120.205 249.51 120.545C249.646 121.09 250.191 121.838 250.872 121.838C250.974 121.838 251.076 121.838 251.178 121.804C251.586 121.668 251.688 121.26 251.757 120.851C251.859 120.171 251.825 118.707 252.403 118.231C252.709 117.958 253.084 117.822 253.39 117.584C253.901 117.176 254.275 116.699 254.751 116.291C255.058 116.019 255.432 115.848 255.67 115.542C255.943 115.236 256.011 114.827 256.181 114.453C256.487 113.84 256.759 113.262 256.828 112.581C256.862 112.377 256.862 112.173 256.862 111.969C256.862 110.267 256.011 108.599 254.82 107.476C253.696 106.387 252.097 105.774 250.702 105.094C250.327 104.924 249.987 104.651 249.612 104.481C248.66 104.039 247.23 103.528 247.026 102.337C246.992 102.235 246.992 102.133 246.992 102.031C246.992 101.18 247.639 100.533 248.353 100.159C249.34 99.6485 250.497 99.4783 251.62 99.4783C252.199 99.4783 252.744 99.5123 253.288 99.5804C253.799 99.6144 254.275 99.7506 254.751 99.7506C254.82 99.7506 254.922 99.7506 254.99 99.7506C255.534 99.7165 256.113 99.1039 256.113 98.5594C256.113 98.3212 256.011 98.117 255.772 97.9468C254.888 97.3002 253.492 97.9468 252.675 97.2321C252.471 97.0619 252.335 96.8577 252.335 96.6195C252.335 96.5854 252.335 96.5514 252.335 96.5174C252.335 96.2451 252.369 95.9388 252.369 95.6325C252.369 95.2581 252.301 94.9178 251.893 94.7136C251.757 94.6455 251.586 94.6455 251.45 94.6115C251.246 94.6115 251.076 94.6115 250.872 94.6796Z" fill="white" class="haCuXWhM_29"/>
<path d="M261.343 98.0829C260.356 98.3892 260.424 99.206 260.288 100.057C259.982 101.827 259.914 103.63 259.914 105.434C259.914 105.672 259.914 105.945 259.914 106.217C259.914 106.727 259.948 107.272 260.288 107.646C260.458 107.851 261.207 107.885 261.922 107.885C262.364 107.885 262.841 107.851 263.147 107.851C263.487 107.851 263.828 107.919 264.168 107.953C264.406 107.953 264.611 107.987 264.849 108.055C265.155 108.123 265.427 108.259 265.734 108.361C266.653 108.667 267.605 108.974 268.014 109.927C268.32 110.641 268.524 111.356 268.524 112.105C268.524 113.228 268.116 114.351 267.197 115.168C266.278 116.019 264.815 116.393 263.59 116.427C263.556 116.427 263.556 116.427 263.521 116.427C262.466 116.427 261.513 115.848 260.492 115.848C260.118 115.848 259.744 115.916 259.335 116.121C258.927 116.325 258.689 116.835 258.689 117.346C258.689 117.72 258.825 118.095 259.165 118.265C259.471 118.401 260.016 118.639 260.356 118.707C261.445 118.945 262.535 119.184 263.624 119.184C264.032 119.184 264.44 119.15 264.849 119.082C266.312 118.843 268.082 118.231 269.171 117.176C269.511 116.835 269.75 116.461 270.022 116.087C270.294 115.678 270.634 115.338 270.839 114.861C271.179 113.977 271.281 113.024 271.281 112.105C271.281 111.764 271.281 111.39 271.247 111.05C271.145 109.348 270.634 107.851 269.205 106.83C267.912 105.877 265.734 105.877 264.168 105.536C263.385 105.366 262.671 105.638 262.637 104.651C262.637 104.583 262.637 104.515 262.637 104.447C262.637 103.835 262.739 103.052 262.773 102.541C262.773 102.507 262.773 102.439 262.773 102.371C262.773 102.201 262.773 101.963 262.773 101.724C262.773 101.384 262.773 101.01 262.909 100.84C263.181 100.431 264.066 100.567 264.542 100.431C265.019 100.295 265.598 100.261 266.142 100.261C266.312 100.261 266.448 100.261 266.584 100.261C266.959 100.261 267.265 100.261 267.605 100.227C268.524 100.091 269.682 100.091 270.328 99.2401C270.43 99.1039 270.498 98.8657 270.498 98.6275C270.498 98.2871 270.396 97.9468 270.124 97.7766C269.852 97.5724 269.375 97.6065 269.035 97.5384C268.695 97.4703 268.422 97.4703 268.116 97.4703C267.776 97.4703 267.401 97.4703 267.027 97.5044C266.38 97.5724 265.461 97.6405 264.849 97.7086C264.44 97.7426 263.964 97.8447 263.556 97.8447C263.521 97.8447 263.453 97.8447 263.419 97.8447C263.317 97.8447 263.181 97.8447 263.079 97.8447C262.535 97.8447 261.99 97.9128 261.343 98.0829Z" fill="white" class="haCuXWhM_30"/>
<path d="M275.603 114.793C274.854 115.066 274.276 115.882 274.072 116.801C274.003 117.005 274.003 117.21 274.003 117.38C274.003 118.129 274.412 118.673 275.127 118.673C275.161 118.673 275.161 118.673 275.195 118.673C275.433 118.673 275.637 118.605 275.875 118.537C276.216 118.401 276.42 118.095 276.692 117.822C277.067 117.482 277.509 117.278 277.577 116.665C277.577 116.597 277.577 116.563 277.577 116.495C277.577 116.189 277.441 115.916 277.271 115.644C276.964 115.1 276.556 114.725 276.011 114.725C275.875 114.725 275.739 114.759 275.603 114.793Z" fill="white" class="haCuXWhM_31"/>
<path d="M286.839 97.7426C286.09 97.8447 285.274 97.8787 284.559 98.185C284.151 98.3892 283.742 98.5594 283.368 98.7976C283.13 99.0018 282.959 99.3081 282.721 99.5464C281.904 100.295 281.394 101.656 281.394 102.882C281.394 103.358 281.496 103.835 281.632 104.209C282.006 105.128 282.585 105.979 283.198 106.761C283.47 107.102 284.082 107.68 284.082 107.919C284.082 108.123 283.878 108.293 283.776 108.395C283.47 108.701 283.095 108.94 282.823 109.246C281.938 110.301 281.394 111.152 280.951 112.411C280.849 112.717 280.815 113.092 280.815 113.5C280.815 114.079 280.883 114.691 281.019 115.134C281.292 116.087 281.666 116.971 282.415 117.618C282.993 118.095 283.47 118.435 284.116 118.639C284.899 118.877 285.614 118.979 286.363 118.979C286.839 118.979 287.35 118.945 287.86 118.843C288.983 118.673 290.345 118.333 291.263 117.584C291.876 117.074 292.319 116.121 292.557 115.372C292.829 114.589 292.999 113.772 292.999 112.99C292.999 112.241 292.829 111.492 292.421 110.743C291.944 109.824 291.127 109.212 290.345 108.531C290.072 108.293 289.221 107.919 289.221 107.51C289.221 107.238 290.208 106.727 290.821 106.149C291.332 105.638 291.774 104.924 292.08 104.277C292.319 103.698 292.421 103.222 292.421 102.745C292.421 102.303 292.319 101.827 292.182 101.316C292.08 100.908 292.012 100.465 291.74 100.091C290.821 98.6955 289.085 97.7086 287.418 97.7086C287.214 97.7086 287.043 97.7086 286.839 97.7426ZM286.465 99.7846C286.635 99.7506 286.805 99.7506 286.975 99.7506C287.145 99.7506 287.316 99.7506 287.486 99.7846C287.86 99.8527 288.507 100.091 288.779 100.295C289.528 100.806 290.072 101.486 290.072 102.541C290.072 102.609 290.072 102.643 290.072 102.711C290.072 103.086 289.868 103.358 289.698 103.664C289.187 104.617 288.166 105.502 287.282 105.945C287.009 106.115 286.737 106.353 286.465 106.387C286.431 106.387 286.431 106.387 286.397 106.387C286.056 106.387 285.852 106.183 285.614 105.945C285.137 105.366 284.525 104.753 284.219 104.039C284.014 103.562 283.878 102.814 283.878 102.235V102.201C283.878 100.874 285.41 99.9548 286.465 99.7846ZM286.975 109.042H287.009C287.724 109.042 288.303 110.063 288.745 110.539C289.221 111.118 289.834 111.696 290.106 112.479C290.208 112.785 290.242 113.058 290.242 113.398C290.242 114.249 289.936 115.168 289.392 115.712C288.949 116.121 288.03 116.393 287.486 116.427C287.043 116.461 286.669 116.495 286.295 116.495C285.92 116.495 285.58 116.461 285.172 116.325C284.559 116.155 284.014 115.712 283.674 115.066C283.402 114.589 283.3 114.079 283.3 113.568C283.3 112.819 283.538 112.071 283.98 111.458C284.287 111.016 284.695 110.709 285.069 110.301C285.58 109.756 286.193 109.076 286.975 109.042Z" fill="white" class="haCuXWhM_32"/>
<path d="M304.75 108.463C304.852 108.497 304.886 108.667 304.886 108.906C304.886 109.042 304.886 109.212 304.852 109.382C304.716 109.995 304.58 110.641 304.341 111.22C303.456 113.16 302.231 114.827 300.359 115.78C299.577 116.189 298.794 116.325 297.977 116.631C297.365 116.869 296.514 117.04 296.139 117.584C295.867 117.924 295.731 118.197 295.731 118.435C295.731 118.673 295.867 118.877 296.139 119.15C296.173 119.184 296.275 119.184 296.446 119.184C297.194 119.184 299.168 118.843 299.577 118.605C300.053 118.333 300.632 118.163 301.108 117.924C302.061 117.414 303.048 116.903 303.933 116.155C305.567 114.691 306.588 112.513 307.37 110.505C307.813 109.314 308.085 107.953 308.119 106.659C308.119 106.387 308.459 105.74 308.459 105.468C308.425 104.89 308.221 104.788 308.119 104.175C307.779 102.303 307.166 100.669 305.839 99.3081C305.362 98.8317 304.818 98.3552 304.205 98.0829C303.559 97.8107 302.708 97.5724 301.959 97.5724C301.755 97.5724 301.551 97.6065 301.38 97.6405C300.87 97.7085 300.291 97.8447 299.781 97.9808C299.338 98.0829 298.964 98.2871 298.556 98.5254C298.147 98.7636 297.773 99.0699 297.433 99.4102C296.888 99.8867 296.446 100.567 296.173 101.214C295.867 101.827 295.765 102.745 295.765 103.596C295.765 104.005 295.799 104.413 295.833 104.719C295.935 105.536 296.207 106.319 296.616 107C296.99 107.646 297.433 108.157 298.079 108.531C298.692 108.906 299.168 109.178 299.849 109.382C300.359 109.518 300.836 109.586 301.38 109.586C301.483 109.586 301.619 109.586 301.721 109.586C302.027 109.552 302.742 109.484 303.048 109.382C303.729 109.144 304.512 108.463 304.716 108.463H304.75ZM301.142 99.9888C301.312 99.9548 301.483 99.9207 301.653 99.9207C303.559 99.9207 304.886 102.201 305.09 104.005C305.124 104.277 305.124 104.549 305.124 104.753C305.124 105.06 305.124 105.298 305.09 105.706C305.056 105.877 305.022 106.183 304.852 106.353C304.716 106.489 304.512 106.557 304.375 106.625C304.171 106.727 303.899 106.864 303.729 106.898C303.116 107 302.674 107.272 302.095 107.34C301.959 107.374 301.823 107.374 301.653 107.374C301.449 107.374 301.244 107.374 301.074 107.306C300.428 107.136 299.781 106.966 299.338 106.455C299.134 106.285 299.066 106.047 298.964 105.809C298.454 105.026 298.215 104.379 298.215 103.528C298.215 103.358 298.249 103.188 298.249 102.984C298.317 102.609 298.249 102.201 298.42 101.861C298.998 100.738 300.053 100.193 301.142 99.9888Z" fill="white" class="haCuXWhM_33"/>
<path d="M194.312 89.9652L199.339 87.0327C214.998 78.8054 228.424 99.486 215.678 111.75L206.042 118.872L197.158 127.365C195.353 128.886 194.312 131.126 194.312 133.487C194.312 137.037 196.146 140.047 199.539 141.097C201.309 141.644 203.182 141.059 204.836 140.224L207.299 138.981L211.069 136.048" stroke="white" stroke-width="2.95943" stroke-linecap="round" stroke-linejoin="round" class="haCuXWhM_34"/>
<path d="M125.853 66.5048C122.824 63.8457 117.89 56.5637 122.391 48.7089C128.016 38.8905 134.94 33.3676 127.151 22.9355" stroke="white" stroke-width="2.95943" stroke-linecap="round" stroke-linejoin="round" class="haCuXWhM_35"/>
<path d="M160.604 66.5048C157.828 63.8457 153.305 56.5637 157.431 48.7089C162.588 38.8905 168.934 33.3676 161.794 22.9355" stroke="white" stroke-width="2.95943" stroke-linecap="round" stroke-linejoin="round" class="haCuXWhM_36"/>
<path d="M143.449 63.1534C140.419 61.2613 135.486 56.0799 139.987 50.4909C145.612 43.5047 152.536 39.575 144.747 32.1522" stroke="white" stroke-width="2.95943" stroke-linecap="round" stroke-linejoin="round" class="haCuXWhM_37"/>
<path d="M89.8484 167.671C89.225 167.203 89.5556 166.211 90.3349 166.211H196.069C196.848 166.211 197.179 167.203 196.555 167.671C191.292 171.618 184.89 173.752 178.311 173.752L160.378 174.171L143.202 173.333L108.092 173.752C101.513 173.752 95.1116 171.618 89.8484 167.671Z" stroke="white" stroke-width="2.95943" stroke-linecap="round" stroke-linejoin="round" class="haCuXWhM_38"/>
<path d="M92.0918 79.9108C92.0918 76.2089 94.2549 74.0457 97.9569 74.0457L143.202 74.4647L165.406 74.0457H188.447C192.149 74.0457 194.312 76.2089 194.312 79.9108V120.424C194.312 132.518 189.248 144.059 180.348 152.247L178.915 153.565C175.378 156.819 173.365 161.406 173.365 166.212H113.039C113.039 161.406 111.026 156.819 107.489 153.565L106.056 152.247C97.1562 144.059 92.0918 132.518 92.0918 120.424L92.9297 100.439L92.0918 79.9108Z" stroke="white" stroke-width="2.95943" stroke-linecap="round" stroke-linejoin="round" class="haCuXWhM_39"/>
<path d="M118.192 118.147C117.432 117.069 101.256 100.855 100.471 99.8162" stroke="white" stroke-width="2.95943" stroke-linecap="round" class="haCuXWhM_40"/>
<path d="M112.762 122.437C112.002 121.359 101.257 110.068 100.471 109.029" stroke="white" stroke-width="2.95943" stroke-linecap="round" class="haCuXWhM_41"/>
<path d="M114.779 134.391C114.019 133.313 103.274 122.022 102.488 120.983" stroke="white" stroke-width="2.95943" stroke-linecap="round" class="haCuXWhM_42"/>
<path d="M115.226 146.597C114.466 145.519 104.271 131.698 103.485 130.659" stroke="white" stroke-width="2.95943" stroke-linecap="round" class="haCuXWhM_43"/>
</g>
<defs>
<clipPath id="clip0_394_22466">
<path width="310" height="206" fill="white" d="M0 0 L310 0 L310 206 L0 206 Z" class="haCuXWhM_44"/>
</clipPath>
</defs>
<style data-made-with="vivus-instant">.haCuXWhM_0{stroke-dasharray:33 35;stroke-dashoffset:34;}.start .haCuXWhM_0{animation:haCuXWhM_draw 666ms linear 0ms forwards;}.haCuXWhM_1{stroke-dasharray:41 43;stroke-dashoffset:42;}.start .haCuXWhM_1{animation:haCuXWhM_draw 666ms linear 7ms forwards;}.haCuXWhM_2{stroke-dasharray:28 30;stroke-dashoffset:29;}.start .haCuXWhM_2{animation:haCuXWhM_draw 666ms linear 15ms forwards;}.haCuXWhM_3{stroke-dasharray:28 30;stroke-dashoffset:29;}.start .haCuXWhM_3{animation:haCuXWhM_draw 666ms linear 22ms forwards;}.haCuXWhM_4{stroke-dasharray:32 34;stroke-dashoffset:33;}.start .haCuXWhM_4{animation:haCuXWhM_draw 666ms linear 30ms forwards;}.haCuXWhM_5{stroke-dasharray:35 37;stroke-dashoffset:36;}.start .haCuXWhM_5{animation:haCuXWhM_draw 666ms linear 37ms forwards;}.haCuXWhM_6{stroke-dasharray:29 31;stroke-dashoffset:30;}.start .haCuXWhM_6{animation:haCuXWhM_draw 666ms linear 45ms forwards;}.haCuXWhM_7{stroke-dasharray:32 34;stroke-dashoffset:33;}.start .haCuXWhM_7{animation:haCuXWhM_draw 666ms linear 53ms forwards;}.haCuXWhM_8{stroke-dasharray:36 38;stroke-dashoffset:37;}.start .haCuXWhM_8{animation:haCuXWhM_draw 666ms linear 60ms forwards;}.haCuXWhM_9{stroke-dasharray:35 37;stroke-dashoffset:36;}.start .haCuXWhM_9{animation:haCuXWhM_draw 666ms linear 68ms forwards;}.haCuXWhM_10{stroke-dasharray:33 35;stroke-dashoffset:34;}.start .haCuXWhM_10{animation:haCuXWhM_draw 666ms linear 75ms forwards;}.haCuXWhM_11{stroke-dasharray:29 31;stroke-dashoffset:30;}.start .haCuXWhM_11{animation:haCuXWhM_draw 666ms linear 83ms forwards;}.haCuXWhM_12{stroke-dasharray:96 98;stroke-dashoffset:97;}.start .haCuXWhM_12{animation:haCuXWhM_draw 666ms linear 90ms forwards;}.haCuXWhM_13{stroke-dasharray:85 87;stroke-dashoffset:86;}.start .haCuXWhM_13{animation:haCuXWhM_draw 666ms linear 98ms forwards;}.haCuXWhM_14{stroke-dasharray:12 14;stroke-dashoffset:13;}.start .haCuXWhM_14{animation:haCuXWhM_draw 666ms linear 106ms forwards;}.haCuXWhM_15{stroke-dasharray:89 91;stroke-dashoffset:90;}.start .haCuXWhM_15{animation:haCuXWhM_draw 666ms linear 113ms forwards;}.haCuXWhM_16{stroke-dasharray:85 87;stroke-dashoffset:86;}.start .haCuXWhM_16{animation:haCuXWhM_draw 666ms linear 121ms forwards;}.haCuXWhM_17{stroke-dasharray:33 35;stroke-dashoffset:34;}.start .haCuXWhM_17{animation:haCuXWhM_draw 666ms linear 128ms forwards;}.haCuXWhM_18{stroke-dasharray:41 43;stroke-dashoffset:42;}.start .haCuXWhM_18{animation:haCuXWhM_draw 666ms linear 136ms forwards;}.haCuXWhM_19{stroke-dasharray:28 30;stroke-dashoffset:29;}.start .haCuXWhM_19{animation:haCuXWhM_draw 666ms linear 143ms forwards;}.haCuXWhM_20{stroke-dasharray:28 30;stroke-dashoffset:29;}.start .haCuXWhM_20{animation:haCuXWhM_draw 666ms linear 151ms forwards;}.haCuXWhM_21{stroke-dasharray:32 34;stroke-dashoffset:33;}.start .haCuXWhM_21{animation:haCuXWhM_draw 666ms linear 159ms forwards;}.haCuXWhM_22{stroke-dasharray:35 37;stroke-dashoffset:36;}.start .haCuXWhM_22{animation:haCuXWhM_draw 666ms linear 166ms forwards;}.haCuXWhM_23{stroke-dasharray:29 31;stroke-dashoffset:30;}.start .haCuXWhM_23{animation:haCuXWhM_draw 666ms linear 174ms forwards;}.haCuXWhM_24{stroke-dasharray:32 34;stroke-dashoffset:33;}.start .haCuXWhM_24{animation:haCuXWhM_draw 666ms linear 181ms forwards;}.haCuXWhM_25{stroke-dasharray:36 38;stroke-dashoffset:37;}.start .haCuXWhM_25{animation:haCuXWhM_draw 666ms linear 189ms forwards;}.haCuXWhM_26{stroke-dasharray:32 34;stroke-dashoffset:33;}.start .haCuXWhM_26{animation:haCuXWhM_draw 666ms linear 196ms forwards;}.haCuXWhM_27{stroke-dasharray:34 36;stroke-dashoffset:35;}.start .haCuXWhM_27{animation:haCuXWhM_draw 666ms linear 204ms forwards;}.haCuXWhM_28{stroke-dasharray:28 30;stroke-dashoffset:29;}.start .haCuXWhM_28{animation:haCuXWhM_draw 666ms linear 212ms forwards;}.haCuXWhM_29{stroke-dasharray:96 98;stroke-dashoffset:97;}.start .haCuXWhM_29{animation:haCuXWhM_draw 666ms linear 219ms forwards;}.haCuXWhM_30{stroke-dasharray:87 89;stroke-dashoffset:88;}.start .haCuXWhM_30{animation:haCuXWhM_draw 666ms linear 227ms forwards;}.haCuXWhM_31{stroke-dasharray:12 14;stroke-dashoffset:13;}.start .haCuXWhM_31{animation:haCuXWhM_draw 666ms linear 234ms forwards;}.haCuXWhM_32{stroke-dasharray:104 106;stroke-dashoffset:105;}.start .haCuXWhM_32{animation:haCuXWhM_draw 666ms linear 242ms forwards;}.haCuXWhM_33{stroke-dasharray:93 95;stroke-dashoffset:94;}.start .haCuXWhM_33{animation:haCuXWhM_draw 666ms linear 249ms forwards;}.haCuXWhM_34{stroke-dasharray:104 106;stroke-dashoffset:105;}.start .haCuXWhM_34{animation:haCuXWhM_draw 666ms linear 257ms forwards;}.haCuXWhM_35{stroke-dasharray:49 51;stroke-dashoffset:50;}.start .haCuXWhM_35{animation:haCuXWhM_draw 666ms linear 265ms forwards;}.haCuXWhM_36{stroke-dasharray:48 50;stroke-dashoffset:49;}.start .haCuXWhM_36{animation:haCuXWhM_draw 666ms linear 272ms forwards;}.haCuXWhM_37{stroke-dasharray:38 40;stroke-dashoffset:39;}.start .haCuXWhM_37{animation:haCuXWhM_draw 666ms linear 280ms forwards;}.haCuXWhM_38{stroke-dasharray:220 222;stroke-dashoffset:221;}.start .haCuXWhM_38{animation:haCuXWhM_draw 666ms linear 287ms forwards;}.haCuXWhM_39{stroke-dasharray:355 357;stroke-dashoffset:356;}.start .haCuXWhM_39{animation:haCuXWhM_draw 666ms linear 295ms forwards;}.haCuXWhM_40{stroke-dasharray:26 28;stroke-dashoffset:27;}.start .haCuXWhM_40{animation:haCuXWhM_draw 666ms linear 303ms forwards;}.haCuXWhM_41{stroke-dasharray:19 21;stroke-dashoffset:20;}.start .haCuXWhM_41{animation:haCuXWhM_draw 666ms linear 310ms forwards;}.haCuXWhM_42{stroke-dasharray:19 21;stroke-dashoffset:20;}.start .haCuXWhM_42{animation:haCuXWhM_draw 666ms linear 318ms forwards;}.haCuXWhM_43{stroke-dasharray:20 22;stroke-dashoffset:21;}.start .haCuXWhM_43{animation:haCuXWhM_draw 666ms linear 325ms forwards;}.haCuXWhM_44{stroke-dasharray:1032 1034;stroke-dashoffset:1033;}.start .haCuXWhM_44{animation:haCuXWhM_draw 666ms linear 333ms forwards;}@keyframes haCuXWhM_draw{100%{stroke-dashoffset:0;}}@keyframes haCuXWhM_fade{0%{stroke-opacity:1;}92.3076923076923%{stroke-opacity:1;}100%{stroke-opacity:0;}}</style></svg>