<svg width="95" height="97" viewBox="0 0 95 97" fill="none" xmlns="http://www.w3.org/2000/svg">
<g clip-path="url(#clip0_331_9004)">
<path d="M26.9178 15.9144C2.08593 39.027 19.7147 85.8997 55.2208 79.4837C62.4964 78.1637 68.9688 73.4167 74.3557 68.6035C78.8636 64.5447 82.1389 59.2956 83.8065 53.457C85.4742 47.6183 85.4669 41.426 83.7855 35.5887C77.0307 10.5505 45.0244 0.285967 26.9178 15.9144Z" stroke="#5FA4F8" stroke-width="2" stroke-linecap="round" stroke-linejoin="round"/>
<path d="M21.7467 22.1317C17.1524 28.9248 10.3083 38.2591 9.58178 46.625C8.99589 54.9319 10.6115 63.248 14.2649 70.7315C20.7876 81.9699 37.3971 90.8659 50.9911 88.1326C65.0709 85.1626 72.4467 75.5551 81.5505 58.9003" stroke="#5FA4F8" stroke-width="2" stroke-linecap="round" stroke-linejoin="round"/>
<path d="M23.243 79.8953C24.3727 77.8856 25.8442 76.0991 27.0104 74.1354" stroke="#5FA4F8" stroke-width="2" stroke-linecap="round" stroke-linejoin="round"/>
<path d="M32.013 85.5332C33.0506 83.0867 34.1193 80.6605 35.2245 78.2803" stroke="#5FA4F8" stroke-width="2" stroke-linecap="round" stroke-linejoin="round"/>
<path d="M42.471 87.9973C43.2427 85.6874 43.7309 83.3031 44.3015 80.9283" stroke="#5FA4F8" stroke-width="2" stroke-linecap="round" stroke-linejoin="round"/>
<path d="M53.8498 87.2075C54.3908 84.9462 54.6738 82.6052 55.0702 80.294" stroke="#5FA4F8" stroke-width="2" stroke-linecap="round" stroke-linejoin="round"/>
<path d="M61.6144 84.5228C61.9947 82.4497 62.2688 80.3585 62.4357 78.2572" stroke="#5FA4F8" stroke-width="2" stroke-linecap="round" stroke-linejoin="round"/>
<path d="M68.0147 79.3078C67.6136 77.4063 67.4029 75.5184 67.0018 73.6169" stroke="#5FA4F8" stroke-width="2" stroke-linecap="round" stroke-linejoin="round"/>
<path d="M16.5068 73.6133C18.5435 70.969 20.3712 68.1696 21.9733 65.2405" stroke="#5FA4F8" stroke-width="2" stroke-linecap="round" stroke-linejoin="round"/>
<path d="M12.4165 65.2705C14.6406 63.1777 16.7285 60.9444 18.6674 58.5842" stroke="#5FA4F8" stroke-width="2" stroke-linecap="round" stroke-linejoin="round"/>
<path d="M10.591 56.2351C12.4949 54.6176 14.2831 52.8683 15.9425 51" stroke="#5FA4F8" stroke-width="2" stroke-linecap="round" stroke-linejoin="round"/>
<path d="M10.5888 46.5736C11.926 45.6742 13.1591 44.6626 14.4489 43.6659" stroke="#5FA4F8" stroke-width="2" stroke-linecap="round" stroke-linejoin="round"/>
<path d="M42.318 19.9525L62.1694 37.1124L52.4369 51.2917L35.8633 46.3585L42.318 19.9525Z" stroke="#5FA4F8" stroke-width="2" stroke-linecap="round" stroke-linejoin="round"/>
<path d="M38.7417 53.4495L54.0008 57.2336L65.1041 44.2137L57.5814 68.9847L38.7417 53.4495Z" stroke="#5FA4F8" stroke-width="2" stroke-linecap="round" stroke-linejoin="round"/>
</g>
<defs>
<clipPath id="clip0_331_9004">
<rect width="79.4182" height="82.0655" fill="white" transform="translate(0 16.4395) rotate(-11.9112)"/>
</clipPath>
</defs>
</svg>
