<svg width="310" height="206" viewBox="0 0 310 206" fill="none" xmlns="http://www.w3.org/2000/svg" class="" style="">
<g clip-path="url(#clip0_407_23985)">
<path d="M19.7241 143.179H134.229" stroke="white" stroke-width="3" stroke-linecap="round" stroke-linejoin="round" class="hWYTDdHq_0"/>
<path d="M177.297 143.179H291.802" stroke="white" stroke-width="3" stroke-linecap="round" stroke-linejoin="round" class="hWYTDdHq_1"/>
<path d="M31.7282 87.0532L15.5204 82.3123C13.2849 81.7545 11.6082 79.9418 11.189 77.7108C10.6301 74.0855 13.4246 71.0178 16.9176 71.0178H27.1173C29.3529 71.0178 31.5884 71.715 33.4048 73.1094C34.2432 73.6671 35.5007 73.5277 36.1993 72.8305L39.4129 69.6235C40.3909 68.6474 40.2512 67.1136 39.2732 66.2769C35.7801 63.6276 31.5884 62.0938 27.1173 62.0938H26.8379V55.4008C26.8379 54.2853 25.7201 53.1698 24.6023 53.1698H20.1312C18.8737 53.1698 17.8957 54.2853 17.8957 55.4008V62.0938H17.4765C10.6301 62.0938 4.20293 66.5558 2.66599 73.2488C0.709879 81.0573 5.46043 88.7264 12.8657 90.818L29.0735 95.5589C31.309 96.1166 33.1254 97.9293 33.4048 100.16C33.9637 103.646 31.1693 106.714 27.816 106.714H17.4765C15.241 106.714 13.0054 106.017 11.189 104.762C10.3507 104.204 9.0932 104.343 8.39459 105.041L5.18098 108.248C4.20293 109.224 4.34265 110.758 5.32071 111.594C8.81376 114.244 13.0054 115.638 17.4765 115.638H17.8957V122.331C17.8957 123.586 18.8737 124.562 20.1312 124.562H24.6023C25.7201 124.562 26.8379 123.586 26.8379 122.331L26.8379 115.638H27.1173C33.9637 115.638 40.3909 111.315 41.9279 104.622C43.884 96.8138 39.1334 89.1447 31.7282 87.0532Z" stroke="white" stroke-width="3" stroke-linejoin="round" class="hWYTDdHq_2"/>
<path d="M67.3383 58.6055L55.3581 59.2045C53.7282 59.3517 52.1793 58.5268 51.3759 57.1282C50.1524 54.827 51.3085 52.1181 53.6512 51.3037L60.4921 48.9257C61.9914 48.4045 63.654 48.3509 65.1986 48.8626C65.8915 49.0413 66.7022 48.6546 67.0076 48.0241L68.4121 45.1239C68.8396 44.2413 68.3869 43.2451 67.535 42.912C64.5721 41.9495 61.4017 41.8981 58.403 42.9405L58.2156 43.0056L56.6488 38.5167C56.3877 37.7686 55.3769 37.281 54.6272 37.5416L51.6284 38.584C50.7851 38.8772 50.3902 39.8534 50.6513 40.6015L52.2181 45.0904L51.937 45.1882C47.3452 46.7843 44.0791 51.2754 44.6151 56.1227C45.131 61.8158 50.1125 65.8518 55.5687 65.5282L67.5489 64.9291C69.1788 64.782 70.8214 65.5743 71.5311 67.0054C72.722 69.2131 71.5659 71.922 69.3168 72.7038L62.3823 75.1144C60.8829 75.6356 59.2204 75.6892 57.7084 75.271C57.0155 75.0924 56.2048 75.4791 55.8994 76.1095L54.4949 79.0097C54.0674 79.8924 54.5201 80.8885 55.372 81.2216C58.3349 82.1841 61.4726 82.142 64.4713 81.0996L64.7525 81.0019L66.3193 85.4908C66.613 86.3325 67.4975 86.7591 68.3409 86.4659L71.3396 85.4235C72.0893 85.1629 72.6105 84.2477 72.3167 83.406L70.7499 78.9171L70.9373 78.8519C75.5291 77.2558 78.8279 72.8582 78.2919 68.011C77.776 62.3178 72.7945 58.2818 67.3383 58.6055Z" stroke="white" stroke-width="3" stroke-linejoin="round" class="hWYTDdHq_3"/>
<path d="M82.2686 113.29L80.2011 99.3533C79.8428 97.4646 80.6346 95.56 82.1847 94.4616C84.7465 92.7692 88.0579 93.8122 89.2806 96.4581L92.8509 104.184C93.6334 105.878 93.8857 107.815 93.461 109.679C93.3302 110.509 93.8764 111.413 94.6512 111.698L98.2154 113.01C99.3001 113.409 100.418 112.767 100.712 111.733C101.504 108.159 101.203 104.447 99.6384 101.061L99.5406 100.849L104.631 98.5061C105.48 98.1156 105.937 96.8784 105.546 96.0317L103.98 92.6449C103.54 91.6924 102.349 91.342 101.501 91.7324L96.4104 94.0752L96.2637 93.7577C93.8672 88.5716 88.2237 85.265 82.5951 86.4436C75.9713 87.6951 71.8012 93.9781 72.8025 100.32L74.8701 114.256C75.2284 116.145 74.4855 118.155 72.8864 119.148C70.4307 120.792 67.1193 119.749 65.9455 117.209L62.3263 109.377C61.5438 107.683 61.2915 105.746 61.6102 103.93C61.741 103.1 61.1948 102.196 60.4199 101.911L56.8558 100.6C55.7711 100.2 54.6534 100.843 54.3594 101.877C53.5671 105.45 53.9738 109.113 55.5388 112.5L55.6856 112.818L50.595 115.161C49.6405 115.6 49.2405 116.682 49.6806 117.635L51.2457 121.022C51.637 121.869 52.7706 122.374 53.7251 121.934L58.8157 119.591L58.9135 119.803C61.31 124.989 66.8475 128.345 72.4761 127.166C79.0999 125.915 83.27 119.632 82.2686 113.29Z" stroke="white" stroke-width="3" stroke-linejoin="round" class="hWYTDdHq_4"/>
<path d="M30.5519 22.795L19.7438 24.7384C18.281 25.0624 16.7778 24.4943 15.8843 23.3182C14.5034 21.3716 15.2354 18.7767 17.2672 17.7636L23.2 14.8052C24.5003 14.1568 26.0037 13.9139 27.4663 14.1981C28.1163 14.2794 28.8072 13.8336 29.0105 13.2254L29.9457 10.4279C30.2304 9.57648 29.7024 8.72484 28.8899 8.52189C26.0865 7.99403 23.2017 8.31764 20.601 9.61447L20.4385 9.69552L18.4893 5.80245C18.1644 5.15361 17.1894 4.82897 16.5392 5.15317L13.9385 6.45C13.2071 6.81473 12.9631 7.74725 13.2879 8.3961L15.2372 12.2892L14.9933 12.4107C11.0111 14.3965 8.57207 18.8561 9.62729 23.1949C10.7636 28.3042 15.7602 31.3871 20.6767 30.4558L31.4848 28.5124C32.9476 28.1884 34.532 28.716 35.3443 29.9326C36.6846 31.7982 35.9526 34.393 34.0021 35.3656L27.988 38.3645C26.6877 39.0129 25.1843 39.2558 23.7623 39.0527C23.1123 38.9714 22.4214 39.4173 22.2181 40.0254L21.2829 42.8229C20.9982 43.6744 21.5262 44.526 22.3387 44.729C25.1421 45.2568 27.9863 44.8521 30.587 43.5553L30.8308 43.4337L32.78 47.3268C33.1455 48.0567 33.9986 48.3408 34.73 47.976L37.3307 46.6792C37.9809 46.355 38.3468 45.4631 37.9813 44.7331L36.0321 40.84L36.1947 40.759C40.1769 38.7732 42.6565 34.3948 41.6013 30.0559C40.465 24.9467 35.4684 21.8637 30.5519 22.795Z" stroke="white" stroke-width="3" stroke-linejoin="round" class="hWYTDdHq_5"/>
<path d="M74.7539 19.7326L66.0617 26.4311C64.9135 27.3918 63.3172 27.5795 61.9809 26.9471C59.856 25.8554 59.3065 23.216 60.6412 21.382L64.5384 16.0266C65.3926 14.8528 66.6143 13.9454 68.0434 13.5245C68.6578 13.2974 69.0648 12.5839 68.9642 11.9507L68.5013 9.03799C68.3604 8.15152 67.4984 7.63882 66.6836 7.83269C63.9523 8.65445 61.542 10.2692 59.8337 12.6168L59.7269 12.7635L56.1984 10.2062C55.6103 9.77997 54.5951 9.94064 54.168 10.5275L52.4596 12.8751C51.9792 13.5354 52.1935 14.4751 52.7816 14.9013L56.3102 17.4587L56.15 17.6788C53.5341 21.2735 53.4306 26.353 56.3719 29.7173C59.7411 33.7279 65.5994 34.1639 69.5315 31.0749L78.2238 24.3764C79.372 23.4158 81.0216 23.1547 82.3046 23.8604C84.3559 24.8989 84.9054 27.5382 83.6242 29.2989L79.6736 34.7277C78.8194 35.9015 77.5976 36.8089 76.242 37.2831C75.6277 37.5101 75.2207 38.2236 75.3213 38.8568L75.7842 41.7695C75.925 42.656 76.7871 43.1687 77.6018 42.9749C80.3332 42.1531 82.6699 40.485 84.3783 38.1375L84.5384 37.9174L88.067 40.4747C88.7286 40.9542 89.6169 40.8136 90.0973 40.1534L91.8057 37.8058C92.2328 37.2189 92.1453 36.2591 91.4837 35.7796L87.9552 33.2222L88.0619 33.0755C90.6779 29.4808 90.8548 24.4545 87.9135 21.0902C84.5443 17.0796 78.6861 16.6436 74.7539 19.7326Z" stroke="white" stroke-width="3" stroke-linejoin="round" class="hWYTDdHq_6"/>
<path d="M3.52295 132.784H46.8233L76.118 133.885L106.475 132.784L98.0922 143.471H11.9053L3.52295 132.784Z" stroke="white" stroke-width="3" stroke-linecap="round" stroke-linejoin="round" class="hWYTDdHq_7"/>
<path fill-rule="evenodd" clip-rule="evenodd" d="M282.555 82.5158C283.652 75.142 278.067 71.1781 270.43 68.5338L272.908 58.5451L266.859 57.0298L265.007 66.8865C263.417 66.4882 261.224 65.9812 259.601 65.6089L262.03 55.8194L254.378 53.4861L253.507 64.2893C252.19 63.988 250.898 63.6901 249.644 63.3766L249.651 63.3455L241.31 61.2518L238.868 66.3532C238.868 66.3532 244.189 68.7797 244.094 68.8437C246.543 69.4585 246.986 71.0881 246.912 72.3799C244.648 81.509 242.39 90.6123 240.125 99.743C239.825 100.491 239.065 101.613 237.353 101.187C237.413 101.276 232.957 100.084 232.957 100.084L228.402 107.779L237.825 109.016C238.704 109.238 239.572 109.466 240.432 109.691C241.017 111.419 238.705 117 237.993 119.872L245.675 121.753L248.154 111.758C249.805 112.208 251.407 112.624 252.974 113.015L250.504 122.964L257.783 124.878L259.055 114.395C269.369 116.357 277.799 115.851 281.064 106.474C283.694 98.9237 280.258 94.2829 274.832 91.4428C278.784 90.5268 281.76 87.9136 282.555 82.5158ZM268.734 101.996C267.019 108.923 256.443 105.444 251.507 104.134C251.063 104.016 250.667 103.911 250.328 103.826L253.44 91.0565C253.852 91.1598 254.355 91.2734 254.926 91.4021C260.03 92.5535 270.491 94.9131 268.734 101.996ZM270.606 82.4065C272.202 75.9667 263.479 74.0255 259.219 73.0774C258.739 72.9708 258.317 72.8767 257.971 72.7902L255.307 83.6954C259.825 84.4568 268.94 89.1145 270.606 82.4065Z" stroke="white" stroke-width="3" stroke-linejoin="round" class="hWYTDdHq_8"/>
<path d="M272.984 29.4394C273.196 32.9478 272.933 44.4707 272.843 47.969" stroke="white" stroke-width="3" stroke-linecap="round" class="hWYTDdHq_9"/>
<path d="M293.331 32.8233C291.67 34.9863 282.213 50.5433 280.162 52.2269" stroke="white" stroke-width="3" stroke-linecap="round" class="hWYTDdHq_10"/>
<path d="M299.499 50.1464C296.5 53.194 288.427 58.1829 286.492 59.7198" stroke="white" stroke-width="2.95943" stroke-linecap="round" class="hWYTDdHq_11"/>
<path d="M204.071 132.784L254.899 133.885L280.125 132.784H307.023L298.641 143.471H212.454L204.071 132.784Z" stroke="white" stroke-width="3" stroke-linecap="round" stroke-linejoin="round" class="hWYTDdHq_12"/>
<path stroke="white" stroke-width="3" stroke-linejoin="round" d="M146.75604,143.471A8.54196,8.54196 0,1,1 163.83996,143.471A8.54196,8.54196 0,1,1 146.75604,143.471" class="hWYTDdHq_13"/>
<path d="M189.689 160.856L167.477 132.945C161.113 125.409 149.483 125.409 143.119 132.945L121.231 159.499L98.2742 186.052C92.3024 193.124 97.3399 203.935 106.607 203.935L155.815 202.842L179.007 203.935H203.989C213.256 203.935 218.294 193.124 212.322 186.052L195.192 166.976" stroke="white" stroke-width="3" stroke-linecap="round" stroke-linejoin="round" class="hWYTDdHq_14"/>
</g>
<defs>
<clipPath id="clip0_407_23985">
<path width="310" height="206" fill="white" d="M0 0 L310 0 L310 206 L0 206 Z" class="hWYTDdHq_15"/>
</clipPath>
</defs>
<style data-made-with="vivus-instant">.hWYTDdHq_0{stroke-dasharray:115 117;stroke-dashoffset:116;}.start .hWYTDdHq_0{animation:hWYTDdHq_draw 1000ms linear 0ms forwards;}.hWYTDdHq_1{stroke-dasharray:115 117;stroke-dashoffset:116;}.start .hWYTDdHq_1{animation:hWYTDdHq_draw 1000ms linear 0ms forwards;}.hWYTDdHq_2{stroke-dasharray:286 288;stroke-dashoffset:287;}.start .hWYTDdHq_2{animation:hWYTDdHq_draw 1000ms linear 0ms forwards;}.hWYTDdHq_3{stroke-dasharray:203 205;stroke-dashoffset:204;}.start .hWYTDdHq_3{animation:hWYTDdHq_draw 1000ms linear 0ms forwards;}.hWYTDdHq_4{stroke-dasharray:239 241;stroke-dashoffset:240;}.start .hWYTDdHq_4{animation:hWYTDdHq_draw 1000ms linear 0ms forwards;}.hWYTDdHq_5{stroke-dasharray:186 188;stroke-dashoffset:187;}.start .hWYTDdHq_5{animation:hWYTDdHq_draw 1000ms linear 0ms forwards;}.hWYTDdHq_6{stroke-dasharray:186 188;stroke-dashoffset:187;}.start .hWYTDdHq_6{animation:hWYTDdHq_draw 1000ms linear 0ms forwards;}.hWYTDdHq_7{stroke-dasharray:217 219;stroke-dashoffset:218;}.start .hWYTDdHq_7{animation:hWYTDdHq_draw 1000ms linear 0ms forwards;}.hWYTDdHq_8{stroke-dasharray:388 390;stroke-dashoffset:389;}.start .hWYTDdHq_8{animation:hWYTDdHq_draw 1000ms linear 0ms forwards;}.hWYTDdHq_9{stroke-dasharray:19 21;stroke-dashoffset:20;}.start .hWYTDdHq_9{animation:hWYTDdHq_draw 1000ms linear 0ms forwards;}.hWYTDdHq_10{stroke-dasharray:24 26;stroke-dashoffset:25;}.start .hWYTDdHq_10{animation:hWYTDdHq_draw 1000ms linear 0ms forwards;}.hWYTDdHq_11{stroke-dasharray:17 19;stroke-dashoffset:18;}.start .hWYTDdHq_11{animation:hWYTDdHq_draw 1000ms linear 0ms forwards;}.hWYTDdHq_12{stroke-dasharray:217 219;stroke-dashoffset:218;}.start .hWYTDdHq_12{animation:hWYTDdHq_draw 1000ms linear 0ms forwards;}.hWYTDdHq_13{stroke-dasharray:54 56;stroke-dashoffset:55;}.start .hWYTDdHq_13{animation:hWYTDdHq_draw 1000ms linear 0ms forwards;}.hWYTDdHq_14{stroke-dasharray:306 308;stroke-dashoffset:307;}.start .hWYTDdHq_14{animation:hWYTDdHq_draw 1000ms linear 0ms forwards;}.hWYTDdHq_15{stroke-dasharray:1032 1034;stroke-dashoffset:1033;}.start .hWYTDdHq_15{animation:hWYTDdHq_draw 1000ms linear 0ms forwards;}@keyframes hWYTDdHq_draw{100%{stroke-dashoffset:0;}}@keyframes hWYTDdHq_fade{0%{stroke-opacity:1;}92.3076923076923%{stroke-opacity:1;}100%{stroke-opacity:0;}}</style></svg>