<svg width="16" height="16" viewBox="0 0 16 16" fill="none" xmlns="http://www.w3.org/2000/svg">
<path d="M8 0C3.5625 0 0 3.59375 0 8C0 12.4375 3.5625 16 8 16C12.4062 16 16 12.4375 16 8C16 3.59375 12.4062 0 8 0ZM12.6875 8.71875L9.46875 11.9375C9.09375 12.3438 8.4375 12.3438 8.0625 11.9375C7.65625 11.5625 7.65625 10.9062 8.0625 10.5312L9.5625 9H4C3.4375 9 3 8.5625 3 8C3 7.46875 3.4375 7 4 7H9.5625L8.03125 5.46875C7.625 5.09375 7.625 4.4375 8.03125 4.0625C8.40625 3.65625 9.0625 3.65625 9.4375 4.0625L12.6562 7.28125C12.9375 7.5625 13 7.875 13 8C13 8.15625 12.9375 8.46875 12.6875 8.71875Z" fill="currentColor"/>
</svg>