<svg width="20" height="18" viewBox="0 0 20 18" fill="none" xmlns="http://www.w3.org/2000/svg">
<path d="M17.1875 6.81836C17.8906 6.81836 18.4375 7.0918 18.8281 7.59961C19.2187 8.14648 19.3359 8.69336 19.2187 9.31836C19.1015 9.94336 18.75 10.4121 18.125 10.7246C18.2031 11.0371 18.2422 11.3496 18.2422 11.7012C18.2422 12.7949 17.8515 13.8105 17.1094 14.709C16.3672 15.6074 15.3906 16.3105 14.1406 16.8574C12.8906 17.4043 11.4844 17.6387 9.99998 17.6387C8.5156 17.6387 7.14841 17.4043 5.89841 16.8574C4.64841 16.3105 3.63279 15.6074 2.8906 14.709C2.14841 13.8105 1.79685 12.7949 1.79685 11.7012C1.79685 11.3887 1.83591 11.0762 1.91404 10.7637C1.24997 10.4512 0.85935 9.94336 0.742162 9.31836C0.624975 8.69336 0.781225 8.14648 1.17185 7.59961C1.56247 7.0918 2.10935 6.85742 2.81247 6.85742C3.35935 6.85742 3.86716 7.0918 4.29685 7.48242C5.78123 6.4668 7.53904 5.88086 9.60935 5.80273L10.8203 0.412109C10.8203 0.333984 10.8984 0.294922 10.9765 0.216797C11.0547 0.138672 11.1328 0.138672 11.25 0.138672L15.039 0.998047C15.1562 0.763672 15.3515 0.529297 15.5859 0.373047C15.8203 0.216797 16.0937 0.138672 16.4062 0.138672C16.8359 0.138672 17.1875 0.294922 17.5 0.607422C17.8125 0.919922 17.9687 1.27148 17.9687 1.70117C17.9687 2.13086 17.8125 2.48242 17.5 2.79492C17.1875 3.10742 16.8359 3.22461 16.4062 3.22461C15.9765 3.22461 15.625 3.10742 15.3125 2.79492C15 2.48242 14.8828 2.13086 14.8828 1.70117L11.4453 0.919922L10.3515 5.80273C11.3672 5.8418 12.3437 5.99805 13.2812 6.31055C14.1797 6.62305 15 6.97461 15.7031 7.44336C16.0937 7.05273 16.6015 6.85742 17.1875 6.81836ZM5.03904 10.959C5.03904 11.3887 5.19529 11.7402 5.50779 12.0527C5.82029 12.3652 6.17185 12.4824 6.60154 12.4824C6.99216 12.4824 7.34372 12.3652 7.65622 12.0527C7.96872 11.7402 8.12497 11.3887 8.12497 10.959C8.12497 10.5293 7.96872 10.1777 7.65622 9.86523C7.34372 9.55273 6.99216 9.39648 6.60154 9.39648C6.17185 9.39648 5.82029 9.55273 5.50779 9.86523C5.19529 10.1777 5.03904 10.5293 5.03904 10.959ZM13.4375 14.5918C13.5156 14.5527 13.5547 14.4746 13.5547 14.3574C13.5547 14.2793 13.5156 14.1621 13.4375 14.084C13.3594 14.0059 13.2422 13.9668 13.164 13.9668C13.0469 13.9668 12.9687 14.0059 12.8906 14.084C12.5 14.4746 11.914 14.709 11.1328 14.8262C10.3515 14.9824 9.57029 14.9824 8.78904 14.8262C8.00779 14.6699 7.42185 14.4355 7.07029 14.084C6.99216 14.0059 6.91404 13.9668 6.83591 13.9668C6.71872 13.9668 6.6406 14.0059 6.56247 14.084C6.48435 14.1621 6.44529 14.2793 6.44529 14.3574C6.44529 14.4746 6.48435 14.5527 6.56247 14.5918C7.03122 15.0605 7.69529 15.4121 8.63279 15.5684C9.53123 15.7246 10.4297 15.7246 11.3672 15.5684C12.2656 15.4121 12.9687 15.0605 13.4375 14.5918ZM13.3984 12.4824C13.789 12.4824 14.1797 12.3652 14.4922 12.0527C14.8047 11.7402 14.9609 11.3887 14.9609 10.959C14.9609 10.5293 14.8047 10.1777 14.4922 9.86523C14.1797 9.55273 13.789 9.39648 13.3984 9.39648C12.9687 9.39648 12.6172 9.55273 12.3047 9.86523C11.9922 10.1777 11.875 10.5684 11.875 10.959C11.875 11.3887 11.9922 11.7402 12.3047 12.0527C12.6172 12.3652 12.9687 12.4824 13.3984 12.4824Z" fill="#060F2B"/>
</svg>
