<svg width="94" height="98" viewBox="0 0 94 98" fill="none" xmlns="http://www.w3.org/2000/svg">
<path d="M22.0912 24.2131C23.7433 20.7564 27.0749 18.4083 30.8858 18.0147L56.8235 15.3358C60.93 14.9117 64.9283 16.8226 67.1776 20.2844L81.3844 42.15C83.4718 45.3627 83.7372 49.4299 82.0851 52.8866L72.6436 72.6413C71.023 76.032 67.7836 78.3608 64.0533 78.8167L37.8664 82.0172C33.6212 82.536 29.4601 80.5473 27.1975 76.9181L13.2399 54.5309C11.2517 51.3419 11.0291 47.3585 12.6496 43.9678L22.0912 24.2131Z" stroke="#5FA4F8" stroke-width="2"/>
<path d="M27.583 40.2237C27.4433 39.3795 22.5753 25.3619 22.4094 24.5333" stroke="#5FA4F8" stroke-width="2" stroke-linecap="round"/>
<path d="M23.9223 39.7586C23.7825 38.9144 20.6947 29.2971 20.5288 28.4685" stroke="#5FA4F8" stroke-width="2" stroke-linecap="round"/>
<path d="M22.6815 45.3738C22.5418 44.5297 19.454 34.9123 19.2881 34.0837" stroke="#5FA4F8" stroke-width="2" stroke-linecap="round"/>
<path d="M20.4737 51.9141C20.3339 51.0699 18.2763 40.1206 18.1103 39.292" stroke="#5FA4F8" stroke-width="2" stroke-linecap="round"/>
<path d="M24.6646 19.6011L45.1149 52.1416M45.1149 52.1416L83.4961 47.719M45.1149 52.1416L30.7985 82.0962" stroke="#5FA4F8" stroke-width="2" stroke-linecap="round" stroke-linejoin="round"/>
</svg>
