<svg width="10" height="10" viewBox="0 0 10 10" fill="none" xmlns="http://www.w3.org/2000/svg">
<path d="M4.55386 0.969024C4.34648 1.18176 4.36721 1.50085 4.55386 1.71358L7.06323 4.13872H1.11125C0.820912 4.13872 0.613525 4.37272 0.613525 4.64927V5.33001C0.613525 5.62784 0.820912 5.84057 1.11125 5.84057H7.06323L4.55386 8.28697C4.36721 8.49971 4.36721 8.8188 4.55386 9.03153L5.01011 9.49954C5.2175 9.691 5.52858 9.691 5.71522 9.49954L9.75925 5.35129C9.9459 5.15983 9.9459 4.84073 9.75925 4.628L5.71522 0.501015C5.52858 0.309557 5.2175 0.309557 5.01011 0.501015L4.55386 0.969024Z" fill="currentColor"/>
</svg>