<svg width="24" height="24" viewBox="0 0 24 24" fill="none" xmlns="http://www.w3.org/2000/svg">
<path d="M21.9999 5C22.5521 5 22.9999 5.44772 22.9999 6C22.9999 6.55228 22.5521 7 21.9999 7H2C1.44772 7 1 6.55228 1 6C1 5.44772 1.44772 5 2 5H21.9999Z" fill="black"/>
<path d="M22.9999 12C22.9999 11.4477 22.5521 11 21.9999 11H2C1.44772 11 1 11.4477 1 12C1 12.5523 1.44772 13 2 13H21.9999C22.5521 13 22.9999 12.5523 22.9999 12Z" fill="black"/>
<path d="M22.9999 18C22.9999 17.4477 22.5521 17 21.9999 17H2C1.44772 17 1 17.4477 1 18C1 18.5523 1.44772 19 2 19H21.9999C22.5521 19 22.9999 18.5523 22.9999 18Z" fill="black"/>
</svg>