<svg width="49" height="48" viewBox="0 0 49 48" fill="none" xmlns="http://www.w3.org/2000/svg">
<path d="M5.70772 8.85059C7.29368 8.88989 8.62258 9.96525 9.04348 11.425L9.12391 11.7668L9.12548 11.7754L10.1149 15.98H10.1163L9.12688 11.7754L9.12531 11.7668L9.04487 11.425C8.62393 9.96511 7.29389 8.88969 5.70772 8.85059Z" fill="#060F2B"/>
<path d="M5.75236 15.98H8.76543L7.99602 12.7103L7.99445 12.7017L7.91401 12.3599C7.49307 10.9 6.16396 9.82456 4.5778 9.78545C4.43537 9.78716 4.29495 9.79723 4.15701 9.81518C3.335 9.92215 2.62938 10.5047 2.36825 11.2914C2.25098 11.6447 2.1875 12.0225 2.1875 12.4152C2.1875 14.3839 3.78352 15.98 5.75236 15.98Z" fill="#060F2B"/>
<path fill-rule="evenodd" clip-rule="evenodd" d="M34.2651 12.5647L34.1993 12.2851C33.7256 10.2722 31.9295 8.84961 29.8616 8.84961L5.61719 8.84975C7.24269 8.84975 8.61408 9.938 9.04292 11.4252L9.12335 11.7671L9.12492 11.7757L14.7583 35.7155C15.0394 36.9105 15.7867 37.8974 16.7803 38.5022C17.0294 37.943 17.5898 37.553 18.2415 37.5526C19.326 37.5519 20.205 36.6724 20.205 35.5877C20.205 34.503 19.326 33.6236 18.2415 33.6229C17.3581 33.6223 16.6423 32.9058 16.6426 32.0223C16.6429 31.1389 17.3591 30.4229 18.2426 30.4229H38.467L36.5536 22.2909C34.4159 23.1085 32.4057 23.3746 30.6863 23.407L26.3018 27.7212C25.6307 28.3815 24.6271 28.3882 23.9521 27.8575C23.6136 27.5913 23.387 27.2126 23.3064 26.7996H17.0275C16.5856 26.7996 16.2275 26.4414 16.2275 25.9996C16.2275 25.5578 16.5856 25.1996 17.0275 25.1996H23.7484C24.3005 24.3291 25.0818 23.1408 26.0407 21.7996H16.0275C15.5856 21.7996 15.2275 21.4414 15.2275 20.9996C15.2275 20.5578 15.5856 20.1996 16.0275 20.1996H27.2183C28.6845 18.2658 30.4376 16.1687 32.3512 14.3125C32.9639 13.7181 33.6073 13.1333 34.2651 12.5647ZM36.1831 20.7164L34.681 14.3324C34.2659 14.704 33.8597 15.0812 33.4671 15.462C31.9337 16.9496 30.5017 18.6039 29.2433 20.1996H31.0275C31.4693 20.1996 31.8274 20.5578 31.8274 20.9996C31.8274 21.4025 31.5296 21.7359 31.1421 21.7915C32.6549 21.7205 34.372 21.4394 36.1831 20.7164ZM30.944 21.7996H28.0217C27.0881 23.0613 26.2894 24.231 25.666 25.1821C25.6217 25.2498 25.5782 25.3163 25.5356 25.3817C25.7 25.5171 25.8094 25.7167 25.8254 25.9422L26.176 25.5973L29.7679 22.063C29.8131 22.0185 29.8627 21.9795 29.9156 21.9464C30.0563 21.8583 30.2205 21.8113 30.3894 21.8106C30.5708 21.8098 30.7557 21.8063 30.944 21.7996ZM24.0275 15.1996C24.4693 15.1996 24.8274 15.5578 24.8274 15.9996C24.8274 16.4414 24.4693 16.7996 24.0275 16.7996H15.0275C14.5856 16.7996 14.2275 16.4414 14.2275 15.9996C14.2275 15.5578 14.5856 15.1996 15.0275 15.1996H24.0275Z" fill="#060F2B"/>
<path d="M18.2422 39.1522C20.2099 39.1509 21.8046 37.5553 21.8046 35.5873C21.8046 33.6193 20.2099 32.0238 18.2422 32.0225L42.305 32.0225C44.2738 32.0225 45.8699 33.6186 45.8699 35.5873C45.8699 37.556 44.2738 39.1522 42.305 39.1522H18.2422Z" fill="#060F2B"/>
<path d="M33.4666 15.4634C29.5514 19.2613 26.2977 24.1463 24.9063 26.3675C24.7891 26.5546 25.0198 26.7357 25.1771 26.5809L29.7673 22.0643C29.9328 21.9015 30.1564 21.8129 30.3888 21.8119C32.5471 21.8026 35.2061 21.4096 37.9948 19.8535C38.9158 19.3396 40.3403 18.1179 41.1521 16.8992L40.0988 15.1018L42.0202 15.4608C43.0827 13.262 44.1866 10.5242 44.6428 8.54404C44.8048 7.84129 44.0957 7.39917 43.4843 7.78115C41.0211 9.32031 36.7644 12.2644 33.4666 15.4634Z" fill="#060F2B"/>
</svg>
