<svg width="31" height="30" viewBox="0 0 31 30" fill="none" xmlns="http://www.w3.org/2000/svg">
<path d="M30.5293 18.6287C28.5258 26.6644 20.387 31.5548 12.3504 29.5509C4.31703 27.5475 -0.573391 19.4082 1.43096 11.373C3.43344 3.33634 11.5723 -1.55455 19.6066 0.448868C27.6427 2.45229 32.5327 10.5925 30.5293 18.6287Z" fill="#060F2B"/>
<path fill-rule="evenodd" clip-rule="evenodd" d="M22.5074 13.1628C22.8 11.1927 21.3108 10.1336 19.2745 9.42701L19.9351 6.75815L18.3223 6.35329L17.6792 8.95181C17.2552 8.84539 16.8198 8.74499 16.3871 8.64551L17.0348 6.02986L15.4229 5.625L14.7619 8.29293C14.411 8.21242 14.0664 8.13284 13.732 8.04909L13.7339 8.04076L11.5097 7.48135L11.0807 9.21648C11.0807 9.21648 12.2773 9.49271 12.252 9.50983C12.9052 9.67409 13.0233 10.1095 13.0035 10.4547C12.3999 12.8939 11.7978 15.3261 11.1937 17.7658C11.1138 17.9657 10.9112 18.2655 10.4546 18.1517C10.4707 18.1753 9.28233 17.8569 9.28233 17.8569L8.48169 19.7165L10.5805 20.2436C10.8148 20.3027 11.0464 20.3635 11.2755 20.4237C11.4281 20.4638 11.5797 20.5036 11.7302 20.5425L11.0628 23.2418L12.6737 23.6467L13.3347 20.976C13.7748 21.0963 14.202 21.2074 14.62 21.3119L13.9613 23.9701L15.574 24.375L16.2415 21.6807C18.9916 22.2049 21.0596 21.9935 21.93 19.488C22.6315 17.4706 21.8951 16.3069 20.4482 15.5481C21.5019 15.3033 22.2957 14.6051 22.5074 13.1628ZM18.8222 18.3677C18.3649 20.2186 15.4888 19.4534 14.1729 19.1033C14.0545 19.0718 13.9487 19.0436 13.8585 19.021L14.7441 15.4448C14.854 15.4725 14.9882 15.5028 15.1403 15.5372C16.5014 15.8448 19.2907 16.4753 18.8222 18.3677ZM15.414 13.8776C16.5112 14.1725 18.9044 14.8159 19.3213 13.1337C19.747 11.413 17.421 10.8943 16.285 10.641C16.1572 10.6125 16.0445 10.5874 15.9524 10.5643L15.1495 13.8078C15.2253 13.8269 15.3143 13.8508 15.414 13.8776Z" fill="#FED88E"/>
</svg>
