<svg viewBox="0 0 194 48" fill="none" xmlns="http://www.w3.org/2000/svg">
<path d="M10.8996 29.9308C9.41814 29.9308 8.01898 29.6508 6.70213 29.0908C5.41272 28.5308 4.2742 27.7608 3.28656 26.7808C2.32636 25.8008 1.57191 24.6668 1.02323 23.3788C0.474539 22.0908 0.200195 20.7048 0.200195 19.2208C0.200195 17.7648 0.474539 16.3928 1.02323 15.1048C1.57191 13.7888 2.32636 12.6408 3.28656 11.6608C4.2742 10.6808 5.41272 9.91084 6.70213 9.35084C8.01898 8.79084 9.41814 8.51084 10.8996 8.51084C12.3536 8.51084 13.6019 8.73484 14.6444 9.18284C15.6869 9.60284 16.5648 10.0788 17.2781 10.6108C18.1011 11.2268 18.787 11.9268 19.3357 12.7108L15.8378 16.2808C15.4537 15.8048 15.0147 15.3848 14.5209 15.0208C14.082 14.7128 13.5607 14.4328 12.9572 14.1808C12.3536 13.9008 11.6678 13.7608 10.8996 13.7608C10.1863 13.7608 9.51416 13.9008 8.88317 14.1808C8.25218 14.4608 7.70349 14.8388 7.2371 15.3148C6.77072 15.7908 6.40036 16.3648 6.12601 17.0368C5.8791 17.7088 5.75565 18.4368 5.75565 19.2208C5.75565 20.0048 5.8791 20.7328 6.12601 21.4048C6.40036 22.0768 6.77072 22.6508 7.2371 23.1268C7.70349 23.6028 8.25218 23.9808 8.88317 24.2608C9.51416 24.5408 10.1863 24.6808 10.8996 24.6808C11.6678 24.6808 12.3536 24.5548 12.9572 24.3028C13.5607 24.0228 14.082 23.7288 14.5209 23.4208C15.0147 23.0568 15.4537 22.6368 15.8378 22.1608L19.3357 25.7308C18.787 26.5148 18.1011 27.2148 17.2781 27.8308C16.5648 28.3628 15.6869 28.8528 14.6444 29.3008C13.6019 29.7208 12.3536 29.9308 10.8996 29.9308Z" fill="currentColor"/>
<path d="M22.8142 8.93084H28.3697V11.8708H28.5755C29.0144 11.2548 29.5219 10.6948 30.0981 10.1908C30.5919 9.77084 31.2091 9.39284 31.9499 9.05684C32.6906 8.69284 33.5548 8.51084 34.5424 8.51084H34.9539V14.6008C34.8168 14.5728 34.6659 14.5448 34.5013 14.5168C34.3367 14.4888 34.1309 14.4608 33.884 14.4328C33.6645 14.4048 33.4039 14.3908 33.1021 14.3908C31.7578 14.3908 30.633 14.8808 29.7277 15.8608C28.8224 16.8408 28.3697 18.1708 28.3697 19.8508V29.5108H22.8142V8.93084Z" fill="currentColor"/>
<path d="M41.7198 38.3308C40.4457 38.3308 39.3409 38.3308 37.9961 38.3308V32.8708C39.0721 32.8708 39.5231 32.8708 40.2795 32.8708C41.2123 32.8708 41.953 32.6328 42.5017 32.1568C43.0504 31.6808 43.4756 31.0788 43.7774 30.3508L44.1889 29.3008L36.3701 8.93084H42.3371L47.0695 22.5808H47.2753L51.8019 8.93084H57.7689L49.5386 31.1908C48.6881 33.5148 47.6319 35.2788 46.3699 36.4828C45.1354 37.7148 43.5854 38.3308 41.7198 38.3308Z" fill="currentColor"/>
<path fill-rule="evenodd" clip-rule="evenodd" d="M60.2284 8.93084H65.7838V11.8708H65.9896C66.4011 11.2548 66.9223 10.6948 67.5533 10.1908C68.102 9.77084 68.7604 9.39284 69.5286 9.05684C70.3242 8.69284 71.2707 8.51084 72.3681 8.51084C73.5477 8.51084 74.6863 8.77684 75.7836 9.30884C76.881 9.84084 77.8412 10.5828 78.6642 11.5348C79.5147 12.4588 80.1868 13.5788 80.6807 14.8948C81.1745 16.2108 81.4214 17.6528 81.4214 19.2208C81.4214 20.7888 81.1745 22.2308 80.6807 23.5468C80.1868 24.8628 79.5147 25.9968 78.6642 26.9488C77.8412 27.9008 76.881 28.6428 75.7836 29.1748C74.6863 29.6788 73.5477 29.9308 72.3681 29.9308C71.2707 29.9308 70.3242 29.7628 69.5286 29.4268C68.7604 29.0628 68.102 28.6708 67.5533 28.2508C66.9223 27.7468 66.4011 27.1868 65.9896 26.5708H65.7838V38.3308H60.2284V8.93084ZM67.8063 14.3012C66.724 14.3012 65.8467 15.1967 65.8467 16.3012V22.3012C65.8467 23.4058 66.724 24.3012 67.8063 24.3012H73.685C74.7673 24.3012 75.6446 23.4058 75.6446 22.3012V16.3012C75.6446 15.1967 74.7673 14.3012 73.685 14.3012H67.8063Z" fill="currentColor"/>
<path d="M93.9822 29.9308C91.9247 29.9308 90.2786 29.2868 89.0441 27.9988C87.8095 26.6828 87.1922 24.8068 87.1922 22.3708V14.6008H83.6944V9.35084H85.5462C87.0551 9.35084 87.8095 8.51084 87.8095 6.83084V3.05084H92.7477V9.35084H97.2744V14.6008H92.7477V21.5308C92.7477 22.4828 92.9809 23.2108 93.4473 23.7148C93.9411 24.2188 94.5995 24.4708 95.4226 24.4708C96.179 24.4708 96.8347 24.4708 97.6859 24.4708V29.9308C96.4255 29.9308 95.2651 29.9308 93.9822 29.9308Z" fill="currentColor"/>
<path fill-rule="evenodd" clip-rule="evenodd" d="M111.086 29.9308C109.604 29.9308 108.205 29.6508 106.888 29.0908C105.599 28.5308 104.46 27.7608 103.473 26.7808C102.513 25.8008 101.758 24.6668 101.209 23.3788C100.661 22.0908 100.386 20.7048 100.386 19.2208C100.386 17.7648 100.661 16.3928 101.209 15.1048C101.758 13.7888 102.513 12.6408 103.473 11.6608C104.46 10.6808 105.599 9.91084 106.888 9.35084C108.205 8.79084 109.604 8.51084 111.086 8.51084C112.567 8.51084 113.953 8.79084 115.242 9.35084C116.559 9.91084 117.698 10.6808 118.658 11.6608C119.645 12.6408 120.414 13.7888 120.962 15.1048C121.511 16.3928 121.785 17.7648 121.785 19.2208C121.785 20.7048 121.511 22.0908 120.962 23.3788C120.414 24.6668 119.645 25.8008 118.658 26.7808C117.698 27.7608 116.559 28.5308 115.242 29.0908C113.953 29.6508 112.567 29.9308 111.086 29.9308ZM107.978 14.3012C106.896 14.3012 106.018 15.1967 106.018 16.3012V22.3012C106.018 23.4058 106.896 24.3012 107.978 24.3012H113.857C114.939 24.3012 115.816 23.4058 115.816 22.3012V16.3012C115.816 15.1967 114.939 14.3012 113.857 14.3012H107.978Z" fill="currentColor"/>
<path fill-rule="evenodd" clip-rule="evenodd" d="M138.239 29.9308C137.142 29.9308 136.196 29.7628 135.4 29.4268C134.632 29.0628 133.973 28.6708 133.425 28.2508C132.794 27.7468 132.272 27.1868 131.861 26.5708H131.655V29.5108H126.1V0.11084H131.655V11.8708H131.861C132.272 11.2548 132.794 10.6948 133.425 10.1908C133.973 9.77084 134.632 9.39284 135.4 9.05684C136.196 8.69284 137.142 8.51084 138.239 8.51084C139.419 8.51084 140.558 8.77684 141.655 9.30884C142.752 9.84084 143.713 10.5828 144.536 11.5348C145.386 12.4588 146.058 13.5788 146.552 14.8948C147.046 16.2108 147.293 17.6528 147.293 19.2208C147.293 20.7888 147.046 22.2308 146.552 23.5468C146.058 24.8628 145.386 25.9968 144.536 26.9488C143.713 27.9008 142.752 28.6428 141.655 29.1748C140.558 29.6788 139.419 29.9308 138.239 29.9308ZM131.449 19.2208C131.449 18.9516 131.464 18.689 131.493 18.433V20.0087C131.464 19.7527 131.449 19.4901 131.449 19.2208ZM131.493 16.3012C131.493 15.1967 132.37 14.3012 133.453 14.3012H139.332C140.414 14.3012 141.291 15.1967 141.291 16.3012V22.3012C141.291 23.4058 140.414 24.3012 139.332 24.3012H133.453C132.37 24.3012 131.493 23.4058 131.493 22.3012V16.3012Z" fill="currentColor"/>
<path d="M151.413 8.93084H156.968V29.5108H151.413V8.93084Z" fill="currentColor"/>
<path d="M170.739 29.9308C168.682 29.9308 167.036 29.2868 165.801 27.9988C164.567 26.6828 163.949 24.8068 163.949 22.3708V14.6008H160.452V9.35084H162.303C163.812 9.35084 164.567 8.51084 164.567 6.83084V3.05084H169.505V9.35084H174.032V14.6008H169.505V21.5308C169.505 22.4828 169.738 23.2108 170.205 23.7148C170.698 24.2188 171.357 24.4708 172.18 24.4708C172.936 24.4708 173.661 24.4708 174.443 24.4708V29.9308C173.202 29.9308 172.022 29.9308 170.739 29.9308Z" fill="currentColor"/>
<path d="M185.364 29.9308C183.965 29.9308 182.731 29.7348 181.661 29.3428C180.591 28.9508 179.685 28.5168 178.945 28.0408C178.067 27.5088 177.326 26.8788 176.723 26.1508L180.015 22.5808C180.426 23.0288 180.906 23.4208 181.455 23.7568C181.921 24.0648 182.484 24.3308 183.142 24.5548C183.801 24.7788 184.541 24.8908 185.364 24.8908C186.297 24.8908 186.942 24.7508 187.298 24.4708C187.655 24.1908 187.833 23.8408 187.833 23.4208C187.833 23.0288 187.573 22.7068 187.052 22.4548C186.558 22.1748 185.927 21.9088 185.159 21.6568C184.39 21.4048 183.567 21.1108 182.689 20.7748C181.812 20.4388 180.989 20.0188 180.22 19.5148C179.452 19.0108 178.808 18.3808 178.286 17.6248C177.792 16.8688 177.546 15.9308 177.546 14.8108C177.546 13.9708 177.724 13.1728 178.081 12.4168C178.437 11.6608 178.945 10.9888 179.603 10.4008C180.289 9.81284 181.126 9.35084 182.113 9.01484C183.128 8.67884 184.281 8.51084 185.57 8.51084C186.859 8.51084 187.984 8.67884 188.945 9.01484C189.932 9.35084 190.755 9.71484 191.414 10.1068C192.182 10.5828 192.84 11.1008 193.389 11.6608L190.097 15.2308C189.768 14.9228 189.37 14.6428 188.903 14.3908C188.519 14.1668 188.039 13.9708 187.463 13.8028C186.914 13.6348 186.283 13.5508 185.57 13.5508C184.857 13.5508 184.336 13.6908 184.006 13.9708C183.677 14.2228 183.513 14.5028 183.513 14.8108C183.513 15.2028 183.759 15.5388 184.253 15.8188C184.774 16.0708 185.419 16.3228 186.187 16.5748C186.956 16.8268 187.779 17.1208 188.656 17.4568C189.534 17.7928 190.357 18.2128 191.126 18.7168C191.894 19.2208 192.525 19.8508 193.019 20.6068C193.54 21.3628 193.8 22.3008 193.8 23.4208C193.8 24.3168 193.622 25.1568 193.265 25.9408C192.909 26.7248 192.374 27.4108 191.661 27.9988C190.947 28.5868 190.069 29.0628 189.027 29.4268C187.984 29.7628 186.763 29.9308 185.364 29.9308Z" fill="currentColor"/>
<path d="M189.806 38.7855C189.104 38.7759 188.416 38.9807 187.828 39.3739C187.24 39.7671 186.779 40.3309 186.504 40.9937C186.229 41.6564 186.152 42.3881 186.283 43.0958C186.414 43.8035 186.747 44.4552 187.24 44.968C187.733 45.4808 188.364 45.8315 189.051 45.9756C189.739 46.1197 190.453 46.0507 191.102 45.7773C191.751 45.5039 192.306 45.0384 192.697 44.4402C193.088 43.8419 193.297 43.1378 193.297 42.4174C193.297 41.4625 192.931 40.546 192.278 39.8662C191.624 39.1865 190.736 38.7982 189.806 38.7855ZM189.806 44.4876C189.529 44.5029 189.252 44.4602 188.992 44.362C188.732 44.2638 188.494 44.1122 188.293 43.9165C188.092 43.7208 187.932 43.4851 187.822 43.2237C187.713 42.9623 187.656 42.6808 187.656 42.3962C187.656 42.1117 187.713 41.8302 187.822 41.5688C187.932 41.3074 188.092 41.0717 188.293 40.876C188.494 40.6803 188.732 40.5287 188.992 40.4305C189.252 40.3323 189.529 40.2896 189.806 40.3048C190.327 40.3336 190.818 40.5666 191.177 40.9556C191.537 41.3447 191.737 41.8602 191.737 42.3962C191.737 42.9322 191.537 43.4478 191.177 43.8369C190.818 44.2259 190.327 44.4588 189.806 44.4876Z" fill="white"/>
<path d="M184.991 38.8357C184.973 38.8186 184.95 38.8091 184.926 38.8091C184.901 38.8091 184.878 38.8186 184.86 38.8357L182.461 41.2681L180.092 38.8357C180.074 38.8186 180.051 38.8091 180.026 38.8091C180.002 38.8091 179.979 38.8186 179.961 38.8357L178.996 39.8634C178.979 39.8815 178.97 39.9054 178.97 39.9303C178.97 39.9552 178.979 39.9791 178.996 39.9972L181.365 42.4296L178.96 44.8984C178.943 44.9165 178.934 44.9404 178.934 44.9653C178.934 44.9902 178.943 45.0141 178.96 45.0322L179.908 45.9991C179.918 46.0109 179.931 46.0203 179.946 46.0267C179.96 46.0332 179.975 46.0365 179.991 46.0365C180.006 46.0365 180.022 46.0332 180.036 46.0267C180.05 46.0203 180.063 46.0109 180.074 45.9991L182.443 43.5667L184.813 45.9991C184.831 46.0162 184.854 46.0257 184.878 46.0257C184.902 46.0257 184.926 46.0162 184.943 45.9991L185.909 45.014C185.926 44.9959 185.935 44.972 185.935 44.9471C185.935 44.9222 185.926 44.8983 185.909 44.8802L183.539 42.4478L185.944 40.0154C185.961 39.9974 185.97 39.9734 185.97 39.9485C185.97 39.9237 185.961 39.8997 185.944 39.8816L184.991 38.8357Z" fill="white"/>
<path d="M178.398 42.028C178.251 40.2241 176.788 38.801 174.995 38.7856C174.485 38.7856 173.985 38.8961 173.522 39.1178C172.252 39.7268 171.543 41.0191 171.543 42.4317C171.613 44.348 173.208 45.9219 175.077 45.9219H177.039C177.143 45.9219 177.231 45.835 177.231 45.7251V44.5728C177.231 44.4655 177.146 44.3761 177.039 44.3761H174.993C174.137 44.3761 173.41 43.722 173.148 42.9325H178.166C178.303 42.9325 178.413 42.8277 178.413 42.7C178.41 42.5389 178.398 42.028 178.398 42.028ZM176.785 41.6575H173.156C173.452 40.8017 174.276 40.2525 175.155 40.3391C175.916 40.4132 176.531 40.9498 176.785 41.6575Z" fill="white"/>
<path d="M167.149 38.7884C166.5 38.8043 165.87 39.0157 165.337 39.3965V38.9952C165.337 38.9629 165.324 38.932 165.302 38.9092C165.28 38.8864 165.249 38.8736 165.218 38.8736H163.95C163.919 38.8736 163.889 38.8864 163.867 38.9092C163.844 38.932 163.832 38.9629 163.832 38.9952V42.2363C163.829 42.291 163.829 42.3458 163.832 42.4005V45.7085C163.832 45.7607 163.852 45.8109 163.887 45.8483C163.922 45.8858 163.971 45.9076 164.021 45.9092H165.147C165.172 45.9092 165.197 45.904 165.221 45.8938C165.244 45.8837 165.265 45.8688 165.283 45.8501C165.301 45.8314 165.315 45.8092 165.324 45.7849C165.333 45.7606 165.337 45.7346 165.337 45.7085V42.3215C165.337 42.0433 165.394 41.7684 165.504 41.5142C165.614 41.2601 165.774 41.0323 165.975 40.8456C166.176 40.659 166.413 40.5175 166.67 40.4302C166.927 40.343 167.2 40.3119 167.469 40.3391C167.96 40.392 168.414 40.6305 168.742 41.0083C169.071 41.386 169.251 41.8759 169.246 42.3823V45.7207C169.246 45.7468 169.25 45.7727 169.259 45.797C169.268 45.8214 169.282 45.8435 169.3 45.8623C169.317 45.881 169.339 45.8958 169.362 45.906C169.385 45.9162 169.411 45.9214 169.436 45.9214H170.556C170.607 45.9214 170.657 45.9002 170.694 45.8626C170.73 45.825 170.751 45.7739 170.751 45.7207V42.3215C170.75 41.8438 170.655 41.3714 170.471 40.9325C170.288 40.4936 170.02 40.0972 169.683 39.7673C169.347 39.4373 168.949 39.1805 168.514 39.0123C168.078 38.8441 167.614 38.7679 167.149 38.7884V38.7884Z" fill="white"/>
<path d="M148.805 39.6261L149.013 39.7504L149.214 39.8695L155.616 43.6885V40.1207L155.019 39.7659L152.004 37.969L149.038 36.2006C149.021 36.1903 148.998 36.1903 148.981 36.2006L146.013 37.969L148.805 39.6261Z" fill="white"/>
<path d="M155.616 36.3042L152.826 37.969L155.616 39.6313V36.3042Z" fill="white"/>
<path d="M156.028 40.364V43.9345L159.026 45.721V38.1244C159.026 38.1037 159.016 38.083 158.996 38.0726L156.028 36.3042V40.364Z" fill="white"/>
<path d="M155.617 44.1807L149.214 40.3643V43.9347L155.792 47.8547C155.81 47.8651 155.833 47.8651 155.85 47.8547L158.818 46.0863L158.75 46.0475L155.617 44.1807Z" fill="white"/>
<path d="M148.805 40.1205L145.807 38.334V45.9306C145.807 45.9513 145.817 45.9721 145.837 45.9824L148.805 47.7508V40.1205Z" fill="white"/>
<path d="M152.004 46.0861L149.214 44.4238V47.7509L152.004 46.0861Z" fill="white"/>
<path d="M135.606 45.4833C135.315 45.4833 135.07 45.4437 134.872 45.3646C134.68 45.2789 134.518 45.1865 134.386 45.0876C134.234 44.9689 134.112 44.8371 134.019 44.692H133.969V45.3844H132.829V38.4604H133.969V41.23H134.019C134.112 41.0849 134.234 40.9531 134.386 40.8344C134.518 40.7355 134.68 40.6464 134.872 40.5673C135.07 40.4816 135.315 40.4387 135.606 40.4387C135.89 40.4387 136.165 40.5014 136.429 40.6266C136.694 40.7519 136.925 40.9267 137.124 41.1509C137.329 41.3685 137.491 41.6323 137.61 41.9422C137.729 42.2521 137.788 42.5917 137.788 42.961C137.788 43.3303 137.729 43.6699 137.61 43.9798C137.491 44.2897 137.329 44.5568 137.124 44.781C136.925 45.0052 136.694 45.18 136.429 45.3052C136.165 45.4239 135.89 45.4833 135.606 45.4833ZM135.308 44.3458C135.494 44.3458 135.666 44.3128 135.824 44.2469C135.99 44.1743 136.132 44.0754 136.251 43.9501C136.376 43.8248 136.472 43.6798 136.538 43.5149C136.611 43.3435 136.648 43.1588 136.648 42.961C136.648 42.7632 136.611 42.5818 136.538 42.417C136.472 42.2455 136.376 42.0972 136.251 41.9719C136.132 41.8466 135.99 41.751 135.824 41.685C135.666 41.6125 135.494 41.5762 135.308 41.5762C135.123 41.5762 134.948 41.6125 134.783 41.685C134.624 41.751 134.482 41.8466 134.356 41.9719C134.237 42.0972 134.141 42.2455 134.069 42.417C134.002 42.5818 133.969 42.7632 133.969 42.961C133.969 43.1588 134.002 43.3435 134.069 43.5149C134.141 43.6798 134.237 43.8248 134.356 43.9501C134.482 44.0754 134.624 44.1743 134.783 44.2469C134.948 44.3128 135.123 44.3458 135.308 44.3458Z" fill="white"/>
<path d="M138.947 47.4616C138.828 47.4616 138.716 47.455 138.61 47.4418C138.511 47.4286 138.425 47.4121 138.352 47.3923C138.266 47.3659 138.183 47.3396 138.104 47.3132V46.2251C138.15 46.2515 138.206 46.2779 138.272 46.3043C138.325 46.324 138.385 46.3405 138.451 46.3537C138.524 46.3669 138.606 46.3735 138.699 46.3735C138.924 46.3735 139.099 46.3142 139.225 46.1955C139.35 46.0768 139.456 45.9218 139.542 45.7306L139.691 45.3844L137.757 40.5376H138.997L140.286 43.9007H140.336L141.576 40.5376H142.816L140.732 45.8295C140.527 46.3504 140.283 46.7527 139.998 47.0362C139.721 47.3198 139.37 47.4616 138.947 47.4616Z" fill="white"/>
<rect x="150.991" width="6.39536" height="6.52722" rx="1.4228" fill="currentColor"/>
</svg>