<svg width="18" height="16" viewBox="0 0 18 16" fill="none" xmlns="http://www.w3.org/2000/svg">
<path d="M17.7109 1.75589C17.789 1.20901 17.75 0.857448 17.5156 0.623073C17.2812 0.388698 16.9687 0.349635 16.5781 0.466823L1.07029 6.44339C0.523415 6.67776 0.249978 6.91214 0.249978 7.14651C0.210915 7.41995 0.406228 7.61526 0.874978 7.73245L4.85935 8.98245L14.0781 3.16214C14.1953 3.08401 14.3125 3.04495 14.4297 3.04495C14.5469 3.04495 14.625 3.04495 14.664 3.12307C14.7031 3.2012 14.664 3.24026 14.5859 3.31839L7.12498 10.0762L6.81248 14.1778C7.00779 14.1778 7.16404 14.1387 7.32029 14.0606C7.39842 14.0215 7.47654 13.9434 7.63279 13.7871L9.58592 11.9121L13.6094 14.8809C13.9609 15.1153 14.2734 15.1543 14.5078 15.0371C14.7422 14.9199 14.9375 14.6465 15.0547 14.1778L17.7109 1.75589Z" fill="#060F2B"/>
</svg>
