<svg width="25" height="25" viewBox="0 0 25 25" fill="none" xmlns="http://www.w3.org/2000/svg">
<path d="M24.4375 20.8123L18.8125 15.1873C20.0781 13.3123 20.7344 10.9686 20.4063 8.43731C19.7969 4.12481 16.2813 0.656057 12.0156 0.0935566C5.64063 -0.703318 0.250005 4.68731 1.04688 11.0623C1.60938 15.3279 5.07813 18.8436 9.39063 19.4529C11.9219 19.7811 14.2656 19.1248 16.1875 17.8592L21.7656 23.4842C22.5156 24.1873 23.6875 24.1873 24.4375 23.4842C25.1406 22.7342 25.1406 21.5623 24.4375 20.8123ZM4.70313 9.74981C4.70313 6.46856 7.375 3.74981 10.7031 3.74981C13.9844 3.74981 16.7031 6.46856 16.7031 9.74981C16.7031 13.0779 13.9844 15.7498 10.7031 15.7498C7.375 15.7498 4.70313 13.0779 4.70313 9.74981Z" fill="currentColor"/>
</svg>