<svg width="52" height="42" viewBox="0 0 52 42" fill="none" xmlns="http://www.w3.org/2000/svg">
<path fill-rule="evenodd" clip-rule="evenodd" d="M44.0923 14.3628C44.0923 13.9868 43.7874 13.6819 43.4113 13.6819H8.28463C7.90853 13.6819 7.60364 13.9868 7.60364 14.3628V31.2452C7.60364 31.6214 7.90853 31.9263 8.28463 31.9263H11.4848C11.861 31.9263 12.1659 31.6214 12.1659 31.2452V19.7646C12.1659 18.0852 13.5272 16.7239 15.2066 16.7239C16.8859 16.7239 18.2472 18.0852 18.2472 19.7646V31.2452C18.2472 31.6214 18.5521 31.9263 18.9283 31.9263H22.1269C22.5029 31.9263 22.8078 31.6214 22.8078 31.2452V19.7651C22.8078 18.0857 24.1691 16.7244 25.8485 16.7244C27.5278 16.7244 28.8893 18.0857 28.8893 19.7651V31.2452C28.8893 31.6214 29.1942 31.9263 29.5702 31.9263H32.7719C33.1481 31.9263 33.453 31.6214 33.453 31.2452V19.7651C33.453 18.0857 34.8143 16.7244 36.4937 16.7244C38.173 16.7244 39.5344 18.0857 39.5344 19.7651V31.2452C39.5344 31.6214 39.8392 31.9263 40.2154 31.9263H43.4113C43.7874 31.9263 44.0923 31.6214 44.0923 31.2452V14.3628Z" fill="#060F2B"/>
<path d="M24.6863 0.545771C25.4209 0.200076 26.2714 0.200074 27.006 0.545771L48.9358 10.8657C49.594 11.1754 49.3733 12.1628 48.6458 12.1628H3.04646C2.31903 12.1628 2.0983 11.1754 2.75649 10.8657L24.6863 0.545771Z" fill="#060F2B"/>
<path d="M46.4482 33.4482H5.24008C4.86397 33.4482 4.55908 33.7531 4.55908 34.1292V35.808C4.55908 36.1841 4.86397 36.489 5.24008 36.489H46.4482C46.8243 36.489 47.1292 36.1841 47.1292 35.808V34.1292C47.1292 33.7531 46.8243 33.4482 46.4482 33.4482Z" fill="#060F2B"/>
<path d="M49.4914 38.0088H2.20175C1.82564 38.0088 1.52075 38.3137 1.52075 38.6898V40.3685C1.52075 40.7446 1.82564 41.0495 2.20175 41.0495H49.4914C49.8675 41.0495 50.1724 40.7446 50.1724 40.3685V38.6898C50.1724 38.3137 49.8675 38.0088 49.4914 38.0088Z" fill="#060F2B"/>
</svg>
