<svg width="62" height="42" viewBox="0 0 62 42" fill="none" xmlns="http://www.w3.org/2000/svg">
<path fill-rule="evenodd" clip-rule="evenodd" d="M50.2651 15.564C51.061 16.2055 51.2711 16.1988 51.9891 15.4396C52.9202 14.5845 53.6864 13.5099 54.1521 12.2183C55.5092 8.45417 54.0537 3.41318 50.7622 1.03619C50.1418 0.585119 49.9761 0.576339 49.4375 1.07898C46.4583 3.81717 45.786 9.08575 47.73 12.6815C48.3616 13.8518 49.2575 14.836 50.2651 15.564Z" fill="#060F2B"/>
<path fill-rule="evenodd" clip-rule="evenodd" d="M11.7379 15.5614C10.942 16.2029 10.732 16.1961 10.0139 15.437C9.08291 14.5819 8.31663 13.5073 7.85093 12.2156C6.49392 8.4516 7.9494 3.41062 11.2409 1.03362C11.8613 0.582556 12.0269 0.573778 12.5656 1.07641C15.5448 3.81461 16.217 9.08318 14.273 12.6789C13.6414 13.8492 12.7456 14.8333 11.7379 15.5614Z" fill="#060F2B"/>
<path fill-rule="evenodd" clip-rule="evenodd" d="M49.6735 23.1221C49.6167 24.1427 49.7447 24.3094 50.7801 24.4499C52.0178 24.7073 53.3376 24.7028 54.6584 24.3276C58.5073 23.2342 61.7527 19.1114 61.7634 15.0514C61.7679 14.2844 61.6784 14.1447 60.9559 14.0004C56.994 13.1778 52.3225 15.7051 50.5359 19.3816C49.9538 20.5772 49.677 21.879 49.6735 23.1221Z" fill="#060F2B"/>
<path fill-rule="evenodd" clip-rule="evenodd" d="M12.3244 23.1221C12.3813 24.1427 12.2532 24.3094 11.2178 24.4499C9.98011 24.7073 8.66029 24.7028 7.33952 24.3276C3.49064 23.2342 0.245186 19.1114 0.234528 15.0514C0.230056 14.2844 0.319536 14.1447 1.04202 14.0004C5.00393 13.1778 9.67542 15.7051 11.462 19.3816C12.0441 20.5772 12.3209 21.879 12.3244 23.1221Z" fill="#060F2B"/>
<path fill-rule="evenodd" clip-rule="evenodd" d="M45.5158 29.5978C44.9026 30.4156 44.9167 30.6253 45.7005 31.3163C46.5877 32.2168 47.6885 32.945 48.9957 33.3652C52.805 34.5895 57.7919 32.9583 60.0521 29.5855C60.4811 28.9497 60.4841 28.7839 59.9629 28.2632C57.122 25.3817 51.8331 24.8944 48.3077 26.9632C47.1603 27.6354 46.2081 28.5652 45.5158 29.5978Z" fill="#060F2B"/>
<path fill-rule="evenodd" clip-rule="evenodd" d="M16.4872 29.5952C17.1004 30.413 17.0863 30.6227 16.3025 31.3137C15.4153 32.2142 14.3145 32.9424 13.0074 33.3626C9.19805 34.5869 4.21115 32.9557 1.95092 29.5829C1.52186 28.9471 1.51889 28.7813 2.04009 28.2605C4.88097 25.3791 10.1699 24.8918 13.6953 26.9606C14.8427 27.6328 15.7949 28.5626 16.4872 29.5952Z" fill="#060F2B"/>
<path fill-rule="evenodd" clip-rule="evenodd" d="M36.2056 33.95C35.3164 34.4542 35.2455 34.652 35.6874 35.5989C36.1403 36.7792 36.8578 37.8869 37.8877 38.7949C40.8891 41.4409 46.1122 41.9409 49.5329 39.754C50.1805 39.3429 50.2496 39.1921 49.9802 38.5063C48.5293 34.729 43.877 32.1666 39.8183 32.6523C38.4978 32.8094 37.2532 33.2806 36.2056 33.95Z" fill="#060F2B"/>
<path fill-rule="evenodd" clip-rule="evenodd" d="M25.7974 33.95C26.6866 34.4542 26.7576 34.652 26.3157 35.5989C25.8628 36.7792 25.1452 37.8869 24.1153 38.7949C21.1139 41.4409 15.8909 41.9409 12.4701 39.754C11.8225 39.3429 11.7535 39.1921 12.0228 38.5063C13.4738 34.729 18.1261 32.1666 22.1847 32.6523C23.5052 32.8094 24.7499 33.2806 25.7974 33.95Z" fill="#060F2B"/>
<path fill-rule="evenodd" clip-rule="evenodd" d="M49.2737 7.08184C49.5974 6.9484 49.9679 7.10257 50.1013 7.4262C51.1017 9.8523 51.6533 12.51 51.6533 15.295C51.6533 24.6529 45.4308 32.5558 36.8991 35.095C36.5636 35.1948 36.2106 35.0038 36.1108 34.6683C36.0109 34.3327 36.202 33.9798 36.5375 33.8799C44.5464 31.4964 50.3856 24.0768 50.3856 15.295C50.3856 12.6787 49.8677 10.1849 48.9294 7.90946C48.7959 7.58583 48.9501 7.21529 49.2737 7.08184ZM12.722 7.08184C13.0456 7.21529 13.1998 7.58583 13.0664 7.90946C12.1281 10.1849 11.6102 12.6787 11.6102 15.295C11.6102 24.0768 17.4493 31.4964 25.4582 33.8799C25.7938 33.9798 25.9848 34.3327 25.8849 34.6683C25.7851 35.0038 25.4321 35.1948 25.0966 35.095C16.565 32.5558 10.3425 24.6529 10.3425 15.295C10.3425 12.51 10.894 9.8523 11.8944 7.4262C12.0278 7.10257 12.3984 6.9484 12.722 7.08184Z" fill="#060F2B"/>
<path fill-rule="evenodd" clip-rule="evenodd" d="M29.3807 1.85889L28.8393 2.39814C26.573 4.6557 24.8776 7.4862 23.9892 10.654L23.9375 10.8382H17.6181L17.7601 10.4905C19.5905 6.00972 23.6865 2.69498 28.6247 1.96989L29.3807 1.85889ZM31.9568 1.85924L32.7131 1.97056C37.6492 2.69702 41.7433 6.01109 43.5731 10.4905L43.7151 10.8382H37.3995L37.3478 10.654C36.4594 7.4865 34.7644 4.65624 32.4984 2.39879L31.9568 1.85924ZM30.6685 2.92299L30.8392 3.07991C33.0132 5.07838 34.6717 7.62886 35.5925 10.5091L35.6977 10.8382H25.6394L25.7445 10.5091C26.6654 7.62886 28.3238 5.07838 30.4978 3.07991L30.6685 2.92299ZM17.1171 12.4777H23.5724L23.5259 12.7696C23.371 13.7425 23.2905 14.7403 23.2905 15.7568C23.2905 17.0572 23.4222 18.3267 23.6728 19.5529L23.7347 19.8557H17.3414L17.2884 19.6742C16.9252 18.4317 16.7305 17.1173 16.7305 15.7575C16.7305 14.698 16.8487 13.6662 17.0727 12.6744L17.1171 12.4777ZM25.2407 12.4777H36.0963L36.1337 12.6852C36.3133 13.6819 36.4069 14.7084 36.4069 15.7568C36.4069 17.0994 36.2532 18.4061 35.9625 19.6604L35.9173 19.8557H25.4199L25.3746 19.6604C25.0838 18.4061 24.9301 17.0994 24.9301 15.7568C24.9301 14.7084 25.0238 13.6819 25.2034 12.6852L25.2407 12.4777ZM37.7648 12.4777H44.2161L44.2605 12.6744C44.4845 13.6662 44.6028 14.698 44.6028 15.7575C44.6028 17.1173 44.408 18.4317 44.0449 19.6742L43.9919 19.8557H37.6023L37.6642 19.5529C37.9149 18.3267 38.0465 17.0572 38.0465 15.7568C38.0465 14.7403 37.966 13.7425 37.8112 12.7696L37.7648 12.4777ZM17.9562 21.4952H24.1788L24.2359 21.6684C25.1735 24.5102 26.7686 27.0533 28.8411 29.1171L29.3825 29.6563L28.6265 29.5454C23.999 28.8666 20.1108 25.9136 18.1331 21.858L17.9562 21.4952ZM25.9056 21.4952H35.4315L35.3027 21.8365C34.3437 24.3763 32.8014 26.6298 30.8392 28.4337L30.6685 28.5906L30.4978 28.4337C28.5356 26.6298 26.9934 24.3763 26.0344 21.8365L25.9056 21.4952ZM37.1583 21.4952H43.377L43.2001 21.858C41.2231 25.9123 37.3369 28.8646 32.7113 29.5448L31.9549 29.656L32.4966 29.1165C34.5689 27.0527 36.1637 24.51 37.1012 21.6684L37.1583 21.4952Z" fill="#060F2B"/>
</svg>
