<svg width="20" height="18" viewBox="0 0 20 18" fill="none" xmlns="http://www.w3.org/2000/svg">
<path d="M17.9297 4.82617C18.7109 4.24023 19.4141 3.53711 20 2.67773C19.2188 3.0293 18.4375 3.26367 17.6562 3.3418C18.5156 2.79492 19.1406 2.05273 19.4531 1.07617C18.6328 1.54492 17.7734 1.89648 16.8359 2.05273C16.4453 1.66211 15.9766 1.34961 15.4688 1.11523C14.9609 0.880859 14.4141 0.763672 13.8281 0.763672C13.0859 0.763672 12.4219 0.958984 11.7969 1.31055C11.1719 1.70117 10.6641 2.20898 10.3125 2.83398C9.92188 3.45898 9.76562 4.16211 9.76562 4.86523C9.76562 5.17773 9.76562 5.49023 9.84375 5.80273C8.16406 5.72461 6.60156 5.33398 5.11719 4.55273C3.63281 3.81055 2.42188 2.79492 1.40625 1.50586C1.01562 2.16992 0.820312 2.87305 0.820312 3.57617C0.820312 4.2793 0.976562 4.94336 1.32812 5.5293C1.64062 6.1543 2.10938 6.62305 2.65625 7.01367C1.99219 7.01367 1.36719 6.81836 0.820312 6.4668V6.54492C0.820312 7.52148 1.13281 8.38086 1.75781 9.12305C2.38281 9.9043 3.16406 10.373 4.10156 10.5684C3.71094 10.6465 3.35938 10.6855 3.00781 10.6855C2.77344 10.6855 2.5 10.6855 2.26562 10.6465C2.5 11.4668 2.96875 12.1309 3.67188 12.6777C4.375 13.2246 5.15625 13.459 6.09375 13.459C4.57031 14.6309 2.85156 15.2168 0.976562 15.2168C0.585938 15.2168 0.273438 15.2168 0 15.1777C1.875 16.4277 3.98438 17.0137 6.28906 17.0137C8.67188 17.0137 10.7812 16.4277 12.6562 15.1777C14.3359 14.084 15.6641 12.6387 16.6016 10.7637C17.5 9.04492 17.9688 7.20898 17.9688 5.33398C17.9688 5.09961 17.9297 4.94336 17.9297 4.82617Z" fill="#060F2B"/>
</svg>
