<svg width="310" height="207" viewBox="0 0 310 207" fill="none" xmlns="http://www.w3.org/2000/svg" class="" style="">
<g clip-path="url(#clip0_407_23967)">
<path d="M41.4321 149C46.3423 158.083 59.6834 174.672 73.7672 168.361C91.3719 160.473 80.2342 143.622 75.5636 149C70.893 154.378 85.9827 166.927 110.054 157.963" stroke="white" stroke-width="3" stroke-linecap="round" stroke-linejoin="round" class="CGSLykaL_0"/>
<path d="M113.208 171.695C123.95 180.066 143.526 182.862 155 182.352C199.569 182.352 234.223 146.955 234.223 103.29C234.223 59.6252 198.754 24.2279 155 24.2279C111.246 24.2279 77.9483 60.3898 75.7769 103.29C75.7769 125.948 84.8276 146.925 99.9087 161.582L107.09 167.434" stroke="white" stroke-width="3" stroke-linecap="round" stroke-linejoin="round" class="CGSLykaL_1"/>
<path d="M101.46 97.8616C100.515 96.5127 90.0122 80.783 89.0351 79.4829" stroke="white" stroke-width="3" stroke-linecap="round" class="CGSLykaL_2"/>
<path d="M103.069 85.2477C102.43 83.7306 95.4814 66.1463 94.8006 64.67" stroke="white" stroke-width="3" stroke-linecap="round" class="CGSLykaL_3"/>
<path d="M104.468 111.905C103.523 110.556 86.2553 91.9592 85.2783 90.6591" stroke="white" stroke-width="3" stroke-linecap="round" class="CGSLykaL_4"/>
<path d="M107.312 121.981C106.367 120.632 86.255 100.347 85.2779 99.0469" stroke="white" stroke-width="3" stroke-linecap="round" class="CGSLykaL_5"/>
<path d="M100.561 124.21C99.6161 122.861 86.2557 108.735 85.2787 107.435" stroke="white" stroke-width="3" stroke-linecap="round" class="CGSLykaL_6"/>
<path d="M103.069 134.981C102.125 133.633 88.7645 119.506 87.7875 118.206" stroke="white" stroke-width="3" stroke-linecap="round" class="CGSLykaL_7"/>
<path d="M104.665 148.161C103.721 146.812 91.0444 129.52 90.0673 128.22" stroke="white" stroke-width="3" stroke-linecap="round" class="CGSLykaL_8"/>
<path d="M183.065 72.8452L211.019 47.3847C216.385 52.7391 220.951 58.8351 224.58 65.4857L190.627 84.7637L155 103.29L181.798 76.0757" stroke="white" stroke-width="3" stroke-linecap="round" stroke-linejoin="round" class="CGSLykaL_9"/>
<path d="M0.93222 25.5268C0.739857 25.5564 0.5179 25.5859 0.399523 25.7336C0.236754 25.9403 0.133174 26.5014 0.133174 26.8411C0.133174 26.9149 0.133174 26.9888 0.147971 27.0331C0.177566 27.2398 0.20716 27.4613 0.20716 27.668C0.20716 27.6976 0.20716 27.7419 0.20716 27.7714C0.20716 27.8157 0.20716 27.8452 0.20716 27.8895C0.20716 28.5098 0.31074 29.1447 0.31074 29.765C0.31074 29.824 0.31074 29.8683 0.31074 29.9274C0.31074 30.2523 0.281146 30.5624 0.266349 30.8873C0.266349 31.2564 0.236754 31.6256 0.221957 31.9948C0.20716 32.1277 0.177566 32.2754 0.147971 32.423C0.118377 32.7922 0.0443914 33.4715 0 33.8554C0 33.8997 0 33.9293 0 33.9736C0 34.4756 0.147971 35.1402 0.680668 35.1402C0.710263 35.1402 0.739857 35.1402 0.769451 35.1402C1.0358 35.0959 1.30215 34.9334 1.43532 34.7267C1.52411 34.6085 1.59809 34.4904 1.64248 34.3427C1.68687 34.1065 1.79045 33.8111 1.79045 33.5601C1.79045 33.5453 1.79045 33.5306 1.79045 33.5158C1.79045 33.3976 1.86444 32.9842 1.87924 32.866C1.93842 32.3787 1.96802 31.8766 1.99761 31.3893C2.02721 30.6953 2.042 29.9865 2.042 29.2924C2.042 29.13 2.042 28.9823 2.042 28.8199C2.042 28.3621 2.042 27.9043 1.99761 27.4613C1.95322 27.1069 2.01241 26.147 1.80525 25.8517C1.70167 25.6893 1.45012 25.6007 1.27255 25.5416C1.18377 25.5268 1.10979 25.5268 1.0358 25.5268C1.00621 25.5268 0.961814 25.5268 0.93222 25.5268Z" fill="white" class="CGSLykaL_10"/>
<path d="M6.45051 29.4992C6.4801 29.4844 6.4949 29.4844 6.5245 29.4844C6.64287 29.4844 6.71686 29.6764 6.89442 29.9126C7.07199 30.1489 7.30874 30.5181 7.48631 30.7839C7.57509 30.9759 7.66388 31.1826 7.76746 31.3598C7.88583 31.5961 8.0634 31.7733 8.18178 31.9948C8.37414 32.2458 8.46292 32.5264 8.62569 32.7774C8.89204 33.1761 9.15839 33.7816 9.43953 34.1803C9.77987 34.5642 9.86865 35.1697 10.5197 35.1697C10.5345 35.1697 10.5345 35.1697 10.5493 35.1697C11.1116 35.1697 11.5259 34.5642 11.5407 33.9736C11.5407 33.8111 11.5703 33.6487 11.5703 33.4863C11.5703 33.4124 11.5555 33.3386 11.5407 33.25C11.5259 33.1023 11.5259 32.9546 11.5259 32.7922C11.5259 32.6298 11.5259 32.4821 11.5259 32.3197C11.5259 32.0391 11.5259 31.7142 11.5259 31.4189C11.5259 31.2712 11.5259 31.1235 11.5259 30.9906C11.5259 30.9168 11.5259 30.8577 11.5259 30.7987C11.5259 30.5181 11.4815 30.3113 11.4815 30.0308C11.4815 29.9569 11.4963 29.8831 11.4963 29.7945C11.4963 29.5435 11.5703 29.3072 11.5703 29.0561C11.5703 28.7017 11.4963 28.3326 11.4963 27.9929C11.4963 27.6533 11.5259 27.225 11.5407 26.8706C11.5407 26.8116 11.5407 26.7525 11.5407 26.6934C11.5407 26.4719 11.5111 26.2652 11.3336 26.1027C11.2004 25.9551 10.7121 25.8517 10.5345 25.8222C10.5049 25.8222 10.4753 25.8222 10.4457 25.8222C10.1054 25.8222 9.83906 26.147 9.77987 26.4867C9.77987 26.5605 9.77987 26.6344 9.77987 26.7082C9.77987 26.8559 9.77987 26.9888 9.77987 27.1364C9.77987 27.609 9.79466 28.0077 9.79466 28.3916C9.79466 28.7756 9.77987 29.1595 9.72068 29.6025C9.69108 29.7502 9.69108 29.8979 9.69108 30.0455C9.69108 30.1784 9.69108 30.3113 9.69108 30.4442C9.69108 30.5033 9.69108 30.5771 9.69108 30.6362C9.69108 30.6953 9.69108 30.9168 9.5875 30.9168H9.57271C9.43953 30.902 9.29156 30.6362 9.23237 30.5181C9.02521 30.1489 8.83285 29.7945 8.64049 29.4549C8.10779 28.5688 7.5455 27.8157 6.98321 27.0035C6.76125 26.6639 6.59848 26.1766 6.33213 25.9403C6.0066 25.645 5.72545 25.3939 5.34073 25.3939C5.26674 25.3939 5.19275 25.4087 5.11877 25.4235C4.82283 25.4825 4.67485 25.8074 4.67485 26.1027C4.67485 26.1175 4.67485 26.1175 4.67485 26.1323C4.67485 26.2209 4.63046 26.3095 4.63046 26.4128C4.63046 26.4276 4.63046 26.4424 4.63046 26.4571C4.63046 26.5014 4.63046 26.5605 4.63046 26.6048C4.63046 26.9888 4.54168 27.3284 4.54168 27.6976C4.54168 28.2735 4.63046 28.8051 4.63046 29.3515C4.63046 29.3958 4.63046 29.4253 4.63046 29.4696C4.63046 30.016 4.54168 30.5919 4.54168 31.1383C4.54168 31.6108 4.49729 32.1129 4.49729 32.6002C4.49729 32.807 4.51209 33.0137 4.52688 33.2057C4.54168 33.3386 4.55648 33.4862 4.55648 33.6339C4.55648 33.7078 4.55648 33.7964 4.55648 33.8702C4.55648 34.2541 4.58607 34.6233 4.9708 34.83C5.10397 34.9039 5.35552 34.963 5.4887 34.9925C5.56268 35.022 5.62187 35.022 5.68106 35.022C6.09538 35.022 6.30254 34.5347 6.33213 34.0769C6.33213 33.7964 6.28774 33.4567 6.28774 33.1761C6.28774 33.1318 6.28774 33.1023 6.28774 33.058C6.28774 32.5855 6.36173 32.0834 6.36173 31.6108C6.36173 31.4041 6.36173 31.2121 6.36173 31.0054C6.36173 30.7987 6.36173 30.5771 6.36173 30.3556C6.36173 29.9274 6.37652 29.5435 6.45051 29.4992Z" fill="white" class="CGSLykaL_11"/>
<path d="M21.3728 25.7779C21.2545 25.8074 21.1657 25.8074 21.0473 25.8222C20.9733 25.8369 20.9141 25.8369 20.8401 25.8369C20.7662 25.8369 20.6922 25.8369 20.633 25.8369C20.3075 25.8665 19.9079 25.9698 19.5972 26.088C19.1089 26.2652 18.591 26.4719 18.2506 26.8559C18.1027 27.0183 17.9547 27.2989 17.8215 27.4761C17.4516 27.9782 17.348 28.5541 17.2001 29.1447C17.1113 29.4253 17.0817 29.7502 17.0373 30.0455C17.0225 30.1637 17.0225 30.267 17.0225 30.3852C17.0225 30.5624 17.0225 30.7396 17.0373 30.9316C17.1113 31.729 17.3332 32.423 17.7327 33.1023C17.8659 33.3386 18.0879 33.6635 18.2802 33.8554C18.5022 34.0917 18.8129 34.2246 19.0941 34.387C19.7748 34.8153 20.4998 35.022 21.2693 35.022C21.5504 35.022 21.8316 34.9925 22.1275 34.9334C22.4234 34.8743 22.7194 34.8448 23.0005 34.7267C23.474 34.5347 23.9327 34.0769 24.1695 33.6339C24.2287 33.501 24.2731 33.3533 24.2731 33.2204C24.2731 33.0875 24.2287 32.9694 24.1251 32.866C23.9623 32.7036 23.7552 32.615 23.5332 32.615C23.4001 32.615 23.2817 32.6445 23.1485 32.7184C22.9561 32.8217 22.9561 32.8513 22.7638 32.9546C22.5122 33.0728 22.3051 33.1171 22.0387 33.1614C21.8316 33.1909 21.6688 33.2204 21.5208 33.2204C21.3876 33.2204 21.2545 33.2057 21.0917 33.1466C20.9289 33.0875 20.6626 33.0285 20.5146 32.9546C20.2779 32.8513 20.0855 32.7184 19.8931 32.5559C19.7452 32.423 19.6268 32.2458 19.5084 32.0834C19.2125 31.6404 19.1533 31.2269 19.1533 30.71C19.1533 30.6362 19.1533 30.5624 19.1533 30.4885C19.1533 30.459 19.1533 30.4295 19.1533 30.3999C19.1533 30.1932 19.1237 29.9717 19.1237 29.765C19.1237 29.6321 19.1385 29.5139 19.1681 29.3958C19.2717 28.9823 19.3012 28.6427 19.5232 28.2735C19.5824 28.1554 19.686 28.0372 19.7748 27.9338C20.0115 27.668 20.2927 27.5942 20.6478 27.4908C20.8993 27.417 21.1065 27.4022 21.3728 27.3875C21.4912 27.3727 21.5948 27.3727 21.6984 27.3727C21.8316 27.3727 21.9499 27.3727 22.0979 27.4022C22.3051 27.4318 22.4974 27.4613 22.6898 27.5499C22.8082 27.609 22.9561 27.6828 23.0893 27.6828C23.1337 27.6828 23.1781 27.668 23.2225 27.6533C23.3705 27.609 23.5036 27.4761 23.5924 27.3579C23.6664 27.2841 23.7108 27.1955 23.7552 27.0921C23.7848 27.0183 23.7996 26.9445 23.7996 26.8706C23.7996 26.6344 23.6516 26.4128 23.4296 26.2799C22.9709 25.9994 22.4678 25.9403 21.9499 25.8369C21.7872 25.8074 21.6392 25.7631 21.4764 25.7631C21.4468 25.7631 21.4024 25.7779 21.3728 25.7779Z" fill="white" class="CGSLykaL_12"/>
<path d="M26.5029 25.8369C26.2514 25.8812 25.9554 26.088 25.9406 26.3538C25.9111 26.5014 25.8667 26.6491 25.8667 26.7968C25.8667 26.8263 25.8815 26.8706 25.8815 26.9002C25.9111 27.0183 25.9111 27.1512 25.9111 27.2841C25.9111 27.3727 25.9111 27.4465 25.9111 27.5351C25.9259 28.2735 26.0294 29.0118 26.0294 29.7502C26.0294 29.7945 26.0294 29.8388 26.0294 29.8831C26.0294 30.4147 25.9554 30.9316 25.9554 31.4632C25.9554 31.8176 26.0294 32.1572 26.0294 32.4969C26.0294 32.6298 26.0146 32.7627 26.0146 32.8956C26.0146 32.9251 26.0146 32.9694 26.0146 32.9989C26.0442 33.4567 26.1478 33.9736 26.429 34.3723C26.5621 34.5495 26.7841 34.7414 27.006 34.7414C27.0208 34.7414 27.0356 34.7414 27.0504 34.7414C27.154 34.7267 27.4056 34.6824 27.4944 34.6233C27.9383 34.387 28.027 33.9588 28.027 33.5158C28.027 33.25 27.9975 32.9842 27.9827 32.7479C27.9531 32.5116 27.9531 32.2901 27.9531 32.0538C27.9235 31.8176 27.8791 31.5961 27.8791 31.3598C27.8791 31.3155 27.8791 31.2712 27.8791 31.2269C27.8791 31.1826 27.8791 31.1383 27.8791 31.094C27.8791 30.7248 27.8347 30.3556 27.8199 29.9865C27.8051 29.1447 27.6571 28.303 27.6571 27.4465C27.6571 27.4022 27.6571 27.3727 27.6571 27.3284C27.6571 27.1512 27.6127 26.974 27.6127 26.7968C27.5831 26.5753 27.6275 26.2652 27.45 26.088C27.3168 25.9551 27.0652 25.9255 26.8877 25.8812C26.7989 25.8517 26.6953 25.8222 26.6065 25.8222C26.5769 25.8222 26.5473 25.8222 26.5029 25.8369Z" fill="white" class="CGSLykaL_13"/>
<path d="M32.4504 25.7779C32.184 25.8222 31.9472 25.8517 31.6661 25.8517C31.4293 25.8369 31.1778 25.6302 30.8671 25.6302C30.7191 25.6302 30.5563 25.6745 30.3788 25.8369C30.3048 25.9698 30.3196 26.1175 30.29 26.2652C30.29 26.2947 30.29 26.339 30.29 26.3685C30.29 26.4424 30.29 26.5162 30.29 26.5901C30.29 26.6344 30.29 26.6787 30.29 26.723C30.29 26.8263 30.29 26.9149 30.3048 27.0183C30.3196 27.1069 30.3196 27.225 30.3196 27.3432C30.3196 27.5351 30.3048 27.7566 30.29 27.8895C30.2752 28.052 30.2752 28.2144 30.2752 28.3621C30.2752 28.5098 30.2752 28.6722 30.2752 28.8199C30.2752 29.1447 30.2456 29.4549 30.2456 29.7797C30.2456 29.8831 30.2456 30.0012 30.2604 30.1046C30.2604 30.2375 30.2604 30.3704 30.2604 30.5181C30.2604 30.5476 30.2604 30.5919 30.2604 30.6214C30.2604 30.843 30.2308 31.0497 30.2308 31.2712C30.2308 31.3155 30.2308 31.3598 30.2308 31.4041C30.2308 31.5075 30.2308 31.5961 30.2308 31.6994C30.2308 31.7437 30.2308 31.8028 30.2308 31.8471C30.2308 32.0982 30.2456 32.2606 30.2456 32.4673C30.2456 32.5264 30.2456 32.5855 30.2456 32.6445C30.2308 32.8365 30.216 33.058 30.216 33.2795C30.216 33.7521 30.29 34.2541 30.6451 34.5642C30.7783 34.6676 31.0002 34.7267 31.2222 34.7267C31.4441 34.7267 31.6661 34.6676 31.7845 34.5642C31.9324 34.4461 32.0064 34.2689 32.0804 34.1065C32.1544 33.9145 32.1692 33.693 32.1692 33.4863C32.1692 33.3386 32.1692 33.2057 32.1692 33.0728C32.1692 33.0137 32.1692 32.7774 32.1692 32.5412C32.1692 32.2458 32.1692 31.9357 32.2136 31.8766C32.2876 31.7585 32.5095 31.6551 32.6279 31.6108C32.7167 31.5961 32.7759 31.5961 32.8351 31.5961C32.9535 31.5961 33.0422 31.6108 33.1902 31.6551C33.3086 31.6847 33.5305 32.1572 33.6045 32.2163C33.7821 32.4378 33.9153 32.7184 34.0336 32.9546C34.1964 33.25 34.374 33.4863 34.5367 33.7668C34.7291 34.1065 34.9659 34.2394 35.173 34.579C35.247 34.7267 35.4394 34.8743 35.5725 34.9925C35.6909 35.1106 35.8981 35.1402 36.12 35.1402C36.2828 35.1402 36.4308 35.1254 36.5492 35.0959C36.8007 35.0368 36.9487 34.579 36.9487 34.2984C36.9487 34.2837 36.9487 34.2689 36.9487 34.2541C36.9487 34.0769 36.8303 33.9293 36.7711 33.7816C36.3864 33.0137 35.8537 32.4821 35.4098 31.7585C35.3062 31.5961 35.247 31.4484 35.1138 31.3155C35.0398 31.2121 34.9511 31.0645 34.9511 30.9316C34.9511 30.9168 34.9511 30.9168 34.9511 30.902C34.9511 30.6953 35.2914 30.459 35.395 30.3113C35.6021 30.0012 35.6909 29.7207 35.8241 29.3958C35.8833 29.2629 35.9277 29.1595 35.9721 29.0266C36.0461 28.7608 36.0756 28.4359 36.0756 28.1258C36.0756 27.4613 35.8981 26.7673 35.4542 26.3538C34.8475 25.8222 33.8857 25.7926 33.1458 25.7779C32.983 25.7779 32.8351 25.7631 32.6871 25.7631C32.6131 25.7631 32.5243 25.7631 32.4504 25.7779ZM32.8943 27.2841C32.9535 27.2693 33.0126 27.2693 33.057 27.2693C33.279 27.2693 33.4714 27.3579 33.7081 27.4613C33.8265 27.5056 34.0336 27.8305 34.1076 27.9191C34.1668 27.9929 34.1816 28.2883 34.1816 28.3621C34.1816 28.3769 34.1816 28.4064 34.1816 28.4212C34.1816 28.687 34.0928 29.1004 34.0188 29.3072C33.8857 29.6911 33.5601 30.0603 33.2642 30.1489C33.1606 30.1784 33.0422 30.2375 32.9535 30.267C32.8795 30.2818 32.7907 30.2818 32.7019 30.2818C32.5687 30.2818 32.4356 30.267 32.3172 30.2375C32.1988 30.208 32.2136 30.0751 32.1988 29.9717C32.1988 29.765 32.1692 29.5582 32.1692 29.3663C32.1692 29.3367 32.1692 29.3072 32.1692 29.2776C32.184 29.13 32.184 29.0414 32.184 28.9528C32.184 28.8494 32.184 28.7756 32.184 28.6574C32.184 28.5984 32.184 28.5245 32.184 28.4359C32.184 28.3473 32.1692 28.1111 32.1692 27.9043C32.1692 27.7123 32.184 27.5499 32.2284 27.4761C32.3468 27.2989 32.7019 27.2989 32.8943 27.2841Z" fill="white" class="CGSLykaL_14"/>
<path d="M42.8135 25.645C42.2808 25.7188 41.7186 25.6745 41.2007 25.7926C40.4312 25.9698 39.7357 26.2504 39.2918 26.6639C38.7591 27.1512 38.3744 27.8305 37.9305 28.7313C37.7529 29.0857 37.6937 30.0012 37.6937 30.4295C37.6937 31.5665 38.0341 32.6298 38.6999 33.4715C39.3214 34.2689 40.1057 34.8596 40.9047 34.9482C41.0379 34.9482 41.319 35.022 41.467 35.022C41.689 35.022 41.763 35.022 41.9849 35.022C42.9615 35.022 44.7372 34.2541 44.7372 33.3681C44.7372 32.9546 44.2341 32.7184 43.7902 32.7184C43.4054 32.7184 43.2723 32.8217 43.0059 32.9694C42.7248 33.1614 42.3548 33.2647 42.1329 33.2647C41.1711 33.2647 40.4164 32.7331 40.0021 31.8323C39.7949 31.4041 39.7209 30.9759 39.7209 30.3704C39.7209 29.3219 39.9873 28.5688 40.7567 27.9782C40.9935 27.8157 41.393 27.5794 41.689 27.4761C41.9997 27.3875 42.3548 27.3727 42.6952 27.3727C42.8431 27.3727 42.9911 27.3727 43.1243 27.3727C43.4498 27.3727 43.805 27.4908 44.1453 27.4908C44.53 27.4465 44.8999 26.9592 44.8999 26.531C44.8999 25.8812 43.4942 25.645 42.8727 25.645C42.8579 25.645 42.8283 25.645 42.8135 25.645Z" fill="white" class="CGSLykaL_15"/>
<path d="M47.0262 25.896C46.7007 25.9846 46.6415 26.1913 46.6415 26.4276C46.6415 26.5457 46.6563 26.6639 46.6563 26.782C46.6711 26.8706 46.6711 26.9592 46.6711 27.0626C46.6711 27.225 46.6563 27.4022 46.6415 27.5351C46.6267 27.7271 46.6119 27.9486 46.6119 28.1701C46.6119 28.5541 46.6415 28.9675 46.6563 29.3072C46.6711 29.8979 46.7007 30.4885 46.7007 31.0792C46.7007 31.3303 46.7155 31.6108 46.7599 31.8619C46.7895 32.0686 46.8635 32.2606 46.9226 32.4526C47.041 32.8217 47.1446 33.1909 47.337 33.5306C47.8549 34.3723 48.7871 34.8005 49.7193 34.8596C49.9856 34.8744 50.2076 34.9334 50.4444 34.9334C50.5627 34.9334 50.6811 34.9187 50.7995 34.8891C51.1842 34.8153 51.6133 34.6233 51.9389 34.4018C52.2052 34.2098 52.4864 34.0474 52.6935 33.7964C53.4926 32.8808 53.6553 31.5813 53.6553 30.3999C53.6553 30.3409 53.6553 30.2966 53.6553 30.2375C53.6553 30.0603 53.6849 29.8831 53.6849 29.6911C53.6849 29.6616 53.6849 29.6321 53.6849 29.6025C53.6849 29.4106 53.6405 29.2186 53.6405 29.0118C53.6405 28.7608 53.6405 28.4507 53.6405 28.1406C53.6405 27.7566 53.6405 27.3579 53.5962 27.0478C53.5666 26.7968 53.6257 26.531 53.463 26.3095C53.2706 26.0437 52.7823 25.896 52.4568 25.8665C52.368 25.8665 52.2644 25.8665 52.1756 25.8812C51.7613 25.9698 51.6577 26.339 51.6577 26.723C51.6577 26.9592 51.7021 27.1955 51.7169 27.3875C51.7465 27.609 51.7317 28.2587 51.7613 28.4655C51.8205 28.9085 51.8205 29.2038 51.8205 29.6468C51.8353 29.8979 51.8501 30.1489 51.8501 30.4147C51.8501 30.5771 51.8501 30.7396 51.8205 30.8873C51.7761 31.2712 51.6429 31.5961 51.5246 31.9652C51.347 32.5412 50.7551 33.2057 50.0892 33.2057C50.0004 33.2057 49.9117 33.2057 49.8229 33.1761C49.5713 33.1171 49.2162 32.9694 49.0386 32.7922C48.7131 32.4673 48.6243 31.8176 48.5799 31.3746C48.5503 31.0645 48.5503 30.7839 48.5355 30.4885C48.5207 29.8831 48.4763 29.2776 48.4319 28.6722C48.4172 28.4359 48.3876 28.1554 48.3876 27.8895C48.3876 27.7862 48.3876 27.6828 48.4024 27.5942C48.4024 27.5499 48.4024 27.5056 48.4024 27.4613C48.4024 27.3432 48.4024 27.2398 48.4024 27.1217C48.4024 27.0626 48.4024 27.0035 48.4024 26.9445C48.4172 26.8559 48.4172 26.7673 48.4172 26.6639C48.4172 26.5901 48.4172 26.5014 48.3876 26.4276C48.2692 26.0141 47.8253 25.8517 47.4109 25.8517C47.2778 25.8517 47.1446 25.8665 47.0262 25.896Z" fill="white" class="CGSLykaL_16"/>
<path d="M56.8915 25.8369C56.5956 25.8812 56.0925 26.2652 56.0777 26.531C56.0777 26.6344 56.0777 26.723 56.0777 26.8116C56.0777 26.9002 56.0777 26.9888 56.0925 27.0774C56.1369 27.3579 56.1221 27.6385 56.1517 27.9191C56.1665 28.0668 56.1665 28.2292 56.1665 28.3769C56.1665 28.5541 56.1665 28.7313 56.1665 28.8937C56.1665 29.0709 56.1665 29.2333 56.1813 29.3958C56.1813 29.573 56.1961 29.765 56.1961 29.9422C56.1961 30.1194 56.1813 30.2966 56.1813 30.4738C56.1813 30.8134 56.1665 31.1531 56.1665 31.4927C56.1813 31.9062 56.1961 32.2606 56.1961 32.6593C56.1961 32.7479 56.1961 32.8513 56.1961 32.9399C56.1961 33.1171 56.1961 33.3533 56.2108 33.5306C56.2256 33.7225 56.2552 33.9736 56.3292 34.1508C56.3884 34.2984 56.4772 34.3575 56.5956 34.4461C56.7583 34.5495 57.0987 34.6528 57.291 34.6528C57.4686 34.6528 57.6314 34.6381 57.8089 34.6381C57.9273 34.6381 58.0753 34.6381 58.2085 34.6381C58.4452 34.6381 58.682 34.6381 58.9187 34.6824C59.3182 34.7414 59.7474 34.8743 60.1617 34.8743C60.354 34.8743 60.5464 34.8448 60.724 34.771C61.0643 34.6381 61.2715 34.2984 61.2715 33.9736C61.2715 33.7816 61.1975 33.5896 61.0199 33.4419C60.7092 33.1761 60.2357 33.0432 59.8509 33.0432C59.481 33.0432 59.1259 33.0432 58.7708 32.9989C58.534 32.9694 58.312 33.0137 58.1789 32.7774C58.0901 32.6593 58.1197 32.4969 58.1049 32.3492C58.0901 32.2311 58.0901 32.1277 58.0901 32.0095C58.0901 31.7142 58.1197 31.4189 58.1197 31.1235C58.1197 30.7248 58.1641 30.3409 58.1641 29.9422C58.1641 29.8979 58.1641 29.8388 58.1641 29.7945C58.1641 29.6764 58.1641 29.5582 58.1641 29.4549C58.1641 29.3958 58.1641 29.3515 58.1641 29.2924C58.1197 28.6722 58.1345 28.052 58.0753 27.4318C58.0309 27.0331 58.1049 26.4276 57.8089 26.1175C57.6758 25.9846 57.4538 25.9255 57.2762 25.8812C57.1727 25.8517 57.0691 25.8369 56.9655 25.8369C56.9359 25.8369 56.9063 25.8369 56.8915 25.8369Z" fill="white" class="CGSLykaL_17"/>
<path d="M66.3313 25.8517C66.0353 25.896 65.5766 25.8665 65.3399 26.0437C65.1771 26.1766 65.1475 26.3833 65.0883 26.5753C65.0291 26.8411 64.9108 27.1069 64.7924 27.3579C64.6296 27.6976 64.5556 28.0372 64.4372 28.3916C64.2893 28.7608 64.0673 29.1152 63.9637 29.4844C63.875 29.7502 63.8898 30.0455 63.801 30.3261C63.727 30.5624 63.5938 30.8134 63.5198 31.0645C63.4014 31.3746 63.4015 31.7142 63.2683 31.9948C63.1055 32.3197 63.0315 32.615 62.9131 32.9399C62.8244 33.25 62.6764 33.5306 62.5876 33.8259C62.558 33.9588 62.484 34.1212 62.484 34.2837C62.484 34.387 62.5136 34.5052 62.6172 34.579C62.6912 34.6676 62.8392 34.6676 62.9279 34.7267C63.0463 34.771 63.1351 34.8448 63.2535 34.8891C63.3127 34.9039 63.3719 34.9187 63.4162 34.9187C63.6678 34.9187 63.8898 34.7119 64.0377 34.5199C64.3485 34.0917 64.3929 33.4862 64.5704 32.9842C64.6148 32.8365 64.6444 32.6741 64.7628 32.5559C64.9551 32.3197 65.2659 32.2606 65.5914 32.2606C65.7838 32.2606 65.9614 32.2754 66.1241 32.2901C66.1685 32.2901 66.1981 32.2901 66.2425 32.2901C66.3757 32.2901 66.5384 32.2754 66.7012 32.2754C66.9676 32.2754 67.2339 32.3197 67.3967 32.4969C67.5298 32.6593 67.5742 32.8956 67.6334 33.0875C67.7074 33.3238 67.7962 33.5453 67.8554 33.7816C67.9886 34.1212 68.0773 34.5199 68.4177 34.7414C68.5361 34.8153 68.6988 34.83 68.832 34.8448C68.906 34.8596 68.9652 34.8596 69.0392 34.8596C69.0983 34.8596 69.1427 34.8596 69.2019 34.8448C69.6754 34.7414 69.8382 34.3427 69.8382 33.9293C69.8382 33.6044 69.7494 33.2795 69.6458 33.0432C69.3943 32.4378 69.2019 31.8323 68.9948 31.2121C68.8764 30.8873 68.684 30.5624 68.5657 30.2227C68.3289 29.3958 68.0921 28.5393 67.8406 27.6976C67.7962 27.5794 67.7962 27.4318 67.7518 27.3136C67.6778 27.1364 67.589 26.9888 67.5151 26.8263C67.4263 26.6196 67.3967 26.4128 67.2783 26.2209C67.0859 25.9403 66.8492 25.8369 66.5532 25.8369C66.4792 25.8369 66.4053 25.8369 66.3313 25.8517ZM66.1241 28.3473C66.2425 28.3769 66.3461 28.6574 66.3757 28.7756C66.5384 29.1595 66.642 29.9274 66.7308 30.3409C66.7456 30.4147 66.7752 30.5328 66.7752 30.6362C66.7752 30.6953 66.7752 30.7544 66.7456 30.7839C66.716 30.8282 66.6864 30.843 66.6272 30.843C66.5532 30.843 66.4645 30.8134 66.3905 30.8134C66.3609 30.8134 66.3313 30.8134 66.3017 30.8134C66.1685 30.8134 66.0205 30.8282 65.8874 30.8282C65.7246 30.8282 65.5766 30.8134 65.4287 30.7544C65.3547 30.7248 65.3399 30.6657 65.3399 30.5919C65.3399 30.4885 65.3843 30.3556 65.3991 30.2818C65.5174 29.8388 65.6654 29.189 65.8578 28.7756C65.9022 28.6574 65.9909 28.3473 66.1093 28.3473H66.1241Z" fill="white" class="CGSLykaL_18"/>
<path d="M75.3356 27.5499C75.7499 27.4908 75.9718 27.609 76.3122 27.3579C76.5193 27.2103 76.6821 26.9002 76.6821 26.6048C76.6821 26.5457 76.6821 26.4867 76.6673 26.4276C76.6081 26.1766 76.2974 25.9551 76.0606 25.8812C75.9571 25.8517 75.8239 25.8369 75.6907 25.8369C75.6019 25.8369 75.4983 25.8369 75.4244 25.8517C75.232 25.8812 75.084 25.896 74.8917 25.896C74.6845 25.896 74.4773 25.8517 74.2702 25.8517C74.2406 25.8517 74.2258 25.8517 74.1962 25.8517C73.9742 25.8665 73.7227 25.896 73.5007 25.9108C73.2344 25.9108 72.968 25.8812 72.7017 25.8812C72.6129 25.8812 72.5241 25.896 72.4353 25.896C72.1542 25.9255 71.8582 25.9108 71.5771 25.9403C71.5031 25.9403 71.4291 25.9551 71.3551 25.9551C71.222 25.9551 71.0888 25.9551 70.9408 25.9551C70.6153 25.9551 70.2897 25.9846 70.0678 26.2209C70.0234 26.2652 70.0234 26.339 70.0086 26.3833C69.9198 26.4719 69.831 26.4867 69.8162 26.6344C69.8162 26.6491 69.8162 26.6639 69.8162 26.6787C69.8162 26.8263 69.9198 26.9592 69.9938 27.0774C70.127 27.3136 70.2897 27.6237 70.5561 27.7419C70.5857 27.7566 70.6153 27.7566 70.6449 27.7566C70.7041 27.7566 70.7781 27.7419 70.852 27.7419C70.9408 27.7419 71.0148 27.7419 71.1036 27.7419C71.3551 27.7419 71.6215 27.7271 71.873 27.6976C71.9618 27.6976 72.0654 27.6828 72.169 27.6828C72.3465 27.6828 72.5241 27.7123 72.5833 27.86C72.6129 27.9043 72.6129 27.9338 72.6129 27.9782C72.6129 28.0372 72.5981 28.0963 72.5981 28.1554C72.6129 28.2587 72.6129 28.3769 72.6129 28.4802C72.6129 28.6131 72.6129 28.746 72.6129 28.8642C72.6129 28.9971 72.6129 29.1152 72.6277 29.2333C72.6573 29.4253 72.6869 29.6025 72.7017 29.7797C72.7017 29.8388 72.7017 29.8979 72.7017 29.9569C72.7017 30.1932 72.6869 30.4295 72.6869 30.6657C72.7017 30.8134 72.7017 30.9611 72.7165 31.1088C72.7757 31.4484 72.8349 31.8323 72.8349 32.1868C72.8349 32.2311 72.8349 32.2754 72.8349 32.3197C72.8349 32.4378 72.8349 32.5559 72.8349 32.6593C72.8349 32.7184 72.8349 32.7627 72.8349 32.8217C72.8497 32.9989 72.8792 33.1614 72.894 33.3238C72.9236 33.5601 72.894 33.7816 72.9976 34.0031C73.1456 34.2984 73.4119 34.6676 73.7375 34.771C73.7819 34.7857 73.8263 34.7857 73.8707 34.7857C74.2406 34.7857 74.6253 34.3575 74.7141 34.0622C74.7437 33.9736 74.7437 33.885 74.7437 33.8111C74.7437 33.6044 74.6845 33.3976 74.6845 33.1761C74.6845 33.0875 74.6845 33.0137 74.6845 32.9251C74.6845 32.807 74.6845 32.6888 74.6845 32.5707C74.6845 32.2754 74.6845 31.98 74.6253 31.6994C74.6253 31.6551 74.6253 31.5961 74.6253 31.537C74.6253 31.3598 74.6253 31.1826 74.5957 31.0349C74.5365 30.5181 74.5661 30.0898 74.5069 29.5878C74.4477 29.1595 74.4181 28.7313 74.4034 28.303C74.3885 28.1849 74.359 28.052 74.359 27.9338C74.359 27.8895 74.3738 27.8452 74.3738 27.8157C74.4329 27.6237 74.5661 27.6385 74.7141 27.5942C74.7733 27.5794 74.8325 27.5499 74.8917 27.5499C74.9212 27.5499 74.9508 27.5499 74.9804 27.5647C75.0248 27.5647 75.3356 27.5499 75.3356 27.5499Z" fill="white" class="CGSLykaL_19"/>
<path d="M78.9923 25.8369C78.7408 25.8812 78.4448 26.088 78.43 26.3538C78.4004 26.5014 78.356 26.6491 78.356 26.7968C78.356 26.8263 78.3708 26.8706 78.3708 26.9002C78.4004 27.0183 78.4004 27.1512 78.4004 27.2841C78.4004 27.3727 78.4004 27.4465 78.4004 27.5351C78.4152 28.2735 78.5188 29.0118 78.5188 29.7502C78.5188 29.7945 78.5188 29.8388 78.5188 29.8831C78.5188 30.4147 78.4448 30.9316 78.4448 31.4632C78.4448 31.8176 78.5188 32.1572 78.5188 32.4969C78.5188 32.6298 78.504 32.7627 78.504 32.8956C78.504 32.9251 78.504 32.9694 78.504 32.9989C78.5336 33.4567 78.6372 33.9736 78.9183 34.3723C79.0515 34.5495 79.2735 34.7414 79.4954 34.7414C79.5102 34.7414 79.525 34.7414 79.5398 34.7414C79.6434 34.7267 79.8949 34.6824 79.9837 34.6233C80.4276 34.387 80.5164 33.9588 80.5164 33.5158C80.5164 33.25 80.4868 32.9842 80.472 32.7479C80.4424 32.5116 80.4424 32.2901 80.4424 32.0538C80.4128 31.8176 80.3684 31.5961 80.3684 31.3598C80.3684 31.3155 80.3684 31.2712 80.3684 31.2269C80.3684 31.1826 80.3684 31.1383 80.3684 31.094C80.3684 30.7248 80.3241 30.3556 80.3093 29.9865C80.2945 29.1447 80.1465 28.303 80.1465 27.4465C80.1465 27.4022 80.1465 27.3727 80.1465 27.3284C80.1465 27.1512 80.1021 26.974 80.1021 26.7968C80.0725 26.5753 80.1169 26.2652 79.9393 26.088C79.8062 25.9551 79.5546 25.9255 79.377 25.8812C79.2883 25.8517 79.1847 25.8222 79.0959 25.8222C79.0663 25.8222 79.0367 25.8222 78.9923 25.8369Z" fill="white" class="CGSLykaL_20"/>
<path d="M85.7536 25.6597C85.0581 25.7631 84.3922 25.9698 83.8299 26.4276C83.3268 26.8411 82.9717 27.3432 82.7645 27.9338C82.6462 28.244 82.5278 28.5688 82.4834 28.8937C82.439 29.1152 82.4242 29.3219 82.4242 29.5435C82.4242 29.7354 82.439 29.9126 82.4538 30.1046C82.4686 30.459 82.439 30.7987 82.513 31.1383C82.5426 31.2564 82.587 31.5075 82.6166 31.6256C82.7202 32.1129 82.7793 32.5855 83.0309 33.0137C83.386 33.7078 83.8743 34.2837 84.5846 34.6971C84.9989 34.9187 85.502 35.0368 85.9607 35.1254C86.2419 35.1697 86.523 35.2583 86.819 35.2583C86.8929 35.2583 86.9521 35.2583 87.0261 35.2435C87.2037 35.214 87.396 35.1845 87.5736 35.1402C87.7956 35.0959 88.0323 35.0516 88.2395 34.9925C88.4762 34.9187 88.787 34.771 88.9941 34.6381C89.3641 34.387 89.6452 34.0474 89.9264 33.7373C90.0447 33.5896 90.2075 33.4715 90.2963 33.3238C90.5922 32.8808 90.6958 32.3787 90.8142 31.8914C90.8882 31.6256 90.903 31.3155 90.9178 31.0349C90.9326 30.9759 90.9326 30.902 90.9326 30.843C90.9326 30.6805 90.903 30.5328 90.8882 30.3704C90.829 29.824 90.7254 29.3219 90.5774 28.7903C90.4886 28.5541 90.4443 28.2735 90.3111 28.0225C90.2223 27.8452 90.1631 27.7123 90.0595 27.5204C89.9264 27.3284 89.8228 27.0921 89.6896 26.9297C89.4232 26.6048 89.0089 26.2356 88.6538 26.0732C88.491 26.0141 88.3431 25.9403 88.1951 25.8665C88.0471 25.8222 87.9287 25.7483 87.7956 25.7188C87.396 25.6302 87.0705 25.6302 86.6562 25.6154C86.375 25.6154 86.0199 25.6154 85.7536 25.6597ZM86.4786 27.609C86.5822 27.5942 86.6858 27.5794 86.7894 27.5794C87.0261 27.5794 87.2629 27.6237 87.4848 27.6533C87.6328 27.6828 87.7808 27.6828 87.8844 27.7714C88.0619 27.8748 88.1951 28.0668 88.2987 28.244C88.3875 28.4212 88.4614 28.6427 88.5354 28.8199C88.639 29.0118 88.6686 29.2481 88.713 29.4696C88.8018 29.8093 88.861 30.1784 88.861 30.5476C88.861 31.4632 88.5502 32.3935 87.766 32.8808C87.4996 33.0432 87.0705 33.1171 86.7598 33.1614C86.6858 33.1761 86.6118 33.1761 86.5378 33.1761C85.724 33.1761 85.0729 32.5264 84.7917 31.788C84.7178 31.5961 84.7178 31.4041 84.6734 31.1974C84.6438 31.0497 84.5846 30.902 84.5698 30.7396C84.555 30.5624 84.5402 30.3704 84.5402 30.1784C84.5402 29.2629 84.8065 28.2587 85.6204 27.8009C85.8571 27.668 86.2271 27.6385 86.4786 27.609Z" fill="white" class="CGSLykaL_21"/>
<path d="M94.6755 29.4992C94.7051 29.4844 94.7199 29.4844 94.7495 29.4844C94.8679 29.4844 94.9419 29.6764 95.1195 29.9126C95.297 30.1489 95.5338 30.5181 95.7113 30.7839C95.8001 30.9759 95.8889 31.1826 95.9925 31.3598C96.1109 31.5961 96.2884 31.7733 96.4068 31.9948C96.5992 32.2458 96.688 32.5264 96.8507 32.7774C97.1171 33.1761 97.3834 33.7816 97.6646 34.1803C98.0049 34.5642 98.0937 35.1697 98.7448 35.1697C98.7596 35.1697 98.7596 35.1697 98.7743 35.1697C99.3366 35.1697 99.751 34.5642 99.7658 33.9736C99.7658 33.8111 99.7953 33.6487 99.7953 33.4863C99.7953 33.4124 99.7805 33.3386 99.7658 33.25C99.751 33.1023 99.751 32.9546 99.751 32.7922C99.751 32.6298 99.751 32.4821 99.751 32.3197C99.751 32.0391 99.751 31.7142 99.751 31.4189C99.751 31.2712 99.751 31.1235 99.751 30.9906C99.751 30.9168 99.751 30.8577 99.751 30.7987C99.751 30.5181 99.7066 30.3113 99.7066 30.0308C99.7066 29.9569 99.7214 29.8831 99.7214 29.7945C99.7214 29.5435 99.7953 29.3072 99.7953 29.0561C99.7953 28.7017 99.7214 28.3326 99.7214 27.9929C99.7214 27.6533 99.751 27.225 99.7658 26.8706C99.7658 26.8116 99.7658 26.7525 99.7658 26.6934C99.7658 26.4719 99.7362 26.2652 99.5586 26.1027C99.4254 25.9551 98.9371 25.8517 98.7596 25.8222C98.73 25.8222 98.7004 25.8222 98.6708 25.8222C98.3304 25.8222 98.0641 26.147 98.0049 26.4867C98.0049 26.5605 98.0049 26.6344 98.0049 26.7082C98.0049 26.8559 98.0049 26.9888 98.0049 27.1364C98.0049 27.609 98.0197 28.0077 98.0197 28.3916C98.0197 28.7756 98.0049 29.1595 97.9457 29.6025C97.9161 29.7502 97.9161 29.8979 97.9161 30.0455C97.9161 30.1784 97.9161 30.3113 97.9161 30.4442C97.9161 30.5033 97.9161 30.5771 97.9161 30.6362C97.9161 30.6953 97.9161 30.9168 97.8125 30.9168H97.7977C97.6646 30.902 97.5166 30.6362 97.4574 30.5181C97.2502 30.1489 97.0579 29.7945 96.8655 29.4549C96.3328 28.5688 95.7705 27.8157 95.2082 27.0035C94.9863 26.6639 94.8235 26.1766 94.5572 25.9403C94.2316 25.645 93.9505 25.3939 93.5658 25.3939C93.4918 25.3939 93.4178 25.4087 93.3438 25.4235C93.0479 25.4825 92.8999 25.8074 92.8999 26.1027C92.8999 26.1175 92.8999 26.1175 92.8999 26.1323C92.8999 26.2209 92.8555 26.3095 92.8555 26.4128C92.8555 26.4276 92.8555 26.4424 92.8555 26.4571C92.8555 26.5014 92.8555 26.5605 92.8555 26.6048C92.8555 26.9888 92.7667 27.3284 92.7667 27.6976C92.7667 28.2735 92.8555 28.8051 92.8555 29.3515C92.8555 29.3958 92.8555 29.4253 92.8555 29.4696C92.8555 30.016 92.7667 30.5919 92.7667 31.1383C92.7667 31.6108 92.7223 32.1129 92.7223 32.6002C92.7223 32.807 92.7371 33.0137 92.7519 33.2057C92.7667 33.3386 92.7815 33.4862 92.7815 33.6339C92.7815 33.7078 92.7815 33.7964 92.7815 33.8702C92.7815 34.2541 92.8111 34.6233 93.1958 34.83C93.329 34.9039 93.5806 34.963 93.7137 34.9925C93.7877 35.022 93.8469 35.022 93.9061 35.022C94.3204 35.022 94.5276 34.5347 94.5572 34.0769C94.5572 33.7964 94.5128 33.4567 94.5128 33.1761C94.5128 33.1318 94.5128 33.1023 94.5128 33.058C94.5128 32.5855 94.5868 32.0834 94.5868 31.6108C94.5868 31.4041 94.5868 31.2121 94.5868 31.0054C94.5868 30.7987 94.5868 30.5771 94.5868 30.3556C94.5868 29.9274 94.6016 29.5435 94.6755 29.4992Z" fill="white" class="CGSLykaL_22"/>
<path d="M7.30978 43.4186C6.50186 43.4953 5.4631 43.6489 4.73212 43.9561C4.00115 44.3016 3.27017 44.7624 2.69308 45.2999C2.26988 45.7222 1.84668 46.2597 1.84668 46.874C1.84668 47.0276 1.88516 47.1428 1.92363 47.2964C2.11599 47.8723 2.65461 48.141 3.23169 48.141C3.53947 48.141 3.80878 48.0643 4.03962 47.9107C4.69365 47.4883 5.19379 47.1428 5.92477 46.8356C6.3095 46.6821 6.7327 46.5669 7.11742 46.5669C8.77174 46.5669 10.2337 47.9491 10.4645 49.6768C10.4645 49.7536 10.4645 49.8688 10.4645 49.9456C10.4645 50.3679 10.3491 50.7519 10.2337 51.1742C9.88745 52.4028 9.34883 53.0555 8.65633 54.1306C8.34854 54.5913 8.07924 55.0136 7.69451 55.4744C7.23284 56.0119 6.7327 56.6262 6.27103 57.2021C5.0399 58.7763 3.61642 60.5424 2.30835 62.0398L1.69279 62.8077C1.1157 63.4604 0 64.689 0 65.7256C0 66.1096 0.15389 66.4935 0.538616 66.8007C1.00029 67.1846 1.69279 67.223 2.34683 67.223C2.53919 67.223 2.73155 67.223 2.92391 67.223C3.57795 67.223 4.27045 67.223 4.96296 67.223C5.30921 67.223 5.61699 67.223 5.96325 67.223C6.57881 67.223 7.30979 67.1078 7.96382 67.1078C8.07924 67.1078 8.23313 67.1078 8.34854 67.1078C9.65661 67.2614 11.234 67.1846 12.5421 67.2614C12.6959 67.2614 12.9268 67.2998 13.1576 67.2998C13.6193 67.2998 14.1579 67.2614 14.5042 67.1462C15.1582 66.9542 15.5814 66.3783 15.5814 65.8024C15.5814 65.3033 15.2736 64.8426 14.6196 64.5738C13.9655 64.3434 13.1576 64.3818 12.5036 64.305C12.0804 64.2666 11.6187 64.2282 11.157 64.2282C10.0798 64.2282 8.88716 64.3434 7.80993 64.3434C7.50215 64.3434 7.1559 64.3434 6.84811 64.305C6.61728 64.305 6.42492 64.305 6.27103 64.305C5.92477 64.305 5.61699 64.305 5.19379 64.1899C5.00143 64.1515 4.69365 64.1515 4.65518 63.8827C4.65518 63.8443 4.65518 63.8059 4.65518 63.7675C4.65518 63.3836 5.15532 62.8844 5.34769 62.6541C5.73241 62.1166 6.34797 61.3487 6.77117 60.8496C7.19437 60.3888 7.65604 60.0433 8.00229 59.5441C9.19494 57.8932 10.2722 56.7414 11.3494 55.0136C11.965 53.977 12.7344 52.9019 13.0422 51.7117C13.273 50.8286 13.5423 49.8688 13.5423 48.9089C13.5423 48.333 13.4654 47.7955 13.1961 47.258C12.7729 46.3749 12.3112 45.5302 11.6187 44.8391C11.3494 44.5704 10.7338 44.2248 10.4261 43.9945C9.92592 43.6489 9.31036 43.5337 8.73327 43.4569C8.50243 43.4186 8.19465 43.3802 7.92535 43.3802C7.73298 43.3802 7.50215 43.4186 7.30978 43.4186Z" fill="white" class="CGSLykaL_23"/>
<path d="M24.8761 43.8409C24.376 43.9561 23.9143 43.8409 23.4142 44.0329C22.5678 44.2632 21.5675 44.9159 20.798 45.4534C20.3748 45.799 19.9901 46.2597 19.6438 46.6821C17.7972 48.9473 17.4509 51.5965 17.4509 54.3609C17.4509 54.9752 17.4509 55.6279 17.4894 56.2422C17.5663 57.7012 17.6433 59.2754 18.0665 60.696C18.3358 61.6942 18.682 62.5389 19.1437 63.4604C19.8362 65.0729 20.6441 66.5319 22.3754 67.2614C22.9525 67.5302 23.5296 67.6837 24.0682 67.7221C24.3375 67.7605 24.6068 67.7989 24.8376 67.7989C24.9531 67.7989 25.03 67.7989 25.1454 67.7605C26.2611 67.5685 27.4922 67.1846 28.4156 66.6087C29.0311 66.2248 29.4543 65.764 29.9545 65.2649C30.3007 64.9577 30.647 64.5354 30.9163 64.1515C31.8012 62.9612 32.2628 61.4639 32.5706 60.0817C32.9553 58.3923 33.1862 56.7414 33.1862 55.052C33.1862 54.8217 33.1862 54.6297 33.1862 54.3993C33.1477 53.2475 33.1477 52.2108 32.9169 51.0974C32.5322 49.0625 32.2628 46.9508 30.3392 45.7222C29.8006 45.3767 29.3774 44.8775 28.8388 44.6088C27.8385 44.1096 26.9536 43.7257 25.8764 43.7257C25.5686 43.7257 25.2224 43.7641 24.8761 43.8409ZM24.6453 46.5285C24.7992 46.4901 24.9915 46.4901 25.1454 46.4901C26.0688 46.4901 26.9921 46.9892 27.7616 47.4883C28.5695 47.9875 28.8773 48.7554 29.2235 49.6768C29.6852 50.867 29.916 51.7885 29.9545 53.0555C29.993 53.8618 30.0314 54.6297 30.0314 55.436C30.0314 57.3173 29.8391 59.1986 29.2235 61.0031C28.6464 62.5005 27.5692 64.2666 25.9533 64.6506C25.5686 64.7274 25.1069 64.8426 24.6837 64.8426C24.4914 64.8426 24.3375 64.8042 24.1451 64.7658C22.2215 64.1899 21.529 61.5023 21.1058 59.6593C20.7595 58.2771 20.6057 57.0101 20.5287 55.5895C20.4902 55.3976 20.4902 55.2056 20.4902 55.0136C20.4902 54.8217 20.4902 54.5913 20.4902 54.3993C20.4902 53.6314 20.5672 52.9019 20.6441 52.1341C20.7211 50.3295 21.1827 48.3714 22.7217 47.2964C23.2218 46.9124 23.9912 46.7205 24.6453 46.5285Z" fill="white" class="CGSLykaL_24"/>
<path d="M40.5041 48.525C40.6964 48.525 40.9658 49.4081 41.2351 50.1759C41.3505 50.5599 41.5813 50.9054 41.6967 51.3278C42.043 52.4796 42.2738 53.6314 42.6201 54.7833C42.9663 55.8967 43.428 56.9717 43.8127 58.0852C43.9666 58.5459 44.0436 59.045 44.1974 59.5058C44.4668 60.3504 44.8515 61.1951 45.0823 62.0398C45.3132 62.9612 45.544 63.8443 45.7748 64.7274C45.8902 65.0729 45.8133 65.4185 46.0057 65.764C46.198 66.1864 47.0444 66.6855 47.583 66.6855C47.6215 66.6855 47.66 66.6855 47.6985 66.6855C48.2755 66.6087 49.1604 66.0328 49.4682 65.4953C49.6606 65.1113 49.776 64.7658 49.9683 64.3818C50.3915 63.3836 50.8917 62.4621 51.2379 61.4255C51.5072 60.5808 52.0074 59.8129 52.4306 59.0066C53.1616 57.586 53.8541 56.1271 54.662 54.7833C55.0467 54.1689 55.2006 53.4779 55.5853 52.8635C56.2009 51.7885 56.5856 50.1759 57.0858 50.1759C57.2781 50.1759 57.3551 51.1358 57.3935 51.8269C57.5474 53.3627 57.7013 54.8984 57.7783 56.4342C57.8552 57.4325 57.9706 58.2387 57.9706 59.1602C57.9706 59.429 57.9322 59.6977 57.9322 60.0049C57.9322 60.3888 57.9706 60.7344 57.9706 61.1183C57.9706 61.2335 57.9706 61.3103 57.9706 61.4255C57.9706 61.5023 57.9706 61.579 57.9706 61.6558C57.9706 62.3085 58.086 62.9228 58.086 63.5755C58.086 64.0363 58.086 64.4586 58.086 64.881C58.086 65.4185 58.086 65.956 58.2015 66.5319C58.2784 67.031 58.7401 67.5685 59.3556 67.5685C59.9712 67.5685 60.3944 67.031 60.6637 66.5319C60.9715 65.9176 61.0484 65.2265 61.0484 64.497C61.0484 63.9211 61.01 63.3452 61.01 62.8077C61.01 61.1567 60.7022 59.5058 60.7022 57.8164C60.7022 57.3941 60.7022 56.9717 60.7022 56.5494C60.7022 55.052 60.6637 53.5546 60.4713 52.0957C60.4329 51.6349 60.4329 51.1742 60.3944 50.6751C60.3944 50.1759 60.3175 49.6768 60.2405 49.1393C60.0481 48.1027 59.9712 46.9508 59.7019 45.9526C59.5865 45.4918 59.3556 45.0311 58.894 44.8775C58.7016 44.8007 58.4708 44.8007 58.2784 44.7624C58.086 44.724 57.8552 44.6856 57.6244 44.6856C57.432 44.6856 57.2781 44.724 57.1242 44.7624C56.3163 45.0311 55.7392 46.0678 55.2775 46.7205C54.7774 47.4499 54.585 48.2178 54.2388 49.0241C53.8925 49.792 53.5463 50.5599 53.1616 51.3278C52.7384 52.1341 52.5075 52.8251 52.0459 53.6314C51.2764 54.86 50.5839 56.1655 49.9299 57.4325C49.5067 58.2771 49.2758 59.0834 48.8911 59.9281C48.8142 60.1968 48.6987 60.8112 48.391 60.9647C48.3525 60.9647 48.3525 60.9647 48.314 60.9647C47.9293 60.9647 47.6985 60.1585 47.6215 59.9281C47.1983 58.6611 46.8521 57.3557 46.3519 56.0887C46.0441 55.3208 45.8133 54.4761 45.5825 53.6698C45.2362 52.4796 44.8515 51.4046 44.5052 50.2143C44.1974 49.2929 43.8127 48.3714 43.4665 47.4116C43.3511 47.0276 43.1587 46.6437 43.0817 46.2597C42.9663 45.6454 42.5047 44.6856 42.0045 44.1864C41.5428 43.7257 40.8503 43.7257 40.2732 43.6873C40.0809 43.6873 40.0039 43.6489 39.927 43.6489C39.8116 43.6489 39.6962 43.6873 39.4653 43.7257C38.4266 43.8793 38.1957 44.9159 38.0418 45.8374C38.0034 46.1829 37.9649 46.5285 37.9264 46.874C37.811 47.8723 37.811 48.9089 37.811 49.9072C37.7725 50.4831 37.6956 51.0206 37.6571 51.5965C37.6571 51.8269 37.6186 52.0957 37.6186 52.326C37.6186 52.9019 37.6571 53.5162 37.6571 54.1306C37.6571 54.4377 37.6571 54.7065 37.6186 55.0136C37.6186 55.5895 37.4648 56.1271 37.4263 56.703C37.2339 58.3923 37.1954 60.0817 37.157 61.8094C37.1185 62.4237 37.0416 63.0764 37.0031 63.7291C37.0031 64.0747 37.0031 64.4586 37.0031 64.8426C37.0031 65.1113 36.9646 65.3417 36.9646 65.572C36.9646 65.8024 37.0031 66.0328 37.08 66.2631C37.2724 66.8775 37.6571 67.1078 38.0803 67.1078C38.5805 67.1078 39.0806 66.7623 39.3499 66.148C39.5038 65.7256 39.5423 65.3417 39.5423 64.9577C39.5423 64.7274 39.5038 64.4586 39.5038 64.2282C39.5038 63.0764 39.7346 62.0398 39.7731 60.8879C39.85 59.1986 40.0424 57.4709 40.1963 55.7815C40.2348 55.3208 40.2348 54.8217 40.2348 54.3225C40.2348 53.5546 40.2348 52.8251 40.2732 52.0573C40.2732 51.8269 40.2732 51.5965 40.2732 51.3278C40.2732 51.0974 40.2732 50.8286 40.3117 50.5599C40.3117 50.4063 40.3117 50.2143 40.3117 50.0608C40.3117 49.8688 40.3117 49.6768 40.3117 49.4848C40.3117 48.9473 40.3117 48.525 40.5041 48.525Z" fill="white" class="CGSLykaL_25"/>
<path d="M261.762 121.152C261.599 121.182 261.407 121.152 261.229 121.211C261.037 121.256 260.83 121.359 260.608 121.403C260.46 121.462 260.297 121.462 260.134 121.566C259.764 121.817 259.394 122.053 259.143 122.422C258.995 122.658 258.95 122.865 258.891 123.116C258.832 123.338 258.803 123.589 258.803 123.825C258.803 123.958 258.817 124.076 258.832 124.209C258.906 124.563 259.069 124.992 259.32 125.228C259.424 125.331 259.513 125.464 259.616 125.538C260.149 125.966 260.504 126.011 261.096 126.291C261.377 126.439 261.658 126.572 261.954 126.705C262.221 126.838 262.487 127.015 262.487 127.34C262.487 127.354 262.487 127.354 262.487 127.369C262.443 127.96 262.265 128.285 261.806 128.521C261.599 128.624 261.407 128.698 261.14 128.698C260.652 128.669 260.119 128.506 259.705 128.285C259.602 128.24 259.498 128.211 259.409 128.211C258.965 128.211 258.581 128.698 258.581 129.156C258.581 129.289 258.61 129.422 258.684 129.54C258.817 129.747 259.217 129.835 259.424 129.998C259.542 130.071 259.676 130.131 259.809 130.19C260.149 130.337 260.519 130.382 260.904 130.382C261.214 130.382 261.54 130.352 261.851 130.308C262.073 130.278 262.265 130.19 262.472 130.116C263.449 129.717 264.07 128.846 264.248 127.797C264.277 127.635 264.322 127.502 264.322 127.34C264.322 127.325 264.322 127.295 264.322 127.281C264.292 126.897 264.233 126.542 264.041 126.217C263.893 125.966 263.73 125.656 263.478 125.479C263.375 125.42 263.242 125.376 263.153 125.302C263.005 125.228 262.901 125.11 262.753 125.021C262.28 124.755 261.806 124.519 261.288 124.357C260.993 124.239 260.682 124.002 260.623 123.618C260.623 123.589 260.623 123.559 260.623 123.53C260.623 123.205 260.919 122.954 261.185 122.836C261.407 122.718 261.629 122.673 261.851 122.673C262.176 122.673 262.517 122.777 262.857 122.88C263.035 122.939 263.168 123.057 263.33 123.116C263.404 123.146 263.478 123.146 263.552 123.146C263.715 123.146 263.878 123.101 263.996 122.983C264.189 122.806 264.277 122.629 264.277 122.437C264.277 122.171 264.115 121.92 263.848 121.728C263.715 121.625 263.582 121.492 263.434 121.418C263.168 121.3 262.857 121.3 262.576 121.241C262.339 121.211 262.147 121.137 261.925 121.137C261.866 121.137 261.821 121.137 261.762 121.152Z" fill="white" class="CGSLykaL_26"/>
<path d="M269.568 121.27C269.272 121.315 268.813 121.285 268.577 121.462C268.414 121.595 268.384 121.802 268.325 121.994C268.266 122.26 268.148 122.526 268.029 122.777C267.866 123.116 267.792 123.456 267.674 123.81C267.526 124.179 267.304 124.534 267.201 124.903C267.112 125.169 267.127 125.464 267.038 125.745C266.964 125.981 266.831 126.232 266.757 126.483C266.638 126.793 266.638 127.133 266.505 127.413C266.342 127.738 266.268 128.034 266.15 128.359C266.061 128.669 265.913 128.949 265.824 129.245C265.795 129.377 265.721 129.54 265.721 129.702C265.721 129.806 265.75 129.924 265.854 129.998C265.928 130.086 266.076 130.086 266.165 130.145C266.283 130.19 266.372 130.263 266.49 130.308C266.55 130.323 266.609 130.337 266.653 130.337C266.905 130.337 267.127 130.131 267.275 129.939C267.585 129.51 267.63 128.905 267.807 128.403C267.852 128.255 267.881 128.093 268 127.975C268.192 127.738 268.503 127.679 268.828 127.679C269.021 127.679 269.198 127.694 269.361 127.709C269.405 127.709 269.435 127.709 269.479 127.709C269.613 127.709 269.775 127.694 269.938 127.694C270.204 127.694 270.471 127.738 270.634 127.915C270.767 128.078 270.811 128.314 270.87 128.506C270.944 128.742 271.033 128.964 271.092 129.2C271.225 129.54 271.314 129.939 271.655 130.16C271.773 130.234 271.936 130.249 272.069 130.263C272.143 130.278 272.202 130.278 272.276 130.278C272.335 130.278 272.38 130.278 272.439 130.263C272.912 130.16 273.075 129.761 273.075 129.348C273.075 129.023 272.986 128.698 272.883 128.462C272.631 127.856 272.439 127.251 272.232 126.631C272.113 126.306 271.921 125.981 271.803 125.641C271.566 124.814 271.329 123.958 271.077 123.116C271.033 122.998 271.033 122.85 270.989 122.732C270.915 122.555 270.826 122.407 270.752 122.245C270.663 122.038 270.634 121.831 270.515 121.64C270.323 121.359 270.086 121.256 269.79 121.256C269.716 121.256 269.642 121.256 269.568 121.27ZM269.361 123.766C269.479 123.795 269.583 124.076 269.613 124.194C269.775 124.578 269.879 125.346 269.968 125.76C269.982 125.833 270.012 125.951 270.012 126.055C270.012 126.114 270.012 126.173 269.982 126.203C269.953 126.247 269.923 126.262 269.864 126.262C269.79 126.262 269.701 126.232 269.627 126.232C269.598 126.232 269.568 126.232 269.539 126.232C269.405 126.232 269.257 126.247 269.124 126.247C268.961 126.247 268.813 126.232 268.666 126.173C268.592 126.143 268.577 126.084 268.577 126.011C268.577 125.907 268.621 125.774 268.636 125.7C268.754 125.257 268.902 124.608 269.095 124.194C269.139 124.076 269.228 123.766 269.346 123.766H269.361Z" fill="white" class="CGSLykaL_27"/>
<path d="M278.972 121.344C278.247 121.344 277.537 121.374 276.826 121.403C276.545 121.403 276.249 121.359 275.939 121.359C275.879 121.359 275.82 121.359 275.761 121.359C275.702 121.359 275.628 121.359 275.569 121.359C275.406 121.359 275.243 121.359 275.08 121.359C275.006 121.359 274.918 121.359 274.844 121.359C274.814 121.359 274.784 121.359 274.755 121.359C274.562 121.359 274.37 121.329 274.163 121.329C274.059 121.329 273.956 121.344 273.867 121.359C273.675 121.388 273.334 121.654 273.26 121.831C273.231 121.905 273.201 122.009 273.201 122.112C273.201 122.319 273.26 122.54 273.364 122.658C273.66 123.028 274.045 123.101 274.459 123.101C274.651 123.101 274.844 123.087 275.036 123.072C275.051 123.072 275.066 123.072 275.08 123.072C275.243 123.072 275.465 123.146 275.628 123.146C275.643 123.146 275.657 123.146 275.672 123.146C275.717 123.131 275.761 123.116 275.805 123.116C275.85 123.116 275.894 123.131 275.939 123.19C275.998 123.279 276.013 123.412 276.013 123.53C276.013 123.574 276.013 123.618 276.013 123.663C275.998 123.855 275.983 123.958 275.983 124.106C275.983 124.165 275.983 124.209 275.983 124.283C276.013 124.696 275.998 125.095 276.013 125.508C276.013 125.745 276.027 125.892 276.027 126.129C276.013 126.335 276.013 126.616 275.998 126.852C275.998 127.148 275.983 127.369 275.983 127.679C275.968 127.96 275.983 128.314 275.953 128.58C275.939 128.669 275.939 128.787 275.939 128.905C275.939 129.466 276.116 130.219 276.738 130.219C276.752 130.219 276.752 130.219 276.767 130.219C276.871 130.204 277.063 130.145 277.152 130.101C277.359 129.998 277.581 129.85 277.67 129.614C277.729 129.481 277.744 129.318 277.744 129.156C277.744 129.023 277.729 128.861 277.729 128.728C277.729 128.654 277.729 128.595 277.744 128.536C277.759 128.447 277.773 128.359 277.773 128.27C277.773 128.122 277.744 127.975 277.729 127.812C277.729 127.738 277.729 127.65 277.729 127.576C277.729 127.413 277.729 127.266 277.729 127.103C277.729 127.044 277.729 126.985 277.729 126.926C277.729 126.793 277.729 126.646 277.729 126.498C277.729 126.424 277.729 126.35 277.729 126.276C277.729 126.232 277.744 126.173 277.744 126.129C277.744 125.937 277.699 125.76 277.699 125.553C277.699 125.523 277.685 125.479 277.685 125.449C277.685 125.331 277.714 125.228 277.714 125.11C277.714 125.095 277.714 125.065 277.714 125.051C277.67 124.696 277.699 124.49 277.67 124.12C277.67 124.047 277.67 123.973 277.67 123.884C277.67 123.707 277.685 123.515 277.773 123.367C277.862 123.22 278.025 123.19 278.202 123.19C278.321 123.19 278.454 123.205 278.558 123.205C279.12 123.205 279.756 123.175 279.949 122.496C279.963 122.393 279.993 122.289 279.993 122.171C279.993 122.053 279.963 121.935 279.904 121.846C279.697 121.595 279.283 121.344 279.002 121.344C278.987 121.344 278.987 121.344 278.972 121.344Z" fill="white" class="CGSLykaL_28"/>
<path d="M285.303 121.137C285.081 121.108 284.829 121.078 284.563 121.078C284.178 121.078 283.778 121.123 283.438 121.241C283.201 121.315 283.024 121.418 282.787 121.566C282.683 121.654 282.491 121.758 282.402 121.846C282.254 121.994 282.062 122.156 281.944 122.304C281.751 122.511 281.648 122.688 281.455 122.909C281.352 123.072 281.189 123.249 281.115 123.412C281.041 123.559 281.026 123.692 280.952 123.825C280.819 124.135 280.671 124.43 280.597 124.755C280.523 125.006 280.523 125.272 280.523 125.523C280.523 125.612 280.523 125.686 280.523 125.774C280.523 126.394 280.553 127 280.789 127.591C281.367 129.053 282.787 130.219 284.415 130.441C284.578 130.47 284.77 130.485 284.962 130.485C285.007 130.485 285.051 130.485 285.095 130.485C285.569 130.47 286.013 130.382 286.472 130.219C286.649 130.145 286.827 130.042 287.004 129.953C287.226 129.85 287.419 129.761 287.581 129.614C287.848 129.377 288.084 129.259 288.292 128.964C288.395 128.787 288.528 128.624 288.617 128.447C288.765 128.167 288.883 127.842 288.957 127.517C289.12 126.867 289.268 126.247 289.268 125.582C289.268 125.405 289.239 125.08 289.224 124.888C289.179 124.563 289.031 124.209 288.928 123.869C288.78 123.397 288.558 122.924 288.247 122.511C287.966 122.186 287.729 121.95 287.374 121.743C287.063 121.551 286.841 121.359 286.472 121.27C286.087 121.182 285.702 121.182 285.303 121.137ZM284.962 123.101C285.273 123.146 285.628 123.131 285.894 123.279C286.605 123.604 286.886 124.194 287.019 124.918C287.063 125.184 287.108 125.449 287.108 125.715C287.108 125.937 287.078 126.158 287.019 126.365C286.915 126.778 286.723 127.133 286.501 127.517C286.309 127.797 286.161 128.048 285.85 128.211C285.643 128.344 285.317 128.388 285.036 128.388C284.933 128.388 284.844 128.388 284.755 128.373C284.43 128.299 284.222 128.27 283.956 128.122C283.764 128.034 283.527 127.871 283.364 127.724C282.994 127.443 282.728 127.015 282.639 126.601C282.61 126.468 282.55 126.321 282.536 126.173C282.55 125.287 282.787 124.534 283.379 123.855C283.527 123.663 283.69 123.397 283.912 123.264C284.03 123.205 284.148 123.101 284.296 123.101C284.43 123.101 284.592 123.087 284.74 123.087C284.814 123.087 284.888 123.087 284.962 123.101Z" fill="white" class="CGSLykaL_29"/>
<path d="M293.677 121.093C293.411 121.152 293.13 121.123 292.878 121.196C292.612 121.285 292.36 121.433 292.094 121.551C291.502 121.772 291.028 122.422 290.821 123.028C290.777 123.205 290.688 123.397 290.688 123.589C290.688 123.692 290.688 123.766 290.688 123.855C290.688 123.958 290.688 124.061 290.732 124.165C290.88 124.549 290.925 124.933 291.221 125.228C291.324 125.302 291.443 125.42 291.561 125.494C291.724 125.612 291.872 125.76 292.049 125.819C292.375 125.966 292.552 126.143 292.878 126.262C293.056 126.335 293.278 126.439 293.44 126.542C293.559 126.601 293.647 126.675 293.751 126.734C294.091 126.897 294.668 127.103 294.668 127.591C294.668 127.62 294.654 127.664 294.654 127.694C294.624 127.989 294.55 128.255 294.299 128.388C294.121 128.491 294.151 128.58 293.943 128.624C293.766 128.669 293.618 128.654 293.455 128.683C293.292 128.698 293.144 128.713 292.982 128.713C292.552 128.713 292.109 128.654 291.679 128.595C291.576 128.58 291.502 128.565 291.413 128.565C291.25 128.565 291.088 128.61 290.88 128.683C290.777 128.728 290.762 129.038 290.703 129.171C290.688 129.2 290.673 129.245 290.673 129.289C290.673 129.496 290.836 129.791 290.969 129.924C291.236 130.175 291.65 130.249 291.872 130.278C292.227 130.352 292.523 130.382 292.834 130.382C293.159 130.382 293.47 130.352 293.855 130.293C294.373 130.234 294.95 130.086 295.438 129.865C296.045 129.599 296.267 128.949 296.474 128.314C296.533 128.122 296.622 127.945 296.622 127.738C296.622 127.709 296.622 127.679 296.622 127.65C296.622 127.089 296.355 126.454 296.03 126.025C295.882 125.819 295.615 125.7 295.423 125.553C294.89 125.169 294.447 124.785 293.81 124.667C293.485 124.622 293.248 124.504 292.967 124.371C292.848 124.298 292.715 124.253 292.626 124.15C292.523 124.047 292.419 123.884 292.419 123.722C292.419 123.707 292.419 123.707 292.419 123.692C292.419 123.456 292.686 123.234 292.834 123.116C293.159 122.821 293.721 122.688 294.18 122.688C294.254 122.688 294.328 122.703 294.387 122.703C294.55 122.732 294.728 122.762 294.876 122.821C295.038 122.865 295.216 122.939 295.379 122.939C295.394 122.939 295.423 122.939 295.438 122.939C295.823 122.88 296.059 122.452 296.059 122.068C296.059 122.023 296.059 121.964 296.045 121.92C295.985 121.625 295.645 121.477 295.408 121.403C294.92 121.256 294.476 121.064 294.003 121.064C293.899 121.064 293.781 121.078 293.677 121.093Z" fill="white" class="CGSLykaL_30"/>
<path d="M304.055 130.544C304.085 130.559 304.114 130.559 304.159 130.559C304.484 130.559 304.913 130.249 305.047 129.968C305.106 129.85 305.18 129.628 305.195 129.51C305.224 129.333 305.269 129.171 305.298 129.008C305.357 128.624 305.372 128.181 305.372 127.753C305.372 127.487 305.372 127.221 305.372 126.985C305.387 126.513 305.52 126.025 305.52 125.553C305.52 125.405 305.55 125.198 305.55 125.051C305.55 124.371 305.698 123.751 305.712 123.087C305.727 122.895 305.742 122.644 305.742 122.393C305.742 121.817 305.638 121.211 305.032 121.078C304.973 121.064 304.928 121.064 304.869 121.064C304.396 121.064 303.966 121.492 303.878 121.95C303.848 122.112 303.833 122.274 303.833 122.437C303.833 122.747 303.818 123.072 303.789 123.382C303.774 123.618 303.7 124.061 303.67 124.298C303.67 124.342 303.656 124.386 303.656 124.43C303.656 124.519 303.656 124.622 303.656 124.711C303.656 124.918 303.626 125.125 303.404 125.184C303.315 125.213 303.241 125.213 303.153 125.213C302.99 125.213 302.827 125.184 302.635 125.184C302.531 125.184 302.442 125.184 302.339 125.184C302.235 125.184 302.132 125.184 302.043 125.198C301.998 125.198 301.939 125.198 301.895 125.198C301.791 125.198 301.688 125.198 301.584 125.198C301.495 125.198 301.436 125.198 301.362 125.198C301.288 125.198 301.214 125.198 301.14 125.184C300.903 125.154 300.489 125.154 300.356 124.933C300.297 124.829 300.267 124.726 300.267 124.622C300.267 124.49 300.297 124.342 300.312 124.224C300.326 124.002 300.356 123.633 300.356 123.426C300.356 123.293 300.312 123.161 300.312 123.028C300.312 122.865 300.385 122.703 300.385 122.54C300.385 122.319 300.356 122.068 300.312 121.846C300.223 121.462 299.956 121.211 299.601 121.211C299.512 121.211 299.424 121.226 299.335 121.256C299.128 121.329 298.832 121.462 298.713 121.654C298.595 121.846 298.58 122.068 298.565 122.289C298.551 122.599 298.536 122.895 298.536 123.205C298.536 123.323 298.551 123.456 298.551 123.589C298.551 123.648 298.551 123.722 298.536 123.781C298.521 123.943 298.447 124.106 298.432 124.268C298.432 124.342 298.432 124.401 298.432 124.46C298.432 124.755 298.477 124.977 298.477 125.302C298.477 125.479 298.432 125.627 298.403 125.804C298.403 125.819 298.403 125.833 298.403 125.848C298.403 125.981 298.447 126.099 298.447 126.247C298.447 126.719 298.477 127.192 298.477 127.679C298.477 127.93 298.432 128.196 298.432 128.462C298.432 128.565 298.462 128.669 298.462 128.772C298.462 128.787 298.462 128.802 298.462 128.816C298.462 128.831 298.462 128.861 298.462 128.89C298.462 129.038 298.477 129.259 298.477 129.407C298.477 129.436 298.477 129.481 298.477 129.496C298.477 129.51 298.477 129.54 298.477 129.555C298.477 129.732 298.58 129.953 298.699 130.042C298.832 130.16 298.995 130.204 299.172 130.204C299.409 130.204 299.646 130.116 299.823 129.998C299.942 129.909 300.075 129.835 300.149 129.688C300.193 129.614 300.193 129.496 300.193 129.348C300.193 129.097 300.164 128.802 300.164 128.669C300.164 128.299 300.208 128.078 300.208 127.724C300.208 127.62 300.193 127.458 300.193 127.31C300.193 127.162 300.208 127.029 300.282 126.941C300.356 126.852 300.459 126.823 300.593 126.823C300.77 126.823 300.963 126.882 301.096 126.897C301.362 126.926 301.643 126.941 301.924 126.941C302.206 126.941 302.472 126.926 302.753 126.926C302.886 126.926 303.005 126.911 303.123 126.911C303.212 126.911 303.301 126.911 303.389 126.956C303.552 127.029 303.611 127.251 303.611 127.487C303.611 127.709 303.567 127.93 303.552 128.063C303.522 128.373 303.522 128.506 303.478 128.816C303.448 129.038 303.36 129.392 303.36 129.717C303.36 130.027 303.434 130.308 303.715 130.441C303.818 130.485 303.952 130.514 304.055 130.544Z" fill="white" class="CGSLykaL_31"/>
<path d="M309.556 121.078C309.497 121.064 309.438 121.049 309.379 121.049C309.275 121.049 309.172 121.078 309.068 121.093C308.772 121.123 308.447 121.329 308.299 121.654C308.239 121.787 308.269 121.95 308.239 122.097C308.195 122.481 308.18 122.85 308.136 123.234C308.077 123.781 308.077 124.445 308.047 125.006C308.032 125.331 308.032 125.7 308.032 126.025C308.032 126.291 308.047 126.527 308.047 126.778C308.047 126.838 308.047 126.897 308.047 126.97C308.032 127.281 307.988 127.945 307.973 128.255C307.958 128.329 307.958 128.403 307.958 128.477C307.958 128.55 307.958 128.624 307.958 128.698C307.943 128.89 307.929 129.112 307.929 129.333C307.929 129.747 308.017 130.145 308.506 130.293C308.595 130.323 308.669 130.323 308.743 130.323C309.364 130.323 309.838 129.584 309.852 129.038C309.852 128.802 309.823 128.388 309.823 128.048C309.823 127.915 309.823 127.797 309.838 127.709C309.867 127.428 309.882 127.133 309.882 126.838C309.882 126.734 309.882 126.646 309.882 126.542C309.882 126.306 309.882 126.07 309.882 125.833C309.882 125.715 309.882 125.597 309.882 125.479C309.882 125.228 309.897 124.962 309.897 124.696C309.897 124.504 309.882 124.268 309.882 124.032C309.882 123.795 309.897 123.574 309.926 123.367C309.941 123.338 309.941 123.308 309.941 123.264C309.941 123.19 309.926 123.101 309.926 123.028C309.941 122.821 309.926 122.614 309.956 122.393C309.971 122.26 310 122.068 310 121.891C310 121.551 309.911 121.196 309.556 121.078Z" fill="white" class="CGSLykaL_32"/>
<path d="M265.192 137.883C264.053 138.001 262.795 138.548 262.248 139.641C261.76 140.438 261.745 140.837 261.597 141.516C261.523 141.693 261.464 142.136 261.464 142.387C261.464 142.594 261.493 142.786 261.508 142.993C261.508 143.14 261.478 143.288 261.478 143.436C261.478 143.672 261.597 143.938 261.641 144.174C261.686 144.322 261.671 144.469 261.715 144.617C262.203 146.108 263.58 147.541 265.192 147.541C266.82 147.541 268.507 147.127 269.454 144.765C269.617 144.366 269.646 143.539 269.646 143.332C269.646 143.14 269.632 142.934 269.632 142.742C269.632 142.55 269.646 142.062 269.646 141.885C269.646 140.984 269.158 139.951 268.788 139.434C267.9 138.164 266.051 137.868 265.622 137.868C265.607 137.868 265.607 137.868 265.592 137.868C265.459 137.868 265.311 137.868 265.192 137.883ZM265.414 139.803C265.474 139.788 265.503 139.788 265.577 139.788C266.021 139.788 266.672 140.069 266.805 140.261C266.968 140.423 267.057 140.689 267.19 140.881C267.545 141.383 267.723 142.328 267.723 142.948C267.723 143.997 267.264 144.839 266.376 145.37C266.021 145.562 265.77 145.651 265.355 145.651C263.816 145.651 263.594 143.746 263.594 142.786C263.594 141.9 263.92 140.467 264.734 139.995C264.911 139.906 265.207 139.862 265.414 139.803Z" fill="white" class="CGSLykaL_33"/>
<path d="M271.691 137.868C271.484 137.898 271.203 138.001 271.055 138.149C270.921 138.311 270.877 138.444 270.877 138.592C270.877 138.784 270.951 138.961 271.025 139.183C271.099 139.389 271.143 139.611 271.203 139.818C271.306 140.216 271.424 140.645 271.572 141.043C271.676 141.309 271.75 141.708 271.824 141.959C271.957 142.387 272.061 142.712 272.15 143.155C272.298 143.849 272.519 144.528 272.653 145.222C272.682 145.37 272.771 145.68 272.801 145.828C272.86 146.094 272.978 146.345 273.037 146.596C273.141 147.009 273.245 147.201 273.614 147.423C273.733 147.497 273.866 147.541 273.999 147.541C274.354 147.541 274.695 147.29 274.798 146.921C274.946 146.478 275.079 146.064 275.183 145.68C275.257 145.37 275.272 145.045 275.346 144.765C275.449 144.351 275.627 143.967 275.745 143.569C275.923 142.948 276.189 142.372 276.322 141.767C276.337 141.678 276.382 141.486 276.5 141.486C276.633 141.486 276.677 141.767 276.707 141.856C276.84 142.284 276.988 142.683 277.107 143.096C277.24 143.598 277.432 144.071 277.595 144.543C277.684 144.779 277.713 145.001 277.787 145.222C277.832 145.341 277.906 145.459 277.935 145.577C278.054 145.99 278.039 146.404 278.32 146.758C278.616 147.113 279.075 147.526 279.548 147.526C279.607 147.526 279.666 147.526 279.726 147.511C280.436 147.349 280.614 146.315 280.658 145.725C280.687 145.326 280.791 144.942 280.85 144.543C280.924 143.967 281.028 143.524 281.146 142.934C281.191 142.683 281.309 142.431 281.383 142.166C281.561 141.516 281.62 140.719 281.753 140.054C281.797 139.818 281.871 139.478 281.871 139.153C281.871 138.695 281.738 138.238 281.294 138.075C281.205 138.046 281.102 138.016 280.998 138.016C280.717 138.016 280.406 138.164 280.273 138.43C280.051 138.873 280.051 139.419 279.918 139.862C279.74 140.482 279.726 141.28 279.519 141.915C279.415 142.21 279.356 142.535 279.282 142.845C279.267 142.904 279.252 143.096 279.163 143.096C279.06 143.096 279.015 142.86 279.001 142.786C278.912 142.446 278.867 142.107 278.734 141.767C278.586 141.398 278.483 141.132 278.35 140.763C278.216 140.394 278.187 140.187 278.039 139.832C277.95 139.626 277.935 139.508 277.802 139.316C277.595 138.991 277.166 138.932 276.84 138.799C276.751 138.769 276.648 138.754 276.529 138.754C276.189 138.754 275.775 138.873 275.582 139.065C275.361 139.301 275.272 139.714 275.198 139.995C275.079 140.467 275.065 140.453 274.917 140.925C274.769 141.383 274.621 141.9 274.414 142.299C274.325 142.476 274.206 142.712 274.177 142.919C274.162 142.993 274.177 143.126 274.088 143.155H274.073C273.984 143.155 273.91 142.934 273.896 142.86C273.792 142.491 273.718 142.107 273.629 141.737C273.57 141.472 273.526 140.97 273.437 140.733C273.333 140.467 273.245 140.187 273.156 139.921C272.934 139.212 272.993 137.957 272.076 137.854C272.031 137.854 271.987 137.839 271.928 137.839C271.854 137.839 271.765 137.854 271.691 137.868Z" fill="white" class="CGSLykaL_34"/>
<path d="M289.583 137.898C289.036 138.046 289.139 138.489 289.095 138.887C289.08 138.961 289.08 139.05 289.08 139.124C289.08 139.286 289.095 139.449 289.11 139.626C289.125 140.113 289.154 140.719 289.199 141.206C289.213 141.309 289.213 141.398 289.213 141.486C289.213 141.693 289.184 141.885 289.184 142.107C289.184 142.18 289.184 142.254 289.199 142.328C289.228 142.668 289.243 142.993 289.243 143.318C289.243 143.347 289.243 143.421 289.243 143.48C289.243 143.554 289.243 143.628 289.199 143.657C289.184 143.672 289.184 143.672 289.169 143.672C289.065 143.672 288.903 143.421 288.843 143.362C288.533 142.978 288.459 142.786 288.207 142.343C288 141.988 287.852 141.752 287.615 141.413C287.408 141.132 287.216 140.866 287.038 140.571C286.964 140.438 286.89 140.275 286.816 140.128C286.639 139.803 286.446 139.493 286.239 139.198C286.135 139.02 285.884 138.799 285.706 138.681C285.544 138.577 285.292 138.563 285.114 138.503C284.937 138.444 284.745 138.371 284.552 138.371C284.523 138.371 284.508 138.371 284.478 138.371C284.404 138.385 284.345 138.4 284.286 138.43C284.005 138.577 283.946 138.799 283.946 139.05C283.946 139.257 283.99 139.478 284.005 139.685C284.005 139.729 284.005 139.759 284.005 139.803C284.005 139.965 283.99 140.128 283.99 140.275C284.005 140.748 284.064 141.206 284.064 141.664C284.064 141.708 284.064 141.752 284.064 141.797C284.049 142.195 284.02 142.579 284.02 142.963C284.02 143.052 284.02 143.155 284.02 143.244C284.02 143.465 284.02 143.657 284.034 143.864C284.034 143.893 284.034 143.938 284.034 143.982C284.034 144.469 283.96 145.267 283.946 145.695C283.946 145.739 283.946 145.784 283.946 145.828C283.946 146.035 283.96 146.3 283.975 146.478C283.975 146.95 284.167 147.305 284.626 147.393C284.671 147.408 284.715 147.408 284.759 147.408C285.188 147.408 285.425 146.965 285.514 146.581C285.573 146.271 285.588 145.784 285.588 145.355C285.588 145.104 285.588 144.883 285.588 144.706C285.588 144.44 285.603 144.189 285.603 143.923C285.603 143.731 285.632 143.539 285.632 143.362C285.632 143.273 285.618 143.17 285.603 143.081C285.588 143.007 285.588 142.934 285.588 142.845C285.588 142.609 285.632 142.358 285.662 142.151C285.677 142.077 285.692 141.9 285.78 141.87H285.795C285.914 141.87 286.032 142.121 286.091 142.195C286.343 142.535 286.55 142.874 286.772 143.229C287.097 143.761 287.364 144.233 287.689 144.75C288.089 145.37 288.444 146.02 288.917 146.581C289.169 146.862 289.539 147.319 289.968 147.319C290.027 147.319 290.101 147.305 290.16 147.29C290.53 147.157 290.53 147.039 290.693 146.729C290.885 146.36 291.122 146.064 291.137 145.636C291.137 145.592 291.137 145.533 291.137 145.488C291.137 145.193 291.107 144.912 291.078 144.602C291.063 144.322 291.048 144.041 291.033 143.775C291.004 143.332 290.974 142.889 290.945 142.446C290.945 142.328 290.93 142.21 290.93 142.092C290.915 141.486 290.871 140.586 290.826 139.98C290.811 139.818 290.811 139.567 290.811 139.404C290.811 139.301 290.811 139.168 290.811 139.05C290.811 138.651 290.767 138.238 290.397 138.046C290.279 137.987 290.027 137.928 289.924 137.898C289.85 137.883 289.776 137.883 289.716 137.883C289.672 137.883 289.628 137.883 289.583 137.898Z" fill="white" class="CGSLykaL_35"/>
<path d="M296.686 138.238C296.331 138.282 295.68 138.282 295.31 138.311C295.073 138.341 294.792 138.341 294.556 138.341C294.26 138.356 293.919 138.371 293.712 138.607C293.535 138.828 293.475 139.168 293.475 139.478C293.475 139.567 293.49 139.67 293.49 139.744C293.49 139.803 293.505 139.862 293.505 139.921C293.505 140.172 293.461 140.423 293.461 140.674C293.461 140.999 293.475 141.294 293.475 141.605C293.475 141.678 293.475 141.752 293.475 141.841C293.461 142.077 293.461 142.313 293.461 142.55C293.461 142.742 293.461 142.934 293.461 143.126C293.461 143.406 293.461 143.687 293.431 143.967C293.431 144.056 293.416 144.144 293.416 144.233C293.416 144.514 293.446 144.809 293.461 145.09C293.461 145.311 293.401 145.665 293.401 145.917C293.401 145.946 293.401 145.961 293.401 145.99C293.431 146.419 293.52 146.935 293.949 147.201C294.097 147.29 294.274 147.364 294.452 147.364C294.511 147.364 294.57 147.349 294.63 147.334C294.763 147.275 294.881 147.172 295.014 147.127C295.118 147.098 295.251 147.098 295.399 147.098C295.621 147.098 295.843 147.113 296.006 147.113C296.228 147.113 296.612 147.068 296.834 147.068C296.997 147.068 297.189 147.098 297.367 147.098C297.471 147.098 297.574 147.083 297.663 147.054C298.033 146.921 298.403 146.404 298.403 145.976C298.403 145.769 298.314 145.592 298.077 145.488C297.914 145.414 297.752 145.385 297.604 145.385C297.471 145.385 297.352 145.4 297.219 145.4C297.189 145.4 297.16 145.4 297.13 145.4C297.071 145.4 297.012 145.4 296.953 145.4C296.79 145.4 296.627 145.4 296.464 145.4C296.39 145.4 296.316 145.4 296.242 145.4C296.154 145.4 296.065 145.414 295.961 145.414C295.769 145.414 295.547 145.385 295.443 145.237C295.355 145.134 295.34 145.001 295.34 144.853C295.34 144.72 295.355 144.587 295.369 144.469C295.384 144.292 295.384 143.997 295.443 143.834C295.517 143.657 295.577 143.642 295.665 143.642C295.695 143.642 295.725 143.642 295.769 143.642C295.813 143.642 295.858 143.642 295.917 143.628C296.08 143.583 296.168 143.569 296.302 143.569C296.361 143.569 296.435 143.583 296.524 143.583C296.864 143.569 297.041 143.583 297.367 143.45C297.589 143.362 297.767 143.214 297.781 142.963C297.796 142.801 297.811 142.683 297.811 142.564C297.811 142.166 297.678 142.003 297.145 141.885C297.086 141.87 297.041 141.87 296.982 141.87C296.864 141.87 296.746 141.885 296.612 141.9C296.464 141.9 296.346 141.915 296.198 141.929C296.08 141.944 295.917 142.003 295.784 142.003C295.68 142.003 295.591 141.974 295.547 141.841C295.458 141.664 295.503 141.324 295.473 141.132C295.458 140.97 295.458 140.837 295.458 140.674C295.458 140.645 295.458 140.63 295.458 140.6C295.458 140.527 295.458 140.453 295.458 140.379C295.458 140.261 295.458 140.143 295.517 140.039C295.621 139.847 296.124 139.832 296.45 139.832C296.524 139.832 296.598 139.832 296.642 139.832C296.79 139.832 297.071 139.803 297.219 139.803C297.337 139.803 297.411 139.803 297.485 139.803C297.707 139.803 297.781 139.773 298.092 139.478C298.225 139.345 298.299 139.168 298.299 138.976C298.299 138.769 298.21 138.577 298.062 138.459C297.811 138.267 297.441 138.208 297.101 138.208C296.953 138.208 296.819 138.223 296.686 138.238Z" fill="white" class="CGSLykaL_36"/>
<path d="M300.858 138.149C300.592 138.252 300.518 138.503 300.518 138.769C300.518 138.828 300.533 138.902 300.533 138.961C300.533 139.006 300.533 139.05 300.533 139.079C300.533 139.168 300.533 139.227 300.533 139.316C300.533 139.36 300.533 139.404 300.533 139.463C300.533 139.508 300.533 139.537 300.533 139.581C300.533 139.98 300.474 140.379 300.444 140.778C300.444 140.925 300.474 141.088 300.474 141.235C300.474 141.265 300.474 141.28 300.474 141.309C300.459 141.575 300.444 141.826 300.444 142.077C300.444 142.431 300.459 142.771 300.488 143.126C300.503 143.318 300.533 143.465 300.533 143.642C300.533 143.746 300.548 143.893 300.548 144.026C300.548 144.1 300.548 144.159 300.533 144.218C300.488 144.44 300.459 144.735 300.459 145.001C300.459 145.134 300.474 145.267 300.488 145.385C300.533 145.621 300.548 146.197 300.622 146.419C300.725 146.714 300.873 146.773 301.11 147.009C301.347 147.231 301.613 147.275 301.894 147.275C302.116 147.275 302.353 147.246 302.575 147.231C303.27 147.172 303.921 147.157 304.587 146.95C305.164 146.758 305.727 146.463 306.2 146.108C306.348 145.99 306.496 145.917 306.629 145.769C306.836 145.518 307.132 145.237 307.295 144.942C307.369 144.794 307.473 144.676 307.532 144.514C307.635 144.189 307.65 143.834 307.68 143.495C307.695 143.258 307.724 143.007 307.724 142.756C307.724 142.505 307.695 142.254 307.65 142.018C307.561 141.605 307.399 141.25 307.221 140.866C307.044 140.467 306.94 140.113 306.614 139.788C306.289 139.419 305.801 139.006 305.357 138.843C304.794 138.622 304.114 138.459 303.507 138.326C303.344 138.282 303.181 138.297 303.019 138.267C302.841 138.238 302.664 138.179 302.471 138.179C302.427 138.179 302.382 138.179 302.338 138.179C302.205 138.179 302.072 138.179 301.924 138.149C301.731 138.12 301.524 138.075 301.317 138.075C301.169 138.075 301.006 138.105 300.858 138.149ZM302.9 140.157C302.945 140.157 303.004 140.143 303.048 140.143C303.255 140.143 303.403 140.202 303.611 140.261C303.773 140.275 303.921 140.29 304.084 140.335C304.365 140.408 304.75 140.645 305.002 140.837C305.593 141.309 305.83 142.018 305.83 142.756C305.83 142.845 305.815 142.934 305.815 143.022C305.786 143.332 305.741 143.701 305.608 143.997C305.268 144.632 304.794 144.839 304.173 145.104C303.847 145.222 303.581 145.37 303.255 145.37C303.196 145.385 303.122 145.385 303.048 145.385C302.974 145.385 302.9 145.385 302.826 145.37C302.752 145.37 302.678 145.4 302.604 145.4C302.53 145.4 302.471 145.37 302.427 145.296C302.382 145.237 302.382 145.149 302.382 145.075C302.382 145.016 302.382 144.957 302.382 144.898C302.382 144.676 302.368 144.455 302.368 144.248C302.368 144.144 302.368 144.041 302.382 143.923C302.382 143.849 302.397 143.761 302.397 143.687C302.397 143.45 302.368 143.214 302.353 142.963C302.353 142.771 302.368 142.564 302.368 142.372C302.353 142.107 302.353 141.826 302.353 141.56C302.353 141.457 302.353 141.339 302.353 141.235C302.353 140.999 302.353 140.778 302.382 140.541C302.397 140.423 302.397 140.275 302.501 140.231C302.604 140.157 302.767 140.172 302.9 140.157Z" fill="white" class="CGSLykaL_37"/>
<path d="M244.87 156.162C244.255 156.277 243.755 156.623 243.178 156.853C242.216 157.275 241.331 157.698 240.715 158.619C240.061 159.579 239.831 160.731 239.831 161.844C239.831 162.228 239.869 162.574 239.908 162.958C240.023 164.378 240.061 166.068 240.754 167.335C241.177 168.179 241.639 169.062 242.447 169.677C243.716 170.598 245.217 170.867 246.679 170.867C246.871 170.867 247.063 170.867 247.256 170.867C247.871 170.828 248.333 170.675 248.91 170.675C248.987 170.675 249.102 170.675 249.218 170.675C249.372 170.675 249.603 170.675 249.756 170.79C249.833 170.867 249.872 170.982 249.872 171.097C249.872 171.289 249.795 171.481 249.756 171.635C249.564 172.441 249.41 172.979 248.987 173.67C248.141 175.205 247.102 176.741 245.525 177.509C244.87 177.893 243.755 178.392 243.024 178.584C242.447 178.699 241.716 178.699 241.216 179.006C240.715 179.314 240.446 179.928 240.446 180.504C240.446 181.233 240.831 181.924 241.639 181.924C241.677 181.924 241.677 181.924 241.716 181.924C242.331 181.924 243.062 181.732 243.678 181.464C243.986 181.31 244.409 181.157 244.717 181.041C245.486 180.811 246.14 180.389 246.833 179.966C247.487 179.582 248.256 179.045 248.833 178.507C249.102 178.277 249.295 178.047 249.487 177.816C249.949 177.317 250.372 176.741 250.757 176.204C250.988 175.781 251.218 175.436 251.488 175.013C251.988 174.207 252.373 172.902 252.68 171.942C252.95 171.059 253.142 170.176 253.373 169.293C253.565 168.678 253.642 168.141 253.719 167.527C253.835 166.452 253.835 165.453 253.873 164.417C253.873 164.186 253.873 163.917 253.873 163.687C253.873 161.959 253.604 160.232 252.603 158.773C251.218 156.738 248.833 156.085 246.563 156.085C246.255 156.085 245.986 156.085 245.717 156.085C245.448 156.085 245.14 156.085 244.87 156.162ZM246.179 158.926C246.294 158.888 246.409 158.888 246.525 158.888C246.948 158.888 247.333 159.041 247.717 159.118C248.295 159.233 248.525 159.656 249.064 159.886C250.411 160.692 250.988 162.19 250.988 163.726C250.988 164.609 250.988 165.991 250.911 166.797C250.872 167.219 250.718 167.642 250.257 167.68C249.718 167.795 249.333 167.834 248.756 167.949C248.602 167.987 248.41 167.987 248.218 167.987C248.025 167.987 247.833 167.987 247.679 167.987C247.487 168.026 247.294 168.026 247.102 168.026C246.102 168.026 244.947 167.719 244.178 167.104C243.87 166.835 243.562 166.49 243.37 166.106C242.831 165.261 242.678 164.263 242.678 163.226C242.678 162.727 242.716 162.19 242.754 161.729C242.793 161.23 243.139 160.462 243.447 160.116C243.678 159.848 243.793 159.656 244.101 159.579C244.755 159.272 245.448 159.041 246.179 158.926Z" fill="white" class="CGSLykaL_38"/>
<path d="M264.474 156.123C263.743 156.277 263.051 156.507 262.32 156.661C261.627 156.776 261.012 156.891 260.396 157.275C259.973 157.506 259.703 157.928 259.357 158.312C258.395 159.387 257.857 160.769 257.857 162.151C257.857 162.919 258.011 163.764 258.395 164.493C258.857 165.453 259.665 166.298 260.434 167.027C260.704 167.219 261.435 167.45 261.435 167.834C261.435 168.256 260.434 168.717 260.165 169.024C259.203 169.984 258.357 171.251 257.857 172.556C257.472 173.516 257.203 174.668 257.203 175.781C257.203 176.78 257.434 177.739 258.011 178.546C258.434 179.16 259.203 179.467 259.896 179.813C260.281 180.005 260.627 180.235 261.05 180.389C261.781 180.619 262.589 180.542 263.358 180.581C263.897 180.619 264.397 180.657 264.936 180.657C265.474 180.657 265.974 180.619 266.552 180.504C269.629 179.774 270.707 176.703 270.707 173.862C270.707 173.478 270.707 173.132 270.668 172.787C270.591 172.095 270.553 171.404 270.245 170.752C269.86 169.907 269.399 169.254 268.706 168.602C268.36 168.256 267.667 167.795 267.629 167.296V167.258C267.629 166.912 268.129 166.643 268.36 166.375C268.975 165.76 269.514 164.916 269.822 164.109C270.13 163.265 270.322 162.382 270.322 161.537C270.322 159.617 269.475 157.851 267.706 156.776C267.244 156.469 266.782 156.354 266.282 156.239C265.859 156.123 265.474 156.047 265.09 156.047C264.897 156.047 264.666 156.085 264.474 156.123ZM263.589 159.003C263.897 158.965 264.243 158.926 264.551 158.926C264.82 158.926 265.09 158.965 265.32 159.003C266.667 159.233 267.475 160.654 267.475 161.998C267.475 162.19 267.475 162.382 267.436 162.574C267.167 164.109 265.513 165.837 263.974 166.068C263.935 166.068 263.897 166.068 263.858 166.068C263.474 166.068 263.166 165.76 262.858 165.492C262.512 165.223 262.166 164.954 261.781 164.647C261.012 163.917 260.511 162.919 260.511 161.959C260.511 161.076 260.935 160.193 261.819 159.579C262.281 159.195 263.012 159.118 263.589 159.003ZM263.858 169.753C263.935 169.753 263.974 169.715 264.051 169.715C264.243 169.715 264.397 169.792 264.589 169.792C264.628 169.792 264.666 169.792 264.705 169.792C264.859 169.792 265.013 169.753 265.167 169.753C265.243 169.753 265.32 169.753 265.397 169.792C265.744 169.907 265.974 170.176 266.244 170.406C266.821 170.905 267.475 171.366 267.744 172.134C267.821 172.479 267.86 172.825 267.86 173.209C267.86 173.746 267.821 174.284 267.783 174.783C267.744 175.82 267.475 177.087 266.359 177.471C265.936 177.624 265.551 177.663 265.128 177.663C264.551 177.663 263.974 177.586 263.358 177.547C262.781 177.471 262.281 177.509 261.704 177.317C261.242 177.202 260.665 176.895 260.396 176.511C260.165 176.204 260.127 175.82 260.127 175.436C260.127 175.167 260.165 174.898 260.165 174.629C260.281 173.094 261.358 171.558 262.55 170.598C262.935 170.329 263.358 169.907 263.858 169.753Z" fill="white" class="CGSLykaL_39"/>
<path d="M282.792 180.542C283.946 180.273 285.485 179.851 286.408 179.122C286.985 178.738 287.332 178.123 287.755 177.547C288.255 176.818 288.909 176.05 289.178 175.205C289.448 174.438 289.524 173.593 289.601 172.748C289.678 172.211 289.794 171.635 289.794 171.136C289.832 170.905 289.832 170.636 289.832 170.406C289.832 169.6 289.717 168.794 289.678 167.949C289.601 166.336 289.678 164.801 289.448 163.188C289.14 161.46 288.524 159.541 287.293 158.197C286.293 157.16 284.523 156.584 282.984 156.584C282.715 156.584 282.446 156.584 282.215 156.623C281.099 156.853 280.137 157.429 279.252 158.005C276.29 160.001 274.713 163.303 274.328 166.72C274.289 167.143 274.289 167.565 274.289 167.987C274.289 168.832 274.328 169.715 274.328 170.598C274.328 171.903 274.443 173.247 274.751 174.553C274.905 175.282 275.29 175.935 275.559 176.588C275.867 177.317 276.059 178.047 276.636 178.622C277.829 179.889 279.599 180.273 281.253 180.427C281.676 180.465 282.099 180.542 282.561 180.542C282.638 180.542 282.715 180.542 282.792 180.542ZM282.215 177.355C282.099 177.394 281.984 177.394 281.868 177.394C281.368 177.394 280.945 177.202 280.368 177.164C280.022 177.125 279.752 177.087 279.483 176.818C279.098 176.511 278.829 176.05 278.637 175.628C278.29 174.821 277.829 174.092 277.636 173.209C277.483 172.403 277.483 171.52 277.483 170.675C277.483 170.329 277.483 170.022 277.483 169.677C277.483 167.143 277.521 164.493 279.06 162.382C279.829 161.345 280.945 160.116 282.253 159.848C282.446 159.809 282.638 159.809 282.792 159.809C285.062 159.809 286.1 162.574 286.37 164.417C286.562 165.76 286.524 167.066 286.562 168.371C286.562 169.101 286.754 169.792 286.754 170.483C286.754 170.56 286.754 170.598 286.754 170.675C286.754 171.212 286.601 171.75 286.524 172.249C286.408 172.748 286.37 173.324 286.254 173.823C286.1 174.706 285.369 175.973 284.6 176.511C283.907 176.972 282.984 177.202 282.215 177.355Z" fill="white" class="CGSLykaL_40"/>
<path d="M308.115 155.74C306.961 156.239 306.537 157.544 305.768 158.389C304.652 159.656 303.19 161.691 301.998 162.881C301.19 163.687 300.651 164.378 299.882 165.261C299.574 165.607 299.382 166.029 299.074 166.413C298.689 166.874 298.15 167.373 298.15 168.026C298.15 168.102 298.15 168.218 298.189 168.294C298.381 169.101 299.112 169.523 299.612 170.099C299.882 170.406 300.113 170.828 300.382 171.174C300.651 171.52 300.997 171.788 301.305 172.134C302.498 173.439 303.19 174.591 304.345 175.973C304.922 176.664 305.614 177.202 306.153 177.893C306.73 178.622 307.345 179.544 308.153 180.005C308.384 180.12 308.692 180.235 308.961 180.235C309.115 180.235 309.269 180.197 309.423 180.12C309.846 179.889 309.962 179.467 310 179.045C310 178.93 310 178.853 310 178.738C310 177.855 309.577 177.125 309.038 176.511C307.038 174.284 305.191 172.556 303.575 170.061C303.075 169.331 302.229 168.602 301.998 167.795C301.998 167.719 301.998 167.68 301.998 167.642C301.998 167.335 302.152 167.104 302.305 166.912C302.806 166.336 303.075 165.837 303.652 165.338C304.845 164.263 306.345 162.267 307.345 161.038C307.846 160.462 308.153 159.771 308.653 159.157C308.884 158.849 309.269 158.619 309.538 158.274C309.769 157.966 309.962 157.467 309.962 157.045C309.962 156.968 309.962 156.853 309.923 156.776C309.808 156.162 309.077 155.663 308.461 155.663C308.346 155.663 308.23 155.701 308.115 155.74ZM296.111 156.623C295.188 156.853 294.842 157.467 294.611 158.197C294.419 159.041 294.38 159.886 294.38 160.731C294.38 160.961 294.38 161.23 294.38 161.46C294.38 162.382 294.38 163.265 294.38 164.186C294.457 164.801 294.534 165.453 294.534 166.068C294.534 166.375 294.573 166.72 294.573 167.027C294.573 168.064 294.496 169.101 294.419 170.176C294.419 170.636 294.534 171.059 294.534 171.52C294.534 173.055 294.496 174.629 294.38 176.165C294.38 176.664 294.38 177.125 294.38 177.624C294.38 177.855 294.38 178.085 294.38 178.354C294.38 178.469 294.38 178.584 294.38 178.699C294.38 178.968 294.38 179.275 294.496 179.506C294.688 180.12 295.419 180.619 296.188 180.619C296.265 180.619 296.342 180.619 296.419 180.619C297.189 180.465 297.573 179.736 297.689 179.122C297.804 178.738 297.843 178.315 297.843 177.931C297.843 176.972 297.612 176.05 297.612 175.052C297.573 174.246 297.573 173.439 297.573 172.633C297.573 170.176 297.65 167.719 297.65 165.261C297.65 164.109 297.496 162.958 297.496 161.767C297.496 161.46 297.496 161.191 297.535 160.884C297.535 160.5 297.496 160.155 297.496 159.771C297.496 159.541 297.496 159.272 297.573 159.041C297.65 158.657 297.727 158.312 297.727 157.966C297.727 157.813 297.727 157.659 297.689 157.506C297.535 156.93 297.035 156.584 296.458 156.584C296.342 156.584 296.227 156.584 296.111 156.623Z" fill="white" class="CGSLykaL_41"/>
<path d="M239.344 60.0964C247.606 64.5265 263.686 76.3402 261.91 88.1538C259.69 102.921 245.263 99.9674 245.263 89.6305C245.263 79.2936 269.308 78.9244 281.516 105.505" stroke="white" stroke-width="3" stroke-linecap="round" stroke-linejoin="round" class="CGSLykaL_42"/>
<path d="M239.714 67.8491L236.385 57.8814L246.743 58.9889" stroke="white" stroke-width="3" stroke-linecap="round" stroke-linejoin="round" class="CGSLykaL_43"/>
</g>
<defs>
<clipPath id="clip0_407_23967">
<path width="310" height="206" fill="white" transform="translate(0 0.289978)" d="M0 0 L310 0 L310 206 L0 206 Z" class="CGSLykaL_44"/>
</clipPath>
</defs>
<style data-made-with="vivus-instant">.CGSLykaL_0{stroke-dasharray:114 116;stroke-dashoffset:115;}.start .CGSLykaL_0{animation:CGSLykaL_draw 1000ms linear 0ms forwards;}.CGSLykaL_1{stroke-dasharray:491 493;stroke-dashoffset:492;}.start .CGSLykaL_1{animation:CGSLykaL_draw 1000ms linear 0ms forwards;}.CGSLykaL_2{stroke-dasharray:23 25;stroke-dashoffset:24;}.start .CGSLykaL_2{animation:CGSLykaL_draw 1000ms linear 0ms forwards;}.CGSLykaL_3{stroke-dasharray:23 25;stroke-dashoffset:24;}.start .CGSLykaL_3{animation:CGSLykaL_draw 1000ms linear 0ms forwards;}.CGSLykaL_4{stroke-dasharray:29 31;stroke-dashoffset:30;}.start .CGSLykaL_4{animation:CGSLykaL_draw 1000ms linear 0ms forwards;}.CGSLykaL_5{stroke-dasharray:32 34;stroke-dashoffset:33;}.start .CGSLykaL_5{animation:CGSLykaL_draw 1000ms linear 0ms forwards;}.CGSLykaL_6{stroke-dasharray:23 25;stroke-dashoffset:24;}.start .CGSLykaL_6{animation:CGSLykaL_draw 1000ms linear 0ms forwards;}.CGSLykaL_7{stroke-dasharray:23 25;stroke-dashoffset:24;}.start .CGSLykaL_7{animation:CGSLykaL_draw 1000ms linear 0ms forwards;}.CGSLykaL_8{stroke-dasharray:25 27;stroke-dashoffset:26;}.start .CGSLykaL_8{animation:CGSLykaL_draw 1000ms linear 0ms forwards;}.CGSLykaL_9{stroke-dasharray:178 180;stroke-dashoffset:179;}.start .CGSLykaL_9{animation:CGSLykaL_draw 1000ms linear 0ms forwards;}.CGSLykaL_10{stroke-dasharray:22 24;stroke-dashoffset:23;}.start .CGSLykaL_10{animation:CGSLykaL_draw 1000ms linear 0ms forwards;}.CGSLykaL_11{stroke-dasharray:48 50;stroke-dashoffset:49;}.start .CGSLykaL_11{animation:CGSLykaL_draw 1000ms linear 0ms forwards;}.CGSLykaL_12{stroke-dasharray:36 38;stroke-dashoffset:37;}.start .CGSLykaL_12{animation:CGSLykaL_draw 1000ms linear 0ms forwards;}.CGSLykaL_13{stroke-dasharray:20 22;stroke-dashoffset:21;}.start .CGSLykaL_13{animation:CGSLykaL_draw 1000ms linear 0ms forwards;}.CGSLykaL_14{stroke-dasharray:43 45;stroke-dashoffset:44;}.start .CGSLykaL_14{animation:CGSLykaL_draw 1000ms linear 0ms forwards;}.CGSLykaL_15{stroke-dasharray:36 38;stroke-dashoffset:37;}.start .CGSLykaL_15{animation:CGSLykaL_draw 1000ms linear 0ms forwards;}.CGSLykaL_16{stroke-dasharray:41 43;stroke-dashoffset:42;}.start .CGSLykaL_16{animation:CGSLykaL_draw 1000ms linear 0ms forwards;}.CGSLykaL_17{stroke-dasharray:26 28;stroke-dashoffset:27;}.start .CGSLykaL_17{animation:CGSLykaL_draw 1000ms linear 0ms forwards;}.CGSLykaL_18{stroke-dasharray:37 39;stroke-dashoffset:38;}.start .CGSLykaL_18{animation:CGSLykaL_draw 1000ms linear 0ms forwards;}.CGSLykaL_19{stroke-dasharray:29 31;stroke-dashoffset:30;}.start .CGSLykaL_19{animation:CGSLykaL_draw 1000ms linear 0ms forwards;}.CGSLykaL_20{stroke-dasharray:20 22;stroke-dashoffset:21;}.start .CGSLykaL_20{animation:CGSLykaL_draw 1000ms linear 0ms forwards;}.CGSLykaL_21{stroke-dasharray:46 48;stroke-dashoffset:47;}.start .CGSLykaL_21{animation:CGSLykaL_draw 1000ms linear 0ms forwards;}.CGSLykaL_22{stroke-dasharray:48 50;stroke-dashoffset:49;}.start .CGSLykaL_22{animation:CGSLykaL_draw 1000ms linear 0ms forwards;}.CGSLykaL_23{stroke-dasharray:94 96;stroke-dashoffset:95;}.start .CGSLykaL_23{animation:CGSLykaL_draw 1000ms linear 0ms forwards;}.CGSLykaL_24{stroke-dasharray:111 113;stroke-dashoffset:112;}.start .CGSLykaL_24{animation:CGSLykaL_draw 1000ms linear 0ms forwards;}.CGSLykaL_25{stroke-dasharray:167 169;stroke-dashoffset:168;}.start .CGSLykaL_25{animation:CGSLykaL_draw 1000ms linear 0ms forwards;}.CGSLykaL_26{stroke-dasharray:37 39;stroke-dashoffset:38;}.start .CGSLykaL_26{animation:CGSLykaL_draw 1000ms linear 0ms forwards;}.CGSLykaL_27{stroke-dasharray:37 39;stroke-dashoffset:38;}.start .CGSLykaL_27{animation:CGSLykaL_draw 1000ms linear 0ms forwards;}.CGSLykaL_28{stroke-dasharray:29 31;stroke-dashoffset:30;}.start .CGSLykaL_28{animation:CGSLykaL_draw 1000ms linear 0ms forwards;}.CGSLykaL_29{stroke-dasharray:45 47;stroke-dashoffset:46;}.start .CGSLykaL_29{animation:CGSLykaL_draw 1000ms linear 0ms forwards;}.CGSLykaL_30{stroke-dasharray:37 39;stroke-dashoffset:38;}.start .CGSLykaL_30{animation:CGSLykaL_draw 1000ms linear 0ms forwards;}.CGSLykaL_31{stroke-dasharray:44 46;stroke-dashoffset:45;}.start .CGSLykaL_31{animation:CGSLykaL_draw 1000ms linear 0ms forwards;}.CGSLykaL_32{stroke-dasharray:21 23;stroke-dashoffset:22;}.start .CGSLykaL_32{animation:CGSLykaL_draw 1000ms linear 0ms forwards;}.CGSLykaL_33{stroke-dasharray:45 47;stroke-dashoffset:46;}.start .CGSLykaL_33{animation:CGSLykaL_draw 1000ms linear 0ms forwards;}.CGSLykaL_34{stroke-dasharray:59 61;stroke-dashoffset:60;}.start .CGSLykaL_34{animation:CGSLykaL_draw 1000ms linear 0ms forwards;}.CGSLykaL_35{stroke-dasharray:47 49;stroke-dashoffset:48;}.start .CGSLykaL_35{animation:CGSLykaL_draw 1000ms linear 0ms forwards;}.CGSLykaL_36{stroke-dasharray:35 37;stroke-dashoffset:36;}.start .CGSLykaL_36{animation:CGSLykaL_draw 1000ms linear 0ms forwards;}.CGSLykaL_37{stroke-dasharray:43 45;stroke-dashoffset:44;}.start .CGSLykaL_37{animation:CGSLykaL_draw 1000ms linear 0ms forwards;}.CGSLykaL_38{stroke-dasharray:108 110;stroke-dashoffset:109;}.start .CGSLykaL_38{animation:CGSLykaL_draw 1000ms linear 0ms forwards;}.CGSLykaL_39{stroke-dasharray:118 120;stroke-dashoffset:119;}.start .CGSLykaL_39{animation:CGSLykaL_draw 1000ms linear 0ms forwards;}.CGSLykaL_40{stroke-dasharray:109 111;stroke-dashoffset:110;}.start .CGSLykaL_40{animation:CGSLykaL_draw 1000ms linear 0ms forwards;}.CGSLykaL_41{stroke-dasharray:117 119;stroke-dashoffset:118;}.start .CGSLykaL_41{animation:CGSLykaL_draw 1000ms linear 0ms forwards;}.CGSLykaL_42{stroke-dasharray:116 118;stroke-dashoffset:117;}.start .CGSLykaL_42{animation:CGSLykaL_draw 1000ms linear 0ms forwards;}.CGSLykaL_43{stroke-dasharray:21 23;stroke-dashoffset:22;}.start .CGSLykaL_43{animation:CGSLykaL_draw 1000ms linear 0ms forwards;}.CGSLykaL_44{stroke-dasharray:1032 1034;stroke-dashoffset:1033;}.start .CGSLykaL_44{animation:CGSLykaL_draw 1000ms linear 0ms forwards;}@keyframes CGSLykaL_draw{100%{stroke-dashoffset:0;}}@keyframes CGSLykaL_fade{0%{stroke-opacity:1;}92.3076923076923%{stroke-opacity:1;}100%{stroke-opacity:0;}}</style></svg>