<svg viewBox="0 0 74 93" fill="none" xmlns="http://www.w3.org/2000/svg">
<g clip-path="url(#clip0_350_24908)">
<path d="M65.2311 74.6033C63.469 74.5796 61.7396 75.0857 60.263 76.0574C58.7863 77.0291 57.6291 78.4223 56.9384 80.0601C56.2477 81.6979 56.0547 83.5061 56.3841 85.2549C56.7134 87.0037 57.5502 88.6141 58.7879 89.8813C60.0257 91.1485 61.6085 92.0153 63.3352 92.3714C65.0619 92.7275 66.8545 92.5569 68.4849 91.8812C70.1154 91.2056 71.5101 90.0554 72.4918 88.577C73.4734 87.0986 73.9976 85.3586 73.9978 83.5785C73.998 81.2187 73.0782 78.9538 71.4374 77.274C69.7967 75.5943 67.567 74.6348 65.2311 74.6033ZM65.2311 88.6943C64.5361 88.7321 63.8407 88.6264 63.1874 88.3838C62.5342 88.1411 61.9367 87.7665 61.4314 87.2829C60.9262 86.7993 60.5238 86.2167 60.2488 85.5708C59.9738 84.9249 59.832 84.2292 59.832 83.5261C59.832 82.823 59.9738 82.1273 60.2488 81.4814C60.5238 80.8355 60.9262 80.2529 61.4314 79.7693C61.9367 79.2857 62.5342 78.9111 63.1874 78.6685C63.8407 78.4258 64.5361 78.3201 65.2311 78.3579C66.5405 78.4291 67.773 79.0047 68.6749 79.9661C69.5768 80.9275 70.0795 82.2016 70.0795 83.5261C70.0795 84.8506 69.5768 86.1247 68.6749 87.0862C67.773 88.0476 66.5405 88.6231 65.2311 88.6943Z" fill="#060F2B"/>
<path d="M53.139 74.7279C53.0948 74.6857 53.0362 74.6621 52.9753 74.6621C52.9145 74.6621 52.8559 74.6857 52.8117 74.7279L46.7868 80.7388L40.8362 74.7279C40.792 74.6857 40.7335 74.6621 40.6726 74.6621C40.6117 74.6621 40.5532 74.6857 40.509 74.7279L38.0841 77.2675C38.0423 77.3122 38.0189 77.3713 38.0189 77.4328C38.0189 77.4943 38.0423 77.5535 38.0841 77.5981L44.0347 83.6089L37.9949 89.7099C37.953 89.7546 37.9297 89.8137 37.9297 89.8752C37.9297 89.9367 37.953 89.9959 37.9949 90.0405L40.3751 92.4298C40.4016 92.459 40.4337 92.4823 40.4696 92.4982C40.5054 92.5141 40.5442 92.5223 40.5833 92.5223C40.6225 92.5223 40.6612 92.5141 40.6971 92.4982C40.733 92.4823 40.7651 92.459 40.7916 92.4298L46.7421 86.419L52.6927 92.4298C52.7369 92.4721 52.7954 92.4957 52.8563 92.4957C52.9172 92.4957 52.9758 92.4721 53.02 92.4298L55.4448 89.9954C55.4867 89.9508 55.51 89.8916 55.51 89.8301C55.51 89.7687 55.4867 89.7095 55.4448 89.6648L49.4943 83.654L55.5341 77.6432C55.5759 77.5985 55.5992 77.5394 55.5992 77.4779C55.5992 77.4164 55.5759 77.3573 55.5341 77.3126L53.139 74.7279Z" fill="#060F2B"/>
<path d="M36.5838 82.6159C36.215 78.1583 32.5397 74.6414 28.0392 74.6035C26.7564 74.6035 25.501 74.8765 24.3389 75.4243C21.1514 76.9292 19.3696 80.1228 19.3696 83.6135C19.5446 88.349 23.5513 92.2384 28.2455 92.2384H33.171C33.4335 92.2384 33.6523 92.0237 33.6523 91.7522V88.9046C33.6523 88.6394 33.4398 88.4184 33.171 88.4184H28.033C25.8828 88.4184 24.0576 86.8021 23.4013 84.851H36.0025C36.3463 84.851 36.6213 84.5922 36.6213 84.2765C36.615 83.8783 36.5838 82.6159 36.5838 82.6159ZM32.5334 81.7004H23.42C24.164 79.5855 26.2334 78.2285 28.4393 78.4424C30.352 78.6255 31.8959 79.9514 32.5334 81.7004Z" fill="#060F2B"/>
<path d="M8.33631 74.6116C6.70587 74.6507 5.12283 75.1733 3.78415 76.1143V75.1225C3.78415 75.0428 3.7528 74.9663 3.69701 74.91C3.64121 74.8536 3.56553 74.822 3.48662 74.822H0.303087C0.224178 74.822 0.148501 74.8536 0.0927036 74.91C0.0369065 74.9663 0.00556002 75.0428 0.00556002 75.1225V83.1319C-0.00185334 83.2671 -0.00185334 83.4025 0.00556002 83.5376V91.7124C0.00550139 91.8413 0.0551761 91.9652 0.144048 92.0578C0.23292 92.1504 0.353998 92.2044 0.481603 92.2083H3.30811C3.37189 92.2083 3.43504 92.1954 3.49378 92.1703C3.55253 92.1452 3.60569 92.1084 3.65009 92.0622C3.6945 92.0159 3.72924 91.9611 3.75227 91.901C3.7753 91.8409 3.78614 91.7768 3.78415 91.7124V83.3423C3.78505 82.655 3.92823 81.9755 4.2045 81.3475C4.48076 80.7194 4.884 80.1567 5.38833 79.6953C5.89265 79.234 6.48691 78.8843 7.13294 78.6687C7.77897 78.4532 8.4625 78.3764 9.13963 78.4435C10.3717 78.5742 11.5115 79.1638 12.3366 80.0972C13.1617 81.0307 13.613 82.2412 13.6025 83.4926V91.7424C13.6005 91.8068 13.6114 91.871 13.6344 91.9311C13.6574 91.9912 13.6922 92.0459 13.7366 92.0922C13.781 92.1385 13.8341 92.1752 13.8929 92.2003C13.9516 92.2254 14.0148 92.2384 14.0786 92.2383H16.8902C17.0204 92.2383 17.1453 92.1861 17.2373 92.0931C17.3294 92.0001 17.3811 91.8739 17.3811 91.7424V83.3423C17.3782 82.162 17.1392 80.9946 16.6785 79.9099C16.2178 78.8253 15.5448 77.8459 14.7001 77.0304C13.8554 76.215 12.8562 75.5805 11.7627 75.1648C10.6691 74.7491 9.50366 74.561 8.33631 74.6116Z" fill="#060F2B"/>
<path d="M16.78 19.4639L17.9456 20.1485L19.069 20.8045L54.9063 41.8407V22.1879L51.5641 20.234L34.6846 10.3363L18.086 0.59552C17.9877 0.538473 17.8613 0.538473 17.763 0.59552L1.15039 10.3363L16.78 19.4639Z" fill="#060F2B"/>
<path d="M54.9066 1.16602L39.291 10.3364L54.9066 19.4924V1.16602Z" fill="#060F2B"/>
<path d="M57.2109 23.5285V43.1956L73.9921 53.0362V11.1921C73.9921 11.078 73.9359 10.9639 73.8236 10.9068L57.2109 1.16602V23.5285Z" fill="#060F2B"/>
<path d="M54.9076 44.5502L19.0703 23.5283V43.1954L55.8905 64.7877C55.9888 64.8448 56.1152 64.8448 56.2135 64.7877L72.8262 55.0469L72.447 54.833L54.9076 44.5502Z" fill="#060F2B"/>
<path d="M16.7812 22.1883L0 12.3477V54.1918C0 54.3059 0.0561712 54.42 0.168514 54.4771L16.7812 64.2179V22.1883Z" fill="#060F2B"/>
<path d="M34.6859 55.0467L19.0703 45.8906V64.2171L34.6859 55.0467Z" fill="#060F2B"/>
</g>
<defs>
<clipPath id="clip0_350_24908">
<rect width="74" height="92" fill="white" transform="translate(0 0.552734)"/>
</clipPath>
</defs>
</svg>