<svg width="19" height="19" viewBox="0 0 19 19" fill="none" xmlns="http://www.w3.org/2000/svg">
<path d="M9.9021 0.25C4.90991 0.25 0.9021 4.29297 0.9021 9.25C0.9021 14.2422 4.90991 18.25 9.9021 18.25C14.8591 18.25 18.9021 14.2422 18.9021 9.25C18.9021 4.29297 14.8591 0.25 9.9021 0.25ZM14.1208 11.2188C14.1208 11.8516 13.5935 12.3438 12.9958 12.3438C12.363 12.3438 11.8708 11.8516 11.8708 11.2188V8.89844L7.58179 13.1523C7.37085 13.3633 7.0896 13.4688 6.80835 13.4688C6.49194 13.4688 6.21069 13.3633 5.99976 13.1523C5.54272 12.7305 5.54272 11.9922 5.99976 11.5703L10.2537 7.28125H7.93335C7.30054 7.28125 6.80835 6.78906 6.80835 6.15625C6.80835 5.55859 7.30054 5.03125 7.93335 5.03125H12.9958C13.5935 5.03125 14.1208 5.55859 14.1208 6.15625V11.2188Z" fill="currentColor"/>
</svg>