<svg width="310" height="206" viewBox="0 0 310 206" fill="none" xmlns="http://www.w3.org/2000/svg" class="" style="">
<g clip-path="url(#clip0_429_24593)">
<path d="M54.4512 181.939C66.8502 191.622 89.4463 194.855 102.691 194.265C154.136 194.265 194.136 153.324 194.136 102.82C194.136 52.3168 153.194 11.3755 102.691 11.3755C52.1872 11.3755 13.7523 53.2011 11.2458 102.82C11.2458 129.027 21.6929 153.289 39.1005 170.242L47.3896 177.011" stroke="white" stroke-width="3" stroke-linecap="round" stroke-linejoin="round" class="ZmewLfXx_0"/>
<path d="M40.8914 96.5416C39.8012 94.9815 27.6775 76.7881 26.5497 75.2844" stroke="white" stroke-width="3" stroke-linecap="round" class="ZmewLfXx_1"/>
<path d="M42.7482 81.9521C42.0109 80.1975 33.9904 59.859 33.2046 58.1515" stroke="white" stroke-width="3" stroke-linecap="round" class="ZmewLfXx_2"/>
<path d="M44.3633 112.785C43.2731 111.224 23.3412 89.7146 22.2135 88.2109" stroke="white" stroke-width="3" stroke-linecap="round" class="ZmewLfXx_3"/>
<path d="M47.646 124.439C46.5558 122.879 23.3411 99.4163 22.2133 97.9126" stroke="white" stroke-width="3" stroke-linecap="round" class="ZmewLfXx_4"/>
<path d="M39.8528 127.017C38.7626 125.457 23.3412 109.118 22.2134 107.614" stroke="white" stroke-width="3" stroke-linecap="round" class="ZmewLfXx_5"/>
<path d="M42.7483 139.475C41.6581 137.915 26.2367 121.576 25.1089 120.072" stroke="white" stroke-width="3" stroke-linecap="round" class="ZmewLfXx_6"/>
<path d="M44.5908 154.719C43.5006 153.159 28.8689 133.158 27.7411 131.655" stroke="white" stroke-width="3" stroke-linecap="round" class="ZmewLfXx_7"/>
<path d="M135.085 67.6073L167.352 38.1591C173.545 44.3522 178.817 51.4028 183.004 59.0951L143.814 81.3926L102.691 102.82L133.623 71.3438" stroke="white" stroke-width="3" stroke-linecap="round" stroke-linejoin="round" class="ZmewLfXx_8"/>
<path d="M229.062 144.533C228.668 144.592 228.058 144.552 227.743 144.789C227.526 144.966 227.487 145.241 227.408 145.497C227.329 145.852 227.172 146.206 227.014 146.541C226.798 146.994 226.699 147.447 226.542 147.92C226.345 148.412 226.049 148.884 225.912 149.377C225.793 149.731 225.813 150.125 225.695 150.499C225.597 150.814 225.419 151.149 225.321 151.484C225.163 151.897 225.163 152.35 224.986 152.724C224.77 153.158 224.671 153.551 224.514 153.985C224.395 154.398 224.198 154.772 224.08 155.166C224.041 155.343 223.942 155.56 223.942 155.776C223.942 155.914 223.982 156.072 224.12 156.17C224.218 156.288 224.415 156.288 224.533 156.367C224.691 156.426 224.809 156.525 224.966 156.584C225.045 156.604 225.124 156.623 225.183 156.623C225.518 156.623 225.813 156.348 226.01 156.092C226.424 155.52 226.483 154.713 226.719 154.044C226.778 153.847 226.817 153.63 226.975 153.473C227.231 153.158 227.644 153.079 228.078 153.079C228.334 153.079 228.57 153.098 228.787 153.118C228.846 153.118 228.885 153.118 228.944 153.118C229.121 153.118 229.338 153.098 229.555 153.098C229.909 153.098 230.263 153.158 230.48 153.394C230.657 153.61 230.716 153.925 230.795 154.181C230.894 154.497 231.012 154.792 231.091 155.107C231.268 155.56 231.386 156.092 231.839 156.387C231.996 156.485 232.213 156.505 232.39 156.525C232.489 156.544 232.567 156.544 232.666 156.544C232.745 156.544 232.804 156.544 232.882 156.525C233.513 156.387 233.729 155.855 233.729 155.304C233.729 154.871 233.611 154.437 233.473 154.122C233.138 153.315 232.882 152.508 232.607 151.681C232.449 151.247 232.193 150.814 232.036 150.361C231.721 149.259 231.406 148.116 231.071 146.994C231.012 146.836 231.012 146.64 230.953 146.482C230.854 146.246 230.736 146.049 230.638 145.832C230.519 145.557 230.48 145.281 230.323 145.025C230.067 144.651 229.751 144.513 229.358 144.513C229.259 144.513 229.161 144.513 229.062 144.533ZM228.787 147.86C228.944 147.9 229.082 148.274 229.121 148.432C229.338 148.943 229.476 149.967 229.594 150.519C229.614 150.617 229.653 150.775 229.653 150.913C229.653 150.991 229.653 151.07 229.614 151.11C229.574 151.169 229.535 151.188 229.456 151.188C229.358 151.188 229.24 151.149 229.141 151.149C229.102 151.149 229.062 151.149 229.023 151.149C228.846 151.149 228.649 151.169 228.472 151.169C228.255 151.169 228.058 151.149 227.861 151.07C227.763 151.031 227.743 150.952 227.743 150.854C227.743 150.716 227.802 150.539 227.822 150.44C227.979 149.849 228.176 148.983 228.432 148.432C228.491 148.274 228.609 147.86 228.767 147.86H228.787Z" fill="white" class="ZmewLfXx_9"/>
<path d="M239.035 152.626C238.818 152.626 238.74 152.193 238.621 151.818C238.503 151.425 238.385 151.011 238.247 150.637C238.11 150.223 237.893 149.259 237.735 148.865C237.42 148.097 237.263 147.053 236.987 146.305C236.77 145.694 236.751 144.887 236.258 144.454C236.081 144.296 235.845 144.237 235.609 144.237C235.018 144.237 234.348 144.631 234.27 145.182C234.27 145.222 234.27 145.261 234.27 145.301C234.27 145.576 234.368 145.832 234.427 146.088C234.585 146.738 234.742 147.388 234.939 147.998C235.175 148.648 235.569 150.184 235.786 150.834C236.18 152.035 236.633 153.217 236.928 154.457C237.145 155.265 237.401 156.663 238.425 156.741C238.444 156.741 238.484 156.741 238.503 156.741C238.74 156.741 238.937 156.663 239.153 156.663C239.193 156.663 239.252 156.663 239.291 156.663C239.37 156.663 239.449 156.663 239.527 156.663C239.803 156.663 240.079 156.643 240.315 156.426C240.788 155.954 240.827 155.225 241.063 154.654C241.378 153.847 241.516 152.98 241.752 152.153C242.068 151.07 242.58 149.455 242.914 148.372C243.052 147.939 243.229 147.545 243.347 147.112C243.387 146.955 243.367 146.797 243.426 146.64C243.584 146.187 243.899 145.734 243.899 145.241C243.899 145.104 243.879 144.985 243.82 144.848C243.682 144.434 243.111 144.257 242.58 144.257C242.245 144.257 241.91 144.336 241.713 144.473C241.221 144.828 241.162 145.222 240.984 145.753C240.866 146.108 240.729 146.443 240.63 146.797C240.394 147.526 240.473 148.609 240.138 149.318C239.724 150.184 239.567 151.11 239.311 152.035C239.232 152.33 239.153 152.626 239.035 152.626Z" fill="white" class="ZmewLfXx_10"/>
<path d="M249.215 144.217C249.058 144.257 248.625 144.296 248.447 144.395C247.876 144.769 247.699 145.399 247.463 145.95C247.167 146.64 246.931 147.368 246.695 148.057C246.616 148.254 246.537 148.491 246.478 148.687C246.36 149.121 246.242 149.515 246.065 149.967C245.848 150.617 245.631 151.208 245.395 151.858C245.336 152.074 245.257 152.271 245.198 152.468C245.1 152.764 245.021 153 244.903 153.295C244.785 153.729 244.686 153.945 244.568 154.378C244.509 154.654 244.45 154.871 244.45 155.127C244.45 155.205 244.47 155.265 244.47 155.343C244.489 155.599 244.548 155.934 244.745 156.131C244.962 156.348 245.238 156.446 245.513 156.446C245.907 156.446 246.301 156.249 246.498 155.895C246.793 155.284 246.714 155.127 246.951 154.497C247.01 154.319 247.108 154.024 247.226 153.866C247.404 153.689 247.699 153.709 247.935 153.689C248.014 153.669 248.073 153.669 248.132 153.669C248.27 153.669 248.349 153.709 248.487 153.709C248.526 153.709 248.585 153.709 248.644 153.689C248.92 153.669 249.373 153.63 249.609 153.63C249.767 153.63 250.042 153.61 250.2 153.61C250.259 153.61 250.298 153.61 250.338 153.61C250.436 153.61 250.456 153.61 250.495 153.61C250.515 153.61 250.554 153.61 250.594 153.61C250.653 153.591 250.771 153.551 250.889 153.551C250.968 153.551 251.027 153.571 251.086 153.63C251.303 153.807 251.303 154.103 251.381 154.359C251.598 155.107 251.716 155.737 252.051 156.446C252.228 156.8 252.622 156.958 253.035 156.958C253.173 156.958 253.331 156.938 253.469 156.899C253.626 156.86 253.744 156.781 253.843 156.643C254.138 156.367 254.256 156.032 254.256 155.678C254.256 155.265 254.099 154.812 253.981 154.398C253.941 154.26 253.922 154.103 253.843 153.945C253.666 153.354 253.291 152.527 253.114 151.917C252.72 150.657 252.386 149.377 251.952 148.136C251.815 147.742 251.637 147.427 251.5 147.033C251.401 146.797 251.303 146.541 251.204 146.305C250.869 145.537 250.732 144.237 249.688 144.198C249.649 144.198 249.589 144.198 249.55 144.198C249.432 144.198 249.333 144.198 249.215 144.217ZM249.255 147.624H249.274C249.471 147.624 249.589 148.097 249.668 148.254C249.964 148.865 250.2 150.263 250.377 150.913C250.416 151.031 250.495 151.228 250.495 151.385C250.495 151.484 250.456 151.582 250.338 151.622C250.101 151.72 249.786 151.74 249.491 151.74C249.176 151.74 248.881 151.72 248.644 151.72C248.546 151.72 248.408 151.759 248.29 151.759C248.211 151.759 248.132 151.74 248.093 151.681C248.053 151.622 248.034 151.543 248.034 151.464C248.034 151.306 248.093 151.11 248.113 150.991C248.25 150.381 248.605 148.825 248.861 148.254C248.92 148.097 249.077 147.664 249.255 147.624Z" fill="white" class="ZmewLfXx_11"/>
<path d="M258.713 144.277C258.634 144.257 258.555 144.237 258.477 144.237C258.339 144.237 258.201 144.277 258.063 144.296C257.669 144.336 257.236 144.611 257.039 145.045C256.96 145.222 257 145.438 256.96 145.635C256.901 146.147 256.882 146.64 256.823 147.152C256.744 147.88 256.744 148.766 256.704 149.515C256.685 149.948 256.685 150.44 256.685 150.873C256.685 151.228 256.704 151.543 256.704 151.878C256.704 151.956 256.704 152.035 256.704 152.134C256.685 152.547 256.626 153.433 256.606 153.847C256.586 153.945 256.586 154.044 256.586 154.142C256.586 154.241 256.586 154.339 256.586 154.437C256.567 154.693 256.547 154.989 256.547 155.284C256.547 155.836 256.665 156.367 257.315 156.564C257.433 156.604 257.531 156.604 257.63 156.604C258.457 156.604 259.087 155.619 259.107 154.89C259.107 154.575 259.067 154.024 259.067 153.571C259.067 153.394 259.067 153.236 259.087 153.118C259.127 152.744 259.146 152.35 259.146 151.956C259.146 151.818 259.146 151.7 259.146 151.562C259.146 151.247 259.146 150.932 259.146 150.617C259.146 150.46 259.146 150.302 259.146 150.145C259.146 149.81 259.166 149.455 259.166 149.101C259.166 148.845 259.146 148.53 259.146 148.215C259.146 147.9 259.166 147.604 259.205 147.329C259.225 147.289 259.225 147.25 259.225 147.191C259.225 147.092 259.205 146.974 259.205 146.876C259.225 146.6 259.205 146.325 259.245 146.029C259.264 145.852 259.304 145.596 259.304 145.36C259.304 144.907 259.186 144.434 258.713 144.277Z" fill="white" class="ZmewLfXx_12"/>
<path d="M263.575 144.513C263.182 144.572 262.512 145.084 262.492 145.438C262.492 145.576 262.492 145.694 262.492 145.813C262.492 145.931 262.492 146.049 262.512 146.167C262.571 146.541 262.551 146.915 262.591 147.289C262.611 147.486 262.611 147.703 262.611 147.9C262.611 148.136 262.611 148.372 262.611 148.589C262.611 148.825 262.611 149.042 262.63 149.259C262.63 149.495 262.65 149.751 262.65 149.987C262.65 150.223 262.63 150.46 262.63 150.696C262.63 151.149 262.611 151.602 262.611 152.055C262.63 152.606 262.65 153.079 262.65 153.61C262.65 153.729 262.65 153.866 262.65 153.985C262.65 154.221 262.65 154.536 262.67 154.772C262.689 155.028 262.729 155.363 262.827 155.599C262.906 155.796 263.024 155.875 263.182 155.993C263.398 156.131 263.851 156.269 264.107 156.269C264.343 156.269 264.56 156.249 264.796 156.249C264.954 156.249 265.151 156.249 265.328 156.249C265.643 156.249 265.958 156.249 266.273 156.308C266.805 156.387 267.376 156.564 267.927 156.564C268.183 156.564 268.439 156.525 268.676 156.426C269.128 156.249 269.404 155.796 269.404 155.363C269.404 155.107 269.306 154.851 269.069 154.654C268.656 154.3 268.026 154.122 267.514 154.122C267.021 154.122 266.549 154.122 266.076 154.063C265.761 154.024 265.466 154.083 265.289 153.768C265.17 153.61 265.21 153.394 265.19 153.197C265.17 153.039 265.17 152.902 265.17 152.744C265.17 152.35 265.21 151.956 265.21 151.562C265.21 151.031 265.269 150.519 265.269 149.987C265.269 149.928 265.269 149.849 265.269 149.79C265.269 149.633 265.269 149.475 265.269 149.337C265.269 149.259 265.269 149.199 265.269 149.121C265.21 148.294 265.23 147.467 265.151 146.64C265.092 146.108 265.19 145.301 264.796 144.887C264.619 144.71 264.324 144.631 264.087 144.572C263.95 144.533 263.812 144.513 263.674 144.513C263.635 144.513 263.595 144.513 263.575 144.513Z" fill="white" class="ZmewLfXx_13"/>
<path d="M276.138 144.533C275.744 144.592 275.133 144.552 274.818 144.789C274.602 144.966 274.562 145.241 274.484 145.497C274.405 145.852 274.247 146.206 274.09 146.541C273.873 146.994 273.775 147.447 273.617 147.92C273.42 148.412 273.125 148.884 272.987 149.377C272.869 149.731 272.888 150.125 272.77 150.499C272.672 150.814 272.495 151.149 272.396 151.484C272.239 151.897 272.239 152.35 272.061 152.724C271.845 153.158 271.746 153.551 271.589 153.985C271.471 154.398 271.274 154.772 271.156 155.166C271.116 155.343 271.018 155.56 271.018 155.776C271.018 155.914 271.057 156.072 271.195 156.17C271.293 156.288 271.49 156.288 271.609 156.367C271.766 156.426 271.884 156.525 272.042 156.584C272.121 156.604 272.199 156.623 272.258 156.623C272.593 156.623 272.888 156.348 273.085 156.092C273.499 155.52 273.558 154.713 273.794 154.044C273.853 153.847 273.893 153.63 274.05 153.473C274.306 153.158 274.72 153.079 275.153 153.079C275.409 153.079 275.645 153.098 275.862 153.118C275.921 153.118 275.96 153.118 276.019 153.118C276.197 153.118 276.413 153.098 276.63 153.098C276.984 153.098 277.339 153.158 277.555 153.394C277.733 153.61 277.792 153.925 277.87 154.181C277.969 154.497 278.087 154.792 278.166 155.107C278.343 155.56 278.461 156.092 278.914 156.387C279.072 156.485 279.288 156.505 279.465 156.525C279.564 156.544 279.643 156.544 279.741 156.544C279.82 156.544 279.879 156.544 279.958 156.525C280.588 156.387 280.805 155.855 280.805 155.304C280.805 154.871 280.686 154.437 280.549 154.122C280.214 153.315 279.958 152.508 279.682 151.681C279.525 151.247 279.269 150.814 279.111 150.361C278.796 149.259 278.481 148.116 278.146 146.994C278.087 146.836 278.087 146.64 278.028 146.482C277.93 146.246 277.811 146.049 277.713 145.832C277.595 145.557 277.555 145.281 277.398 145.025C277.142 144.651 276.827 144.513 276.433 144.513C276.335 144.513 276.236 144.513 276.138 144.533ZM275.862 147.86C276.019 147.9 276.157 148.274 276.197 148.432C276.413 148.943 276.551 149.967 276.669 150.519C276.689 150.617 276.728 150.775 276.728 150.913C276.728 150.991 276.728 151.07 276.689 151.11C276.65 151.169 276.61 151.188 276.531 151.188C276.433 151.188 276.315 151.149 276.216 151.149C276.177 151.149 276.138 151.149 276.098 151.149C275.921 151.149 275.724 151.169 275.547 151.169C275.33 151.169 275.133 151.149 274.936 151.07C274.838 151.031 274.818 150.952 274.818 150.854C274.818 150.716 274.877 150.539 274.897 150.44C275.055 149.849 275.251 148.983 275.507 148.432C275.567 148.274 275.685 147.86 275.842 147.86H275.862Z" fill="white" class="ZmewLfXx_14"/>
<path d="M284.237 144.06C283.902 144.099 283.469 144.198 283.371 144.552C283.331 144.69 283.272 144.985 283.272 145.163C283.272 145.202 283.272 145.241 283.272 145.261C283.331 145.517 283.331 145.773 283.351 146.049C283.371 146.344 283.39 146.58 283.39 146.856C283.39 146.955 283.39 147.053 283.39 147.171C283.39 147.25 283.39 147.329 283.39 147.408C283.39 147.565 283.39 147.742 283.39 147.92C283.39 148.176 283.39 148.412 283.351 148.668C283.331 148.865 283.331 149.081 283.331 149.298C283.331 149.554 283.331 149.83 283.331 150.066C283.331 150.184 283.331 150.302 283.331 150.42C283.292 150.932 283.253 151.326 283.233 151.818C283.213 152.153 283.194 152.468 283.194 152.803C283.194 153.236 283.213 153.689 283.213 154.122C283.213 154.162 283.213 154.181 283.213 154.221C283.213 154.457 283.194 154.693 283.194 154.949C283.194 155.442 283.272 155.934 283.686 156.269C283.843 156.387 284.198 156.446 284.473 156.446C284.592 156.446 284.69 156.446 284.769 156.426C284.966 156.407 285.104 156.407 285.281 156.407C285.419 156.407 285.557 156.387 285.675 156.387C285.734 156.387 285.813 156.387 285.872 156.407C286.128 156.446 286.403 156.466 286.659 156.466C286.974 156.466 287.27 156.446 287.565 156.407C288.688 156.269 289.948 155.934 290.755 155.068C290.932 154.871 290.991 154.634 291.11 154.378C291.346 153.807 291.503 153.256 291.503 152.685C291.503 152.409 291.464 152.114 291.385 151.818C291.208 151.247 290.775 150.598 290.361 150.184C290.145 149.967 289.731 149.711 289.692 149.416C289.692 149.396 289.692 149.377 289.692 149.357C289.692 149.101 289.948 148.806 290.086 148.55C290.263 148.195 290.401 147.742 290.401 147.309C290.401 147.171 290.381 147.053 290.361 146.915C290.302 146.699 290.263 146.462 290.184 146.265C290.046 145.95 289.79 145.675 289.554 145.399C289.121 144.907 288.648 144.67 288.038 144.454C287.86 144.375 287.545 144.296 287.388 144.237C286.856 144.08 286.324 144.04 285.793 144.04C285.576 144.04 285.36 144.06 285.143 144.06C284.946 144.06 284.729 144.04 284.533 144.04C284.434 144.04 284.336 144.04 284.237 144.06ZM286.088 146.521C286.147 146.502 286.206 146.502 286.265 146.502C286.462 146.502 286.699 146.561 286.876 146.6C287.486 146.777 288.195 147.092 288.195 147.801C288.195 147.86 288.195 147.939 288.176 147.998C288.077 148.471 287.998 148.668 287.624 148.884C287.506 148.963 287.092 149.081 286.974 149.121C286.935 149.14 286.896 149.14 286.836 149.14C286.718 149.14 286.58 149.121 286.502 149.101C286.482 149.101 286.443 149.101 286.423 149.101C286.364 149.101 286.285 149.101 286.226 149.101C286.108 149.101 286.009 149.081 285.931 149.003C285.832 148.924 285.832 148.806 285.832 148.687C285.832 148.648 285.832 148.609 285.832 148.569V147.526C285.832 147.427 285.813 147.25 285.813 147.092C285.813 146.836 285.852 146.58 286.088 146.521ZM286.128 151.287C286.265 151.208 286.462 151.188 286.64 151.188C286.738 151.188 286.836 151.188 286.915 151.188C287.25 151.188 287.565 151.247 287.88 151.287C288.136 151.306 288.372 151.366 288.609 151.543C288.707 151.622 288.786 151.759 288.845 151.858C289.003 152.094 289.121 152.39 289.121 152.665C289.121 152.862 289.062 153.059 288.943 153.236C288.825 153.413 288.589 153.532 288.412 153.65C288.254 153.729 288.077 153.768 287.88 153.807C287.565 153.886 287.25 153.965 286.935 153.965C286.777 153.965 286.62 153.945 286.462 153.906C286.305 153.847 286.108 153.847 286.009 153.748C285.891 153.63 285.891 153.394 285.872 153.256C285.852 153.158 285.852 153.079 285.852 153C285.852 152.803 285.891 152.606 285.911 152.39C285.931 152.311 285.931 152.232 285.931 152.153C285.931 152.055 285.931 151.956 285.931 151.878C285.931 151.838 285.931 151.799 285.931 151.759C285.95 151.582 285.97 151.366 286.128 151.287Z" fill="white" class="ZmewLfXx_15"/>
<path d="M295.147 143.922C295.128 143.922 295.108 143.922 295.088 143.922C294.773 143.922 294.419 144.099 294.281 144.395C294.222 144.592 294.202 144.946 294.202 145.281C294.202 145.517 294.222 145.734 294.222 145.872C294.222 145.95 294.222 146.009 294.222 146.088C294.222 146.659 294.163 147.23 294.143 147.782C294.143 147.998 294.143 148.215 294.143 148.412C294.143 148.628 294.143 148.825 294.123 149.022C294.064 149.574 294.084 150.302 294.064 150.873C294.064 151.425 294.025 152.586 294.025 153.138C294.045 153.512 294.104 153.866 294.123 154.241C294.163 154.812 294.064 155.599 294.419 156.111C294.675 156.485 294.99 156.544 295.344 156.544C295.541 156.544 295.758 156.525 295.955 156.525C296.211 156.544 296.467 156.604 296.723 156.604C296.782 156.604 296.821 156.604 296.88 156.604C297.372 156.564 297.865 156.426 298.377 156.407C298.396 156.407 298.436 156.407 298.455 156.407C298.593 156.407 298.731 156.426 298.869 156.426C298.908 156.426 298.928 156.426 298.967 156.426C299.164 156.407 299.342 156.308 299.539 156.288C299.716 156.269 299.893 156.288 300.07 156.229C300.523 156.072 300.74 155.678 300.74 155.284C300.74 154.969 300.582 154.634 300.306 154.418C300.149 154.3 299.932 154.26 299.735 154.221C299.342 154.103 299.066 154.083 298.751 154.083C298.515 154.083 298.259 154.103 297.943 154.122C297.707 154.142 297.432 154.26 297.176 154.26C297.038 154.26 296.9 154.221 296.801 154.103C296.723 154.004 296.703 153.866 296.703 153.729C296.703 153.65 296.703 153.551 296.703 153.473C296.683 153.02 296.644 152.606 296.644 152.153C296.644 151.818 296.585 151.011 296.585 150.578C296.585 150.519 296.585 150.479 296.585 150.44C296.604 150.283 296.604 150.105 296.604 149.928C296.604 149.534 296.585 149.121 296.585 148.727C296.585 148.628 296.585 148.53 296.585 148.432C296.585 148.353 296.585 148.254 296.585 148.176C296.585 147.821 296.565 147.467 296.545 147.112C296.545 146.915 296.585 146.718 296.585 146.521C296.585 146.462 296.565 146.403 296.565 146.325C296.565 146.265 296.565 146.187 296.565 146.128C296.565 145.872 296.604 145.557 296.604 145.281C296.604 144.907 296.545 144.552 296.25 144.277C296.132 144.139 295.955 144.099 295.797 144.06C295.659 144.001 295.305 143.962 295.147 143.922Z" fill="white" class="ZmewLfXx_16"/>
<path d="M307.284 144.513C306.811 144.572 305.945 144.572 305.452 144.611C305.137 144.651 304.763 144.651 304.448 144.651C304.054 144.67 303.601 144.69 303.326 145.005C303.089 145.301 303.011 145.753 303.011 146.167C303.011 146.285 303.03 146.423 303.03 146.521C303.03 146.6 303.05 146.679 303.05 146.758C303.05 147.092 302.991 147.427 302.991 147.762C302.991 148.195 303.011 148.589 303.011 149.003C303.011 149.101 303.011 149.199 303.011 149.318C302.991 149.633 302.991 149.948 302.991 150.263C302.991 150.519 302.991 150.775 302.991 151.031C302.991 151.405 302.991 151.779 302.951 152.153C302.951 152.271 302.932 152.39 302.932 152.508C302.932 152.882 302.971 153.276 302.991 153.65C302.991 153.945 302.912 154.418 302.912 154.753C302.912 154.792 302.912 154.812 302.912 154.851C302.951 155.422 303.07 156.111 303.641 156.466C303.838 156.584 304.074 156.682 304.31 156.682C304.389 156.682 304.468 156.663 304.547 156.643C304.724 156.564 304.881 156.426 305.058 156.367C305.196 156.328 305.374 156.328 305.57 156.328C305.866 156.328 306.161 156.348 306.378 156.348C306.673 156.348 307.185 156.288 307.481 156.288C307.697 156.288 307.953 156.328 308.189 156.328C308.327 156.328 308.465 156.308 308.583 156.269C309.076 156.092 309.568 155.402 309.568 154.831C309.568 154.556 309.45 154.319 309.135 154.181C308.918 154.083 308.701 154.044 308.505 154.044C308.327 154.044 308.17 154.063 307.993 154.063C307.953 154.063 307.914 154.063 307.874 154.063C307.796 154.063 307.717 154.063 307.638 154.063C307.421 154.063 307.205 154.063 306.988 154.063C306.89 154.063 306.791 154.063 306.693 154.063C306.575 154.063 306.457 154.083 306.319 154.083C306.063 154.083 305.767 154.044 305.63 153.847C305.511 153.709 305.492 153.532 305.492 153.335C305.492 153.158 305.511 152.98 305.531 152.823C305.551 152.586 305.551 152.193 305.63 151.976C305.728 151.74 305.807 151.72 305.925 151.72C305.964 151.72 306.004 151.72 306.063 151.72C306.122 151.72 306.181 151.72 306.26 151.7C306.476 151.641 306.594 151.622 306.772 151.622C306.85 151.622 306.949 151.641 307.067 151.641C307.52 151.622 307.756 151.641 308.189 151.464C308.485 151.346 308.721 151.149 308.741 150.814C308.761 150.598 308.78 150.44 308.78 150.283C308.78 149.751 308.603 149.534 307.894 149.377C307.815 149.357 307.756 149.357 307.677 149.357C307.52 149.357 307.362 149.377 307.185 149.396C306.988 149.396 306.831 149.416 306.634 149.436C306.476 149.455 306.26 149.534 306.082 149.534C305.945 149.534 305.826 149.495 305.767 149.318C305.649 149.081 305.708 148.628 305.669 148.372C305.649 148.156 305.649 147.979 305.649 147.762C305.649 147.723 305.649 147.703 305.649 147.664C305.649 147.565 305.649 147.467 305.649 147.368C305.649 147.211 305.649 147.053 305.728 146.915C305.866 146.659 306.535 146.64 306.969 146.64C307.067 146.64 307.165 146.64 307.225 146.64C307.421 146.64 307.796 146.6 307.993 146.6C308.15 146.6 308.249 146.6 308.347 146.6C308.642 146.6 308.741 146.561 309.154 146.167C309.332 145.99 309.43 145.753 309.43 145.497C309.43 145.222 309.312 144.966 309.115 144.808C308.78 144.552 308.288 144.473 307.835 144.473C307.638 144.473 307.461 144.493 307.284 144.513Z" fill="white" class="ZmewLfXx_17"/>
<path d="M177.52 162.592C177.323 162.67 177.086 162.985 177.086 163.202C177.086 163.379 177.067 163.655 177.067 163.852C177.067 164.049 176.988 164.226 176.988 164.423C176.988 164.502 176.988 164.58 176.988 164.659C176.988 164.856 176.988 165.053 176.988 165.25C176.988 165.348 176.988 165.447 176.988 165.545C176.988 165.841 176.968 166.057 176.968 166.372C176.968 166.451 176.968 166.55 176.968 166.628C176.968 166.845 176.968 167.062 176.968 167.278C176.968 167.396 176.968 167.495 176.968 167.613C176.929 169.05 176.87 170.429 176.811 171.827C176.811 172.024 176.889 172.221 176.889 172.418C176.87 172.733 176.83 173.028 176.811 173.343C176.811 173.363 176.811 173.363 176.811 173.383C176.811 174.052 177.441 174.682 178.071 174.682C178.957 174.682 179.371 173.737 179.41 173.048C179.41 172.693 179.39 172.319 179.39 171.945C179.39 171.847 179.39 171.768 179.39 171.669C179.39 171.591 179.39 171.512 179.39 171.453C179.39 171.394 179.39 171.335 179.39 171.276C179.39 170.724 179.43 170.35 180.139 170.35C180.335 170.35 180.513 170.39 180.69 170.39C180.907 170.39 181.143 170.35 181.359 170.33C182.029 170.271 182.895 170.468 182.935 169.188C182.935 169.169 182.935 169.169 182.935 169.149C182.935 168.283 182.226 168.066 181.478 168.066C181.123 168.066 181.143 168.086 180.808 168.086C180.591 168.086 180.375 168.027 180.198 168.027C180.079 168.027 180.001 168.046 179.902 168.046C179.567 168.046 179.41 167.731 179.41 167.396C179.41 167.377 179.41 167.357 179.41 167.337C179.41 167.259 179.41 167.18 179.41 167.101C179.41 166.825 179.43 166.274 179.449 165.998C179.449 165.683 179.666 164.758 180.198 164.758C180.335 164.758 180.493 164.797 180.631 164.797C181.163 164.797 181.497 164.738 182.029 164.738C182.226 164.738 182.403 164.797 182.6 164.797C183.092 164.797 183.703 164.206 183.722 163.635C183.722 163.616 183.722 163.616 183.722 163.596C183.722 162.769 182.738 162.473 182.167 162.473C181.694 162.473 181.261 162.592 180.749 162.592C180.572 162.592 180.375 162.552 180.198 162.552C180.079 162.552 179.961 162.552 179.823 162.552C179.666 162.552 179.489 162.513 179.331 162.513C179.213 162.513 179.095 162.552 178.996 162.552C178.819 162.552 178.563 162.513 178.268 162.513C178.189 162.513 178.11 162.513 178.032 162.513C177.835 162.513 177.657 162.513 177.52 162.592Z" fill="white" class="ZmewLfXx_18"/>
<path d="M190.075 162.04C188.559 162.198 186.885 162.926 186.156 164.384C185.507 165.447 185.487 165.979 185.29 166.884C185.191 167.121 185.113 167.711 185.113 168.046C185.113 168.322 185.152 168.578 185.172 168.854C185.172 169.05 185.132 169.247 185.132 169.444C185.132 169.759 185.29 170.114 185.349 170.429C185.408 170.626 185.388 170.823 185.447 171.02C186.097 173.009 187.929 174.919 190.075 174.919C192.241 174.919 194.486 174.367 195.746 171.217C195.963 170.685 196.002 169.582 196.002 169.306C196.002 169.05 195.982 168.775 195.982 168.519C195.982 168.263 196.002 167.613 196.002 167.377C196.002 166.176 195.352 164.797 194.86 164.108C193.679 162.414 191.217 162.021 190.646 162.021C190.626 162.021 190.626 162.021 190.607 162.021C190.429 162.021 190.233 162.021 190.075 162.04ZM190.37 164.6C190.449 164.58 190.489 164.58 190.587 164.58C191.178 164.58 192.044 164.955 192.221 165.211C192.438 165.427 192.556 165.782 192.733 166.038C193.206 166.707 193.442 167.967 193.442 168.795C193.442 170.193 192.832 171.315 191.65 172.024C191.178 172.28 190.843 172.398 190.292 172.398C188.244 172.398 187.948 169.858 187.948 168.578C187.948 167.396 188.382 165.486 189.465 164.856C189.701 164.738 190.095 164.679 190.37 164.6Z" fill="white" class="ZmewLfXx_19"/>
<path d="M200.668 162.217C200.255 162.277 199.585 162.375 199.25 162.69C198.916 162.985 198.896 163.281 198.896 163.616C198.896 163.714 198.896 163.793 198.896 163.891C198.896 163.931 198.896 163.97 198.896 164.029C198.896 164.108 198.837 164.305 198.837 164.462C198.837 164.482 198.837 164.502 198.837 164.521C198.857 164.659 198.857 164.777 198.857 164.876C198.857 165.033 198.857 165.152 198.857 165.309C198.857 165.388 198.857 165.467 198.857 165.565C198.876 165.86 198.896 166.766 198.896 167.062C198.896 167.495 198.896 168.125 198.935 168.558C198.955 168.696 198.955 168.834 198.955 168.952C198.955 169.09 198.955 169.228 198.955 169.366C198.955 169.444 198.955 169.523 198.955 169.602C198.955 169.779 198.955 169.956 198.955 170.134C198.955 170.33 198.994 170.823 198.994 171.177C198.994 171.295 198.975 171.394 198.975 171.453C198.975 171.512 198.975 171.571 198.975 171.63C198.975 171.768 198.975 171.906 198.975 172.063C198.975 172.142 198.975 172.221 198.975 172.3C198.975 172.536 198.994 172.772 198.994 173.009C198.994 173.068 198.994 173.127 198.994 173.186C198.994 173.383 198.975 173.58 198.975 173.796C198.975 174.288 199.053 174.781 199.506 175.017C199.703 175.116 200.038 175.253 200.255 175.253C200.274 175.253 200.274 175.253 200.294 175.253C200.806 175.214 201.18 174.663 201.2 174.17C201.22 173.914 201.259 173.639 201.259 173.383C201.259 173.343 201.259 173.304 201.259 173.265C201.259 173.048 201.259 172.871 201.259 172.674C201.279 172.497 201.298 172.26 201.298 172.083C201.298 172.024 201.298 171.945 201.298 171.866C201.298 171.492 201.338 170.941 201.377 170.646C201.377 170.586 201.377 170.547 201.377 170.488C201.377 170.094 201.397 169.641 201.869 169.641C201.968 169.641 202.027 169.641 202.086 169.641C202.204 169.641 202.283 169.641 202.46 169.7C202.913 169.818 203.169 170.409 203.366 170.764C203.72 171.433 203.957 171.768 204.331 172.437L204.823 173.343C204.902 173.54 205.178 174.013 205.374 174.131C205.571 174.249 205.847 174.308 206.123 174.308C206.418 174.308 206.714 174.249 206.91 174.131C207.285 173.895 207.403 173.658 207.403 173.383C207.403 173.127 207.285 172.831 207.147 172.497C206.989 172.122 206.753 171.729 206.517 171.374C206.379 171.197 206.202 170.941 206.083 170.764C205.847 170.409 205.906 170.547 205.709 170.173C205.453 169.759 204.882 169.208 204.843 168.716V168.696C204.843 168.342 205.709 167.751 205.906 167.475C206.123 167.199 206.202 166.904 206.359 166.569C206.497 166.254 206.576 165.742 206.615 165.388C206.615 165.329 206.615 165.27 206.615 165.211C206.615 163.99 205.69 163.064 204.606 162.67C204.41 162.592 204.173 162.552 203.957 162.493C203.523 162.375 202.972 162.316 202.519 162.277C202.224 162.257 201.909 162.237 201.594 162.237C201.515 162.237 201.456 162.237 201.377 162.237C201.338 162.237 201.279 162.257 201.239 162.257C201.062 162.257 200.904 162.217 200.747 162.217C200.727 162.217 200.688 162.217 200.668 162.217ZM201.515 164.462C201.81 164.403 202.047 164.364 202.283 164.364C202.578 164.364 202.874 164.423 203.287 164.6C203.563 164.699 203.858 165.033 203.976 165.309C204.035 165.447 204.075 165.703 204.075 165.939C204.075 166.136 204.055 166.333 203.976 166.432C203.858 166.628 203.72 166.825 203.563 166.983C203.307 167.259 203.071 167.298 202.795 167.515C202.598 167.633 202.44 167.672 202.244 167.692C202.106 167.711 201.889 167.751 201.692 167.751C201.574 167.751 201.436 167.731 201.357 167.692C201.22 167.574 201.2 167.278 201.18 167.081C201.18 167.042 201.18 167.003 201.18 166.963C201.18 166.648 201.22 166.136 201.22 165.683C201.22 165.368 201.2 165.092 201.141 164.915C201.141 164.896 201.121 164.856 201.121 164.836C201.121 164.679 201.259 164.521 201.515 164.462Z" fill="white" class="ZmewLfXx_20"/>
<path d="M214.501 162.828C214.501 162.848 214.501 162.867 214.501 162.887C214.501 163.025 214.54 163.163 214.54 163.301C214.462 163.793 214.442 164.285 214.442 164.797C214.442 165.112 214.462 165.427 214.462 165.723C214.462 165.92 214.501 166.116 214.501 166.333C214.501 166.372 214.501 166.412 214.501 166.451C214.481 166.786 214.462 167.101 214.462 167.436C214.462 167.889 214.481 168.342 214.521 168.795C214.54 169.188 214.521 169.543 214.6 169.917C214.659 170.173 214.698 170.488 214.757 170.744C214.816 170.98 214.895 171.335 215.013 171.551C215.19 172.024 215.446 172.418 215.722 172.831C216.057 173.363 216.431 173.737 217.002 174.092C217.238 174.229 217.376 174.367 217.632 174.446C218.006 174.604 218.853 174.663 219.286 174.741C219.385 174.761 219.483 174.761 219.582 174.761C219.956 174.761 220.369 174.682 220.704 174.623C221.629 174.426 222.397 173.658 222.89 172.93C223.106 172.615 223.264 172.359 223.382 172.004C223.54 171.591 223.717 171.098 223.776 170.646C223.855 170.153 223.835 169.622 223.855 169.129C223.874 168.854 223.874 168.617 223.874 168.401C223.874 167.967 223.855 167.574 223.855 167.042C223.855 166.845 223.874 166.569 223.874 166.333C223.874 166.274 223.874 166.215 223.874 166.176C223.855 165.998 223.855 165.801 223.855 165.604C223.855 165.23 223.874 164.797 223.874 164.403C223.874 164.147 223.874 163.891 223.835 163.694C223.815 163.419 223.796 163.104 223.559 162.926C223.323 162.69 222.752 162.552 222.437 162.552C222.417 162.552 222.397 162.552 222.378 162.552C221.59 162.552 221.413 163.32 221.413 163.95C221.413 164.069 221.433 164.187 221.433 164.285C221.433 164.364 221.433 164.482 221.433 164.6C221.433 164.797 221.433 165.014 221.433 165.23C221.433 165.447 221.433 165.664 221.452 165.801C221.472 165.979 221.472 166.136 221.472 166.274C221.472 166.412 221.472 166.569 221.472 166.747C221.472 166.806 221.472 166.865 221.472 166.924C221.472 167.18 221.492 167.475 221.492 167.692C221.472 168.716 221.492 169.582 221.275 170.586C221.117 171.276 220.763 171.807 220.133 172.221C219.916 172.359 219.719 172.457 219.503 172.457C219.424 172.457 219.345 172.437 219.266 172.418C218.361 172.142 218.085 172.083 217.671 171.295C217.415 170.862 217.415 170.074 217.297 169.582C217.199 169.228 217.159 168.814 217.159 168.42C217.159 168.066 217.199 167.692 217.199 167.357C217.199 167.298 217.199 167.259 217.199 167.199C217.199 166.766 217.14 166.333 217.1 165.9C217.1 165.683 217.14 165.467 217.14 165.25C217.14 165.211 217.14 165.171 217.14 165.132C217.1 164.777 217.061 164.423 217.061 164.049C217.061 163.97 217.061 163.891 217.061 163.813C217.061 163.753 217.061 163.714 217.061 163.655C217.061 162.808 216.766 162.119 215.958 162.119C215.446 162.119 214.58 162.217 214.501 162.828Z" fill="white" class="ZmewLfXx_21"/>
<path d="M233.99 170.015C233.97 170.015 233.97 170.035 233.951 170.035C233.773 170.035 233.478 169.366 233.301 169.011C232.986 168.499 232.69 167.987 232.375 167.455C232.139 167.062 231.844 166.687 231.568 166.313C231.115 165.664 230.682 165.014 230.189 164.364C229.914 163.931 229.756 163.399 229.402 163.005C229.067 162.631 228.575 162.513 228.102 162.513C227.964 162.513 227.826 162.513 227.689 162.533C227.413 162.572 227.196 162.789 227.137 163.064C227.098 163.301 227.078 163.537 227.078 163.753C227.078 163.931 227.098 164.108 227.098 164.285C227.098 164.403 227.098 164.541 227.098 164.659C227.098 164.876 227.098 165.092 227.098 165.289C227.098 165.506 227.098 165.703 227.118 165.9C227.137 166.412 227.157 166.884 227.157 167.396C227.137 167.751 227.098 168.125 227.098 168.499C227.098 168.558 227.098 168.617 227.098 168.676C227.118 168.932 227.137 169.169 227.157 169.425C227.177 169.543 227.177 169.681 227.177 169.818C227.177 170.094 227.157 170.37 227.157 170.626C227.157 170.842 227.177 171.02 227.177 171.217C227.157 171.709 227.118 172.201 227.118 172.674C227.118 173.107 227.157 173.52 227.295 173.934C227.492 174.426 228.004 174.82 228.496 174.82C228.811 174.82 229.106 174.663 229.284 174.269C229.362 174.052 229.382 173.796 229.382 173.54C229.382 173.402 229.382 173.245 229.382 173.107C229.382 172.615 229.422 172.142 229.422 171.63C229.422 171.374 229.402 171.098 229.402 170.823C229.402 170.409 229.422 170.035 229.422 169.602C229.402 169.247 229.402 168.893 229.382 168.539C229.382 168.44 229.382 168.361 229.382 168.263C229.382 167.948 229.422 167.633 229.579 167.574C229.599 167.574 229.638 167.554 229.658 167.554C229.894 167.554 229.993 168.027 230.189 168.342C230.682 169.05 231.017 169.897 231.469 170.626C231.824 171.197 232.237 171.788 232.671 172.3C232.789 172.477 232.986 172.615 233.124 172.792C233.636 173.402 234.088 174.466 234.955 174.466C234.975 174.466 234.975 174.466 234.994 174.466C235.683 174.426 236.373 173.639 236.451 172.93C236.471 172.753 236.471 172.575 236.471 172.418C236.471 171.925 236.412 171.473 236.412 170.961C236.412 170.626 236.392 170.311 236.392 169.976C236.392 169.897 236.392 169.818 236.392 169.74C236.392 169.366 236.333 168.972 236.333 168.598C236.294 167.593 236.314 166.589 236.255 165.585C236.235 165.309 236.235 165.014 236.235 164.738C236.235 164.462 236.235 164.187 236.255 163.891C236.274 163.714 236.314 163.517 236.314 163.34C236.314 163.261 236.314 163.163 236.274 163.084C236.097 162.572 235.565 162.375 235.073 162.375C234.935 162.375 234.797 162.375 234.679 162.414C234.482 162.473 234.285 162.493 234.147 162.69C234.029 162.907 234.069 163.163 234.049 163.419C234.049 163.753 234.01 164.108 233.99 164.462C233.99 165.014 234.01 165.506 234.01 166.038C234.01 166.176 234.01 166.313 234.01 166.451C233.99 166.687 233.99 166.943 233.99 167.18C233.99 167.455 233.99 167.731 233.99 168.007C233.99 168.145 233.99 168.263 233.99 168.401C233.99 168.735 234.049 169.031 234.049 169.346C234.049 169.425 234.069 169.503 234.069 169.602C234.069 169.779 234.049 169.976 233.99 170.015Z" fill="white" class="ZmewLfXx_22"/>
<path d="M243.108 162.375C242.891 162.414 242.635 162.375 242.399 162.454C242.143 162.513 241.867 162.651 241.572 162.71C241.375 162.789 241.158 162.789 240.942 162.926C240.449 163.261 239.957 163.576 239.622 164.069C239.425 164.384 239.366 164.659 239.288 164.994C239.209 165.289 239.169 165.624 239.169 165.939C239.169 166.116 239.189 166.274 239.209 166.451C239.307 166.924 239.524 167.495 239.859 167.81C239.997 167.948 240.115 168.125 240.253 168.223C240.961 168.795 241.434 168.854 242.222 169.228C242.596 169.425 242.97 169.602 243.364 169.779C243.718 169.956 244.073 170.193 244.073 170.626C244.073 170.646 244.073 170.646 244.073 170.665C244.014 171.453 243.777 171.886 243.167 172.201C242.891 172.339 242.635 172.437 242.281 172.437C241.631 172.398 240.922 172.181 240.371 171.886C240.233 171.827 240.095 171.788 239.977 171.788C239.386 171.788 238.874 172.437 238.874 173.048C238.874 173.225 238.913 173.402 239.012 173.56C239.189 173.836 239.721 173.954 239.997 174.17C240.154 174.269 240.331 174.348 240.509 174.426C240.961 174.623 241.454 174.682 241.966 174.682C242.379 174.682 242.812 174.643 243.226 174.584C243.521 174.544 243.777 174.426 244.053 174.328C245.353 173.796 246.18 172.634 246.416 171.236C246.455 171.02 246.514 170.842 246.514 170.626C246.514 170.606 246.514 170.567 246.514 170.547C246.475 170.035 246.396 169.562 246.14 169.129C245.943 168.795 245.727 168.381 245.392 168.145C245.254 168.066 245.077 168.007 244.959 167.908C244.762 167.81 244.624 167.652 244.427 167.534C243.797 167.18 243.167 166.865 242.478 166.648C242.084 166.491 241.67 166.176 241.592 165.664C241.592 165.624 241.592 165.585 241.592 165.545C241.592 165.112 241.985 164.777 242.34 164.62C242.635 164.462 242.931 164.403 243.226 164.403C243.659 164.403 244.112 164.541 244.565 164.679C244.801 164.758 244.979 164.915 245.195 164.994C245.294 165.033 245.392 165.033 245.491 165.033C245.707 165.033 245.924 164.974 246.081 164.817C246.337 164.58 246.455 164.344 246.455 164.088C246.455 163.734 246.239 163.399 245.884 163.143C245.707 163.005 245.53 162.828 245.333 162.729C244.979 162.572 244.565 162.572 244.191 162.493C243.876 162.454 243.62 162.355 243.324 162.355C243.246 162.355 243.187 162.355 243.108 162.375Z" fill="white" class="ZmewLfXx_23"/>
<path d="M255.545 162.631C254.581 162.631 253.635 162.67 252.69 162.71C252.316 162.71 251.922 162.651 251.509 162.651C251.43 162.651 251.351 162.651 251.272 162.651C251.194 162.651 251.095 162.651 251.016 162.651C250.8 162.651 250.583 162.651 250.366 162.651C250.268 162.651 250.15 162.651 250.051 162.651C250.012 162.651 249.973 162.651 249.933 162.651C249.677 162.651 249.421 162.611 249.146 162.611C249.008 162.611 248.87 162.631 248.752 162.651C248.496 162.69 248.043 163.045 247.944 163.281C247.905 163.379 247.866 163.517 247.866 163.655C247.866 163.931 247.944 164.226 248.082 164.384C248.476 164.876 248.988 164.974 249.539 164.974C249.795 164.974 250.051 164.955 250.307 164.935C250.327 164.935 250.347 164.935 250.366 164.935C250.583 164.935 250.878 165.033 251.095 165.033C251.115 165.033 251.134 165.033 251.154 165.033C251.213 165.014 251.272 164.994 251.331 164.994C251.39 164.994 251.45 165.014 251.509 165.092C251.587 165.211 251.607 165.388 251.607 165.545C251.607 165.604 251.607 165.664 251.607 165.723C251.587 165.979 251.568 166.116 251.568 166.313C251.568 166.392 251.568 166.451 251.568 166.55C251.607 167.101 251.587 167.633 251.607 168.184C251.607 168.499 251.627 168.696 251.627 169.011C251.607 169.287 251.607 169.661 251.587 169.976C251.587 170.37 251.568 170.665 251.568 171.079C251.548 171.453 251.568 171.925 251.528 172.28C251.509 172.398 251.509 172.556 251.509 172.713C251.509 173.461 251.745 174.466 252.572 174.466C252.592 174.466 252.592 174.466 252.611 174.466C252.749 174.446 253.005 174.367 253.123 174.308C253.399 174.17 253.694 173.973 253.813 173.658C253.891 173.481 253.911 173.265 253.911 173.048C253.911 172.871 253.891 172.654 253.891 172.477C253.891 172.378 253.891 172.3 253.911 172.221C253.931 172.103 253.95 171.985 253.95 171.866C253.95 171.669 253.911 171.473 253.891 171.256C253.891 171.158 253.891 171.039 253.891 170.941C253.891 170.724 253.891 170.527 253.891 170.311C253.891 170.232 253.891 170.153 253.891 170.074C253.891 169.897 253.891 169.7 253.891 169.503C253.891 169.405 253.891 169.306 253.891 169.208C253.891 169.149 253.911 169.07 253.911 169.011C253.911 168.755 253.852 168.519 253.852 168.243C253.852 168.204 253.832 168.145 253.832 168.105C253.832 167.948 253.872 167.81 253.872 167.652C253.872 167.633 253.872 167.593 253.872 167.574C253.813 167.101 253.852 166.825 253.813 166.333C253.813 166.235 253.813 166.136 253.813 166.018C253.813 165.782 253.832 165.526 253.95 165.329C254.069 165.132 254.285 165.092 254.521 165.092C254.679 165.092 254.856 165.112 254.994 165.112C255.742 165.112 256.589 165.073 256.845 164.167C256.865 164.029 256.904 163.891 256.904 163.734C256.904 163.576 256.865 163.419 256.786 163.301C256.51 162.966 255.959 162.631 255.585 162.631C255.565 162.631 255.565 162.631 255.545 162.631Z" fill="white" class="ZmewLfXx_24"/>
<path d="M261.896 162.237C261.581 162.296 260.872 162.375 260.715 162.552C260.596 162.69 260.34 163.182 260.301 163.36C260.183 163.872 260.006 164.403 259.848 164.915C259.71 165.329 259.494 165.723 259.356 166.136C259.139 166.786 258.923 167.495 258.745 168.164C258.706 168.342 258.647 168.499 258.608 168.637C258.549 168.834 258.489 169.05 258.43 169.247C258.253 169.74 258.233 170.015 258.037 170.488C257.958 170.724 257.84 171.138 257.761 171.354C257.584 171.807 257.347 172.457 257.229 172.91C257.15 173.205 257.072 173.501 257.072 173.796C257.072 174.111 257.17 174.407 257.426 174.663C257.643 174.86 257.997 174.997 258.332 174.997C258.667 174.997 258.962 174.86 259.08 174.544C259.198 174.21 259.415 173.737 259.454 173.383C259.494 173.087 259.651 172.575 259.73 172.26C259.789 172.063 259.868 171.512 259.986 171.295C260.084 171.098 260.104 170.685 260.321 170.586C260.38 170.547 260.439 170.547 260.518 170.547C260.577 170.547 260.656 170.547 260.715 170.547C260.754 170.547 260.774 170.547 260.793 170.547C261.305 170.488 261.64 170.508 262.152 170.468L263.235 170.429C263.314 170.409 263.393 170.39 263.471 170.39C263.55 170.39 263.609 170.409 263.668 170.468C263.865 170.626 263.885 171 263.964 171.236C264.062 171.551 264.18 172.26 264.259 172.575C264.397 173.009 264.456 173.422 264.712 173.796C264.909 174.111 265.204 174.348 265.559 174.348C265.638 174.348 265.716 174.328 265.815 174.308C265.933 174.269 266.031 174.21 266.13 174.131C266.524 173.855 266.661 173.461 266.661 173.048C266.661 172.516 266.445 171.906 266.287 171.433C266.09 170.764 265.913 170.114 265.697 169.444C265.539 168.991 265.322 168.519 265.145 168.027C264.83 167.062 264.554 166.077 264.239 165.112C264.141 164.777 263.964 164.482 263.846 164.147C263.727 163.832 263.59 163.478 263.471 163.163C263.373 162.867 263.314 162.572 263.078 162.375C262.9 162.217 262.605 162.198 262.369 162.198C262.191 162.198 262.034 162.198 261.896 162.237ZM261.935 165.171H261.955C262.014 165.171 262.073 165.25 262.093 165.289C262.231 165.447 262.251 165.644 262.329 165.821C262.546 166.491 262.664 166.943 262.841 167.633C262.861 167.79 262.979 168.007 262.979 168.164C262.979 168.223 262.979 168.263 262.94 168.302C262.763 168.499 262.487 168.519 262.231 168.519C262.191 168.519 262.132 168.519 262.093 168.519C261.837 168.519 261.561 168.598 261.325 168.598C261.286 168.598 261.227 168.598 261.168 168.598C261.089 168.598 261.01 168.598 260.971 168.519C260.931 168.46 260.912 168.401 260.912 168.342C260.912 168.184 261.03 168.007 261.049 167.83C261.148 167.475 261.246 167.101 261.364 166.747C261.463 166.491 261.601 166.215 261.699 165.959C261.778 165.782 261.778 165.585 261.837 165.408C261.876 165.329 261.876 165.191 261.935 165.171Z" fill="white" class="ZmewLfXx_25"/>
<path d="M271.925 168.184H271.945C272.26 168.184 272.89 169.326 273.442 169.956C273.895 170.508 274.288 171.098 274.741 171.65C274.997 171.945 275.293 172.201 275.529 172.516C275.647 172.654 275.746 172.831 275.883 172.969C276.041 173.146 276.258 173.304 276.435 173.501C276.632 173.717 276.77 173.973 277.006 174.17C277.242 174.387 277.538 174.485 277.813 174.485C278.443 174.485 279.014 174.013 279.014 173.324C279.014 173.245 279.014 173.186 278.995 173.107C278.916 172.772 278.699 172.595 278.502 172.378C278.207 172.063 277.951 171.748 277.636 171.453C276.789 170.646 276.179 169.681 275.45 168.775C275.253 168.519 275.017 168.302 274.82 168.046C274.741 167.948 274.623 167.849 274.604 167.731C274.604 167.711 274.604 167.672 274.604 167.652C274.604 167.534 274.682 167.436 274.761 167.337C274.938 167.081 275.175 166.884 275.411 166.687C275.844 166.313 276.199 165.9 276.612 165.526C277.124 165.053 277.734 164.699 278.286 164.265C278.542 164.069 278.68 163.773 278.68 163.497C278.68 163.182 278.502 162.867 278.148 162.69C277.931 162.592 277.616 162.473 277.341 162.473C277.262 162.473 277.203 162.493 277.124 162.513C276.829 162.592 276.533 162.848 276.258 163.005C275.844 163.222 275.529 163.557 275.155 163.852C274.525 164.384 273.895 164.935 273.264 165.486C272.89 165.841 272.516 166.195 272.122 166.569C272.063 166.648 271.925 166.845 271.768 166.845C271.729 166.845 271.709 166.845 271.669 166.825C271.571 166.766 271.551 166.609 271.551 166.451C271.551 166.353 271.551 166.235 271.551 166.136C271.551 166.097 271.551 166.057 271.551 166.018C271.532 165.88 271.532 165.644 271.532 165.388C271.532 165.112 271.532 164.797 271.532 164.502C271.532 164.206 271.532 163.97 271.512 163.793C271.512 163.753 271.512 163.694 271.512 163.655C271.512 163.557 271.512 163.458 271.512 163.36C271.512 163.163 271.492 162.985 271.394 162.808C271.217 162.454 270.764 162.277 270.33 162.277C269.976 162.277 269.641 162.395 269.425 162.611C269.287 162.749 269.247 162.867 269.247 162.985C269.247 163.143 269.326 163.32 269.346 163.537C269.366 163.694 269.366 163.911 269.366 164.167C269.366 164.62 269.346 165.152 269.346 165.585C269.346 165.801 269.346 165.998 269.366 166.156C269.366 166.274 269.366 166.392 269.366 166.51C269.366 166.806 269.366 167.101 269.366 167.396C269.366 167.554 269.366 167.692 269.366 167.849C269.405 168.283 269.464 168.735 269.464 169.169C269.464 169.562 269.425 169.956 269.425 170.35C269.425 170.409 269.425 170.488 269.425 170.547C269.444 171.158 269.484 171.768 269.484 172.378C269.484 172.457 269.484 172.536 269.484 172.615C269.484 173.422 269.523 174.131 270.271 174.643C270.37 174.702 270.488 174.781 270.606 174.82C270.724 174.86 270.823 174.879 270.921 174.879C271.473 174.879 271.847 174.288 271.886 173.737C271.906 173.52 271.906 173.304 271.906 173.087C271.906 172.457 271.847 171.827 271.827 171.217C271.807 170.862 271.807 170.508 271.807 170.134C271.807 169.779 271.807 169.405 271.827 169.031C271.827 169.011 271.827 169.011 271.827 168.991C271.827 168.873 271.768 168.755 271.748 168.637C271.748 168.598 271.729 168.539 271.729 168.499C271.729 168.342 271.788 168.204 271.925 168.184Z" fill="white" class="ZmewLfXx_26"/>
<path d="M282.565 162.099C282.309 162.139 282.013 162.178 281.856 162.375C281.639 162.651 281.501 163.399 281.501 163.852C281.501 163.95 281.501 164.049 281.521 164.108C281.56 164.384 281.6 164.679 281.6 164.955C281.6 164.994 281.6 165.053 281.6 165.092C281.6 165.152 281.6 165.191 281.6 165.25C281.6 166.077 281.738 166.924 281.738 167.751C281.738 167.83 281.738 167.889 281.738 167.967C281.738 168.401 281.698 168.814 281.679 169.247C281.679 169.74 281.639 170.232 281.619 170.724C281.6 170.902 281.56 171.098 281.521 171.295C281.482 171.788 281.383 172.693 281.324 173.205C281.324 173.265 281.324 173.304 281.324 173.363C281.324 174.032 281.521 174.919 282.23 174.919C282.269 174.919 282.309 174.919 282.348 174.919C282.702 174.86 283.057 174.643 283.234 174.367C283.352 174.21 283.451 174.052 283.51 173.855C283.569 173.54 283.707 173.146 283.707 172.812C283.707 172.792 283.707 172.772 283.707 172.753C283.707 172.595 283.805 172.044 283.825 171.886C283.904 171.236 283.943 170.567 283.982 169.917C284.022 168.991 284.042 168.046 284.042 167.121C284.042 166.904 284.042 166.707 284.042 166.491C284.042 165.88 284.042 165.27 283.982 164.679C283.923 164.206 284.002 162.926 283.726 162.533C283.589 162.316 283.254 162.198 283.018 162.119C282.899 162.099 282.801 162.099 282.702 162.099C282.663 162.099 282.604 162.099 282.565 162.099Z" fill="white" class="ZmewLfXx_27"/>
<path d="M289.908 167.396C289.948 167.377 289.967 167.377 290.007 167.377C290.164 167.377 290.263 167.633 290.499 167.948C290.735 168.263 291.05 168.755 291.287 169.11C291.405 169.366 291.523 169.641 291.661 169.878C291.818 170.193 292.055 170.429 292.212 170.724C292.468 171.059 292.586 171.433 292.803 171.768C293.157 172.3 293.512 173.107 293.886 173.639C294.339 174.151 294.457 174.958 295.323 174.958C295.343 174.958 295.343 174.958 295.363 174.958C296.111 174.958 296.662 174.151 296.682 173.363C296.682 173.146 296.722 172.93 296.722 172.713C296.722 172.615 296.702 172.516 296.682 172.398C296.662 172.201 296.662 172.004 296.662 171.788C296.662 171.571 296.662 171.374 296.662 171.158C296.662 170.783 296.662 170.35 296.662 169.956C296.662 169.759 296.662 169.562 296.662 169.385C296.662 169.287 296.662 169.208 296.662 169.129C296.662 168.755 296.603 168.479 296.603 168.105C296.603 168.007 296.623 167.908 296.623 167.79C296.623 167.455 296.722 167.14 296.722 166.806C296.722 166.333 296.623 165.841 296.623 165.388C296.623 164.935 296.662 164.364 296.682 163.891C296.682 163.813 296.682 163.734 296.682 163.655C296.682 163.36 296.643 163.084 296.406 162.867C296.229 162.67 295.579 162.533 295.343 162.493C295.304 162.493 295.264 162.493 295.225 162.493C294.772 162.493 294.418 162.926 294.339 163.379C294.339 163.478 294.339 163.576 294.339 163.675C294.339 163.872 294.339 164.049 294.339 164.246C294.339 164.876 294.359 165.408 294.359 165.92C294.359 166.432 294.339 166.943 294.26 167.534C294.221 167.731 294.221 167.928 294.221 168.125C294.221 168.302 294.221 168.479 294.221 168.657C294.221 168.735 294.221 168.834 294.221 168.913C294.221 168.991 294.221 169.287 294.083 169.287H294.063C293.886 169.267 293.689 168.913 293.61 168.755C293.335 168.263 293.079 167.79 292.823 167.337C292.114 166.156 291.365 165.152 290.617 164.069C290.322 163.616 290.105 162.966 289.751 162.651C289.317 162.257 288.943 161.922 288.431 161.922C288.333 161.922 288.234 161.942 288.136 161.962C287.742 162.04 287.545 162.473 287.545 162.867C287.545 162.887 287.545 162.887 287.545 162.907C287.545 163.025 287.486 163.143 287.486 163.281C287.486 163.301 287.486 163.32 287.486 163.34C287.486 163.399 287.486 163.478 287.486 163.537C287.486 164.049 287.368 164.502 287.368 164.994C287.368 165.762 287.486 166.471 287.486 167.199C287.486 167.259 287.486 167.298 287.486 167.357C287.486 168.086 287.368 168.854 287.368 169.582C287.368 170.212 287.309 170.882 287.309 171.532C287.309 171.807 287.329 172.083 287.348 172.339C287.368 172.516 287.388 172.713 287.388 172.91C287.388 173.009 287.388 173.127 287.388 173.225C287.388 173.737 287.427 174.229 287.939 174.505C288.116 174.604 288.451 174.682 288.628 174.722C288.727 174.761 288.806 174.761 288.884 174.761C289.436 174.761 289.711 174.111 289.751 173.501C289.751 173.127 289.692 172.674 289.692 172.3C289.692 172.241 289.692 172.201 289.692 172.142C289.692 171.512 289.79 170.842 289.79 170.212C289.79 169.937 289.79 169.681 289.79 169.405C289.79 169.129 289.79 168.834 289.79 168.539C289.79 167.967 289.81 167.455 289.908 167.396Z" fill="white" class="ZmewLfXx_28"/>
<path d="M304.993 162.493C304.756 162.533 304.481 162.552 304.264 162.611C304.047 162.67 303.831 162.67 303.595 162.749C303.26 162.848 302.964 163.045 302.63 163.222C302.098 163.517 301.527 163.852 301.074 164.305C300.877 164.482 300.759 164.62 300.582 164.817C300.444 165.033 300.227 165.309 300.089 165.545C299.912 165.801 299.814 166.097 299.676 166.392C299.577 166.648 299.538 167.022 299.459 167.318C299.341 167.731 299.302 168.105 299.302 168.499C299.302 168.854 299.341 169.228 299.381 169.602C299.4 169.917 299.381 170.291 299.459 170.606C299.676 171.847 300.089 172.792 301.035 173.54C301.271 173.737 301.448 173.954 301.724 174.111C302.137 174.387 302.728 174.584 303.22 174.722C303.693 174.82 304.323 174.8 304.776 174.82C304.973 174.82 305.524 174.82 305.702 174.82C305.721 174.82 305.761 174.82 305.78 174.82C305.997 174.82 306.154 174.761 306.351 174.702C306.489 174.663 306.627 174.663 306.765 174.623C307.316 174.426 308.183 173.914 308.616 173.54C308.793 173.383 308.734 173.265 308.852 173.028C308.951 172.851 308.97 172.634 308.97 172.437C308.97 172.26 308.951 172.083 308.951 171.945C308.951 171.906 308.951 171.886 308.951 171.847C308.99 171.374 309.049 170.882 309.049 170.409C309.029 170.074 309.029 169.74 308.99 169.425C308.951 169.188 308.931 168.991 308.675 168.873C308.517 168.795 308.301 168.735 308.045 168.735C307.533 168.735 306.942 168.932 306.804 169.306C306.726 169.503 306.647 169.661 306.647 169.858C306.647 169.878 306.647 169.897 306.647 169.917C306.666 170.074 306.706 170.252 306.706 170.429C306.706 170.527 306.686 170.646 306.666 170.744C306.666 170.783 306.666 170.803 306.666 170.842C306.666 171.02 306.726 171.256 306.726 171.433C306.726 171.453 306.726 171.473 306.726 171.492C306.726 171.532 306.706 171.571 306.706 171.61C306.706 171.709 306.726 171.788 306.726 171.886C306.726 171.985 306.706 172.083 306.647 172.162C306.509 172.398 306.115 172.615 305.859 172.713C305.682 172.792 305.485 172.792 305.308 172.792C305.19 172.792 305.071 172.792 304.953 172.792C304.894 172.792 304.855 172.792 304.796 172.792C304.481 172.792 304.146 172.753 303.87 172.575C303.201 172.122 302.945 172.024 302.511 171.335C302.374 171.138 302.196 170.823 302.137 170.567C302.039 170.291 301.921 169.503 301.921 169.228C301.921 169.05 301.901 168.854 301.901 168.657C301.901 168.42 301.921 168.204 301.96 167.967C302.098 167.318 302.295 166.727 302.689 166.195C302.827 166.018 302.945 165.782 303.142 165.624C303.339 165.447 303.634 165.348 303.87 165.23C304.363 164.974 304.815 164.896 305.367 164.738C305.564 164.679 305.78 164.699 305.997 164.679C306.174 164.659 306.312 164.659 306.45 164.659C306.706 164.659 306.922 164.679 307.237 164.777C307.533 164.856 307.927 164.955 308.321 164.955C308.636 164.955 308.931 164.896 309.167 164.718C309.345 164.58 309.423 164.324 309.423 164.069C309.423 163.793 309.344 163.537 309.226 163.36C309.108 163.182 308.911 163.104 308.734 163.005C307.986 162.572 307.06 162.473 306.194 162.473C305.997 162.473 305.761 162.454 305.505 162.454C305.327 162.454 305.13 162.473 304.993 162.493Z" fill="white" class="ZmewLfXx_29"/>
<path d="M227.756 116.219H227.705C227.244 116.219 226.784 116.679 226.272 116.884C225.657 117.243 224.48 117.55 223.712 117.55C223.661 117.55 223.609 117.55 223.558 117.55C221.817 117.345 220.435 116.27 218.797 115.655C218.182 115.451 217.466 115.348 216.749 115.348C215.315 115.348 213.83 115.707 212.653 116.27C211.936 116.679 210.759 117.089 210.4 117.857C210.247 118.164 210.144 118.523 210.144 118.83C210.144 119.495 210.503 120.007 211.322 120.161C211.373 120.161 211.424 120.161 211.475 120.161C212.294 120.161 213.114 119.495 213.779 119.137C214.394 118.83 215.366 118.574 216.134 118.574C216.186 118.574 216.288 118.574 216.339 118.574C217.056 118.625 217.67 118.983 218.387 119.239C219.206 119.598 219.974 120.059 220.793 120.366C221.51 120.622 222.278 120.724 223.046 120.724C223.712 120.724 224.326 120.622 224.889 120.571C225.401 120.519 225.964 120.519 226.323 120.417C226.732 120.263 227.04 120.007 227.398 119.751C228.115 119.239 228.78 118.881 229.19 118.113C229.292 117.908 229.344 117.703 229.344 117.499C229.344 116.782 228.78 116.219 227.961 116.219C227.91 116.219 227.808 116.219 227.756 116.219ZM227.808 122.055C227.04 122.209 226.425 122.926 225.964 123.489C225.606 124.103 224.838 124.666 224.07 124.666C224.019 124.666 224.019 124.666 223.968 124.666C223.558 124.666 223.097 124.666 222.688 124.615C222.073 124.41 221.408 124.257 220.845 123.95C219.36 123.233 218.029 122.311 216.339 122.055C215.93 122.004 215.418 121.902 215.008 121.902C214.138 122.106 213.267 122.26 212.499 122.721C211.424 123.386 210.247 124.974 209.939 126.202C209.888 126.407 209.837 126.612 209.837 126.817C209.837 127.533 210.298 128.148 211.117 128.148C211.219 128.148 211.271 128.148 211.373 128.148C212.294 128.045 212.397 127.277 212.858 126.663C213.472 125.895 214.598 125.383 215.571 125.383C215.674 125.383 215.827 125.383 215.93 125.383C217.261 125.69 218.233 126.202 219.411 126.817C220.179 127.226 221.203 127.533 222.022 127.738C222.534 127.841 222.995 127.943 223.507 127.943C224.275 127.943 225.043 127.738 225.913 127.38C227.142 126.868 228.371 125.639 229.088 124.564C229.292 124.257 229.6 124.001 229.702 123.642C229.804 123.438 229.804 123.233 229.804 123.079C229.804 122.362 229.088 122.004 228.32 122.004C228.166 122.004 227.961 122.004 227.808 122.055Z" fill="white" class="ZmewLfXx_30"/>
<path d="M238.997 104.904C237.205 105.365 235.362 106.389 233.928 107.464C233.263 107.873 232.546 108.232 232.034 108.897C231.675 109.307 231.573 109.665 231.573 110.024C231.573 110.74 232.187 111.355 233.16 111.611C233.365 111.662 233.519 111.662 233.672 111.662C234.389 111.662 234.85 111.304 235.464 110.894C235.976 110.536 236.539 110.28 237.051 109.972C237.256 109.87 237.358 109.768 237.461 109.768C237.563 109.768 237.614 109.921 237.768 110.228C237.819 110.382 237.819 110.536 237.819 110.689C237.819 111.048 237.768 111.457 237.768 111.764C237.768 111.867 237.768 111.969 237.768 112.02C237.768 112.225 237.768 112.43 237.768 112.635C237.768 113.505 237.819 114.324 237.87 115.195C237.922 115.707 237.922 116.27 237.922 116.782C237.922 118.523 237.768 120.315 237.768 122.106C237.768 123.233 237.768 124.41 237.768 125.537C237.768 127.277 237.768 128.967 237.563 130.708C237.461 131.527 237.307 132.551 237.307 133.524C237.307 134.138 237.358 134.804 237.563 135.367C237.819 136.237 238.792 136.8 239.662 136.8C239.816 136.8 239.97 136.8 240.072 136.749C240.994 136.544 241.352 135.776 241.608 135.008C241.71 134.65 241.71 134.292 241.71 133.984C241.71 133.728 241.71 133.421 241.71 133.165C241.71 133.012 241.71 132.909 241.71 132.756C241.71 131.578 241.761 130.452 241.864 129.377C241.864 129.223 241.864 129.069 241.864 128.916C241.864 128.557 241.864 128.25 241.864 127.943C241.864 127.789 241.864 127.636 241.864 127.482C241.864 127.175 241.813 126.817 241.813 126.51C241.813 126.407 241.813 126.305 241.813 126.254C241.915 125.588 241.966 124.974 241.966 124.308C242.017 122.874 242.069 121.236 242.069 119.803C242.069 119.444 242.069 119.137 242.069 118.83C242.069 117.089 241.915 115.451 241.915 113.71C241.915 113.505 241.915 113.249 241.915 113.044C241.915 112.686 241.915 112.276 241.915 111.918C241.915 110.792 241.966 109.614 242.069 108.488C242.12 108.078 242.12 107.566 242.12 107.054C242.12 106.645 242.12 106.235 242.017 105.877C241.761 105.006 240.942 104.75 240.174 104.75C239.765 104.75 239.355 104.801 238.997 104.904Z" fill="white" class="ZmewLfXx_31"/>
<path d="M257.69 105.416C257.587 105.416 257.434 105.416 257.28 105.416C257.024 105.416 256.819 105.416 256.563 105.416C256.307 105.416 256.051 105.416 255.847 105.467C255.283 105.569 254.72 105.569 254.208 105.569C253.44 105.569 252.672 105.569 251.904 105.672C251.136 105.825 250.164 105.825 249.549 106.337C249.037 106.747 248.986 107.72 248.986 108.641C248.986 109.153 248.986 109.614 248.986 109.921C248.884 110.996 248.781 112.02 248.781 113.096C248.781 113.505 248.781 113.915 248.832 114.324C248.832 114.836 248.935 115.451 248.935 115.963C248.935 116.577 248.832 117.191 248.832 117.755C248.832 118.369 248.935 118.983 249.396 119.547C249.805 119.956 250.317 119.905 250.829 120.007C251.802 120.161 252.672 120.212 253.645 120.315C254.976 120.417 256.051 120.878 257.383 121.185C258.099 121.39 258.97 121.492 259.533 122.055C260.608 123.028 261.069 124.718 261.274 126.1C261.325 126.407 261.325 126.663 261.325 126.97C261.325 127.687 261.222 128.455 261.069 129.172C260.352 132.141 257.178 133.165 254.259 133.165C253.645 133.165 253.031 133.114 252.416 133.012C251.546 132.909 250.215 132.244 249.191 132.244C248.474 132.244 247.911 132.551 247.604 133.421C247.553 133.575 247.553 133.677 247.553 133.831C247.553 134.752 248.372 135.776 249.14 136.084C250.676 136.647 252.263 136.954 253.901 136.954C254.003 136.954 254.157 136.954 254.259 136.954C255.13 136.954 255.949 136.749 256.819 136.647C257.485 136.596 258.151 136.596 258.867 136.34C259.635 136.084 260.25 135.623 260.915 135.213C261.478 134.855 262.093 134.548 262.554 134.036C263.526 133.063 264.499 131.425 264.806 130.145C265.165 128.865 265.37 127.482 265.37 126.1C265.37 123.796 264.755 121.492 263.27 119.751C261.222 117.396 257.895 117.396 255.13 116.884C254.413 116.731 253.389 116.884 252.775 116.526C252.416 116.321 252.314 115.911 252.263 115.553C252.212 114.632 252.058 113.505 252.058 112.532C252.058 112.328 252.058 112.174 252.058 111.969C252.109 111.355 252.16 110.433 252.621 109.972C253.236 109.307 254.618 109.358 255.437 109.204C255.847 109.153 256.256 109.102 256.666 109.102C257.229 109.102 257.792 109.153 258.407 109.153C258.714 109.153 259.021 109.153 259.328 109.102C259.891 109.051 260.557 108.897 261.12 108.897C261.222 108.897 261.376 108.897 261.478 108.897C261.734 108.897 261.99 108.897 262.246 108.897C262.605 108.897 263.014 108.897 263.373 109C263.526 109.051 263.629 109.051 263.782 109.051C264.755 109.051 265.779 108.232 265.779 107.054C265.779 106.952 265.779 106.901 265.779 106.798C265.677 105.723 264.653 105.672 263.834 105.416C263.219 105.211 262.656 105.16 262.144 105.16C261.069 105.16 260.096 105.416 258.867 105.467C258.56 105.467 258.202 105.416 257.895 105.416C257.843 105.416 257.741 105.416 257.69 105.416Z" fill="white" class="ZmewLfXx_32"/>
<path d="M296.684 104.853C294.739 105.211 294.637 107.157 294.022 108.641C293.664 109.665 293.152 110.638 292.691 111.662C292.025 113.3 290.899 114.734 289.977 116.219C289.056 117.755 288.442 119.444 287.469 120.929C286.803 121.953 285.984 122.823 285.318 123.847C284.192 125.383 281.837 129.786 280.915 131.476C280.301 132.551 279.431 134.292 279.379 135.52C279.379 136.442 280.045 137.005 280.864 137.005C280.967 137.005 281.069 137.005 281.171 137.005C282.195 136.903 282.349 135.828 282.605 135.008C283.066 133.728 283.782 132.449 284.55 131.322C285.165 130.298 287.213 126.458 287.981 125.486C288.493 124.871 289.056 124.308 289.465 123.642C289.926 123.028 290.182 122.311 290.541 121.646C290.899 120.98 291.36 120.417 291.769 119.751C292.179 119.086 292.435 118.318 292.845 117.55C293.613 116.321 294.534 115.143 295.251 113.864C295.763 113.044 296.07 112.174 296.428 111.355C297.196 109.819 297.964 108.129 298.118 106.44C298.118 106.389 298.118 106.286 298.118 106.235C298.118 105.467 297.708 104.853 296.94 104.853C296.838 104.853 296.787 104.853 296.684 104.853ZM277.946 105.006C277.28 105.057 276.615 105.262 275.949 105.365C274.004 105.723 272.263 105.877 270.983 107.617C270.369 108.437 269.754 109.46 269.601 110.484C269.498 110.843 269.498 111.15 269.498 111.508C269.498 111.867 269.498 112.225 269.498 112.532C269.447 113.147 269.345 113.761 269.345 114.376C269.345 114.58 269.345 114.836 269.396 115.041C269.498 115.655 269.857 116.167 270.113 116.731C270.471 117.345 270.676 118.062 271.085 118.574C272.109 119.803 274.004 120.622 275.437 121.185C276.103 121.441 276.768 121.492 277.434 121.492C277.895 121.492 278.355 121.492 278.816 121.441C280.147 121.287 281.171 121.031 282.042 120.11C282.605 119.547 283.219 119.086 283.68 118.42C284.499 117.243 285.114 115.502 285.165 114.017C285.165 113.249 285.062 112.43 285.062 111.662C285.062 110.996 284.96 110.331 284.96 109.665C284.96 109.307 284.602 108.897 284.499 108.539C284.038 107.157 282.656 105.979 281.427 105.313C280.864 105.006 280.557 104.955 280.199 104.955C279.891 104.955 279.584 105.006 279.175 105.006C279.072 105.006 279.021 105.006 278.919 105.006C278.714 105.006 278.458 105.006 278.253 105.006C278.151 105.006 278.048 105.006 277.946 105.006ZM276.768 108.232C277.076 108.129 277.332 108.129 277.639 108.129C278.458 108.129 279.226 108.385 279.994 108.641C280.608 108.846 281.069 108.897 281.427 109.46C281.786 110.126 281.888 110.945 281.888 111.764C281.888 112.328 281.837 112.891 281.837 113.352C281.837 115.195 281.376 117.089 279.328 117.652C278.919 117.755 278.509 117.806 278.048 117.806C277.383 117.806 276.717 117.703 276.256 117.499C275.642 117.14 274.823 116.833 274.362 116.321C273.44 115.348 272.928 113.915 272.928 112.43C272.928 111.304 273.236 110.177 273.952 109.307C274.618 108.539 275.847 108.437 276.768 108.232ZM300.934 120.827C299.603 121.031 298.118 121.134 296.889 121.697C295.2 122.465 293.561 123.95 292.742 125.69C292.179 126.868 291.821 128.25 291.821 129.633C291.821 131.22 292.23 132.756 293.203 133.984C293.613 134.394 294.176 134.752 294.637 135.06C295.763 135.879 297.094 136.698 298.425 136.903C298.528 136.903 298.63 136.903 298.732 136.903C299.398 136.903 300.115 136.8 300.78 136.698C303.135 136.288 305.849 134.599 307.078 132.346C307.436 131.834 307.538 131.169 307.743 130.605C307.948 129.94 308.204 129.428 308.255 128.762C308.255 128.609 308.255 128.455 308.255 128.301C308.255 125.537 306.463 123.898 304.518 122.362C304.057 121.953 303.596 121.697 303.187 121.39C302.623 121.031 302.009 120.775 301.343 120.775C301.19 120.775 301.087 120.827 300.934 120.827ZM299.244 124.462C299.552 124.41 299.961 124.359 300.32 124.359C300.678 124.359 300.985 124.41 301.241 124.564C301.855 124.922 302.623 125.281 303.187 125.742C304.108 126.356 304.927 127.431 304.979 128.762C304.979 128.813 304.979 128.813 304.979 128.865C304.979 131.169 302.777 132.244 300.934 132.756C300.371 132.909 299.654 133.063 298.988 133.063C298.476 133.063 298.067 132.96 297.657 132.756C297.196 132.5 296.838 132.09 296.428 131.783C295.814 131.22 295.353 130.349 295.2 129.479C295.2 129.325 295.149 129.223 295.149 129.121C295.149 128.557 295.353 128.045 295.558 127.533C295.763 126.868 295.968 126.356 296.428 125.844C297.145 125.076 298.272 124.718 299.244 124.462Z" fill="white" class="ZmewLfXx_33"/>
<path d="M197.981 48.6365C208.325 51.8284 229.169 61.663 229.789 75.4659C230.563 92.7195 213.564 92.5738 211.262 80.8416C208.96 69.1094 236.114 63.3464 255.86 90.8018" stroke="white" stroke-width="3" stroke-linecap="round" stroke-linejoin="round" class="ZmewLfXx_34"/>
<path d="M200.127 57.3533L194.136 46.78L206.115 45.735" stroke="white" stroke-width="3" stroke-linecap="round" stroke-linejoin="round" class="ZmewLfXx_35"/>
</g>
<defs>
<clipPath id="clip0_429_24593">
<path width="310" height="206" fill="white" transform="translate(0.000244141)" d="M0 0 L310 0 L310 206 L0 206 Z" class="ZmewLfXx_36"/>
</clipPath>
</defs>
<style data-made-with="vivus-instant">.ZmewLfXx_0{stroke-dasharray:567 569;stroke-dashoffset:568;}.start .ZmewLfXx_0{animation:ZmewLfXx_draw 666ms linear 0ms forwards;}.ZmewLfXx_1{stroke-dasharray:26 28;stroke-dashoffset:27;}.start .ZmewLfXx_1{animation:ZmewLfXx_draw 666ms linear 9ms forwards;}.ZmewLfXx_2{stroke-dasharray:26 28;stroke-dashoffset:27;}.start .ZmewLfXx_2{animation:ZmewLfXx_draw 666ms linear 18ms forwards;}.ZmewLfXx_3{stroke-dasharray:34 36;stroke-dashoffset:35;}.start .ZmewLfXx_3{animation:ZmewLfXx_draw 666ms linear 27ms forwards;}.ZmewLfXx_4{stroke-dasharray:37 39;stroke-dashoffset:38;}.start .ZmewLfXx_4{animation:ZmewLfXx_draw 666ms linear 37ms forwards;}.ZmewLfXx_5{stroke-dasharray:27 29;stroke-dashoffset:28;}.start .ZmewLfXx_5{animation:ZmewLfXx_draw 666ms linear 46ms forwards;}.ZmewLfXx_6{stroke-dasharray:27 29;stroke-dashoffset:28;}.start .ZmewLfXx_6{animation:ZmewLfXx_draw 666ms linear 55ms forwards;}.ZmewLfXx_7{stroke-dasharray:29 31;stroke-dashoffset:30;}.start .ZmewLfXx_7{animation:ZmewLfXx_draw 666ms linear 64ms forwards;}.ZmewLfXx_8{stroke-dasharray:206 208;stroke-dashoffset:207;}.start .ZmewLfXx_8{animation:ZmewLfXx_draw 666ms linear 74ms forwards;}.ZmewLfXx_9{stroke-dasharray:50 52;stroke-dashoffset:51;}.start .ZmewLfXx_9{animation:ZmewLfXx_draw 666ms linear 83ms forwards;}.ZmewLfXx_10{stroke-dasharray:49 51;stroke-dashoffset:50;}.start .ZmewLfXx_10{animation:ZmewLfXx_draw 666ms linear 92ms forwards;}.ZmewLfXx_11{stroke-dasharray:52 54;stroke-dashoffset:53;}.start .ZmewLfXx_11{animation:ZmewLfXx_draw 666ms linear 101ms forwards;}.ZmewLfXx_12{stroke-dasharray:28 30;stroke-dashoffset:29;}.start .ZmewLfXx_12{animation:ZmewLfXx_draw 666ms linear 111ms forwards;}.ZmewLfXx_13{stroke-dasharray:35 37;stroke-dashoffset:36;}.start .ZmewLfXx_13{animation:ZmewLfXx_draw 666ms linear 120ms forwards;}.ZmewLfXx_14{stroke-dasharray:50 52;stroke-dashoffset:51;}.start .ZmewLfXx_14{animation:ZmewLfXx_draw 666ms linear 129ms forwards;}.ZmewLfXx_15{stroke-dasharray:56 58;stroke-dashoffset:57;}.start .ZmewLfXx_15{animation:ZmewLfXx_draw 666ms linear 138ms forwards;}.ZmewLfXx_16{stroke-dasharray:36 38;stroke-dashoffset:37;}.start .ZmewLfXx_16{animation:ZmewLfXx_draw 666ms linear 148ms forwards;}.ZmewLfXx_17{stroke-dasharray:47 49;stroke-dashoffset:48;}.start .ZmewLfXx_17{animation:ZmewLfXx_draw 666ms linear 157ms forwards;}.ZmewLfXx_18{stroke-dasharray:41 43;stroke-dashoffset:42;}.start .ZmewLfXx_18{animation:ZmewLfXx_draw 666ms linear 166ms forwards;}.ZmewLfXx_19{stroke-dasharray:60 62;stroke-dashoffset:61;}.start .ZmewLfXx_19{animation:ZmewLfXx_draw 666ms linear 175ms forwards;}.ZmewLfXx_20{stroke-dasharray:58 60;stroke-dashoffset:59;}.start .ZmewLfXx_20{animation:ZmewLfXx_draw 666ms linear 185ms forwards;}.ZmewLfXx_21{stroke-dasharray:56 58;stroke-dashoffset:57;}.start .ZmewLfXx_21{animation:ZmewLfXx_draw 666ms linear 194ms forwards;}.ZmewLfXx_22{stroke-dasharray:63 65;stroke-dashoffset:64;}.start .ZmewLfXx_22{animation:ZmewLfXx_draw 666ms linear 203ms forwards;}.ZmewLfXx_23{stroke-dasharray:49 51;stroke-dashoffset:50;}.start .ZmewLfXx_23{animation:ZmewLfXx_draw 666ms linear 212ms forwards;}.ZmewLfXx_24{stroke-dasharray:39 41;stroke-dashoffset:40;}.start .ZmewLfXx_24{animation:ZmewLfXx_draw 666ms linear 222ms forwards;}.ZmewLfXx_25{stroke-dasharray:52 54;stroke-dashoffset:53;}.start .ZmewLfXx_25{animation:ZmewLfXx_draw 666ms linear 231ms forwards;}.ZmewLfXx_26{stroke-dasharray:60 62;stroke-dashoffset:61;}.start .ZmewLfXx_26{animation:ZmewLfXx_draw 666ms linear 240ms forwards;}.ZmewLfXx_27{stroke-dasharray:29 31;stroke-dashoffset:30;}.start .ZmewLfXx_27{animation:ZmewLfXx_draw 666ms linear 250ms forwards;}.ZmewLfXx_28{stroke-dasharray:63 65;stroke-dashoffset:64;}.start .ZmewLfXx_28{animation:ZmewLfXx_draw 666ms linear 259ms forwards;}.ZmewLfXx_29{stroke-dasharray:56 58;stroke-dashoffset:57;}.start .ZmewLfXx_29{animation:ZmewLfXx_draw 666ms linear 268ms forwards;}.ZmewLfXx_30{stroke-dasharray:94 96;stroke-dashoffset:95;}.start .ZmewLfXx_30{animation:ZmewLfXx_draw 666ms linear 277ms forwards;}.ZmewLfXx_31{stroke-dasharray:81 83;stroke-dashoffset:82;}.start .ZmewLfXx_31{animation:ZmewLfXx_draw 666ms linear 287ms forwards;}.ZmewLfXx_32{stroke-dasharray:131 133;stroke-dashoffset:132;}.start .ZmewLfXx_32{animation:ZmewLfXx_draw 666ms linear 296ms forwards;}.ZmewLfXx_33{stroke-dasharray:239 241;stroke-dashoffset:240;}.start .ZmewLfXx_33{animation:ZmewLfXx_draw 666ms linear 305ms forwards;}.ZmewLfXx_34{stroke-dasharray:134 136;stroke-dashoffset:135;}.start .ZmewLfXx_34{animation:ZmewLfXx_draw 666ms linear 314ms forwards;}.ZmewLfXx_35{stroke-dasharray:25 27;stroke-dashoffset:26;}.start .ZmewLfXx_35{animation:ZmewLfXx_draw 666ms linear 324ms forwards;}.ZmewLfXx_36{stroke-dasharray:1032 1034;stroke-dashoffset:1033;}.start .ZmewLfXx_36{animation:ZmewLfXx_draw 666ms linear 333ms forwards;}@keyframes ZmewLfXx_draw{100%{stroke-dashoffset:0;}}@keyframes ZmewLfXx_fade{0%{stroke-opacity:1;}92.3076923076923%{stroke-opacity:1;}100%{stroke-opacity:0;}}</style></svg>