<svg width="310" height="206" viewBox="0 0 310 206" fill="none" xmlns="http://www.w3.org/2000/svg" class="" style="">
<path d="M35.6849 43.7396C-17.9811 75.9682 -3.99604 167.186 62.5905 169.122C76.2369 169.509 89.7381 163.411 101.304 156.782C110.994 151.178 118.911 142.959 124.148 133.066C129.386 123.173 131.732 112.006 130.919 100.841C128.258 53.1275 74.3496 22.4474 35.6849 43.7396Z" stroke="white" stroke-width="3" stroke-linecap="round" stroke-linejoin="round" class="QhQrXzLY_0"/>
<path d="M30.5283 116.862C29.7687 115.784 13.5928 99.5704 12.807 98.5312" stroke="white" stroke-width="3" stroke-linecap="round" class="QhQrXzLY_1"/>
<path d="M25.0981 121.152C24.3385 120.074 13.593 108.783 12.8071 107.744" stroke="white" stroke-width="3" stroke-linecap="round" class="QhQrXzLY_2"/>
<path d="M27.1157 133.106C26.3561 132.028 15.6106 120.737 14.8247 119.698" stroke="white" stroke-width="3" stroke-linecap="round" class="QhQrXzLY_3"/>
<path d="M27.562 145.312C26.8024 144.234 16.6071 130.413 15.8213 129.374" stroke="white" stroke-width="3" stroke-linecap="round" class="QhQrXzLY_4"/>
<path d="M61.9671 56.8772L91.2897 95.3671L68.3048 117.231L40.2445 102.033L61.9671 56.8772Z" stroke="white" stroke-width="3" stroke-linecap="round" stroke-linejoin="round" class="QhQrXzLY_5"/>
<path d="M42.7423 115.913L68.8659 128.54L93.8852 109.287L70.8564 151.089L42.7423 115.913Z" stroke="white" stroke-width="3" stroke-linecap="round" stroke-linejoin="round" class="QhQrXzLY_6"/>
<path d="M156.878 87.4392L179.393 105.899L156.878 123.664" stroke="white" stroke-width="3" stroke-linecap="round" stroke-linejoin="round" class="QhQrXzLY_7"/>
<path d="M213.934 53.7525C213.934 50.2731 216.76 47.4525 220.247 47.4525V47.4525C230.031 46.5975 239.868 46.5342 249.663 47.263L252.208 47.4525H268.189H284.17C287.656 47.4525 290.482 50.2731 290.482 53.7525L289.467 103.642L290.482 153.532C290.482 157.011 287.656 159.832 284.17 159.832L268.189 158.738L252.208 159.832H220.247C216.76 159.832 213.934 157.011 213.934 153.532L214.753 103.642L213.934 53.7525Z" stroke="white" stroke-width="3" stroke-linecap="round" stroke-linejoin="round" class="QhQrXzLY_8"/>
<path d="M260.111 96.6169C261.101 96.6169 261.903 95.8162 261.903 94.8285C261.903 93.8408 261.101 93.0402 260.111 93.0402C259.121 93.0402 258.319 93.8408 258.319 94.8285C258.319 95.8162 259.121 96.6169 260.111 96.6169Z" fill="white" class="QhQrXzLY_9"/>
<path d="M240.415 96.6169C241.405 96.6169 242.207 95.8162 242.207 94.8285C242.207 93.8408 241.405 93.0402 240.415 93.0402C239.425 93.0402 238.623 93.8408 238.623 94.8285C238.623 95.8162 239.425 96.6169 240.415 96.6169Z" fill="white" class="QhQrXzLY_10"/>
<path d="M246.41 110.343C248.756 111.075 254.093 111.865 256.674 109.172" stroke="white" stroke-width="3" stroke-linecap="round" stroke-linejoin="round" class="QhQrXzLY_11"/>
<path d="M244.478 89.7241C243.353 88.7485 240.196 87.3827 236.559 89.7241" stroke="white" stroke-width="3" stroke-linecap="round" stroke-linejoin="round" class="QhQrXzLY_12"/>
<path d="M257.114 88.9562C258.629 87.8902 262.854 87.6422 264.446 89.9805" stroke="white" stroke-width="3" stroke-linecap="round" stroke-linejoin="round" class="QhQrXzLY_13"/>
<path d="M248.903 91.0049C250.711 94.3218 253.243 101.014 248.903 101.248C243.838 101.522 247.194 106.058 250.677 106.058" stroke="white" stroke-width="3" stroke-linecap="round" stroke-linejoin="round" class="QhQrXzLY_14"/>
<path d="M261.807 72.7131C266.255 74.9082 275.619 80.4981 277.496 85.2979" stroke="white" stroke-width="3" stroke-linecap="round" stroke-linejoin="round" class="QhQrXzLY_15"/>
<path d="M233.276 72.7131C235.964 71.0058 243.393 67.767 251.605 68.4694" stroke="white" stroke-width="3" stroke-linecap="round" stroke-linejoin="round" class="QhQrXzLY_16"/>
<path d="M230.713 107.914C230.772 109.836 230.608 114.204 229.488 116.301C228.087 118.922 226.161 122.242 230.713 122.067C235.266 121.893 230.713 130.804 240.519 130.804" stroke="white" stroke-width="3" stroke-linecap="round" stroke-linejoin="round" class="QhQrXzLY_17"/>
<path d="M274.71 106.955C274.857 109.882 275.326 116.76 276.03 120.857C276.91 125.979 271.777 129.784 263.419 129.93" stroke="white" stroke-width="3" stroke-linecap="round" stroke-linejoin="round" class="QhQrXzLY_18"/>
<path d="M227.861 85.9077C231.869 81.6152 243.286 72.5912 256.894 70.8352" stroke="white" stroke-width="3" stroke-linecap="round" stroke-linejoin="round" class="QhQrXzLY_19"/>
<path d="M227.471 94.7667C225.837 85.0981 228.732 65.4113 253.384 64.0134C278.037 62.6155 279.765 83.9332 277.547 94.7667" stroke="white" stroke-width="3" stroke-linecap="round" stroke-linejoin="round" class="QhQrXzLY_20"/>
<path d="M245.506 119.404C245.389 122.142 244.035 128.316 239.552 131.112C245.506 139.324 248.132 143.168 253.034 141.77C257.937 140.373 261.383 134.858 265.641 131.985C260.388 128.141 258.112 125.171 258.813 119.404" stroke="white" stroke-width="3" stroke-linecap="round" stroke-linejoin="round" class="QhQrXzLY_21"/>
<path d="M270.186 87.8903C267.614 82.8907 264.656 80.0777 259.163 76.245C252.043 83.116 240.798 79.6437 233.404 87.8903" stroke="white" stroke-width="3" stroke-linecap="round" stroke-linejoin="round" class="QhQrXzLY_22"/>
<path d="M232.899 97.2131C230.798 95.4658 226.245 93.2292 224.845 98.2615C223.094 104.552 231.323 108.746 233.774 107.173" stroke="white" stroke-width="3" stroke-linecap="round" stroke-linejoin="round" class="QhQrXzLY_23"/>
<path d="M271.517 97.2131C273.618 95.4658 278.171 93.2292 279.571 98.2615C281.322 104.552 273.093 108.746 270.642 107.173" stroke="white" stroke-width="3" stroke-linecap="round" stroke-linejoin="round" class="QhQrXzLY_24"/>
<path d="M233.249 88.127C232.549 96.1065 232.584 112.765 238.327 115.56C245.577 119.09 249.183 123.249 257.762 119.404C266.342 115.56 270.019 111.017 270.194 108.396C270.334 106.299 270.252 94.0097 270.194 88.127" stroke="white" stroke-width="3" stroke-linecap="round" stroke-linejoin="round" class="QhQrXzLY_25"/>
<path d="M216.405 35.3135C195.856 31.6863 197.77 47.5882 202.443 54.7573C202.582 54.9704 202.697 55.189 202.783 55.4284C204.99 61.5644 208.563 73.4237 202.654 87.39C198.04 103.946 204.992 120.771 206.45 129.336C206.477 129.494 206.489 129.646 206.487 129.806C206.345 139.09 198.038 151.321 202.654 164.898C210.049 181.057 226.482 167.363 236.342 172.567C246.201 177.771 262.908 171.198 272.494 169.28C282.08 167.363 294.404 179.414 303.169 164.898C309.619 156.567 298.663 135.048 298.251 122.6C298.235 122.135 298.349 121.686 298.546 121.264C305.019 107.43 301.461 85.2597 298.535 78.4456C298.351 78.0177 298.236 77.5659 298.248 77.1003C298.53 66.3562 305.003 49.1426 301.252 41.1041C297.454 32.9669 278.614 39.0667 268.94 37.5889C268.75 37.5599 268.57 37.5089 268.389 37.443C258.322 33.7669 245.461 36.4248 216.839 35.3606C216.697 35.3554 216.545 35.3382 216.405 35.3135Z" stroke="white" stroke-width="3" stroke-linecap="round" stroke-linejoin="round" class="QhQrXzLY_26"/>
<style data-made-with="vivus-instant">.QhQrXzLY_0{stroke-dasharray:410 412;stroke-dashoffset:411;}.start .QhQrXzLY_0{animation:QhQrXzLY_draw 1000ms linear 0ms forwards;}.QhQrXzLY_1{stroke-dasharray:26 28;stroke-dashoffset:27;}.start .QhQrXzLY_1{animation:QhQrXzLY_draw 1000ms linear 0ms forwards;}.QhQrXzLY_2{stroke-dasharray:19 21;stroke-dashoffset:20;}.start .QhQrXzLY_2{animation:QhQrXzLY_draw 1000ms linear 0ms forwards;}.QhQrXzLY_3{stroke-dasharray:19 21;stroke-dashoffset:20;}.start .QhQrXzLY_3{animation:QhQrXzLY_draw 1000ms linear 0ms forwards;}.QhQrXzLY_4{stroke-dasharray:20 22;stroke-dashoffset:21;}.start .QhQrXzLY_4{animation:QhQrXzLY_draw 1000ms linear 0ms forwards;}.QhQrXzLY_5{stroke-dasharray:163 165;stroke-dashoffset:164;}.start .QhQrXzLY_5{animation:QhQrXzLY_draw 1000ms linear 0ms forwards;}.QhQrXzLY_6{stroke-dasharray:154 156;stroke-dashoffset:155;}.start .QhQrXzLY_6{animation:QhQrXzLY_draw 1000ms linear 0ms forwards;}.QhQrXzLY_7{stroke-dasharray:58 60;stroke-dashoffset:59;}.start .QhQrXzLY_7{animation:QhQrXzLY_draw 1000ms linear 0ms forwards;}.QhQrXzLY_8{stroke-dasharray:368 370;stroke-dashoffset:369;}.start .QhQrXzLY_8{animation:QhQrXzLY_draw 1000ms linear 0ms forwards;}.QhQrXzLY_9{stroke-dasharray:12 14;stroke-dashoffset:13;}.start .QhQrXzLY_9{animation:QhQrXzLY_draw 1000ms linear 0ms forwards;}.QhQrXzLY_10{stroke-dasharray:12 14;stroke-dashoffset:13;}.start .QhQrXzLY_10{animation:QhQrXzLY_draw 1000ms linear 0ms forwards;}.QhQrXzLY_11{stroke-dasharray:11 13;stroke-dashoffset:12;}.start .QhQrXzLY_11{animation:QhQrXzLY_draw 1000ms linear 0ms forwards;}.QhQrXzLY_12{stroke-dasharray:9 11;stroke-dashoffset:10;}.start .QhQrXzLY_12{animation:QhQrXzLY_draw 1000ms linear 0ms forwards;}.QhQrXzLY_13{stroke-dasharray:9 11;stroke-dashoffset:10;}.start .QhQrXzLY_13{animation:QhQrXzLY_draw 1000ms linear 0ms forwards;}.QhQrXzLY_14{stroke-dasharray:22 24;stroke-dashoffset:23;}.start .QhQrXzLY_14{animation:QhQrXzLY_draw 1000ms linear 0ms forwards;}.QhQrXzLY_15{stroke-dasharray:21 23;stroke-dashoffset:22;}.start .QhQrXzLY_15{animation:QhQrXzLY_draw 1000ms linear 0ms forwards;}.QhQrXzLY_16{stroke-dasharray:20 22;stroke-dashoffset:21;}.start .QhQrXzLY_16{animation:QhQrXzLY_draw 1000ms linear 0ms forwards;}.QhQrXzLY_17{stroke-dasharray:32 34;stroke-dashoffset:33;}.start .QhQrXzLY_17{animation:QhQrXzLY_draw 1000ms linear 0ms forwards;}.QhQrXzLY_18{stroke-dasharray:32 34;stroke-dashoffset:33;}.start .QhQrXzLY_18{animation:QhQrXzLY_draw 1000ms linear 0ms forwards;}.QhQrXzLY_19{stroke-dasharray:34 36;stroke-dashoffset:35;}.start .QhQrXzLY_19{animation:QhQrXzLY_draw 1000ms linear 0ms forwards;}.QhQrXzLY_20{stroke-dasharray:93 95;stroke-dashoffset:94;}.start .QhQrXzLY_20{animation:QhQrXzLY_draw 1000ms linear 0ms forwards;}.QhQrXzLY_21{stroke-dasharray:64 66;stroke-dashoffset:65;}.start .QhQrXzLY_21{animation:QhQrXzLY_draw 1000ms linear 0ms forwards;}.QhQrXzLY_22{stroke-dasharray:45 47;stroke-dashoffset:46;}.start .QhQrXzLY_22{animation:QhQrXzLY_draw 1000ms linear 0ms forwards;}.QhQrXzLY_23{stroke-dasharray:26 28;stroke-dashoffset:27;}.start .QhQrXzLY_23{animation:QhQrXzLY_draw 1000ms linear 0ms forwards;}.QhQrXzLY_24{stroke-dasharray:26 28;stroke-dashoffset:27;}.start .QhQrXzLY_24{animation:QhQrXzLY_draw 1000ms linear 0ms forwards;}.QhQrXzLY_25{stroke-dasharray:88 90;stroke-dashoffset:89;}.start .QhQrXzLY_25{animation:QhQrXzLY_draw 1000ms linear 0ms forwards;}.QhQrXzLY_26{stroke-dasharray:468 470;stroke-dashoffset:469;}.start .QhQrXzLY_26{animation:QhQrXzLY_draw 1000ms linear 0ms forwards;}@keyframes QhQrXzLY_draw{100%{stroke-dashoffset:0;}}@keyframes QhQrXzLY_fade{0%{stroke-opacity:1;}92.3076923076923%{stroke-opacity:1;}100%{stroke-opacity:0;}}</style></svg>