<svg width="310" height="206" viewBox="0 0 310 206" fill="none" xmlns="http://www.w3.org/2000/svg" class="" style="">
<path d="M214.089 98.6987V102.779C214.089 107.491 217.918 111.31 222.641 111.31H297.536C302.259 111.31 306.089 107.491 306.089 102.779V98.6987M214.089 98.6987H306.089M214.089 98.6987V73.5785L214.565 60.6913L214.434 57.3208C214.245 52.4828 218.126 48.4582 222.98 48.4582H261.035L282.777 49.2092L297.26 48.7426C302.089 48.5871 306.089 52.4499 306.089 57.2697V98.6987" stroke="white" stroke-width="3" class="cIJYzuhp_0"/>
<path d="M239.913 124.458H280.264" stroke="white" stroke-width="3" stroke-linecap="round" class="cIJYzuhp_1"/>
<path d="M253.595 111.565L249.548 124.458H270.629L266.583 111.565H253.595Z" stroke="white" stroke-width="3" stroke-linecap="round" class="cIJYzuhp_2"/>
<path d="M248.47 72.1885L258.079 85.7676C258.443 86.2817 259.185 86.3356 259.62 85.8794L280.264 64.1884" stroke="white" stroke-width="3" stroke-linecap="round" class="cIJYzuhp_3"/>
<path d="M3.91138 98.6987V102.779C3.91138 107.491 7.7406 111.31 12.4642 111.31H87.3586C92.0822 111.31 95.9114 107.491 95.9114 102.779V98.6987M3.91138 98.6987H95.9114M3.91138 98.6987V73.5785L4.38767 60.6913L4.25643 57.3208C4.06807 52.4828 7.94903 48.4582 12.8028 48.4582H50.8574L72.6001 49.2092L87.0825 48.7426C91.9118 48.5871 95.9114 52.4499 95.9114 57.2697V98.6987" stroke="white" stroke-width="3" class="cIJYzuhp_4"/>
<path d="M29.7358 124.458H70.0867" stroke="white" stroke-width="3" stroke-linecap="round" class="cIJYzuhp_5"/>
<path d="M43.4174 111.565L39.3711 124.458H60.4522L56.4058 111.565H43.4174Z" stroke="white" stroke-width="3" stroke-linecap="round" class="cIJYzuhp_6"/>
<path d="M18.1975 80.2206L22.1442 76.0922M22.1442 76.0922L27.7807 73.0333M22.1442 76.0922L16.3408 73.0333M22.1442 76.0922L26.463 80.58M22.1442 76.0922L22.1442 69.6792" stroke="white" stroke-width="3" stroke-linecap="round" stroke-linejoin="round" class="cIJYzuhp_7"/>
<path d="M36.7649 80.2206L40.7116 76.0922M40.7116 76.0922L46.3481 73.0333M40.7116 76.0922L34.9081 73.0333M40.7116 76.0922L45.0304 80.58M40.7116 76.0922L40.7116 69.6792" stroke="white" stroke-width="3" stroke-linecap="round" stroke-linejoin="round" class="cIJYzuhp_8"/>
<path d="M55.3318 80.2206L59.2785 76.0922M59.2785 76.0922L64.9149 73.0333M59.2785 76.0922L53.475 73.0333M59.2785 76.0922L63.5973 80.58M59.2785 76.0922L59.2785 69.6792" stroke="white" stroke-width="3" stroke-linecap="round" stroke-linejoin="round" class="cIJYzuhp_9"/>
<path d="M73.8987 80.2206L77.8454 76.0922M77.8454 76.0922L83.4818 73.0333M77.8454 76.0922L72.0419 73.0333M77.8454 76.0922L82.1642 80.58M77.8454 76.0922L77.8454 69.6792" stroke="white" stroke-width="3" stroke-linecap="round" stroke-linejoin="round" class="cIJYzuhp_10"/>
<path d="M111.394 76.4376L122.056 85.179L111.394 93.5914" stroke="white" stroke-width="3" stroke-linecap="round" stroke-linejoin="round" class="cIJYzuhp_11"/>
<path d="M190.483 76.4376L201.144 85.179L190.483 93.5914" stroke="white" stroke-width="3" stroke-linecap="round" stroke-linejoin="round" class="cIJYzuhp_12"/>
<path width="41.3978" height="68" stroke="white" stroke-width="3" stroke-linejoin="round" d="M 142.212,49.8063 L 169.60979999999998,49.8063 A 7,7,0,0,1,176.60979999999998,56.8063 L 176.60979999999998,110.8063 A 7,7,0,0,1,169.60979999999998,117.8063 L 142.212,117.8063 A 7,7,0,0,1,135.212,110.8063 L 135.212,56.8063 A 7,7,0,0,1,142.212,49.8063" class="cIJYzuhp_13"/>
<path d="M143.963 81.6326C143.963 80.1382 145.174 78.9267 146.669 78.9267V78.9267H149.645L151.98 79.1551C152.227 79.1793 152.476 79.1804 152.723 79.1583L155.328 78.9267H162.926C165.042 78.9267 166.792 80.5746 166.919 82.6866L166.963 83.4267L166.692 87.9267V92.4267V92.8325C166.692 95.0781 164.844 96.8837 162.599 96.8314L155.328 96.662L148.056 96.8314C145.811 96.8837 143.963 95.0781 143.963 92.8325V81.6326Z" stroke="white" stroke-width="3" class="cIJYzuhp_14"/>
<path fill="white" d="M152.62212,85.8091A2.70588,2.64706 0,1,1 158.03388,85.8091A2.70588,2.64706 0,1,1 152.62212,85.8091" class="cIJYzuhp_15"/>
<path d="M155.328 86.3385V92.6914" stroke="white" stroke-width="3" stroke-linecap="round" class="cIJYzuhp_16"/>
<path d="M149.375 78.662V75.4856C149.375 72.4155 151.919 69.9267 155.057 69.9267C157.329 69.9267 159.289 71.2305 160.198 73.1149" stroke="white" stroke-width="3" stroke-linecap="round" class="cIJYzuhp_17"/>
<path d="M149.027 57.149H162.795" stroke="white" stroke-width="3" stroke-linecap="round" stroke-linejoin="round" class="cIJYzuhp_18"/>
<path d="M30.5106 144.382C30.4946 144.382 30.4786 144.382 30.4626 144.382C30.2066 144.382 29.9186 144.526 29.8066 144.766C29.7586 144.926 29.7426 145.214 29.7426 145.486C29.7426 145.678 29.7586 145.854 29.7586 145.966C29.7586 146.03 29.7586 146.078 29.7586 146.142C29.7586 146.606 29.7106 147.07 29.6946 147.518C29.6946 147.694 29.6946 147.87 29.6946 148.03C29.6946 148.206 29.6946 148.366 29.6786 148.526C29.6306 148.974 29.6466 149.566 29.6306 150.03C29.6306 150.478 29.5986 151.422 29.5986 151.87C29.6146 152.174 29.6626 152.462 29.6786 152.766C29.7106 153.23 29.6306 153.87 29.9186 154.286C30.1266 154.59 30.3826 154.638 30.6706 154.638C30.8306 154.638 31.0066 154.622 31.1666 154.622C31.3746 154.638 31.5826 154.686 31.7906 154.686C31.8386 154.686 31.8706 154.686 31.9186 154.686C32.3186 154.654 32.7186 154.542 33.1346 154.526C33.1506 154.526 33.1826 154.526 33.1986 154.526C33.3106 154.526 33.4226 154.542 33.5346 154.542C33.5666 154.542 33.5826 154.542 33.6146 154.542C33.7746 154.526 33.9186 154.446 34.0786 154.43C34.2226 154.414 34.3666 154.43 34.5106 154.382C34.8786 154.254 35.0546 153.934 35.0546 153.614C35.0546 153.358 34.9266 153.086 34.7026 152.91C34.5746 152.814 34.3986 152.782 34.2386 152.75C33.9186 152.654 33.6946 152.638 33.4386 152.638C33.2466 152.638 33.0386 152.654 32.7826 152.67C32.5906 152.686 32.3666 152.782 32.1586 152.782C32.0466 152.782 31.9346 152.75 31.8546 152.654C31.7906 152.574 31.7746 152.462 31.7746 152.35C31.7746 152.286 31.7746 152.206 31.7746 152.142C31.7586 151.774 31.7266 151.438 31.7266 151.07C31.7266 150.798 31.6786 150.142 31.6786 149.79C31.6786 149.742 31.6786 149.71 31.6786 149.678C31.6946 149.55 31.6946 149.406 31.6946 149.262C31.6946 148.942 31.6786 148.606 31.6786 148.286C31.6786 148.206 31.6786 148.126 31.6786 148.046C31.6786 147.982 31.6786 147.902 31.6786 147.838C31.6786 147.55 31.6626 147.262 31.6466 146.974C31.6466 146.814 31.6786 146.654 31.6786 146.494C31.6786 146.446 31.6626 146.398 31.6626 146.334C31.6626 146.286 31.6626 146.222 31.6626 146.174C31.6626 145.966 31.6946 145.71 31.6946 145.486C31.6946 145.182 31.6466 144.894 31.4066 144.67C31.3106 144.558 31.1666 144.526 31.0386 144.494C30.9266 144.446 30.6386 144.414 30.5106 144.382Z" fill="white" class="cIJYzuhp_19"/>
<path d="M40.2614 144.478C39.0294 144.606 37.6694 145.198 37.0774 146.382C36.5494 147.246 36.5334 147.678 36.3734 148.414C36.2934 148.606 36.2294 149.086 36.2294 149.358C36.2294 149.582 36.2614 149.79 36.2774 150.014C36.2774 150.174 36.2454 150.334 36.2454 150.494C36.2454 150.75 36.3734 151.038 36.4214 151.294C36.4694 151.454 36.4534 151.614 36.5014 151.774C37.0294 153.39 38.5174 154.942 40.2614 154.942C42.0214 154.942 43.8454 154.494 44.8694 151.934C45.0454 151.502 45.0774 150.606 45.0774 150.382C45.0774 150.174 45.0614 149.95 45.0614 149.742C45.0614 149.534 45.0774 149.006 45.0774 148.814C45.0774 147.838 44.5494 146.718 44.1494 146.158C43.1894 144.782 41.1894 144.462 40.7254 144.462C40.7094 144.462 40.7094 144.462 40.6934 144.462C40.5494 144.462 40.3894 144.462 40.2614 144.478ZM40.5014 146.558C40.5654 146.542 40.5974 146.542 40.6774 146.542C41.1574 146.542 41.8614 146.846 42.0054 147.054C42.1814 147.23 42.2774 147.518 42.4214 147.726C42.8054 148.27 42.9974 149.294 42.9974 149.966C42.9974 151.102 42.5014 152.014 41.5414 152.59C41.1574 152.798 40.8854 152.894 40.4374 152.894C38.7734 152.894 38.5334 150.83 38.5334 149.79C38.5334 148.83 38.8854 147.278 39.7654 146.766C39.9574 146.67 40.2774 146.622 40.5014 146.558Z" fill="white" class="cIJYzuhp_20"/>
<path d="M51.7727 144.846C51.5807 144.878 51.3567 144.894 51.1807 144.942C51.0047 144.99 50.8287 144.99 50.6367 145.054C50.3647 145.134 50.1247 145.294 49.8527 145.438C49.4207 145.678 48.9567 145.95 48.5887 146.318C48.4287 146.462 48.3327 146.574 48.1887 146.734C48.0767 146.91 47.9007 147.134 47.7887 147.326C47.6447 147.534 47.5647 147.774 47.4527 148.014C47.3727 148.222 47.3407 148.526 47.2767 148.766C47.1807 149.102 47.1487 149.406 47.1487 149.726C47.1487 150.014 47.1807 150.318 47.2127 150.622C47.2287 150.878 47.2127 151.182 47.2767 151.438C47.4527 152.446 47.7887 153.214 48.5567 153.822C48.7487 153.982 48.8927 154.158 49.1167 154.286C49.4527 154.51 49.9327 154.67 50.3327 154.782C50.7167 154.862 51.2287 154.846 51.5967 154.862C51.7567 154.862 52.2047 154.862 52.3487 154.862C52.3647 154.862 52.3967 154.862 52.4127 154.862C52.5887 154.862 52.7167 154.814 52.8767 154.766C52.9887 154.734 53.1007 154.734 53.2127 154.702C53.6607 154.542 54.3647 154.126 54.7167 153.822C54.8607 153.694 54.8127 153.598 54.9087 153.406C54.9887 153.262 55.0047 153.086 55.0047 152.926C55.0047 152.782 54.9887 152.638 54.9887 152.526C54.9887 152.494 54.9887 152.478 54.9887 152.446C55.0207 152.062 55.0687 151.662 55.0687 151.278C55.0527 151.006 55.0527 150.734 55.0207 150.478C54.9887 150.286 54.9727 150.126 54.7647 150.03C54.6367 149.966 54.4607 149.918 54.2527 149.918C53.8367 149.918 53.3567 150.078 53.2447 150.382C53.1807 150.542 53.1167 150.67 53.1167 150.83C53.1167 150.846 53.1167 150.862 53.1167 150.878C53.1327 151.006 53.1647 151.15 53.1647 151.294C53.1647 151.374 53.1487 151.47 53.1327 151.55C53.1327 151.582 53.1327 151.598 53.1327 151.63C53.1327 151.774 53.1807 151.966 53.1807 152.11C53.1807 152.126 53.1807 152.142 53.1807 152.158C53.1807 152.19 53.1647 152.222 53.1647 152.254C53.1647 152.334 53.1807 152.398 53.1807 152.478C53.1807 152.558 53.1647 152.638 53.1167 152.702C53.0047 152.894 52.6847 153.07 52.4767 153.15C52.3327 153.214 52.1727 153.214 52.0287 153.214C51.9327 153.214 51.8367 153.214 51.7407 153.214C51.6927 153.214 51.6607 153.214 51.6127 153.214C51.3567 153.214 51.0847 153.182 50.8607 153.038C50.3167 152.67 50.1087 152.59 49.7567 152.03C49.6447 151.87 49.5007 151.614 49.4527 151.406C49.3727 151.182 49.2767 150.542 49.2767 150.318C49.2767 150.174 49.2607 150.014 49.2607 149.854C49.2607 149.662 49.2767 149.486 49.3087 149.294C49.4207 148.766 49.5807 148.286 49.9007 147.854C50.0127 147.71 50.1087 147.518 50.2687 147.39C50.4287 147.246 50.6687 147.166 50.8607 147.07C51.2607 146.862 51.6287 146.798 52.0767 146.67C52.2367 146.622 52.4127 146.638 52.5887 146.622C52.7327 146.606 52.8447 146.606 52.9567 146.606C53.1647 146.606 53.3407 146.622 53.5967 146.702C53.8367 146.766 54.1567 146.846 54.4767 146.846C54.7327 146.846 54.9727 146.798 55.1647 146.654C55.3087 146.542 55.3727 146.334 55.3727 146.126C55.3727 145.902 55.3087 145.694 55.2127 145.55C55.1167 145.406 54.9567 145.342 54.8127 145.262C54.2047 144.91 53.4527 144.83 52.7487 144.83C52.5887 144.83 52.3967 144.814 52.1887 144.814C52.0447 144.814 51.8847 144.83 51.7727 144.846Z" fill="white" class="cIJYzuhp_21"/>
<path d="M58.4893 144.862C58.2173 144.91 57.8973 145.134 57.8813 145.422C57.8493 145.582 57.8013 145.742 57.8013 145.902C57.8013 145.934 57.8173 145.982 57.8173 146.014C57.8493 146.142 57.8493 146.286 57.8493 146.43C57.8493 146.526 57.8493 146.606 57.8493 146.702C57.8653 147.502 57.9773 148.302 57.9773 149.102C57.9773 149.15 57.9773 149.198 57.9773 149.246C57.9773 149.822 57.8973 150.382 57.8973 150.958C57.8973 151.342 57.9773 151.71 57.9773 152.078C57.9773 152.222 57.9613 152.366 57.9613 152.51C57.9613 152.542 57.9613 152.59 57.9613 152.622C57.9933 153.118 58.1053 153.678 58.4093 154.11C58.5533 154.302 58.7933 154.51 59.0333 154.51C59.0493 154.51 59.0653 154.51 59.0813 154.51C59.1933 154.494 59.4653 154.446 59.5613 154.382C60.0413 154.126 60.1373 153.662 60.1373 153.182C60.1373 152.894 60.1053 152.606 60.0893 152.35C60.0573 152.094 60.0573 151.854 60.0573 151.598C60.0253 151.342 59.9773 151.102 59.9773 150.846C59.9773 150.798 59.9773 150.75 59.9773 150.702C59.9773 150.654 59.9773 150.606 59.9773 150.558C59.9773 150.158 59.9293 149.758 59.9133 149.358C59.8973 148.446 59.7373 147.534 59.7373 146.606C59.7373 146.558 59.7373 146.526 59.7373 146.478C59.7373 146.286 59.6893 146.094 59.6893 145.902C59.6573 145.662 59.7053 145.326 59.5133 145.134C59.3693 144.99 59.0973 144.958 58.9053 144.91C58.8093 144.878 58.6973 144.846 58.6013 144.846C58.5693 144.846 58.5373 144.846 58.4893 144.862Z" fill="white" class="cIJYzuhp_22"/>
<path d="M68.3842 150.958C68.3682 150.958 68.3682 150.974 68.3522 150.974C68.2082 150.974 67.9682 150.43 67.8242 150.142C67.5682 149.726 67.3282 149.31 67.0722 148.878C66.8802 148.558 66.6402 148.254 66.4162 147.95C66.0482 147.422 65.6962 146.894 65.2962 146.366C65.0722 146.014 64.9442 145.582 64.6562 145.262C64.3842 144.958 63.9842 144.862 63.6002 144.862C63.4882 144.862 63.3762 144.862 63.2642 144.878C63.0402 144.91 62.8642 145.086 62.8162 145.31C62.7842 145.502 62.7682 145.694 62.7682 145.87C62.7682 146.014 62.7842 146.158 62.7842 146.302C62.7842 146.398 62.7842 146.51 62.7842 146.606C62.7842 146.782 62.7842 146.958 62.7842 147.118C62.7842 147.294 62.7842 147.454 62.8002 147.614C62.8162 148.03 62.8322 148.414 62.8322 148.83C62.8162 149.118 62.7842 149.422 62.7842 149.726C62.7842 149.774 62.7842 149.822 62.7842 149.87C62.8002 150.078 62.8162 150.27 62.8322 150.478C62.8482 150.574 62.8482 150.686 62.8482 150.798C62.8482 151.022 62.8322 151.246 62.8322 151.454C62.8322 151.63 62.8482 151.774 62.8482 151.934C62.8322 152.334 62.8002 152.734 62.8002 153.118C62.8002 153.47 62.8322 153.806 62.9442 154.142C63.1042 154.542 63.5202 154.862 63.9202 154.862C64.1762 154.862 64.4162 154.734 64.5602 154.414C64.6242 154.238 64.6402 154.03 64.6402 153.822C64.6402 153.71 64.6402 153.582 64.6402 153.47C64.6402 153.07 64.6722 152.686 64.6722 152.27C64.6722 152.062 64.6562 151.838 64.6562 151.614C64.6562 151.278 64.6722 150.974 64.6722 150.622C64.6562 150.334 64.6562 150.046 64.6402 149.758C64.6402 149.678 64.6402 149.614 64.6402 149.534C64.6402 149.278 64.6722 149.022 64.8002 148.974C64.8162 148.974 64.8482 148.958 64.8642 148.958C65.0562 148.958 65.1362 149.342 65.2962 149.598C65.6962 150.174 65.9682 150.862 66.3362 151.454C66.6242 151.918 66.9602 152.398 67.3122 152.814C67.4082 152.958 67.5682 153.07 67.6802 153.214C68.0962 153.71 68.4642 154.574 69.1682 154.574C69.1842 154.574 69.1842 154.574 69.2002 154.574C69.7602 154.542 70.3202 153.902 70.3842 153.326C70.4002 153.182 70.4002 153.038 70.4002 152.91C70.4002 152.51 70.3522 152.142 70.3522 151.726C70.3522 151.454 70.3362 151.198 70.3362 150.926C70.3362 150.862 70.3362 150.798 70.3362 150.734C70.3362 150.43 70.2882 150.11 70.2882 149.806C70.2562 148.99 70.2722 148.174 70.2242 147.358C70.2082 147.134 70.2082 146.894 70.2082 146.67C70.2082 146.446 70.2082 146.222 70.2242 145.982C70.2402 145.838 70.2722 145.678 70.2722 145.534C70.2722 145.47 70.2722 145.39 70.2402 145.326C70.0962 144.91 69.6642 144.75 69.2642 144.75C69.1522 144.75 69.0402 144.75 68.9442 144.782C68.7842 144.83 68.6242 144.846 68.5122 145.006C68.4162 145.182 68.4482 145.39 68.4322 145.598C68.4322 145.87 68.4002 146.158 68.3842 146.446C68.3842 146.894 68.4002 147.294 68.4002 147.726C68.4002 147.838 68.4002 147.95 68.4002 148.062C68.3842 148.254 68.3842 148.462 68.3842 148.654C68.3842 148.878 68.3842 149.102 68.3842 149.326C68.3842 149.438 68.3842 149.534 68.3842 149.646C68.3842 149.918 68.4322 150.158 68.4322 150.414C68.4322 150.478 68.4482 150.542 68.4482 150.622C68.4482 150.766 68.4322 150.926 68.3842 150.958Z" fill="white" class="cIJYzuhp_23"/>
<path d="M109 144.878C108.68 144.926 108.184 144.894 107.928 145.086C107.752 145.23 107.72 145.454 107.656 145.662C107.592 145.95 107.464 146.238 107.336 146.51C107.16 146.878 107.08 147.246 106.952 147.63C106.792 148.03 106.552 148.414 106.44 148.814C106.344 149.102 106.36 149.422 106.264 149.726C106.184 149.982 106.04 150.254 105.96 150.526C105.832 150.862 105.832 151.23 105.688 151.534C105.512 151.886 105.432 152.206 105.304 152.558C105.208 152.894 105.048 153.198 104.952 153.518C104.92 153.662 104.84 153.838 104.84 154.014C104.84 154.126 104.872 154.254 104.984 154.334C105.064 154.43 105.224 154.43 105.32 154.494C105.448 154.542 105.544 154.622 105.672 154.67C105.736 154.686 105.8 154.702 105.848 154.702C106.12 154.702 106.36 154.478 106.52 154.27C106.856 153.806 106.904 153.15 107.096 152.606C107.144 152.446 107.176 152.27 107.304 152.142C107.512 151.886 107.848 151.822 108.2 151.822C108.408 151.822 108.6 151.838 108.776 151.854C108.824 151.854 108.856 151.854 108.904 151.854C109.048 151.854 109.224 151.838 109.4 151.838C109.688 151.838 109.976 151.886 110.152 152.078C110.296 152.254 110.344 152.51 110.408 152.718C110.488 152.974 110.584 153.214 110.648 153.47C110.792 153.838 110.888 154.27 111.256 154.51C111.384 154.59 111.56 154.606 111.704 154.622C111.784 154.638 111.848 154.638 111.928 154.638C111.992 154.638 112.04 154.638 112.104 154.622C112.616 154.51 112.792 154.078 112.792 153.63C112.792 153.278 112.696 152.926 112.584 152.67C112.312 152.014 112.104 151.358 111.88 150.686C111.752 150.334 111.544 149.982 111.416 149.614C111.16 148.718 110.904 147.79 110.632 146.878C110.584 146.75 110.584 146.59 110.536 146.462C110.456 146.27 110.36 146.11 110.28 145.934C110.184 145.71 110.152 145.486 110.024 145.278C109.816 144.974 109.56 144.862 109.24 144.862C109.16 144.862 109.08 144.862 109 144.878ZM108.776 147.582C108.904 147.614 109.016 147.918 109.048 148.046C109.224 148.462 109.336 149.294 109.432 149.742C109.448 149.822 109.48 149.95 109.48 150.062C109.48 150.126 109.48 150.19 109.448 150.222C109.416 150.27 109.384 150.286 109.32 150.286C109.24 150.286 109.144 150.254 109.064 150.254C109.032 150.254 109 150.254 108.968 150.254C108.824 150.254 108.664 150.27 108.52 150.27C108.344 150.27 108.184 150.254 108.024 150.19C107.944 150.158 107.928 150.094 107.928 150.014C107.928 149.902 107.976 149.758 107.992 149.678C108.12 149.198 108.28 148.494 108.488 148.046C108.536 147.918 108.632 147.582 108.76 147.582H108.776Z" fill="white" class="cIJYzuhp_24"/>
<path d="M114.732 145.118C114.732 145.134 114.732 145.15 114.732 145.166C114.732 145.278 114.764 145.39 114.764 145.502C114.7 145.902 114.684 146.302 114.684 146.718C114.684 146.974 114.7 147.23 114.7 147.47C114.7 147.63 114.732 147.79 114.732 147.966C114.732 147.998 114.732 148.03 114.732 148.062C114.716 148.334 114.7 148.59 114.7 148.862C114.7 149.23 114.716 149.598 114.748 149.966C114.764 150.286 114.748 150.574 114.812 150.878C114.86 151.086 114.892 151.342 114.94 151.55C114.988 151.742 115.052 152.03 115.148 152.206C115.292 152.59 115.5 152.91 115.724 153.246C115.996 153.678 116.3 153.982 116.764 154.27C116.956 154.382 117.068 154.494 117.276 154.558C117.58 154.686 118.268 154.734 118.62 154.798C118.7 154.814 118.78 154.814 118.86 154.814C119.164 154.814 119.5 154.75 119.772 154.702C120.524 154.542 121.148 153.918 121.548 153.326C121.724 153.07 121.852 152.862 121.948 152.574C122.076 152.238 122.22 151.838 122.268 151.47C122.332 151.07 122.316 150.638 122.332 150.238C122.348 150.014 122.348 149.822 122.348 149.646C122.348 149.294 122.332 148.974 122.332 148.542C122.332 148.382 122.348 148.158 122.348 147.966C122.348 147.918 122.348 147.87 122.348 147.838C122.332 147.694 122.332 147.534 122.332 147.374C122.332 147.07 122.348 146.718 122.348 146.398C122.348 146.19 122.348 145.982 122.316 145.822C122.3 145.598 122.284 145.342 122.092 145.198C121.9 145.006 121.436 144.894 121.18 144.894C121.164 144.894 121.148 144.894 121.132 144.894C120.492 144.894 120.348 145.518 120.348 146.03C120.348 146.126 120.364 146.222 120.364 146.302C120.364 146.366 120.364 146.462 120.364 146.558C120.364 146.718 120.364 146.894 120.364 147.07C120.364 147.246 120.364 147.422 120.38 147.534C120.396 147.678 120.396 147.806 120.396 147.918C120.396 148.03 120.396 148.158 120.396 148.302C120.396 148.35 120.396 148.398 120.396 148.446C120.396 148.654 120.412 148.894 120.412 149.07C120.396 149.902 120.412 150.606 120.236 151.422C120.108 151.982 119.82 152.414 119.308 152.75C119.132 152.862 118.972 152.942 118.796 152.942C118.732 152.942 118.668 152.926 118.604 152.91C117.868 152.686 117.644 152.638 117.308 151.998C117.1 151.646 117.1 151.006 117.004 150.606C116.924 150.318 116.892 149.982 116.892 149.662C116.892 149.374 116.924 149.07 116.924 148.798C116.924 148.75 116.924 148.718 116.924 148.67C116.924 148.318 116.876 147.966 116.844 147.614C116.844 147.438 116.876 147.262 116.876 147.086C116.876 147.054 116.876 147.022 116.876 146.99C116.844 146.702 116.812 146.414 116.812 146.11C116.812 146.046 116.812 145.982 116.812 145.918C116.812 145.87 116.812 145.838 116.812 145.79C116.812 145.102 116.572 144.542 115.916 144.542C115.5 144.542 114.796 144.622 114.732 145.118Z" fill="white" class="cIJYzuhp_25"/>
<path d="M128.255 144.702C128.175 144.702 128.111 144.686 128.031 144.686C127.791 144.686 127.551 144.718 127.311 144.718C127.071 144.718 126.703 144.702 126.351 144.702C126.095 144.702 125.855 144.718 125.663 144.734C125.375 144.766 125.087 144.91 124.831 144.99C124.479 145.102 124.367 145.31 124.335 145.726C124.335 145.822 124.319 145.918 124.319 145.998C124.319 146.11 124.335 146.206 124.399 146.302C124.575 146.542 124.447 146.782 124.767 146.83C124.847 146.846 124.959 146.846 125.071 146.846C125.215 146.846 125.391 146.846 125.567 146.846C126.095 146.846 126.655 146.894 126.735 147.326C126.751 147.422 126.767 147.502 126.767 147.582C126.767 147.806 126.703 148.014 126.687 148.254C126.671 148.398 126.671 148.542 126.671 148.702C126.671 148.878 126.671 149.054 126.671 149.23C126.671 149.326 126.671 149.422 126.671 149.502C126.655 149.934 126.639 150.366 126.639 150.798C126.639 151.07 126.559 151.518 126.543 151.774C126.543 151.87 126.527 151.966 126.527 152.062C126.527 152.398 126.559 152.702 126.559 153.022C126.559 153.07 126.559 153.134 126.559 153.182C126.543 153.438 126.511 153.662 126.511 153.886C126.511 154.238 126.591 154.558 126.911 154.846C126.959 154.894 127.007 154.894 127.071 154.894C127.119 154.894 127.167 154.894 127.231 154.894C127.263 154.894 127.279 154.894 127.311 154.894C127.391 154.91 127.503 154.91 127.615 154.91C127.711 154.91 127.807 154.91 127.887 154.878C128.063 154.814 128.335 154.606 128.447 154.43C128.575 154.206 128.623 154.03 128.623 153.854C128.623 153.63 128.559 153.406 128.559 153.102C128.559 153.07 128.559 153.038 128.559 153.006C128.559 152.846 128.623 152.686 128.623 152.542C128.623 152.382 128.607 152.238 128.607 152.078C128.607 151.998 128.607 151.918 128.623 151.838C128.655 151.486 128.735 150.974 128.767 150.622C128.767 150.59 128.767 150.574 128.767 150.542C128.767 150.302 128.703 150.078 128.703 149.838C128.703 149.454 128.783 149.07 128.783 148.686C128.783 148.334 128.735 147.982 128.735 147.63C128.735 147.566 128.735 147.502 128.735 147.422C128.751 147.294 128.751 147.118 128.847 146.974C128.927 146.862 129.103 146.83 129.279 146.83C129.391 146.83 129.519 146.846 129.599 146.846C129.775 146.846 129.951 146.862 130.111 146.862C130.367 146.862 130.351 146.846 130.591 146.83C130.847 146.814 131.103 146.846 131.359 146.702C131.599 146.558 131.743 146.302 131.743 146.014C131.743 145.886 131.711 145.742 131.663 145.614C131.583 145.422 131.567 145.054 131.375 144.958C131.103 144.83 130.703 144.814 130.399 144.814C129.583 144.814 129.039 144.782 128.255 144.702Z" fill="white" class="cIJYzuhp_26"/>
<path d="M139.401 144.606C139.193 144.654 138.969 144.782 138.921 145.022C138.905 145.102 138.889 145.214 138.889 145.31C138.889 145.63 138.969 145.982 139.001 146.238C139.033 146.446 139.033 146.606 139.033 146.75C139.033 146.974 139.017 147.166 139.017 147.486C139.017 147.598 139.033 147.742 139.033 147.886C139.033 148.126 138.985 148.366 138.745 148.462C138.601 148.51 138.489 148.526 138.377 148.526C138.249 148.526 138.121 148.51 137.929 148.494C137.641 148.478 137.385 148.494 137.129 148.462C137.065 148.462 137.017 148.462 136.985 148.462C136.841 148.462 136.825 148.478 136.601 148.478C136.457 148.494 136.249 148.542 136.073 148.542C135.913 148.542 135.753 148.494 135.657 148.35C135.513 148.142 135.561 147.838 135.529 147.582C135.497 147.342 135.481 147.182 135.481 147.006C135.481 146.83 135.497 146.67 135.497 146.414C135.497 146.286 135.497 146.126 135.497 145.982C135.497 145.678 135.481 145.374 135.401 145.134C135.289 144.702 134.777 144.622 134.393 144.622C134.169 144.622 133.945 144.622 133.785 144.766C133.545 144.958 133.417 145.358 133.417 145.646C133.417 145.678 133.417 145.71 133.417 145.742C133.465 146.206 133.497 146.702 133.497 147.182C133.497 147.63 133.513 148.078 133.513 148.526C133.513 148.75 133.513 148.974 133.497 149.198C133.481 149.326 133.481 149.438 133.481 149.566C133.481 149.806 133.497 150.062 133.497 150.334C133.497 150.494 133.481 150.67 133.481 150.846C133.481 151.566 133.529 152.334 133.545 153.006C133.545 153.038 133.545 153.07 133.545 153.102C133.545 153.278 133.529 153.47 133.529 153.662C133.529 154.222 133.609 154.814 134.233 154.974C134.313 155.006 134.425 155.006 134.521 155.006C134.825 155.006 135.177 154.91 135.337 154.702C135.465 154.494 135.513 154.334 135.609 154.11C135.673 153.982 135.705 153.79 135.705 153.598C135.705 153.278 135.641 152.926 135.625 152.558C135.625 152.526 135.625 152.494 135.625 152.462C135.625 152.238 135.673 152.046 135.673 151.806C135.673 151.742 135.657 151.678 135.657 151.614C135.657 151.47 135.625 151.294 135.625 151.102C135.625 150.894 135.657 150.686 135.753 150.558C135.865 150.414 135.993 150.382 136.137 150.382C136.217 150.382 136.297 150.398 136.393 150.398C136.585 150.398 136.761 150.35 136.953 150.35C136.985 150.35 137.033 150.35 137.065 150.35C137.273 150.382 137.369 150.398 137.465 150.398C137.545 150.398 137.625 150.382 137.801 150.366C137.817 150.366 137.849 150.366 137.865 150.366C137.993 150.366 138.105 150.398 138.249 150.398C138.329 150.398 138.409 150.398 138.489 150.398C138.569 150.398 138.665 150.398 138.745 150.414C138.953 150.462 139.001 150.638 139.001 150.83C139.001 151.006 138.969 151.214 138.969 151.358C138.985 151.566 139.049 151.95 139.065 152.19C139.065 152.238 139.065 152.302 139.065 152.366C139.065 152.542 139.065 152.75 139.065 152.958C139.065 153.726 139.145 154.622 139.865 154.766C139.945 154.782 140.137 154.798 140.297 154.798C140.377 154.798 140.441 154.798 140.489 154.782C141.161 154.638 141.161 153.95 141.161 153.406C141.161 153.182 141.209 152.99 141.209 152.782C141.209 152.734 141.193 152.67 141.193 152.622C141.145 152.254 141.129 151.87 141.129 151.486C141.129 150.91 141.161 150.318 141.161 149.774C141.161 148.686 141.097 147.566 140.969 146.478C140.921 145.982 141.001 145.054 140.537 144.734C140.377 144.638 140.089 144.638 139.913 144.606C139.833 144.59 139.737 144.59 139.625 144.59C139.545 144.59 139.465 144.59 139.401 144.606Z" fill="white" class="cIJYzuhp_27"/>
<path d="M144.989 144.75C144.685 144.814 144.221 144.782 144.029 145.054C143.901 145.214 143.885 145.406 143.885 145.614C143.885 145.742 143.885 145.87 143.885 145.982C143.885 146.046 143.885 146.094 143.885 146.158C143.853 146.478 143.837 146.782 143.837 147.086C143.837 147.438 143.853 147.79 143.885 148.142C143.885 148.174 143.885 148.206 143.885 148.238C143.885 148.414 143.853 148.59 143.853 148.782C143.853 149.038 143.853 149.278 143.885 149.518C143.901 149.614 143.901 149.71 143.901 149.79C143.901 149.87 143.901 149.966 143.901 150.046C143.917 150.398 143.933 150.734 143.933 151.07C143.933 151.102 143.933 151.118 143.933 151.15C143.933 151.31 143.901 151.486 143.901 151.646C143.901 152.062 143.981 152.478 143.981 152.878C143.981 153.006 143.933 153.134 143.933 153.262C143.933 153.294 143.949 153.326 143.949 153.358C143.965 153.438 143.965 153.502 143.965 153.582C143.965 153.662 143.965 153.758 143.965 153.838C143.965 154.094 143.981 154.318 144.205 154.446C144.445 154.59 144.781 154.622 145.149 154.622C145.581 154.622 146.029 154.574 146.317 154.542C146.541 154.526 146.781 154.526 147.005 154.526C147.229 154.526 147.453 154.526 147.693 154.494C147.741 154.494 147.805 154.478 147.853 154.478C148.173 154.478 148.477 154.59 148.797 154.59C148.941 154.59 149.085 154.558 149.229 154.494C149.565 154.35 149.773 153.886 149.773 153.47C149.773 153.134 149.629 152.814 149.341 152.718C149.021 152.59 148.621 152.622 148.285 152.606C148.253 152.606 148.205 152.606 148.157 152.606C147.981 152.606 147.757 152.622 147.597 152.622C147.565 152.622 147.549 152.622 147.517 152.622C147.341 152.622 147.133 152.654 146.957 152.67C146.797 152.686 146.621 152.718 146.445 152.718C146.269 152.718 146.093 152.686 145.981 152.542C145.869 152.398 145.837 152.222 145.837 152.03C145.837 151.79 145.885 151.534 145.885 151.326C145.885 151.166 145.837 150.99 145.837 150.814C145.837 150.718 145.853 150.622 145.901 150.542C145.981 150.382 146.141 150.366 146.317 150.366C146.429 150.366 146.541 150.366 146.637 150.366C146.813 150.35 147.005 150.35 147.197 150.35C147.453 150.35 147.709 150.35 147.965 150.366C148.061 150.382 148.253 150.382 148.413 150.382C148.477 150.382 148.525 150.382 148.573 150.382C148.941 150.286 149.133 149.982 149.133 149.63C149.133 149.566 149.133 149.502 149.117 149.422C149.101 148.958 148.701 148.686 148.285 148.638C148.253 148.638 148.237 148.638 148.205 148.638C148.141 148.638 148.077 148.638 148.013 148.638C147.981 148.638 147.949 148.638 147.917 148.638C147.645 148.606 147.437 148.59 147.165 148.59C147.085 148.606 147.021 148.606 146.957 148.606C146.893 148.606 146.813 148.606 146.749 148.606C146.621 148.622 146.461 148.654 146.285 148.654C146.061 148.654 145.853 148.606 145.805 148.398C145.741 148.174 145.709 147.902 145.693 147.662C145.693 147.614 145.693 147.582 145.693 147.534C145.693 147.342 145.709 147.15 145.725 146.974C145.725 146.926 145.725 146.862 145.725 146.814C145.725 146.75 145.725 146.686 145.773 146.638C145.853 146.542 146.013 146.526 146.157 146.526C146.285 146.526 146.429 146.542 146.525 146.542C146.749 146.526 146.877 146.51 147.069 146.51C147.117 146.51 147.165 146.51 147.213 146.51C147.421 146.526 147.901 146.51 148.109 146.542C148.141 146.542 148.189 146.558 148.221 146.558C148.445 146.558 148.557 146.414 148.717 146.206C148.845 146.03 148.909 145.838 148.909 145.662C148.909 145.342 148.717 145.038 148.381 144.894C148.109 144.782 147.805 144.75 147.501 144.75C147.165 144.75 146.829 144.798 146.509 144.798C146.429 144.798 146.349 144.782 146.269 144.782C145.981 144.766 145.693 144.718 145.389 144.718C145.261 144.718 145.117 144.734 144.989 144.75Z" fill="white" class="cIJYzuhp_28"/>
<path d="M157.204 150.958C157.188 150.958 157.188 150.974 157.172 150.974C157.028 150.974 156.788 150.43 156.644 150.142C156.388 149.726 156.148 149.31 155.892 148.878C155.7 148.558 155.46 148.254 155.236 147.95C154.868 147.422 154.516 146.894 154.116 146.366C153.892 146.014 153.764 145.582 153.476 145.262C153.204 144.958 152.804 144.862 152.42 144.862C152.308 144.862 152.196 144.862 152.084 144.878C151.86 144.91 151.684 145.086 151.636 145.31C151.604 145.502 151.588 145.694 151.588 145.87C151.588 146.014 151.604 146.158 151.604 146.302C151.604 146.398 151.604 146.51 151.604 146.606C151.604 146.782 151.604 146.958 151.604 147.118C151.604 147.294 151.604 147.454 151.62 147.614C151.636 148.03 151.652 148.414 151.652 148.83C151.636 149.118 151.604 149.422 151.604 149.726C151.604 149.774 151.604 149.822 151.604 149.87C151.62 150.078 151.636 150.27 151.652 150.478C151.668 150.574 151.668 150.686 151.668 150.798C151.668 151.022 151.652 151.246 151.652 151.454C151.652 151.63 151.668 151.774 151.668 151.934C151.652 152.334 151.62 152.734 151.62 153.118C151.62 153.47 151.652 153.806 151.764 154.142C151.924 154.542 152.34 154.862 152.74 154.862C152.996 154.862 153.236 154.734 153.38 154.414C153.444 154.238 153.46 154.03 153.46 153.822C153.46 153.71 153.46 153.582 153.46 153.47C153.46 153.07 153.492 152.686 153.492 152.27C153.492 152.062 153.476 151.838 153.476 151.614C153.476 151.278 153.492 150.974 153.492 150.622C153.476 150.334 153.476 150.046 153.46 149.758C153.46 149.678 153.46 149.614 153.46 149.534C153.46 149.278 153.492 149.022 153.62 148.974C153.636 148.974 153.668 148.958 153.684 148.958C153.876 148.958 153.956 149.342 154.116 149.598C154.516 150.174 154.788 150.862 155.156 151.454C155.444 151.918 155.78 152.398 156.132 152.814C156.228 152.958 156.388 153.07 156.5 153.214C156.916 153.71 157.284 154.574 157.988 154.574C158.004 154.574 158.004 154.574 158.02 154.574C158.58 154.542 159.14 153.902 159.204 153.326C159.22 153.182 159.22 153.038 159.22 152.91C159.22 152.51 159.172 152.142 159.172 151.726C159.172 151.454 159.156 151.198 159.156 150.926C159.156 150.862 159.156 150.798 159.156 150.734C159.156 150.43 159.108 150.11 159.108 149.806C159.076 148.99 159.092 148.174 159.044 147.358C159.028 147.134 159.028 146.894 159.028 146.67C159.028 146.446 159.028 146.222 159.044 145.982C159.06 145.838 159.092 145.678 159.092 145.534C159.092 145.47 159.092 145.39 159.06 145.326C158.916 144.91 158.484 144.75 158.084 144.75C157.972 144.75 157.86 144.75 157.764 144.782C157.604 144.83 157.444 144.846 157.332 145.006C157.236 145.182 157.268 145.39 157.252 145.598C157.252 145.87 157.22 146.158 157.204 146.446C157.204 146.894 157.22 147.294 157.22 147.726C157.22 147.838 157.22 147.95 157.22 148.062C157.204 148.254 157.204 148.462 157.204 148.654C157.204 148.878 157.204 149.102 157.204 149.326C157.204 149.438 157.204 149.534 157.204 149.646C157.204 149.918 157.252 150.158 157.252 150.414C157.252 150.478 157.268 150.542 157.268 150.622C157.268 150.766 157.252 150.926 157.204 150.958Z" fill="white" class="cIJYzuhp_29"/>
<path d="M165.005 144.702C164.925 144.702 164.861 144.686 164.781 144.686C164.541 144.686 164.301 144.718 164.061 144.718C163.821 144.718 163.453 144.702 163.101 144.702C162.845 144.702 162.605 144.718 162.413 144.734C162.125 144.766 161.837 144.91 161.581 144.99C161.229 145.102 161.117 145.31 161.085 145.726C161.085 145.822 161.069 145.918 161.069 145.998C161.069 146.11 161.085 146.206 161.149 146.302C161.325 146.542 161.197 146.782 161.517 146.83C161.597 146.846 161.709 146.846 161.821 146.846C161.965 146.846 162.141 146.846 162.317 146.846C162.845 146.846 163.405 146.894 163.485 147.326C163.501 147.422 163.517 147.502 163.517 147.582C163.517 147.806 163.453 148.014 163.437 148.254C163.421 148.398 163.421 148.542 163.421 148.702C163.421 148.878 163.421 149.054 163.421 149.23C163.421 149.326 163.421 149.422 163.421 149.502C163.405 149.934 163.389 150.366 163.389 150.798C163.389 151.07 163.309 151.518 163.293 151.774C163.293 151.87 163.277 151.966 163.277 152.062C163.277 152.398 163.309 152.702 163.309 153.022C163.309 153.07 163.309 153.134 163.309 153.182C163.293 153.438 163.261 153.662 163.261 153.886C163.261 154.238 163.341 154.558 163.661 154.846C163.709 154.894 163.757 154.894 163.821 154.894C163.869 154.894 163.917 154.894 163.981 154.894C164.013 154.894 164.029 154.894 164.061 154.894C164.141 154.91 164.253 154.91 164.365 154.91C164.461 154.91 164.557 154.91 164.637 154.878C164.813 154.814 165.085 154.606 165.197 154.43C165.325 154.206 165.373 154.03 165.373 153.854C165.373 153.63 165.309 153.406 165.309 153.102C165.309 153.07 165.309 153.038 165.309 153.006C165.309 152.846 165.373 152.686 165.373 152.542C165.373 152.382 165.357 152.238 165.357 152.078C165.357 151.998 165.357 151.918 165.373 151.838C165.405 151.486 165.485 150.974 165.517 150.622C165.517 150.59 165.517 150.574 165.517 150.542C165.517 150.302 165.453 150.078 165.453 149.838C165.453 149.454 165.533 149.07 165.533 148.686C165.533 148.334 165.485 147.982 165.485 147.63C165.485 147.566 165.485 147.502 165.485 147.422C165.501 147.294 165.501 147.118 165.597 146.974C165.677 146.862 165.853 146.83 166.029 146.83C166.141 146.83 166.269 146.846 166.349 146.846C166.525 146.846 166.701 146.862 166.861 146.862C167.117 146.862 167.101 146.846 167.341 146.83C167.597 146.814 167.853 146.846 168.109 146.702C168.349 146.558 168.493 146.302 168.493 146.014C168.493 145.886 168.461 145.742 168.413 145.614C168.333 145.422 168.317 145.054 168.125 144.958C167.853 144.83 167.453 144.814 167.149 144.814C166.333 144.814 165.789 144.782 165.005 144.702Z" fill="white" class="cIJYzuhp_30"/>
<path d="M171.079 144.526C170.871 144.558 170.631 144.59 170.503 144.75C170.327 144.974 170.215 145.582 170.215 145.95C170.215 146.03 170.215 146.11 170.231 146.158C170.263 146.382 170.295 146.622 170.295 146.846C170.295 146.878 170.295 146.926 170.295 146.958C170.295 147.006 170.295 147.038 170.295 147.086C170.295 147.758 170.407 148.446 170.407 149.118C170.407 149.182 170.407 149.23 170.407 149.294C170.407 149.646 170.375 149.982 170.359 150.334C170.359 150.734 170.327 151.134 170.311 151.534C170.295 151.678 170.263 151.838 170.231 151.998C170.199 152.398 170.119 153.134 170.071 153.55C170.071 153.598 170.071 153.63 170.071 153.678C170.071 154.222 170.231 154.942 170.807 154.942C170.839 154.942 170.871 154.942 170.903 154.942C171.191 154.894 171.479 154.718 171.623 154.494C171.719 154.366 171.799 154.238 171.847 154.078C171.895 153.822 172.007 153.502 172.007 153.23C172.007 153.214 172.007 153.198 172.007 153.182C172.007 153.054 172.087 152.606 172.103 152.478C172.167 151.95 172.199 151.406 172.231 150.878C172.263 150.126 172.279 149.358 172.279 148.606C172.279 148.43 172.279 148.27 172.279 148.094C172.279 147.598 172.279 147.102 172.231 146.622C172.183 146.238 172.247 145.198 172.023 144.878C171.911 144.702 171.639 144.606 171.447 144.542C171.351 144.526 171.271 144.526 171.191 144.526C171.159 144.526 171.111 144.526 171.079 144.526Z" fill="white" class="cIJYzuhp_31"/>
<path d="M179.422 144.798C179.294 144.83 179.198 144.83 179.07 144.846C178.99 144.862 178.926 144.862 178.846 144.862C178.766 144.862 178.686 144.862 178.622 144.862C178.27 144.894 177.838 145.006 177.502 145.134C176.974 145.326 176.414 145.55 176.046 145.966C175.886 146.142 175.726 146.446 175.582 146.638C175.182 147.182 175.07 147.806 174.91 148.446C174.814 148.75 174.782 149.102 174.734 149.422C174.718 149.55 174.718 149.662 174.718 149.79C174.718 149.982 174.718 150.174 174.734 150.382C174.814 151.246 175.054 151.998 175.486 152.734C175.63 152.99 175.87 153.342 176.078 153.55C176.318 153.806 176.654 153.95 176.958 154.126C177.694 154.59 178.478 154.814 179.31 154.814C179.614 154.814 179.918 154.782 180.238 154.718C180.558 154.654 180.878 154.622 181.182 154.494C181.694 154.286 182.19 153.79 182.446 153.31C182.51 153.166 182.558 153.006 182.558 152.862C182.558 152.718 182.51 152.59 182.398 152.478C182.222 152.302 181.998 152.206 181.758 152.206C181.614 152.206 181.486 152.238 181.342 152.318C181.134 152.43 181.134 152.462 180.926 152.574C180.654 152.702 180.43 152.75 180.142 152.798C179.918 152.83 179.742 152.862 179.582 152.862C179.438 152.862 179.294 152.846 179.118 152.782C178.942 152.718 178.654 152.654 178.494 152.574C178.238 152.462 178.03 152.318 177.822 152.142C177.662 151.998 177.534 151.806 177.406 151.63C177.086 151.15 177.022 150.702 177.022 150.142C177.022 150.062 177.022 149.982 177.022 149.902C177.022 149.87 177.022 149.838 177.022 149.806C177.022 149.582 176.99 149.342 176.99 149.118C176.99 148.974 177.006 148.846 177.038 148.718C177.15 148.27 177.182 147.902 177.422 147.502C177.486 147.374 177.598 147.246 177.694 147.134C177.95 146.846 178.254 146.766 178.638 146.654C178.91 146.574 179.134 146.558 179.422 146.542C179.55 146.526 179.662 146.526 179.774 146.526C179.918 146.526 180.046 146.526 180.206 146.558C180.43 146.59 180.638 146.622 180.846 146.718C180.974 146.782 181.134 146.862 181.278 146.862C181.326 146.862 181.374 146.846 181.422 146.83C181.582 146.782 181.726 146.638 181.822 146.51C181.902 146.43 181.95 146.334 181.998 146.222C182.03 146.142 182.046 146.062 182.046 145.982C182.046 145.726 181.886 145.486 181.646 145.342C181.15 145.038 180.606 144.974 180.046 144.862C179.87 144.83 179.71 144.782 179.534 144.782C179.502 144.782 179.454 144.798 179.422 144.798Z" fill="white" class="cIJYzuhp_32"/>
<path d="M187.869 144.622C187.741 144.654 187.389 144.686 187.245 144.766C186.781 145.07 186.637 145.582 186.445 146.03C186.205 146.59 186.013 147.182 185.821 147.742C185.757 147.902 185.693 148.094 185.645 148.254C185.549 148.606 185.453 148.926 185.309 149.294C185.133 149.822 184.957 150.302 184.765 150.83C184.717 151.006 184.653 151.166 184.605 151.326C184.525 151.566 184.461 151.758 184.365 151.998C184.269 152.35 184.189 152.526 184.093 152.878C184.045 153.102 183.997 153.278 183.997 153.486C183.997 153.55 184.013 153.598 184.013 153.662C184.029 153.87 184.077 154.142 184.237 154.302C184.413 154.478 184.637 154.558 184.861 154.558C185.181 154.558 185.501 154.398 185.661 154.11C185.901 153.614 185.837 153.486 186.029 152.974C186.077 152.83 186.157 152.59 186.253 152.462C186.397 152.318 186.637 152.334 186.829 152.318C186.893 152.302 186.941 152.302 186.989 152.302C187.101 152.302 187.165 152.334 187.277 152.334C187.309 152.334 187.357 152.334 187.405 152.318C187.629 152.302 187.997 152.27 188.189 152.27C188.317 152.27 188.541 152.254 188.669 152.254C188.717 152.254 188.749 152.254 188.781 152.254C188.861 152.254 188.877 152.254 188.909 152.254C188.925 152.254 188.957 152.254 188.989 152.254C189.037 152.238 189.133 152.206 189.229 152.206C189.293 152.206 189.341 152.222 189.389 152.27C189.565 152.414 189.565 152.654 189.629 152.862C189.805 153.47 189.901 153.982 190.173 154.558C190.317 154.846 190.637 154.974 190.973 154.974C191.085 154.974 191.213 154.958 191.325 154.926C191.453 154.894 191.549 154.83 191.629 154.718C191.869 154.494 191.965 154.222 191.965 153.934C191.965 153.598 191.837 153.23 191.741 152.894C191.709 152.782 191.693 152.654 191.629 152.526C191.485 152.046 191.181 151.374 191.037 150.878C190.717 149.854 190.445 148.814 190.093 147.806C189.981 147.486 189.837 147.23 189.725 146.91C189.645 146.718 189.565 146.51 189.485 146.318C189.213 145.694 189.101 144.638 188.253 144.606C188.221 144.606 188.173 144.606 188.141 144.606C188.045 144.606 187.965 144.606 187.869 144.622ZM187.901 147.39H187.917C188.077 147.39 188.173 147.774 188.237 147.902C188.477 148.398 188.669 149.534 188.813 150.062C188.845 150.158 188.909 150.318 188.909 150.446C188.909 150.526 188.877 150.606 188.781 150.638C188.589 150.718 188.333 150.734 188.093 150.734C187.837 150.734 187.597 150.718 187.405 150.718C187.325 150.718 187.213 150.75 187.117 150.75C187.053 150.75 186.989 150.734 186.957 150.686C186.925 150.638 186.909 150.574 186.909 150.51C186.909 150.382 186.957 150.222 186.973 150.126C187.085 149.63 187.373 148.366 187.581 147.902C187.629 147.774 187.757 147.422 187.901 147.39Z" fill="white" class="cIJYzuhp_33"/>
<path d="M198.077 146.718C198.525 146.654 198.765 146.782 199.133 146.51C199.357 146.35 199.533 146.014 199.533 145.694C199.533 145.63 199.533 145.566 199.517 145.502C199.453 145.23 199.117 144.99 198.861 144.91C198.749 144.878 198.605 144.862 198.461 144.862C198.365 144.862 198.253 144.862 198.173 144.878C197.965 144.91 197.805 144.926 197.597 144.926C197.373 144.926 197.149 144.878 196.925 144.878C196.893 144.878 196.877 144.878 196.845 144.878C196.605 144.894 196.333 144.926 196.093 144.942C195.805 144.942 195.517 144.91 195.229 144.91C195.133 144.91 195.037 144.926 194.941 144.926C194.637 144.958 194.317 144.942 194.013 144.974C193.933 144.974 193.853 144.99 193.773 144.99C193.629 144.99 193.485 144.99 193.325 144.99C192.973 144.99 192.621 145.022 192.381 145.278C192.333 145.326 192.333 145.406 192.317 145.454C192.221 145.55 192.125 145.566 192.109 145.726C192.109 145.742 192.109 145.758 192.109 145.774C192.109 145.934 192.221 146.078 192.301 146.206C192.445 146.462 192.621 146.798 192.909 146.926C192.941 146.942 192.973 146.942 193.005 146.942C193.069 146.942 193.149 146.926 193.229 146.926C193.325 146.926 193.405 146.926 193.501 146.926C193.773 146.926 194.061 146.91 194.333 146.878C194.429 146.878 194.541 146.862 194.653 146.862C194.845 146.862 195.037 146.894 195.101 147.054C195.133 147.102 195.133 147.134 195.133 147.182C195.133 147.246 195.117 147.31 195.117 147.374C195.133 147.486 195.133 147.614 195.133 147.726C195.133 147.87 195.133 148.014 195.133 148.142C195.133 148.286 195.133 148.414 195.149 148.542C195.181 148.75 195.213 148.942 195.229 149.134C195.229 149.198 195.229 149.262 195.229 149.326C195.229 149.582 195.213 149.838 195.213 150.094C195.229 150.254 195.229 150.414 195.245 150.574C195.309 150.942 195.373 151.358 195.373 151.742C195.373 151.79 195.373 151.838 195.373 151.886C195.373 152.014 195.373 152.142 195.373 152.254C195.373 152.318 195.373 152.366 195.373 152.43C195.389 152.622 195.421 152.798 195.437 152.974C195.469 153.23 195.437 153.47 195.549 153.71C195.709 154.03 195.997 154.43 196.349 154.542C196.397 154.558 196.445 154.558 196.493 154.558C196.893 154.558 197.309 154.094 197.405 153.774C197.437 153.678 197.437 153.582 197.437 153.502C197.437 153.278 197.373 153.054 197.373 152.814C197.373 152.718 197.373 152.638 197.373 152.542C197.373 152.414 197.373 152.286 197.373 152.158C197.373 151.838 197.373 151.518 197.309 151.214C197.309 151.166 197.309 151.102 197.309 151.038C197.309 150.846 197.309 150.654 197.277 150.494C197.213 149.934 197.245 149.47 197.181 148.926C197.117 148.462 197.085 147.998 197.069 147.534C197.053 147.406 197.021 147.262 197.021 147.134C197.021 147.086 197.037 147.038 197.037 147.006C197.101 146.798 197.245 146.814 197.405 146.766C197.469 146.75 197.533 146.718 197.597 146.718C197.629 146.718 197.661 146.718 197.693 146.734C197.741 146.734 198.077 146.718 198.077 146.718Z" fill="white" class="cIJYzuhp_34"/>
<path d="M202.567 144.75C202.263 144.814 201.799 144.782 201.607 145.054C201.479 145.214 201.463 145.406 201.463 145.614C201.463 145.742 201.463 145.87 201.463 145.982C201.463 146.046 201.463 146.094 201.463 146.158C201.431 146.478 201.415 146.782 201.415 147.086C201.415 147.438 201.431 147.79 201.463 148.142C201.463 148.174 201.463 148.206 201.463 148.238C201.463 148.414 201.431 148.59 201.431 148.782C201.431 149.038 201.431 149.278 201.463 149.518C201.479 149.614 201.479 149.71 201.479 149.79C201.479 149.87 201.479 149.966 201.479 150.046C201.495 150.398 201.511 150.734 201.511 151.07C201.511 151.102 201.511 151.118 201.511 151.15C201.511 151.31 201.479 151.486 201.479 151.646C201.479 152.062 201.559 152.478 201.559 152.878C201.559 153.006 201.511 153.134 201.511 153.262C201.511 153.294 201.527 153.326 201.527 153.358C201.543 153.438 201.543 153.502 201.543 153.582C201.543 153.662 201.543 153.758 201.543 153.838C201.543 154.094 201.559 154.318 201.783 154.446C202.023 154.59 202.359 154.622 202.727 154.622C203.159 154.622 203.607 154.574 203.895 154.542C204.119 154.526 204.359 154.526 204.583 154.526C204.807 154.526 205.031 154.526 205.271 154.494C205.319 154.494 205.383 154.478 205.431 154.478C205.751 154.478 206.055 154.59 206.375 154.59C206.519 154.59 206.663 154.558 206.807 154.494C207.143 154.35 207.351 153.886 207.351 153.47C207.351 153.134 207.207 152.814 206.919 152.718C206.599 152.59 206.199 152.622 205.863 152.606C205.831 152.606 205.783 152.606 205.735 152.606C205.559 152.606 205.335 152.622 205.175 152.622C205.143 152.622 205.127 152.622 205.095 152.622C204.919 152.622 204.711 152.654 204.535 152.67C204.375 152.686 204.199 152.718 204.023 152.718C203.847 152.718 203.671 152.686 203.559 152.542C203.447 152.398 203.415 152.222 203.415 152.03C203.415 151.79 203.463 151.534 203.463 151.326C203.463 151.166 203.415 150.99 203.415 150.814C203.415 150.718 203.431 150.622 203.479 150.542C203.559 150.382 203.719 150.366 203.895 150.366C204.007 150.366 204.119 150.366 204.215 150.366C204.391 150.35 204.583 150.35 204.775 150.35C205.031 150.35 205.287 150.35 205.543 150.366C205.639 150.382 205.831 150.382 205.991 150.382C206.055 150.382 206.103 150.382 206.151 150.382C206.519 150.286 206.711 149.982 206.711 149.63C206.711 149.566 206.711 149.502 206.695 149.422C206.679 148.958 206.279 148.686 205.863 148.638C205.831 148.638 205.815 148.638 205.783 148.638C205.719 148.638 205.655 148.638 205.591 148.638C205.559 148.638 205.527 148.638 205.495 148.638C205.223 148.606 205.015 148.59 204.743 148.59C204.663 148.606 204.599 148.606 204.535 148.606C204.471 148.606 204.391 148.606 204.327 148.606C204.199 148.622 204.039 148.654 203.863 148.654C203.639 148.654 203.431 148.606 203.383 148.398C203.319 148.174 203.287 147.902 203.271 147.662C203.271 147.614 203.271 147.582 203.271 147.534C203.271 147.342 203.287 147.15 203.303 146.974C203.303 146.926 203.303 146.862 203.303 146.814C203.303 146.75 203.303 146.686 203.351 146.638C203.431 146.542 203.591 146.526 203.735 146.526C203.863 146.526 204.007 146.542 204.103 146.542C204.327 146.526 204.455 146.51 204.647 146.51C204.695 146.51 204.743 146.51 204.791 146.51C204.999 146.526 205.479 146.51 205.687 146.542C205.719 146.542 205.767 146.558 205.799 146.558C206.023 146.558 206.135 146.414 206.295 146.206C206.423 146.03 206.487 145.838 206.487 145.662C206.487 145.342 206.295 145.038 205.959 144.894C205.687 144.782 205.383 144.75 205.079 144.75C204.743 144.75 204.407 144.798 204.087 144.798C204.007 144.798 203.927 144.782 203.847 144.782C203.559 144.766 203.271 144.718 202.967 144.718C202.839 144.718 202.695 144.734 202.567 144.75Z" fill="white" class="cIJYzuhp_35"/>
<path d="M239.498 144.878C239.178 144.926 238.682 144.894 238.426 145.086C238.25 145.23 238.218 145.454 238.154 145.662C238.09 145.95 237.962 146.238 237.834 146.51C237.658 146.878 237.578 147.246 237.45 147.63C237.29 148.03 237.05 148.414 236.938 148.814C236.842 149.102 236.858 149.422 236.762 149.726C236.682 149.982 236.538 150.254 236.458 150.526C236.33 150.862 236.33 151.23 236.186 151.534C236.01 151.886 235.93 152.206 235.802 152.558C235.706 152.894 235.546 153.198 235.45 153.518C235.418 153.662 235.338 153.838 235.338 154.014C235.338 154.126 235.37 154.254 235.482 154.334C235.562 154.43 235.722 154.43 235.818 154.494C235.946 154.542 236.042 154.622 236.17 154.67C236.234 154.686 236.298 154.702 236.346 154.702C236.618 154.702 236.858 154.478 237.018 154.27C237.354 153.806 237.402 153.15 237.594 152.606C237.642 152.446 237.674 152.27 237.802 152.142C238.01 151.886 238.346 151.822 238.698 151.822C238.906 151.822 239.098 151.838 239.274 151.854C239.322 151.854 239.354 151.854 239.402 151.854C239.546 151.854 239.722 151.838 239.898 151.838C240.186 151.838 240.474 151.886 240.65 152.078C240.794 152.254 240.842 152.51 240.906 152.718C240.986 152.974 241.082 153.214 241.146 153.47C241.29 153.838 241.386 154.27 241.754 154.51C241.882 154.59 242.058 154.606 242.202 154.622C242.282 154.638 242.346 154.638 242.426 154.638C242.49 154.638 242.538 154.638 242.602 154.622C243.114 154.51 243.29 154.078 243.29 153.63C243.29 153.278 243.194 152.926 243.082 152.67C242.81 152.014 242.602 151.358 242.378 150.686C242.25 150.334 242.042 149.982 241.914 149.614C241.658 148.718 241.402 147.79 241.13 146.878C241.082 146.75 241.082 146.59 241.034 146.462C240.954 146.27 240.858 146.11 240.778 145.934C240.682 145.71 240.65 145.486 240.522 145.278C240.314 144.974 240.058 144.862 239.738 144.862C239.658 144.862 239.578 144.862 239.498 144.878ZM239.274 147.582C239.402 147.614 239.514 147.918 239.546 148.046C239.722 148.462 239.834 149.294 239.93 149.742C239.946 149.822 239.978 149.95 239.978 150.062C239.978 150.126 239.978 150.19 239.946 150.222C239.914 150.27 239.882 150.286 239.818 150.286C239.738 150.286 239.642 150.254 239.562 150.254C239.53 150.254 239.498 150.254 239.466 150.254C239.322 150.254 239.162 150.27 239.018 150.27C238.842 150.27 238.682 150.254 238.522 150.19C238.442 150.158 238.426 150.094 238.426 150.014C238.426 149.902 238.474 149.758 238.49 149.678C238.618 149.198 238.778 148.494 238.986 148.046C239.034 147.918 239.13 147.582 239.258 147.582H239.274Z" fill="white" class="cIJYzuhp_36"/>
<path d="M250.187 144.654C249.611 144.734 249.003 144.686 248.443 144.814C247.611 145.006 246.859 145.31 246.379 145.758C245.803 146.286 245.387 147.022 244.907 147.998C244.715 148.382 244.651 149.374 244.651 149.838C244.651 151.07 245.019 152.222 245.739 153.134C246.411 153.998 247.259 154.638 248.123 154.734C248.267 154.734 248.571 154.814 248.731 154.814C248.971 154.814 249.051 154.814 249.291 154.814C250.347 154.814 252.267 153.982 252.267 153.022C252.267 152.574 251.723 152.318 251.243 152.318C250.827 152.318 250.683 152.43 250.395 152.59C250.091 152.798 249.691 152.91 249.451 152.91C248.411 152.91 247.595 152.334 247.147 151.358C246.923 150.894 246.843 150.43 246.843 149.774C246.843 148.638 247.131 147.822 247.963 147.182C248.219 147.006 248.651 146.75 248.971 146.638C249.307 146.542 249.691 146.526 250.059 146.526C250.219 146.526 250.379 146.526 250.523 146.526C250.875 146.526 251.259 146.654 251.627 146.654C252.043 146.606 252.443 146.078 252.443 145.614C252.443 144.91 250.923 144.654 250.251 144.654C250.235 144.654 250.203 144.654 250.187 144.654Z" fill="white" class="cIJYzuhp_37"/>
<path d="M258.31 144.798C258.182 144.83 258.086 144.83 257.958 144.846C257.878 144.862 257.814 144.862 257.734 144.862C257.654 144.862 257.574 144.862 257.51 144.862C257.158 144.894 256.726 145.006 256.39 145.134C255.862 145.326 255.302 145.55 254.934 145.966C254.774 146.142 254.614 146.446 254.47 146.638C254.07 147.182 253.958 147.806 253.798 148.446C253.702 148.75 253.67 149.102 253.622 149.422C253.606 149.55 253.606 149.662 253.606 149.79C253.606 149.982 253.606 150.174 253.622 150.382C253.702 151.246 253.942 151.998 254.374 152.734C254.518 152.99 254.758 153.342 254.966 153.55C255.206 153.806 255.542 153.95 255.846 154.126C256.582 154.59 257.366 154.814 258.198 154.814C258.502 154.814 258.806 154.782 259.126 154.718C259.446 154.654 259.766 154.622 260.07 154.494C260.582 154.286 261.078 153.79 261.334 153.31C261.398 153.166 261.446 153.006 261.446 152.862C261.446 152.718 261.398 152.59 261.286 152.478C261.11 152.302 260.886 152.206 260.646 152.206C260.502 152.206 260.374 152.238 260.23 152.318C260.022 152.43 260.022 152.462 259.814 152.574C259.542 152.702 259.318 152.75 259.03 152.798C258.806 152.83 258.63 152.862 258.47 152.862C258.326 152.862 258.182 152.846 258.006 152.782C257.83 152.718 257.542 152.654 257.382 152.574C257.126 152.462 256.918 152.318 256.71 152.142C256.55 151.998 256.422 151.806 256.294 151.63C255.974 151.15 255.91 150.702 255.91 150.142C255.91 150.062 255.91 149.982 255.91 149.902C255.91 149.87 255.91 149.838 255.91 149.806C255.91 149.582 255.878 149.342 255.878 149.118C255.878 148.974 255.894 148.846 255.926 148.718C256.038 148.27 256.07 147.902 256.31 147.502C256.374 147.374 256.486 147.246 256.582 147.134C256.838 146.846 257.142 146.766 257.526 146.654C257.798 146.574 258.022 146.558 258.31 146.542C258.438 146.526 258.55 146.526 258.662 146.526C258.806 146.526 258.934 146.526 259.094 146.558C259.318 146.59 259.526 146.622 259.734 146.718C259.862 146.782 260.022 146.862 260.166 146.862C260.214 146.862 260.262 146.846 260.31 146.83C260.47 146.782 260.614 146.638 260.71 146.51C260.79 146.43 260.838 146.334 260.886 146.222C260.918 146.142 260.934 146.062 260.934 145.982C260.934 145.726 260.774 145.486 260.534 145.342C260.038 145.038 259.494 144.974 258.934 144.862C258.758 144.83 258.598 144.782 258.422 144.782C258.39 144.782 258.342 144.798 258.31 144.798Z" fill="white" class="cIJYzuhp_38"/>
<path d="M266.905 144.862C266.521 144.91 265.817 144.91 265.417 144.942C265.161 144.974 264.857 144.974 264.601 144.974C264.281 144.99 263.913 145.006 263.689 145.262C263.497 145.502 263.433 145.87 263.433 146.206C263.433 146.302 263.449 146.414 263.449 146.494C263.449 146.558 263.465 146.622 263.465 146.686C263.465 146.958 263.417 147.23 263.417 147.502C263.417 147.854 263.433 148.174 263.433 148.51C263.433 148.59 263.433 148.67 263.433 148.766C263.417 149.022 263.417 149.278 263.417 149.534C263.417 149.742 263.417 149.95 263.417 150.158C263.417 150.462 263.417 150.766 263.385 151.07C263.385 151.166 263.369 151.262 263.369 151.358C263.369 151.662 263.401 151.982 263.417 152.286C263.417 152.526 263.353 152.91 263.353 153.182C263.353 153.214 263.353 153.23 263.353 153.262C263.385 153.726 263.481 154.286 263.945 154.574C264.105 154.67 264.297 154.75 264.489 154.75C264.553 154.75 264.617 154.734 264.681 154.718C264.825 154.654 264.953 154.542 265.097 154.494C265.209 154.462 265.353 154.462 265.513 154.462C265.753 154.462 265.993 154.478 266.169 154.478C266.409 154.478 266.825 154.43 267.065 154.43C267.241 154.43 267.449 154.462 267.641 154.462C267.753 154.462 267.865 154.446 267.961 154.414C268.361 154.27 268.761 153.71 268.761 153.246C268.761 153.022 268.665 152.83 268.409 152.718C268.233 152.638 268.057 152.606 267.897 152.606C267.753 152.606 267.625 152.622 267.481 152.622C267.449 152.622 267.417 152.622 267.385 152.622C267.321 152.622 267.257 152.622 267.193 152.622C267.017 152.622 266.841 152.622 266.665 152.622C266.585 152.622 266.505 152.622 266.425 152.622C266.329 152.622 266.233 152.638 266.121 152.638C265.913 152.638 265.673 152.606 265.561 152.446C265.465 152.334 265.449 152.19 265.449 152.03C265.449 151.886 265.465 151.742 265.481 151.614C265.497 151.422 265.497 151.102 265.561 150.926C265.641 150.734 265.705 150.718 265.801 150.718C265.833 150.718 265.865 150.718 265.913 150.718C265.961 150.718 266.009 150.718 266.073 150.702C266.249 150.654 266.345 150.638 266.489 150.638C266.553 150.638 266.633 150.654 266.729 150.654C267.097 150.638 267.289 150.654 267.641 150.51C267.881 150.414 268.073 150.254 268.089 149.982C268.105 149.806 268.121 149.678 268.121 149.55C268.121 149.118 267.977 148.942 267.401 148.814C267.337 148.798 267.289 148.798 267.225 148.798C267.097 148.798 266.969 148.814 266.825 148.83C266.665 148.83 266.537 148.846 266.377 148.862C266.249 148.878 266.073 148.942 265.929 148.942C265.817 148.942 265.721 148.91 265.673 148.766C265.577 148.574 265.625 148.206 265.593 147.998C265.577 147.822 265.577 147.678 265.577 147.502C265.577 147.47 265.577 147.454 265.577 147.422C265.577 147.342 265.577 147.262 265.577 147.182C265.577 147.054 265.577 146.926 265.641 146.814C265.753 146.606 266.297 146.59 266.649 146.59C266.729 146.59 266.809 146.59 266.857 146.59C267.017 146.59 267.321 146.558 267.481 146.558C267.609 146.558 267.689 146.558 267.769 146.558C268.009 146.558 268.089 146.526 268.425 146.206C268.569 146.062 268.649 145.87 268.649 145.662C268.649 145.438 268.553 145.23 268.393 145.102C268.121 144.894 267.721 144.83 267.353 144.83C267.193 144.83 267.049 144.846 266.905 144.862Z" fill="white" class="cIJYzuhp_39"/>
<path d="M273.776 144.686C273.488 144.75 273.184 144.718 272.912 144.798C272.624 144.894 272.352 145.054 272.064 145.182C271.424 145.422 270.912 146.126 270.688 146.782C270.64 146.974 270.544 147.182 270.544 147.39C270.544 147.502 270.544 147.582 270.544 147.678C270.544 147.79 270.544 147.902 270.592 148.014C270.752 148.43 270.8 148.846 271.12 149.166C271.232 149.246 271.36 149.374 271.488 149.454C271.664 149.582 271.824 149.742 272.016 149.806C272.368 149.966 272.56 150.158 272.912 150.286C273.104 150.366 273.344 150.478 273.52 150.59C273.648 150.654 273.744 150.734 273.856 150.798C274.224 150.974 274.848 151.198 274.848 151.726C274.848 151.758 274.832 151.806 274.832 151.838C274.8 152.158 274.72 152.446 274.448 152.59C274.256 152.702 274.288 152.798 274.064 152.846C273.872 152.894 273.712 152.878 273.536 152.91C273.36 152.926 273.2 152.942 273.024 152.942C272.56 152.942 272.08 152.878 271.616 152.814C271.504 152.798 271.424 152.782 271.328 152.782C271.152 152.782 270.976 152.83 270.752 152.91C270.64 152.958 270.624 153.294 270.56 153.438C270.544 153.47 270.528 153.518 270.528 153.566C270.528 153.79 270.704 154.11 270.848 154.254C271.136 154.526 271.584 154.606 271.824 154.638C272.208 154.718 272.528 154.75 272.864 154.75C273.216 154.75 273.552 154.718 273.968 154.654C274.528 154.59 275.152 154.43 275.68 154.19C276.336 153.902 276.576 153.198 276.8 152.51C276.864 152.302 276.96 152.11 276.96 151.886C276.96 151.854 276.96 151.822 276.96 151.79C276.96 151.182 276.672 150.494 276.32 150.03C276.16 149.806 275.872 149.678 275.664 149.518C275.088 149.102 274.608 148.686 273.92 148.558C273.568 148.51 273.312 148.382 273.008 148.238C272.88 148.158 272.736 148.11 272.64 147.998C272.528 147.886 272.416 147.71 272.416 147.534C272.416 147.518 272.416 147.518 272.416 147.502C272.416 147.246 272.704 147.006 272.864 146.878C273.216 146.558 273.824 146.414 274.32 146.414C274.4 146.414 274.48 146.43 274.544 146.43C274.72 146.462 274.912 146.494 275.072 146.558C275.248 146.606 275.44 146.686 275.616 146.686C275.632 146.686 275.664 146.686 275.68 146.686C276.096 146.622 276.352 146.158 276.352 145.742C276.352 145.694 276.352 145.63 276.336 145.582C276.272 145.262 275.904 145.102 275.648 145.022C275.12 144.862 274.64 144.654 274.128 144.654C274.016 144.654 273.888 144.67 273.776 144.686Z" fill="white" class="cIJYzuhp_40"/>
<path d="M281.842 144.75C281.666 144.782 281.458 144.75 281.266 144.814C281.058 144.862 280.834 144.974 280.594 145.022C280.434 145.086 280.258 145.086 280.082 145.198C279.682 145.47 279.282 145.726 279.01 146.126C278.85 146.382 278.802 146.606 278.738 146.878C278.674 147.118 278.642 147.39 278.642 147.646C278.642 147.79 278.658 147.918 278.674 148.062C278.754 148.446 278.93 148.91 279.202 149.166C279.314 149.278 279.41 149.422 279.522 149.502C280.098 149.966 280.482 150.014 281.122 150.318C281.426 150.478 281.73 150.622 282.05 150.766C282.338 150.91 282.626 151.102 282.626 151.454C282.626 151.47 282.626 151.47 282.626 151.486C282.578 152.126 282.386 152.478 281.89 152.734C281.666 152.846 281.458 152.926 281.17 152.926C280.642 152.894 280.066 152.718 279.618 152.478C279.506 152.43 279.394 152.398 279.298 152.398C278.818 152.398 278.402 152.926 278.402 153.422C278.402 153.566 278.434 153.71 278.514 153.838C278.658 154.062 279.09 154.158 279.314 154.334C279.442 154.414 279.586 154.478 279.73 154.542C280.098 154.702 280.498 154.75 280.914 154.75C281.25 154.75 281.602 154.718 281.938 154.67C282.178 154.638 282.386 154.542 282.61 154.462C283.666 154.03 284.338 153.086 284.53 151.95C284.562 151.774 284.61 151.63 284.61 151.454C284.61 151.438 284.61 151.406 284.61 151.39C284.578 150.974 284.514 150.59 284.306 150.238C284.146 149.966 283.97 149.63 283.698 149.438C283.586 149.374 283.442 149.326 283.346 149.246C283.186 149.166 283.074 149.038 282.914 148.942C282.402 148.654 281.89 148.398 281.33 148.222C281.01 148.094 280.674 147.838 280.61 147.422C280.61 147.39 280.61 147.358 280.61 147.326C280.61 146.974 280.93 146.702 281.218 146.574C281.458 146.446 281.698 146.398 281.938 146.398C282.29 146.398 282.658 146.51 283.026 146.622C283.218 146.686 283.362 146.814 283.538 146.878C283.618 146.91 283.698 146.91 283.778 146.91C283.954 146.91 284.13 146.862 284.258 146.734C284.466 146.542 284.562 146.35 284.562 146.142C284.562 145.854 284.386 145.582 284.098 145.374C283.954 145.262 283.81 145.118 283.65 145.038C283.362 144.91 283.026 144.91 282.722 144.846C282.466 144.814 282.258 144.734 282.018 144.734C281.954 144.734 281.906 144.734 281.842 144.75Z" fill="white" class="cIJYzuhp_41"/>
<style data-made-with="vivus-instant">.cIJYzuhp_0{stroke-dasharray:387 389;stroke-dashoffset:388;}.start .cIJYzuhp_0{animation:cIJYzuhp_draw 666ms linear 0ms forwards;}.cIJYzuhp_1{stroke-dasharray:41 43;stroke-dashoffset:42;}.start .cIJYzuhp_1{animation:cIJYzuhp_draw 666ms linear 8ms forwards;}.cIJYzuhp_2{stroke-dasharray:62 64;stroke-dashoffset:63;}.start .cIJYzuhp_2{animation:cIJYzuhp_draw 666ms linear 16ms forwards;}.cIJYzuhp_3{stroke-dasharray:49 51;stroke-dashoffset:50;}.start .cIJYzuhp_3{animation:cIJYzuhp_draw 666ms linear 24ms forwards;}.cIJYzuhp_4{stroke-dasharray:387 389;stroke-dashoffset:388;}.start .cIJYzuhp_4{animation:cIJYzuhp_draw 666ms linear 32ms forwards;}.cIJYzuhp_5{stroke-dasharray:41 43;stroke-dashoffset:42;}.start .cIJYzuhp_5{animation:cIJYzuhp_draw 666ms linear 40ms forwards;}.cIJYzuhp_6{stroke-dasharray:62 64;stroke-dashoffset:63;}.start .cIJYzuhp_6{animation:cIJYzuhp_draw 666ms linear 48ms forwards;}.cIJYzuhp_7{stroke-dasharray:32 34;stroke-dashoffset:33;}.start .cIJYzuhp_7{animation:cIJYzuhp_draw 666ms linear 56ms forwards;}.cIJYzuhp_8{stroke-dasharray:32 34;stroke-dashoffset:33;}.start .cIJYzuhp_8{animation:cIJYzuhp_draw 666ms linear 65ms forwards;}.cIJYzuhp_9{stroke-dasharray:32 34;stroke-dashoffset:33;}.start .cIJYzuhp_9{animation:cIJYzuhp_draw 666ms linear 73ms forwards;}.cIJYzuhp_10{stroke-dasharray:32 34;stroke-dashoffset:33;}.start .cIJYzuhp_10{animation:cIJYzuhp_draw 666ms linear 81ms forwards;}.cIJYzuhp_11{stroke-dasharray:28 30;stroke-dashoffset:29;}.start .cIJYzuhp_11{animation:cIJYzuhp_draw 666ms linear 89ms forwards;}.cIJYzuhp_12{stroke-dasharray:28 30;stroke-dashoffset:29;}.start .cIJYzuhp_12{animation:cIJYzuhp_draw 666ms linear 97ms forwards;}.cIJYzuhp_13{stroke-dasharray:207 209;stroke-dashoffset:208;}.start .cIJYzuhp_13{animation:cIJYzuhp_draw 666ms linear 105ms forwards;}.cIJYzuhp_14{stroke-dasharray:76 78;stroke-dashoffset:77;}.start .cIJYzuhp_14{animation:cIJYzuhp_draw 666ms linear 113ms forwards;}.cIJYzuhp_15{stroke-dasharray:17 19;stroke-dashoffset:18;}.start .cIJYzuhp_15{animation:cIJYzuhp_draw 666ms linear 121ms forwards;}.cIJYzuhp_16{stroke-dasharray:7 9;stroke-dashoffset:8;}.start .cIJYzuhp_16{animation:cIJYzuhp_draw 666ms linear 130ms forwards;}.cIJYzuhp_17{stroke-dasharray:19 21;stroke-dashoffset:20;}.start .cIJYzuhp_17{animation:cIJYzuhp_draw 666ms linear 138ms forwards;}.cIJYzuhp_18{stroke-dasharray:14 16;stroke-dashoffset:15;}.start .cIJYzuhp_18{animation:cIJYzuhp_draw 666ms linear 146ms forwards;}.cIJYzuhp_19{stroke-dasharray:29 31;stroke-dashoffset:30;}.start .cIJYzuhp_19{animation:cIJYzuhp_draw 666ms linear 154ms forwards;}.cIJYzuhp_20{stroke-dasharray:49 51;stroke-dashoffset:50;}.start .cIJYzuhp_20{animation:cIJYzuhp_draw 666ms linear 162ms forwards;}.cIJYzuhp_21{stroke-dasharray:46 48;stroke-dashoffset:47;}.start .cIJYzuhp_21{animation:cIJYzuhp_draw 666ms linear 170ms forwards;}.cIJYzuhp_22{stroke-dasharray:22 24;stroke-dashoffset:23;}.start .cIJYzuhp_22{animation:cIJYzuhp_draw 666ms linear 178ms forwards;}.cIJYzuhp_23{stroke-dasharray:51 53;stroke-dashoffset:52;}.start .cIJYzuhp_23{animation:cIJYzuhp_draw 666ms linear 186ms forwards;}.cIJYzuhp_24{stroke-dasharray:41 43;stroke-dashoffset:42;}.start .cIJYzuhp_24{animation:cIJYzuhp_draw 666ms linear 195ms forwards;}.cIJYzuhp_25{stroke-dasharray:46 48;stroke-dashoffset:47;}.start .cIJYzuhp_25{animation:cIJYzuhp_draw 666ms linear 203ms forwards;}.cIJYzuhp_26{stroke-dasharray:33 35;stroke-dashoffset:34;}.start .cIJYzuhp_26{animation:cIJYzuhp_draw 666ms linear 211ms forwards;}.cIJYzuhp_27{stroke-dasharray:49 51;stroke-dashoffset:50;}.start .cIJYzuhp_27{animation:cIJYzuhp_draw 666ms linear 219ms forwards;}.cIJYzuhp_28{stroke-dasharray:41 43;stroke-dashoffset:42;}.start .cIJYzuhp_28{animation:cIJYzuhp_draw 666ms linear 227ms forwards;}.cIJYzuhp_29{stroke-dasharray:51 53;stroke-dashoffset:52;}.start .cIJYzuhp_29{animation:cIJYzuhp_draw 666ms linear 235ms forwards;}.cIJYzuhp_30{stroke-dasharray:33 35;stroke-dashoffset:34;}.start .cIJYzuhp_30{animation:cIJYzuhp_draw 666ms linear 243ms forwards;}.cIJYzuhp_31{stroke-dasharray:24 26;stroke-dashoffset:25;}.start .cIJYzuhp_31{animation:cIJYzuhp_draw 666ms linear 252ms forwards;}.cIJYzuhp_32{stroke-dasharray:39 41;stroke-dashoffset:40;}.start .cIJYzuhp_32{animation:cIJYzuhp_draw 666ms linear 260ms forwards;}.cIJYzuhp_33{stroke-dasharray:43 45;stroke-dashoffset:44;}.start .cIJYzuhp_33{animation:cIJYzuhp_draw 666ms linear 268ms forwards;}.cIJYzuhp_34{stroke-dasharray:32 34;stroke-dashoffset:33;}.start .cIJYzuhp_34{animation:cIJYzuhp_draw 666ms linear 276ms forwards;}.cIJYzuhp_35{stroke-dasharray:41 43;stroke-dashoffset:42;}.start .cIJYzuhp_35{animation:cIJYzuhp_draw 666ms linear 284ms forwards;}.cIJYzuhp_36{stroke-dasharray:41 43;stroke-dashoffset:42;}.start .cIJYzuhp_36{animation:cIJYzuhp_draw 666ms linear 292ms forwards;}.cIJYzuhp_37{stroke-dasharray:39 41;stroke-dashoffset:40;}.start .cIJYzuhp_37{animation:cIJYzuhp_draw 666ms linear 300ms forwards;}.cIJYzuhp_38{stroke-dasharray:39 41;stroke-dashoffset:40;}.start .cIJYzuhp_38{animation:cIJYzuhp_draw 666ms linear 308ms forwards;}.cIJYzuhp_39{stroke-dasharray:38 40;stroke-dashoffset:39;}.start .cIJYzuhp_39{animation:cIJYzuhp_draw 666ms linear 317ms forwards;}.cIJYzuhp_40{stroke-dasharray:41 43;stroke-dashoffset:42;}.start .cIJYzuhp_40{animation:cIJYzuhp_draw 666ms linear 325ms forwards;}.cIJYzuhp_41{stroke-dasharray:40 42;stroke-dashoffset:41;}.start .cIJYzuhp_41{animation:cIJYzuhp_draw 666ms linear 333ms forwards;}@keyframes cIJYzuhp_draw{100%{stroke-dashoffset:0;}}@keyframes cIJYzuhp_fade{0%{stroke-opacity:1;}92.3076923076923%{stroke-opacity:1;}100%{stroke-opacity:0;}}</style></svg>