<svg width="82" height="101" viewBox="0 0 82 101" fill="none" xmlns="http://www.w3.org/2000/svg">
<path d="M45.8273 78.9404C47.4457 72.7838 49.9499 72.4896 55.3676 69.7954C63.5644 65.7191 70.1849 57.888 72.824 47.8486C77.441 30.2852 68.1241 12.6142 52.0142 8.37932C35.9044 4.14446 19.1019 14.9494 14.485 32.5128C11.8459 42.5522 13.7595 52.6268 18.8921 60.207C22.2846 65.2172 24.3204 66.7048 22.7019 72.8614C21.9941 75.5543 23.4226 78.2637 25.8926 78.913L40.0731 82.6407C42.5431 83.29 45.1194 81.6333 45.8273 78.9404Z" stroke="#5FA4F8" stroke-width="2" stroke-linecap="round" stroke-linejoin="round"/>
<path d="M24.5713 78.5654L41.3946 82.9878L40.2836 87.2139C39.1603 91.487 34.7857 94.0405 30.5126 92.9172L29.1636 92.5626C24.8905 91.4393 22.3371 87.0646 23.4604 82.7915L24.5713 78.5654Z" stroke="#5FA4F8" stroke-width="2" stroke-linecap="round" stroke-linejoin="round"/>
<path d="M29.4249 79.7465L32.3214 44.1708M32.3214 44.1708C32.3214 44.1708 32.5937 39.7056 30.9635 36.2605C29.3333 32.8154 24.2475 29.5083 21.574 34.7563C19.4249 38.9749 26.0301 43.103 32.3214 44.1708ZM32.3214 44.1708C36.083 44.8093 39.6807 44.6239 42.819 43.3377M42.819 43.3377C45.6472 42.8818 47.7285 41.5567 48.7343 40.2551C53.4524 34.1494 42.819 28.5911 39.8197 35.4228C38.8769 37.5704 40.4721 40.7105 42.819 43.3377ZM42.819 43.3377C47.1933 48.2346 54.1938 53.4974 61.1481 49.7528C65.4804 47.4201 66.2982 39.6756 56.7887 41.3772C47.2792 43.0789 36.1678 81.6583 36.1678 81.6583" stroke="#5FA4F8" stroke-width="2" stroke-linecap="round" stroke-linejoin="round"/>
</svg>
