<svg width="30" height="31" viewBox="0 0 30 31" fill="none" xmlns="http://www.w3.org/2000/svg">
<path d="M29.5476 19.1712C27.5442 27.2069 19.4053 32.0973 11.3687 30.0934C3.33534 28.09 -1.55508 19.9507 0.449274 11.9155C2.45175 3.87882 10.5906 -1.01207 18.6249 0.991349C26.661 2.99477 31.551 11.135 29.5476 19.1712Z" fill="#F7931A"/>
<path fill-rule="evenodd" clip-rule="evenodd" d="M21.5257 13.7053C21.8184 11.7352 20.3291 10.676 18.2929 9.96949L18.9534 7.30063L17.3406 6.89577L16.6975 9.4943C16.2736 9.38787 15.8381 9.28747 15.4054 9.18799L16.0531 6.57234L14.4412 6.16748L13.7802 8.83541C13.4293 8.7549 13.0848 8.67532 12.7504 8.59157L12.7522 8.58324L10.528 8.02383L10.099 9.75896C10.099 9.75896 11.2956 10.0352 11.2703 10.0523C11.9235 10.2166 12.0416 10.652 12.0218 10.9971C11.4182 13.4363 10.8161 15.8686 10.212 18.3083C10.1321 18.5082 9.92949 18.808 9.4729 18.6942C9.48898 18.7178 8.30064 18.3994 8.30064 18.3994L7.5 20.259L9.59876 20.786C9.83313 20.8452 10.0647 20.906 10.2938 20.9662C10.4464 21.0063 10.598 21.0461 10.7485 21.0849L10.0811 23.7843L11.692 24.1892L12.353 21.5185C12.7931 21.6388 13.2203 21.7498 13.6383 21.8544L12.9796 24.5126L14.5923 24.9175L15.2598 22.2232C18.0099 22.7474 20.0779 22.536 20.9483 20.0304C21.6498 18.0131 20.9134 16.8494 19.4665 16.0905C20.5202 15.8458 21.314 15.1476 21.5257 13.7053ZM17.8405 18.9102C17.3832 20.761 14.5071 19.9958 13.1912 19.6457C13.0728 19.6142 12.967 19.5861 12.8768 19.5635L13.7624 15.9873C13.8723 16.0149 14.0065 16.0453 14.1586 16.0797C15.5197 16.3873 18.309 17.0178 17.8405 18.9102ZM14.4324 14.4201C15.5295 14.715 17.9227 15.3583 18.3396 13.6761C18.7653 11.9555 16.4393 11.4368 15.3033 11.1835C15.1755 11.155 15.0628 11.1299 14.9707 11.1068L14.1678 14.3503C14.2436 14.3693 14.3326 14.3933 14.4324 14.4201Z" fill="white"/>
</svg>
