<svg width="217" height="234" viewBox="0 0 217 234" fill="none" xmlns="http://www.w3.org/2000/svg">
<path d="M14.2306 71.2264L79.3692 26.2762C82.4549 24.1469 86.2484 23.3027 89.9459 23.9224L165.925 36.6582C169.602 37.2745 172.534 40.0576 173.255 43.7154C176.311 59.2079 181.514 89.6791 184.966 124.085C188.781 162.099 150.934 196.892 129.096 211.295C127.303 212.477 125.146 212.916 123.03 212.553C104.8 209.423 69.4554 200.044 50.9759 183.137C40.3645 173.428 32.4914 150.409 24.9729 127.26C19.4483 110.25 13.7584 93.2789 10.6113 80.465C9.74449 76.9355 11.2393 73.2906 14.2306 71.2264Z" stroke="#5FA4F8" stroke-width="2" stroke-linecap="round" stroke-linejoin="round"/>
<path d="M63.8737 168.188C48.9516 154.535 35.2899 104.061 30.6263 81.2436C30.47 80.4786 30.8072 79.7186 31.4645 79.2974L59.5126 61.3247L85.0116 42.4549C87.0821 40.9226 89.7046 40.3385 92.2297 40.8473L121.701 46.7846L154.849 51.2528C155.641 51.3595 156.279 51.9376 156.445 52.7191C158.729 63.478 164.512 93.1228 167.463 122.534C169.057 138.415 160.145 154.172 150.108 167.121C141.812 177.825 132.876 186.616 125.442 191.882C123.69 193.124 121.518 193.57 119.412 193.152C105.052 190.304 77.9209 181.04 63.8737 168.188Z" stroke="#5FA4F8" stroke-width="2" stroke-linecap="round" stroke-linejoin="round"/>
<path d="M106.529 159.173C95.8981 161.333 66.4415 121.772 72.1162 117.312C77.791 112.851 87.9877 126.065 103.341 139.187C112.814 110.888 123.582 62.3933 137.482 69.3622C146.343 73.8044 119.894 156.457 106.529 159.173Z" stroke="#5FA4F8" stroke-width="2" stroke-linecap="round" stroke-linejoin="round"/>
</svg>
