<svg width="27" height="27" viewBox="0 0 27 27" fill="none" xmlns="http://www.w3.org/2000/svg">
<path d="M20.25 3.375C19.3549 3.375 18.4964 3.73058 17.8635 4.36351C17.2306 4.99645 16.875 5.85489 16.875 6.75V20.25C16.875 21.1451 17.2306 22.0036 17.8635 22.6365C18.4964 23.2694 19.3549 23.625 20.25 23.625C21.1451 23.625 22.0036 23.2694 22.6365 22.6365C23.2694 22.0036 23.625 21.1451 23.625 20.25C23.625 19.3549 23.2694 18.4964 22.6365 17.8635C22.0036 17.2306 21.1451 16.875 20.25 16.875H6.75C5.85489 16.875 4.99645 17.2306 4.36351 17.8635C3.73058 18.4964 3.375 19.3549 3.375 20.25C3.375 21.1451 3.73058 22.0036 4.36351 22.6365C4.99645 23.2694 5.85489 23.625 6.75 23.625C7.64511 23.625 8.50355 23.2694 9.13649 22.6365C9.76942 22.0036 10.125 21.1451 10.125 20.25V6.75C10.125 5.85489 9.76942 4.99645 9.13649 4.36351C8.50355 3.73058 7.64511 3.375 6.75 3.375C5.85489 3.375 4.99645 3.73058 4.36351 4.36351C3.73058 4.99645 3.375 5.85489 3.375 6.75C3.375 7.64511 3.73058 8.50355 4.36351 9.13649C4.99645 9.76942 5.85489 10.125 6.75 10.125H20.25C21.1451 10.125 22.0036 9.76942 22.6365 9.13649C23.2694 8.50355 23.625 7.64511 23.625 6.75C23.625 5.85489 23.2694 4.99645 22.6365 4.36351C22.0036 3.73058 21.1451 3.375 20.25 3.375Z" stroke="white" stroke-width="2" stroke-linecap="round" stroke-linejoin="round"/>
</svg>
